G04 #@! TF.GenerationSoftware,KiCad,Pcbnew,(5.1.0-0)*
G04 #@! TF.CreationDate,2019-06-11T08:39:26-04:00*
G04 #@! TF.ProjectId,Power Board,506f7765-7220-4426-9f61-72642e6b6963,rev?*
G04 #@! TF.SameCoordinates,Original*
G04 #@! TF.FileFunction,Soldermask,Top*
G04 #@! TF.FilePolarity,Negative*
%FSLAX46Y46*%
G04 Gerber Fmt 4.6, Leading zero omitted, Abs format (unit mm)*
G04 Created by KiCad (PCBNEW (5.1.0-0)) date 2019-06-11 08:39:26*
%MOMM*%
%LPD*%
G04 APERTURE LIST*
%ADD10C,0.100000*%
%ADD11R,16.611600X4.621600*%
%ADD12C,1.351600*%
%ADD13C,1.251600*%
%ADD14C,1.211600*%
%ADD15C,0.501600*%
%ADD16C,3.257600*%
%ADD17C,0.511600*%
%ADD18C,1.751600*%
%ADD19C,1.301600*%
%ADD20C,2.401600*%
%ADD21C,1.801600*%
%ADD22R,1.801600X1.801600*%
%ADD23C,1.201600*%
%ADD24C,2.801600*%
%ADD25C,1.076600*%
%ADD26C,1.051600*%
%ADD27C,0.976600*%
G04 APERTURE END LIST*
D10*
G36*
X109502000Y-78384000D02*
G01*
X109502000Y-79094000D01*
X107922000Y-79094000D01*
X107922000Y-78384000D01*
X108232000Y-78384000D01*
X108232000Y-78734000D01*
X109192000Y-78734000D01*
X109192000Y-78384000D01*
X109502000Y-78384000D01*
G37*
X109502000Y-78384000D02*
X109502000Y-79094000D01*
X107922000Y-79094000D01*
X107922000Y-78384000D01*
X108232000Y-78384000D01*
X108232000Y-78734000D01*
X109192000Y-78734000D01*
X109192000Y-78384000D01*
X109502000Y-78384000D01*
D11*
X115316000Y-98453000D03*
X115316000Y-87983000D03*
D10*
G36*
X140031976Y-90375502D02*
G01*
X140058217Y-90379394D01*
X140083950Y-90385840D01*
X140108927Y-90394777D01*
X140132908Y-90406119D01*
X140155662Y-90419757D01*
X140176969Y-90435560D01*
X140196625Y-90453375D01*
X140214440Y-90473031D01*
X140230243Y-90494338D01*
X140243881Y-90517092D01*
X140255223Y-90541073D01*
X140264160Y-90566050D01*
X140270606Y-90591783D01*
X140274498Y-90618024D01*
X140275800Y-90644520D01*
X140275800Y-91955480D01*
X140274498Y-91981976D01*
X140270606Y-92008217D01*
X140264160Y-92033950D01*
X140255223Y-92058927D01*
X140243881Y-92082908D01*
X140230243Y-92105662D01*
X140214440Y-92126969D01*
X140196625Y-92146625D01*
X140176969Y-92164440D01*
X140155662Y-92180243D01*
X140132908Y-92193881D01*
X140108927Y-92205223D01*
X140083950Y-92214160D01*
X140058217Y-92220606D01*
X140031976Y-92224498D01*
X140005480Y-92225800D01*
X139194520Y-92225800D01*
X139168024Y-92224498D01*
X139141783Y-92220606D01*
X139116050Y-92214160D01*
X139091073Y-92205223D01*
X139067092Y-92193881D01*
X139044338Y-92180243D01*
X139023031Y-92164440D01*
X139003375Y-92146625D01*
X138985560Y-92126969D01*
X138969757Y-92105662D01*
X138956119Y-92082908D01*
X138944777Y-92058927D01*
X138935840Y-92033950D01*
X138929394Y-92008217D01*
X138925502Y-91981976D01*
X138924200Y-91955480D01*
X138924200Y-90644520D01*
X138925502Y-90618024D01*
X138929394Y-90591783D01*
X138935840Y-90566050D01*
X138944777Y-90541073D01*
X138956119Y-90517092D01*
X138969757Y-90494338D01*
X138985560Y-90473031D01*
X139003375Y-90453375D01*
X139023031Y-90435560D01*
X139044338Y-90419757D01*
X139067092Y-90406119D01*
X139091073Y-90394777D01*
X139116050Y-90385840D01*
X139141783Y-90379394D01*
X139168024Y-90375502D01*
X139194520Y-90374200D01*
X140005480Y-90374200D01*
X140031976Y-90375502D01*
X140031976Y-90375502D01*
G37*
D12*
X139600000Y-91300000D03*
D10*
G36*
X137231976Y-90375502D02*
G01*
X137258217Y-90379394D01*
X137283950Y-90385840D01*
X137308927Y-90394777D01*
X137332908Y-90406119D01*
X137355662Y-90419757D01*
X137376969Y-90435560D01*
X137396625Y-90453375D01*
X137414440Y-90473031D01*
X137430243Y-90494338D01*
X137443881Y-90517092D01*
X137455223Y-90541073D01*
X137464160Y-90566050D01*
X137470606Y-90591783D01*
X137474498Y-90618024D01*
X137475800Y-90644520D01*
X137475800Y-91955480D01*
X137474498Y-91981976D01*
X137470606Y-92008217D01*
X137464160Y-92033950D01*
X137455223Y-92058927D01*
X137443881Y-92082908D01*
X137430243Y-92105662D01*
X137414440Y-92126969D01*
X137396625Y-92146625D01*
X137376969Y-92164440D01*
X137355662Y-92180243D01*
X137332908Y-92193881D01*
X137308927Y-92205223D01*
X137283950Y-92214160D01*
X137258217Y-92220606D01*
X137231976Y-92224498D01*
X137205480Y-92225800D01*
X136394520Y-92225800D01*
X136368024Y-92224498D01*
X136341783Y-92220606D01*
X136316050Y-92214160D01*
X136291073Y-92205223D01*
X136267092Y-92193881D01*
X136244338Y-92180243D01*
X136223031Y-92164440D01*
X136203375Y-92146625D01*
X136185560Y-92126969D01*
X136169757Y-92105662D01*
X136156119Y-92082908D01*
X136144777Y-92058927D01*
X136135840Y-92033950D01*
X136129394Y-92008217D01*
X136125502Y-91981976D01*
X136124200Y-91955480D01*
X136124200Y-90644520D01*
X136125502Y-90618024D01*
X136129394Y-90591783D01*
X136135840Y-90566050D01*
X136144777Y-90541073D01*
X136156119Y-90517092D01*
X136169757Y-90494338D01*
X136185560Y-90473031D01*
X136203375Y-90453375D01*
X136223031Y-90435560D01*
X136244338Y-90419757D01*
X136267092Y-90406119D01*
X136291073Y-90394777D01*
X136316050Y-90385840D01*
X136341783Y-90379394D01*
X136368024Y-90375502D01*
X136394520Y-90374200D01*
X137205480Y-90374200D01*
X137231976Y-90375502D01*
X137231976Y-90375502D01*
G37*
D12*
X136800000Y-91300000D03*
D10*
G36*
X140031976Y-70575502D02*
G01*
X140058217Y-70579394D01*
X140083950Y-70585840D01*
X140108927Y-70594777D01*
X140132908Y-70606119D01*
X140155662Y-70619757D01*
X140176969Y-70635560D01*
X140196625Y-70653375D01*
X140214440Y-70673031D01*
X140230243Y-70694338D01*
X140243881Y-70717092D01*
X140255223Y-70741073D01*
X140264160Y-70766050D01*
X140270606Y-70791783D01*
X140274498Y-70818024D01*
X140275800Y-70844520D01*
X140275800Y-72155480D01*
X140274498Y-72181976D01*
X140270606Y-72208217D01*
X140264160Y-72233950D01*
X140255223Y-72258927D01*
X140243881Y-72282908D01*
X140230243Y-72305662D01*
X140214440Y-72326969D01*
X140196625Y-72346625D01*
X140176969Y-72364440D01*
X140155662Y-72380243D01*
X140132908Y-72393881D01*
X140108927Y-72405223D01*
X140083950Y-72414160D01*
X140058217Y-72420606D01*
X140031976Y-72424498D01*
X140005480Y-72425800D01*
X139194520Y-72425800D01*
X139168024Y-72424498D01*
X139141783Y-72420606D01*
X139116050Y-72414160D01*
X139091073Y-72405223D01*
X139067092Y-72393881D01*
X139044338Y-72380243D01*
X139023031Y-72364440D01*
X139003375Y-72346625D01*
X138985560Y-72326969D01*
X138969757Y-72305662D01*
X138956119Y-72282908D01*
X138944777Y-72258927D01*
X138935840Y-72233950D01*
X138929394Y-72208217D01*
X138925502Y-72181976D01*
X138924200Y-72155480D01*
X138924200Y-70844520D01*
X138925502Y-70818024D01*
X138929394Y-70791783D01*
X138935840Y-70766050D01*
X138944777Y-70741073D01*
X138956119Y-70717092D01*
X138969757Y-70694338D01*
X138985560Y-70673031D01*
X139003375Y-70653375D01*
X139023031Y-70635560D01*
X139044338Y-70619757D01*
X139067092Y-70606119D01*
X139091073Y-70594777D01*
X139116050Y-70585840D01*
X139141783Y-70579394D01*
X139168024Y-70575502D01*
X139194520Y-70574200D01*
X140005480Y-70574200D01*
X140031976Y-70575502D01*
X140031976Y-70575502D01*
G37*
D12*
X139600000Y-71500000D03*
D10*
G36*
X137231976Y-70575502D02*
G01*
X137258217Y-70579394D01*
X137283950Y-70585840D01*
X137308927Y-70594777D01*
X137332908Y-70606119D01*
X137355662Y-70619757D01*
X137376969Y-70635560D01*
X137396625Y-70653375D01*
X137414440Y-70673031D01*
X137430243Y-70694338D01*
X137443881Y-70717092D01*
X137455223Y-70741073D01*
X137464160Y-70766050D01*
X137470606Y-70791783D01*
X137474498Y-70818024D01*
X137475800Y-70844520D01*
X137475800Y-72155480D01*
X137474498Y-72181976D01*
X137470606Y-72208217D01*
X137464160Y-72233950D01*
X137455223Y-72258927D01*
X137443881Y-72282908D01*
X137430243Y-72305662D01*
X137414440Y-72326969D01*
X137396625Y-72346625D01*
X137376969Y-72364440D01*
X137355662Y-72380243D01*
X137332908Y-72393881D01*
X137308927Y-72405223D01*
X137283950Y-72414160D01*
X137258217Y-72420606D01*
X137231976Y-72424498D01*
X137205480Y-72425800D01*
X136394520Y-72425800D01*
X136368024Y-72424498D01*
X136341783Y-72420606D01*
X136316050Y-72414160D01*
X136291073Y-72405223D01*
X136267092Y-72393881D01*
X136244338Y-72380243D01*
X136223031Y-72364440D01*
X136203375Y-72346625D01*
X136185560Y-72326969D01*
X136169757Y-72305662D01*
X136156119Y-72282908D01*
X136144777Y-72258927D01*
X136135840Y-72233950D01*
X136129394Y-72208217D01*
X136125502Y-72181976D01*
X136124200Y-72155480D01*
X136124200Y-70844520D01*
X136125502Y-70818024D01*
X136129394Y-70791783D01*
X136135840Y-70766050D01*
X136144777Y-70741073D01*
X136156119Y-70717092D01*
X136169757Y-70694338D01*
X136185560Y-70673031D01*
X136203375Y-70653375D01*
X136223031Y-70635560D01*
X136244338Y-70619757D01*
X136267092Y-70606119D01*
X136291073Y-70594777D01*
X136316050Y-70585840D01*
X136341783Y-70579394D01*
X136368024Y-70575502D01*
X136394520Y-70574200D01*
X137205480Y-70574200D01*
X137231976Y-70575502D01*
X137231976Y-70575502D01*
G37*
D12*
X136800000Y-71500000D03*
D10*
G36*
X140031976Y-56575502D02*
G01*
X140058217Y-56579394D01*
X140083950Y-56585840D01*
X140108927Y-56594777D01*
X140132908Y-56606119D01*
X140155662Y-56619757D01*
X140176969Y-56635560D01*
X140196625Y-56653375D01*
X140214440Y-56673031D01*
X140230243Y-56694338D01*
X140243881Y-56717092D01*
X140255223Y-56741073D01*
X140264160Y-56766050D01*
X140270606Y-56791783D01*
X140274498Y-56818024D01*
X140275800Y-56844520D01*
X140275800Y-58155480D01*
X140274498Y-58181976D01*
X140270606Y-58208217D01*
X140264160Y-58233950D01*
X140255223Y-58258927D01*
X140243881Y-58282908D01*
X140230243Y-58305662D01*
X140214440Y-58326969D01*
X140196625Y-58346625D01*
X140176969Y-58364440D01*
X140155662Y-58380243D01*
X140132908Y-58393881D01*
X140108927Y-58405223D01*
X140083950Y-58414160D01*
X140058217Y-58420606D01*
X140031976Y-58424498D01*
X140005480Y-58425800D01*
X139194520Y-58425800D01*
X139168024Y-58424498D01*
X139141783Y-58420606D01*
X139116050Y-58414160D01*
X139091073Y-58405223D01*
X139067092Y-58393881D01*
X139044338Y-58380243D01*
X139023031Y-58364440D01*
X139003375Y-58346625D01*
X138985560Y-58326969D01*
X138969757Y-58305662D01*
X138956119Y-58282908D01*
X138944777Y-58258927D01*
X138935840Y-58233950D01*
X138929394Y-58208217D01*
X138925502Y-58181976D01*
X138924200Y-58155480D01*
X138924200Y-56844520D01*
X138925502Y-56818024D01*
X138929394Y-56791783D01*
X138935840Y-56766050D01*
X138944777Y-56741073D01*
X138956119Y-56717092D01*
X138969757Y-56694338D01*
X138985560Y-56673031D01*
X139003375Y-56653375D01*
X139023031Y-56635560D01*
X139044338Y-56619757D01*
X139067092Y-56606119D01*
X139091073Y-56594777D01*
X139116050Y-56585840D01*
X139141783Y-56579394D01*
X139168024Y-56575502D01*
X139194520Y-56574200D01*
X140005480Y-56574200D01*
X140031976Y-56575502D01*
X140031976Y-56575502D01*
G37*
D12*
X139600000Y-57500000D03*
D10*
G36*
X137231976Y-56575502D02*
G01*
X137258217Y-56579394D01*
X137283950Y-56585840D01*
X137308927Y-56594777D01*
X137332908Y-56606119D01*
X137355662Y-56619757D01*
X137376969Y-56635560D01*
X137396625Y-56653375D01*
X137414440Y-56673031D01*
X137430243Y-56694338D01*
X137443881Y-56717092D01*
X137455223Y-56741073D01*
X137464160Y-56766050D01*
X137470606Y-56791783D01*
X137474498Y-56818024D01*
X137475800Y-56844520D01*
X137475800Y-58155480D01*
X137474498Y-58181976D01*
X137470606Y-58208217D01*
X137464160Y-58233950D01*
X137455223Y-58258927D01*
X137443881Y-58282908D01*
X137430243Y-58305662D01*
X137414440Y-58326969D01*
X137396625Y-58346625D01*
X137376969Y-58364440D01*
X137355662Y-58380243D01*
X137332908Y-58393881D01*
X137308927Y-58405223D01*
X137283950Y-58414160D01*
X137258217Y-58420606D01*
X137231976Y-58424498D01*
X137205480Y-58425800D01*
X136394520Y-58425800D01*
X136368024Y-58424498D01*
X136341783Y-58420606D01*
X136316050Y-58414160D01*
X136291073Y-58405223D01*
X136267092Y-58393881D01*
X136244338Y-58380243D01*
X136223031Y-58364440D01*
X136203375Y-58346625D01*
X136185560Y-58326969D01*
X136169757Y-58305662D01*
X136156119Y-58282908D01*
X136144777Y-58258927D01*
X136135840Y-58233950D01*
X136129394Y-58208217D01*
X136125502Y-58181976D01*
X136124200Y-58155480D01*
X136124200Y-56844520D01*
X136125502Y-56818024D01*
X136129394Y-56791783D01*
X136135840Y-56766050D01*
X136144777Y-56741073D01*
X136156119Y-56717092D01*
X136169757Y-56694338D01*
X136185560Y-56673031D01*
X136203375Y-56653375D01*
X136223031Y-56635560D01*
X136244338Y-56619757D01*
X136267092Y-56606119D01*
X136291073Y-56594777D01*
X136316050Y-56585840D01*
X136341783Y-56579394D01*
X136368024Y-56575502D01*
X136394520Y-56574200D01*
X137205480Y-56574200D01*
X137231976Y-56575502D01*
X137231976Y-56575502D01*
G37*
D12*
X136800000Y-57500000D03*
D10*
G36*
X85131976Y-91075502D02*
G01*
X85158217Y-91079394D01*
X85183950Y-91085840D01*
X85208927Y-91094777D01*
X85232908Y-91106119D01*
X85255662Y-91119757D01*
X85276969Y-91135560D01*
X85296625Y-91153375D01*
X85314440Y-91173031D01*
X85330243Y-91194338D01*
X85343881Y-91217092D01*
X85355223Y-91241073D01*
X85364160Y-91266050D01*
X85370606Y-91291783D01*
X85374498Y-91318024D01*
X85375800Y-91344520D01*
X85375800Y-92655480D01*
X85374498Y-92681976D01*
X85370606Y-92708217D01*
X85364160Y-92733950D01*
X85355223Y-92758927D01*
X85343881Y-92782908D01*
X85330243Y-92805662D01*
X85314440Y-92826969D01*
X85296625Y-92846625D01*
X85276969Y-92864440D01*
X85255662Y-92880243D01*
X85232908Y-92893881D01*
X85208927Y-92905223D01*
X85183950Y-92914160D01*
X85158217Y-92920606D01*
X85131976Y-92924498D01*
X85105480Y-92925800D01*
X84294520Y-92925800D01*
X84268024Y-92924498D01*
X84241783Y-92920606D01*
X84216050Y-92914160D01*
X84191073Y-92905223D01*
X84167092Y-92893881D01*
X84144338Y-92880243D01*
X84123031Y-92864440D01*
X84103375Y-92846625D01*
X84085560Y-92826969D01*
X84069757Y-92805662D01*
X84056119Y-92782908D01*
X84044777Y-92758927D01*
X84035840Y-92733950D01*
X84029394Y-92708217D01*
X84025502Y-92681976D01*
X84024200Y-92655480D01*
X84024200Y-91344520D01*
X84025502Y-91318024D01*
X84029394Y-91291783D01*
X84035840Y-91266050D01*
X84044777Y-91241073D01*
X84056119Y-91217092D01*
X84069757Y-91194338D01*
X84085560Y-91173031D01*
X84103375Y-91153375D01*
X84123031Y-91135560D01*
X84144338Y-91119757D01*
X84167092Y-91106119D01*
X84191073Y-91094777D01*
X84216050Y-91085840D01*
X84241783Y-91079394D01*
X84268024Y-91075502D01*
X84294520Y-91074200D01*
X85105480Y-91074200D01*
X85131976Y-91075502D01*
X85131976Y-91075502D01*
G37*
D12*
X84700000Y-92000000D03*
D10*
G36*
X87931976Y-91075502D02*
G01*
X87958217Y-91079394D01*
X87983950Y-91085840D01*
X88008927Y-91094777D01*
X88032908Y-91106119D01*
X88055662Y-91119757D01*
X88076969Y-91135560D01*
X88096625Y-91153375D01*
X88114440Y-91173031D01*
X88130243Y-91194338D01*
X88143881Y-91217092D01*
X88155223Y-91241073D01*
X88164160Y-91266050D01*
X88170606Y-91291783D01*
X88174498Y-91318024D01*
X88175800Y-91344520D01*
X88175800Y-92655480D01*
X88174498Y-92681976D01*
X88170606Y-92708217D01*
X88164160Y-92733950D01*
X88155223Y-92758927D01*
X88143881Y-92782908D01*
X88130243Y-92805662D01*
X88114440Y-92826969D01*
X88096625Y-92846625D01*
X88076969Y-92864440D01*
X88055662Y-92880243D01*
X88032908Y-92893881D01*
X88008927Y-92905223D01*
X87983950Y-92914160D01*
X87958217Y-92920606D01*
X87931976Y-92924498D01*
X87905480Y-92925800D01*
X87094520Y-92925800D01*
X87068024Y-92924498D01*
X87041783Y-92920606D01*
X87016050Y-92914160D01*
X86991073Y-92905223D01*
X86967092Y-92893881D01*
X86944338Y-92880243D01*
X86923031Y-92864440D01*
X86903375Y-92846625D01*
X86885560Y-92826969D01*
X86869757Y-92805662D01*
X86856119Y-92782908D01*
X86844777Y-92758927D01*
X86835840Y-92733950D01*
X86829394Y-92708217D01*
X86825502Y-92681976D01*
X86824200Y-92655480D01*
X86824200Y-91344520D01*
X86825502Y-91318024D01*
X86829394Y-91291783D01*
X86835840Y-91266050D01*
X86844777Y-91241073D01*
X86856119Y-91217092D01*
X86869757Y-91194338D01*
X86885560Y-91173031D01*
X86903375Y-91153375D01*
X86923031Y-91135560D01*
X86944338Y-91119757D01*
X86967092Y-91106119D01*
X86991073Y-91094777D01*
X87016050Y-91085840D01*
X87041783Y-91079394D01*
X87068024Y-91075502D01*
X87094520Y-91074200D01*
X87905480Y-91074200D01*
X87931976Y-91075502D01*
X87931976Y-91075502D01*
G37*
D12*
X87500000Y-92000000D03*
D10*
G36*
X85131976Y-71275502D02*
G01*
X85158217Y-71279394D01*
X85183950Y-71285840D01*
X85208927Y-71294777D01*
X85232908Y-71306119D01*
X85255662Y-71319757D01*
X85276969Y-71335560D01*
X85296625Y-71353375D01*
X85314440Y-71373031D01*
X85330243Y-71394338D01*
X85343881Y-71417092D01*
X85355223Y-71441073D01*
X85364160Y-71466050D01*
X85370606Y-71491783D01*
X85374498Y-71518024D01*
X85375800Y-71544520D01*
X85375800Y-72855480D01*
X85374498Y-72881976D01*
X85370606Y-72908217D01*
X85364160Y-72933950D01*
X85355223Y-72958927D01*
X85343881Y-72982908D01*
X85330243Y-73005662D01*
X85314440Y-73026969D01*
X85296625Y-73046625D01*
X85276969Y-73064440D01*
X85255662Y-73080243D01*
X85232908Y-73093881D01*
X85208927Y-73105223D01*
X85183950Y-73114160D01*
X85158217Y-73120606D01*
X85131976Y-73124498D01*
X85105480Y-73125800D01*
X84294520Y-73125800D01*
X84268024Y-73124498D01*
X84241783Y-73120606D01*
X84216050Y-73114160D01*
X84191073Y-73105223D01*
X84167092Y-73093881D01*
X84144338Y-73080243D01*
X84123031Y-73064440D01*
X84103375Y-73046625D01*
X84085560Y-73026969D01*
X84069757Y-73005662D01*
X84056119Y-72982908D01*
X84044777Y-72958927D01*
X84035840Y-72933950D01*
X84029394Y-72908217D01*
X84025502Y-72881976D01*
X84024200Y-72855480D01*
X84024200Y-71544520D01*
X84025502Y-71518024D01*
X84029394Y-71491783D01*
X84035840Y-71466050D01*
X84044777Y-71441073D01*
X84056119Y-71417092D01*
X84069757Y-71394338D01*
X84085560Y-71373031D01*
X84103375Y-71353375D01*
X84123031Y-71335560D01*
X84144338Y-71319757D01*
X84167092Y-71306119D01*
X84191073Y-71294777D01*
X84216050Y-71285840D01*
X84241783Y-71279394D01*
X84268024Y-71275502D01*
X84294520Y-71274200D01*
X85105480Y-71274200D01*
X85131976Y-71275502D01*
X85131976Y-71275502D01*
G37*
D12*
X84700000Y-72200000D03*
D10*
G36*
X87931976Y-71275502D02*
G01*
X87958217Y-71279394D01*
X87983950Y-71285840D01*
X88008927Y-71294777D01*
X88032908Y-71306119D01*
X88055662Y-71319757D01*
X88076969Y-71335560D01*
X88096625Y-71353375D01*
X88114440Y-71373031D01*
X88130243Y-71394338D01*
X88143881Y-71417092D01*
X88155223Y-71441073D01*
X88164160Y-71466050D01*
X88170606Y-71491783D01*
X88174498Y-71518024D01*
X88175800Y-71544520D01*
X88175800Y-72855480D01*
X88174498Y-72881976D01*
X88170606Y-72908217D01*
X88164160Y-72933950D01*
X88155223Y-72958927D01*
X88143881Y-72982908D01*
X88130243Y-73005662D01*
X88114440Y-73026969D01*
X88096625Y-73046625D01*
X88076969Y-73064440D01*
X88055662Y-73080243D01*
X88032908Y-73093881D01*
X88008927Y-73105223D01*
X87983950Y-73114160D01*
X87958217Y-73120606D01*
X87931976Y-73124498D01*
X87905480Y-73125800D01*
X87094520Y-73125800D01*
X87068024Y-73124498D01*
X87041783Y-73120606D01*
X87016050Y-73114160D01*
X86991073Y-73105223D01*
X86967092Y-73093881D01*
X86944338Y-73080243D01*
X86923031Y-73064440D01*
X86903375Y-73046625D01*
X86885560Y-73026969D01*
X86869757Y-73005662D01*
X86856119Y-72982908D01*
X86844777Y-72958927D01*
X86835840Y-72933950D01*
X86829394Y-72908217D01*
X86825502Y-72881976D01*
X86824200Y-72855480D01*
X86824200Y-71544520D01*
X86825502Y-71518024D01*
X86829394Y-71491783D01*
X86835840Y-71466050D01*
X86844777Y-71441073D01*
X86856119Y-71417092D01*
X86869757Y-71394338D01*
X86885560Y-71373031D01*
X86903375Y-71353375D01*
X86923031Y-71335560D01*
X86944338Y-71319757D01*
X86967092Y-71306119D01*
X86991073Y-71294777D01*
X87016050Y-71285840D01*
X87041783Y-71279394D01*
X87068024Y-71275502D01*
X87094520Y-71274200D01*
X87905480Y-71274200D01*
X87931976Y-71275502D01*
X87931976Y-71275502D01*
G37*
D12*
X87500000Y-72200000D03*
D10*
G36*
X85131976Y-57275502D02*
G01*
X85158217Y-57279394D01*
X85183950Y-57285840D01*
X85208927Y-57294777D01*
X85232908Y-57306119D01*
X85255662Y-57319757D01*
X85276969Y-57335560D01*
X85296625Y-57353375D01*
X85314440Y-57373031D01*
X85330243Y-57394338D01*
X85343881Y-57417092D01*
X85355223Y-57441073D01*
X85364160Y-57466050D01*
X85370606Y-57491783D01*
X85374498Y-57518024D01*
X85375800Y-57544520D01*
X85375800Y-58855480D01*
X85374498Y-58881976D01*
X85370606Y-58908217D01*
X85364160Y-58933950D01*
X85355223Y-58958927D01*
X85343881Y-58982908D01*
X85330243Y-59005662D01*
X85314440Y-59026969D01*
X85296625Y-59046625D01*
X85276969Y-59064440D01*
X85255662Y-59080243D01*
X85232908Y-59093881D01*
X85208927Y-59105223D01*
X85183950Y-59114160D01*
X85158217Y-59120606D01*
X85131976Y-59124498D01*
X85105480Y-59125800D01*
X84294520Y-59125800D01*
X84268024Y-59124498D01*
X84241783Y-59120606D01*
X84216050Y-59114160D01*
X84191073Y-59105223D01*
X84167092Y-59093881D01*
X84144338Y-59080243D01*
X84123031Y-59064440D01*
X84103375Y-59046625D01*
X84085560Y-59026969D01*
X84069757Y-59005662D01*
X84056119Y-58982908D01*
X84044777Y-58958927D01*
X84035840Y-58933950D01*
X84029394Y-58908217D01*
X84025502Y-58881976D01*
X84024200Y-58855480D01*
X84024200Y-57544520D01*
X84025502Y-57518024D01*
X84029394Y-57491783D01*
X84035840Y-57466050D01*
X84044777Y-57441073D01*
X84056119Y-57417092D01*
X84069757Y-57394338D01*
X84085560Y-57373031D01*
X84103375Y-57353375D01*
X84123031Y-57335560D01*
X84144338Y-57319757D01*
X84167092Y-57306119D01*
X84191073Y-57294777D01*
X84216050Y-57285840D01*
X84241783Y-57279394D01*
X84268024Y-57275502D01*
X84294520Y-57274200D01*
X85105480Y-57274200D01*
X85131976Y-57275502D01*
X85131976Y-57275502D01*
G37*
D12*
X84700000Y-58200000D03*
D10*
G36*
X87931976Y-57275502D02*
G01*
X87958217Y-57279394D01*
X87983950Y-57285840D01*
X88008927Y-57294777D01*
X88032908Y-57306119D01*
X88055662Y-57319757D01*
X88076969Y-57335560D01*
X88096625Y-57353375D01*
X88114440Y-57373031D01*
X88130243Y-57394338D01*
X88143881Y-57417092D01*
X88155223Y-57441073D01*
X88164160Y-57466050D01*
X88170606Y-57491783D01*
X88174498Y-57518024D01*
X88175800Y-57544520D01*
X88175800Y-58855480D01*
X88174498Y-58881976D01*
X88170606Y-58908217D01*
X88164160Y-58933950D01*
X88155223Y-58958927D01*
X88143881Y-58982908D01*
X88130243Y-59005662D01*
X88114440Y-59026969D01*
X88096625Y-59046625D01*
X88076969Y-59064440D01*
X88055662Y-59080243D01*
X88032908Y-59093881D01*
X88008927Y-59105223D01*
X87983950Y-59114160D01*
X87958217Y-59120606D01*
X87931976Y-59124498D01*
X87905480Y-59125800D01*
X87094520Y-59125800D01*
X87068024Y-59124498D01*
X87041783Y-59120606D01*
X87016050Y-59114160D01*
X86991073Y-59105223D01*
X86967092Y-59093881D01*
X86944338Y-59080243D01*
X86923031Y-59064440D01*
X86903375Y-59046625D01*
X86885560Y-59026969D01*
X86869757Y-59005662D01*
X86856119Y-58982908D01*
X86844777Y-58958927D01*
X86835840Y-58933950D01*
X86829394Y-58908217D01*
X86825502Y-58881976D01*
X86824200Y-58855480D01*
X86824200Y-57544520D01*
X86825502Y-57518024D01*
X86829394Y-57491783D01*
X86835840Y-57466050D01*
X86844777Y-57441073D01*
X86856119Y-57417092D01*
X86869757Y-57394338D01*
X86885560Y-57373031D01*
X86903375Y-57353375D01*
X86923031Y-57335560D01*
X86944338Y-57319757D01*
X86967092Y-57306119D01*
X86991073Y-57294777D01*
X87016050Y-57285840D01*
X87041783Y-57279394D01*
X87068024Y-57275502D01*
X87094520Y-57274200D01*
X87905480Y-57274200D01*
X87931976Y-57275502D01*
X87931976Y-57275502D01*
G37*
D12*
X87500000Y-58200000D03*
D10*
G36*
X106611515Y-80043447D02*
G01*
X106616496Y-80044186D01*
X106621381Y-80045410D01*
X106626122Y-80047106D01*
X106630675Y-80049259D01*
X106634994Y-80051848D01*
X106639039Y-80054848D01*
X106642770Y-80058230D01*
X106646152Y-80061961D01*
X106649152Y-80066006D01*
X106651741Y-80070325D01*
X106653894Y-80074878D01*
X106655590Y-80079619D01*
X106656814Y-80084504D01*
X106657553Y-80089485D01*
X106657800Y-80094515D01*
X106657800Y-81403485D01*
X106657553Y-81408515D01*
X106656814Y-81413496D01*
X106655590Y-81418381D01*
X106653894Y-81423122D01*
X106651741Y-81427675D01*
X106649152Y-81431994D01*
X106646152Y-81436039D01*
X106642770Y-81439770D01*
X106639039Y-81443152D01*
X106634994Y-81446152D01*
X106630675Y-81448741D01*
X106626122Y-81450894D01*
X106621381Y-81452590D01*
X106616496Y-81453814D01*
X106611515Y-81454553D01*
X106606485Y-81454800D01*
X105457515Y-81454800D01*
X105452485Y-81454553D01*
X105447504Y-81453814D01*
X105442619Y-81452590D01*
X105437878Y-81450894D01*
X105433325Y-81448741D01*
X105429006Y-81446152D01*
X105424961Y-81443152D01*
X105421230Y-81439770D01*
X105417848Y-81436039D01*
X105414848Y-81431994D01*
X105412259Y-81427675D01*
X105410106Y-81423122D01*
X105408410Y-81418381D01*
X105407186Y-81413496D01*
X105406447Y-81408515D01*
X105406200Y-81403485D01*
X105406200Y-80094515D01*
X105406447Y-80089485D01*
X105407186Y-80084504D01*
X105408410Y-80079619D01*
X105410106Y-80074878D01*
X105412259Y-80070325D01*
X105414848Y-80066006D01*
X105417848Y-80061961D01*
X105421230Y-80058230D01*
X105424961Y-80054848D01*
X105429006Y-80051848D01*
X105433325Y-80049259D01*
X105437878Y-80047106D01*
X105442619Y-80045410D01*
X105447504Y-80044186D01*
X105452485Y-80043447D01*
X105457515Y-80043200D01*
X106606485Y-80043200D01*
X106611515Y-80043447D01*
X106611515Y-80043447D01*
G37*
D13*
X106032000Y-80749000D03*
D10*
G36*
X106611515Y-81613447D02*
G01*
X106616496Y-81614186D01*
X106621381Y-81615410D01*
X106626122Y-81617106D01*
X106630675Y-81619259D01*
X106634994Y-81621848D01*
X106639039Y-81624848D01*
X106642770Y-81628230D01*
X106646152Y-81631961D01*
X106649152Y-81636006D01*
X106651741Y-81640325D01*
X106653894Y-81644878D01*
X106655590Y-81649619D01*
X106656814Y-81654504D01*
X106657553Y-81659485D01*
X106657800Y-81664515D01*
X106657800Y-82973485D01*
X106657553Y-82978515D01*
X106656814Y-82983496D01*
X106655590Y-82988381D01*
X106653894Y-82993122D01*
X106651741Y-82997675D01*
X106649152Y-83001994D01*
X106646152Y-83006039D01*
X106642770Y-83009770D01*
X106639039Y-83013152D01*
X106634994Y-83016152D01*
X106630675Y-83018741D01*
X106626122Y-83020894D01*
X106621381Y-83022590D01*
X106616496Y-83023814D01*
X106611515Y-83024553D01*
X106606485Y-83024800D01*
X105457515Y-83024800D01*
X105452485Y-83024553D01*
X105447504Y-83023814D01*
X105442619Y-83022590D01*
X105437878Y-83020894D01*
X105433325Y-83018741D01*
X105429006Y-83016152D01*
X105424961Y-83013152D01*
X105421230Y-83009770D01*
X105417848Y-83006039D01*
X105414848Y-83001994D01*
X105412259Y-82997675D01*
X105410106Y-82993122D01*
X105408410Y-82988381D01*
X105407186Y-82983496D01*
X105406447Y-82978515D01*
X105406200Y-82973485D01*
X105406200Y-81664515D01*
X105406447Y-81659485D01*
X105407186Y-81654504D01*
X105408410Y-81649619D01*
X105410106Y-81644878D01*
X105412259Y-81640325D01*
X105414848Y-81636006D01*
X105417848Y-81631961D01*
X105421230Y-81628230D01*
X105424961Y-81624848D01*
X105429006Y-81621848D01*
X105433325Y-81619259D01*
X105437878Y-81617106D01*
X105442619Y-81615410D01*
X105447504Y-81614186D01*
X105452485Y-81613447D01*
X105457515Y-81613200D01*
X106606485Y-81613200D01*
X106611515Y-81613447D01*
X106611515Y-81613447D01*
G37*
D13*
X106032000Y-82319000D03*
D10*
G36*
X109431515Y-81613447D02*
G01*
X109436496Y-81614186D01*
X109441381Y-81615410D01*
X109446122Y-81617106D01*
X109450675Y-81619259D01*
X109454994Y-81621848D01*
X109459039Y-81624848D01*
X109462770Y-81628230D01*
X109466152Y-81631961D01*
X109469152Y-81636006D01*
X109471741Y-81640325D01*
X109473894Y-81644878D01*
X109475590Y-81649619D01*
X109476814Y-81654504D01*
X109477553Y-81659485D01*
X109477800Y-81664515D01*
X109477800Y-82973485D01*
X109477553Y-82978515D01*
X109476814Y-82983496D01*
X109475590Y-82988381D01*
X109473894Y-82993122D01*
X109471741Y-82997675D01*
X109469152Y-83001994D01*
X109466152Y-83006039D01*
X109462770Y-83009770D01*
X109459039Y-83013152D01*
X109454994Y-83016152D01*
X109450675Y-83018741D01*
X109446122Y-83020894D01*
X109441381Y-83022590D01*
X109436496Y-83023814D01*
X109431515Y-83024553D01*
X109426485Y-83024800D01*
X108277515Y-83024800D01*
X108272485Y-83024553D01*
X108267504Y-83023814D01*
X108262619Y-83022590D01*
X108257878Y-83020894D01*
X108253325Y-83018741D01*
X108249006Y-83016152D01*
X108244961Y-83013152D01*
X108241230Y-83009770D01*
X108237848Y-83006039D01*
X108234848Y-83001994D01*
X108232259Y-82997675D01*
X108230106Y-82993122D01*
X108228410Y-82988381D01*
X108227186Y-82983496D01*
X108226447Y-82978515D01*
X108226200Y-82973485D01*
X108226200Y-81664515D01*
X108226447Y-81659485D01*
X108227186Y-81654504D01*
X108228410Y-81649619D01*
X108230106Y-81644878D01*
X108232259Y-81640325D01*
X108234848Y-81636006D01*
X108237848Y-81631961D01*
X108241230Y-81628230D01*
X108244961Y-81624848D01*
X108249006Y-81621848D01*
X108253325Y-81619259D01*
X108257878Y-81617106D01*
X108262619Y-81615410D01*
X108267504Y-81614186D01*
X108272485Y-81613447D01*
X108277515Y-81613200D01*
X109426485Y-81613200D01*
X109431515Y-81613447D01*
X109431515Y-81613447D01*
G37*
D13*
X108852000Y-82319000D03*
D10*
G36*
X109412994Y-80043439D02*
G01*
X109417816Y-80044154D01*
X109422545Y-80045339D01*
X109427135Y-80046981D01*
X109431542Y-80049066D01*
X109435723Y-80051572D01*
X109439638Y-80054476D01*
X109443251Y-80057749D01*
X109446524Y-80061362D01*
X109449428Y-80065277D01*
X109451934Y-80069458D01*
X109454019Y-80073865D01*
X109455661Y-80078455D01*
X109456846Y-80083184D01*
X109457561Y-80088006D01*
X109457800Y-80092875D01*
X109457800Y-81405125D01*
X109457561Y-81409994D01*
X109456846Y-81414816D01*
X109455661Y-81419545D01*
X109454019Y-81424135D01*
X109451934Y-81428542D01*
X109449428Y-81432723D01*
X109446524Y-81436638D01*
X109443251Y-81440251D01*
X109439638Y-81443524D01*
X109435723Y-81446428D01*
X109431542Y-81448934D01*
X109427135Y-81451019D01*
X109422545Y-81452661D01*
X109417816Y-81453846D01*
X109412994Y-81454561D01*
X109408125Y-81454800D01*
X108295875Y-81454800D01*
X108291006Y-81454561D01*
X108286184Y-81453846D01*
X108281455Y-81452661D01*
X108276865Y-81451019D01*
X108272458Y-81448934D01*
X108268277Y-81446428D01*
X108264362Y-81443524D01*
X108260749Y-81440251D01*
X108257476Y-81436638D01*
X108254572Y-81432723D01*
X108252066Y-81428542D01*
X108249981Y-81424135D01*
X108248339Y-81419545D01*
X108247154Y-81414816D01*
X108246439Y-81409994D01*
X108246200Y-81405125D01*
X108246200Y-80092875D01*
X108246439Y-80088006D01*
X108247154Y-80083184D01*
X108248339Y-80078455D01*
X108249981Y-80073865D01*
X108252066Y-80069458D01*
X108254572Y-80065277D01*
X108257476Y-80061362D01*
X108260749Y-80057749D01*
X108264362Y-80054476D01*
X108268277Y-80051572D01*
X108272458Y-80049066D01*
X108276865Y-80046981D01*
X108281455Y-80045339D01*
X108286184Y-80044154D01*
X108291006Y-80043439D01*
X108295875Y-80043200D01*
X109408125Y-80043200D01*
X109412994Y-80043439D01*
X109412994Y-80043439D01*
G37*
D14*
X108852000Y-80749000D03*
D10*
G36*
X108021515Y-80043447D02*
G01*
X108026496Y-80044186D01*
X108031381Y-80045410D01*
X108036122Y-80047106D01*
X108040675Y-80049259D01*
X108044994Y-80051848D01*
X108049039Y-80054848D01*
X108052770Y-80058230D01*
X108056152Y-80061961D01*
X108059152Y-80066006D01*
X108061741Y-80070325D01*
X108063894Y-80074878D01*
X108065590Y-80079619D01*
X108066814Y-80084504D01*
X108067553Y-80089485D01*
X108067800Y-80094515D01*
X108067800Y-81403485D01*
X108067553Y-81408515D01*
X108066814Y-81413496D01*
X108065590Y-81418381D01*
X108063894Y-81423122D01*
X108061741Y-81427675D01*
X108059152Y-81431994D01*
X108056152Y-81436039D01*
X108052770Y-81439770D01*
X108049039Y-81443152D01*
X108044994Y-81446152D01*
X108040675Y-81448741D01*
X108036122Y-81450894D01*
X108031381Y-81452590D01*
X108026496Y-81453814D01*
X108021515Y-81454553D01*
X108016485Y-81454800D01*
X106867515Y-81454800D01*
X106862485Y-81454553D01*
X106857504Y-81453814D01*
X106852619Y-81452590D01*
X106847878Y-81450894D01*
X106843325Y-81448741D01*
X106839006Y-81446152D01*
X106834961Y-81443152D01*
X106831230Y-81439770D01*
X106827848Y-81436039D01*
X106824848Y-81431994D01*
X106822259Y-81427675D01*
X106820106Y-81423122D01*
X106818410Y-81418381D01*
X106817186Y-81413496D01*
X106816447Y-81408515D01*
X106816200Y-81403485D01*
X106816200Y-80094515D01*
X106816447Y-80089485D01*
X106817186Y-80084504D01*
X106818410Y-80079619D01*
X106820106Y-80074878D01*
X106822259Y-80070325D01*
X106824848Y-80066006D01*
X106827848Y-80061961D01*
X106831230Y-80058230D01*
X106834961Y-80054848D01*
X106839006Y-80051848D01*
X106843325Y-80049259D01*
X106847878Y-80047106D01*
X106852619Y-80045410D01*
X106857504Y-80044186D01*
X106862485Y-80043447D01*
X106867515Y-80043200D01*
X108016485Y-80043200D01*
X108021515Y-80043447D01*
X108021515Y-80043447D01*
G37*
D13*
X107442000Y-80749000D03*
D10*
G36*
X108021515Y-81613447D02*
G01*
X108026496Y-81614186D01*
X108031381Y-81615410D01*
X108036122Y-81617106D01*
X108040675Y-81619259D01*
X108044994Y-81621848D01*
X108049039Y-81624848D01*
X108052770Y-81628230D01*
X108056152Y-81631961D01*
X108059152Y-81636006D01*
X108061741Y-81640325D01*
X108063894Y-81644878D01*
X108065590Y-81649619D01*
X108066814Y-81654504D01*
X108067553Y-81659485D01*
X108067800Y-81664515D01*
X108067800Y-82973485D01*
X108067553Y-82978515D01*
X108066814Y-82983496D01*
X108065590Y-82988381D01*
X108063894Y-82993122D01*
X108061741Y-82997675D01*
X108059152Y-83001994D01*
X108056152Y-83006039D01*
X108052770Y-83009770D01*
X108049039Y-83013152D01*
X108044994Y-83016152D01*
X108040675Y-83018741D01*
X108036122Y-83020894D01*
X108031381Y-83022590D01*
X108026496Y-83023814D01*
X108021515Y-83024553D01*
X108016485Y-83024800D01*
X106867515Y-83024800D01*
X106862485Y-83024553D01*
X106857504Y-83023814D01*
X106852619Y-83022590D01*
X106847878Y-83020894D01*
X106843325Y-83018741D01*
X106839006Y-83016152D01*
X106834961Y-83013152D01*
X106831230Y-83009770D01*
X106827848Y-83006039D01*
X106824848Y-83001994D01*
X106822259Y-82997675D01*
X106820106Y-82993122D01*
X106818410Y-82988381D01*
X106817186Y-82983496D01*
X106816447Y-82978515D01*
X106816200Y-82973485D01*
X106816200Y-81664515D01*
X106816447Y-81659485D01*
X106817186Y-81654504D01*
X106818410Y-81649619D01*
X106820106Y-81644878D01*
X106822259Y-81640325D01*
X106824848Y-81636006D01*
X106827848Y-81631961D01*
X106831230Y-81628230D01*
X106834961Y-81624848D01*
X106839006Y-81621848D01*
X106843325Y-81619259D01*
X106847878Y-81617106D01*
X106852619Y-81615410D01*
X106857504Y-81614186D01*
X106862485Y-81613447D01*
X106867515Y-81613200D01*
X108016485Y-81613200D01*
X108021515Y-81613447D01*
X108021515Y-81613447D01*
G37*
D13*
X107442000Y-82319000D03*
D15*
X105532000Y-81534000D03*
X106737000Y-82862000D03*
X106737000Y-81534000D03*
X106737000Y-80206000D03*
X108147000Y-80206000D03*
X108147000Y-82862000D03*
X109352000Y-81534000D03*
X108147000Y-81534000D03*
D10*
G36*
X109605288Y-79905451D02*
G01*
X109610347Y-79906201D01*
X109615309Y-79907444D01*
X109620125Y-79909167D01*
X109624749Y-79911354D01*
X109629136Y-79913984D01*
X109633244Y-79917031D01*
X109637034Y-79920466D01*
X109640469Y-79924256D01*
X109643516Y-79928364D01*
X109646146Y-79932751D01*
X109648333Y-79937375D01*
X109650056Y-79942191D01*
X109651299Y-79947153D01*
X109652049Y-79952212D01*
X109652300Y-79957321D01*
X109652300Y-83110679D01*
X109652049Y-83115788D01*
X109651299Y-83120847D01*
X109650056Y-83125809D01*
X109648333Y-83130625D01*
X109646146Y-83135249D01*
X109643516Y-83139636D01*
X109640469Y-83143744D01*
X109637034Y-83147534D01*
X109633244Y-83150969D01*
X109629136Y-83154016D01*
X109624749Y-83156646D01*
X109620125Y-83158833D01*
X109615309Y-83160556D01*
X109610347Y-83161799D01*
X109605288Y-83162549D01*
X109600179Y-83162800D01*
X105283821Y-83162800D01*
X105278712Y-83162549D01*
X105273653Y-83161799D01*
X105268691Y-83160556D01*
X105263875Y-83158833D01*
X105259251Y-83156646D01*
X105254864Y-83154016D01*
X105250756Y-83150969D01*
X105246966Y-83147534D01*
X105243531Y-83143744D01*
X105240484Y-83139636D01*
X105237854Y-83135249D01*
X105235667Y-83130625D01*
X105233944Y-83125809D01*
X105232701Y-83120847D01*
X105231951Y-83115788D01*
X105231700Y-83110679D01*
X105231700Y-79957321D01*
X105231951Y-79952212D01*
X105232701Y-79947153D01*
X105233944Y-79942191D01*
X105235667Y-79937375D01*
X105237854Y-79932751D01*
X105240484Y-79928364D01*
X105243531Y-79924256D01*
X105246966Y-79920466D01*
X105250756Y-79917031D01*
X105254864Y-79913984D01*
X105259251Y-79911354D01*
X105263875Y-79909167D01*
X105268691Y-79907444D01*
X105273653Y-79906201D01*
X105278712Y-79905451D01*
X105283821Y-79905200D01*
X109600179Y-79905200D01*
X109605288Y-79905451D01*
X109605288Y-79905451D01*
G37*
D16*
X107442000Y-81534000D03*
D10*
G36*
X109546503Y-83873501D02*
G01*
X109552562Y-83874399D01*
X109558503Y-83875888D01*
X109564270Y-83877951D01*
X109569807Y-83880570D01*
X109575061Y-83883719D01*
X109579981Y-83887368D01*
X109584519Y-83891481D01*
X109588632Y-83896019D01*
X109592281Y-83900939D01*
X109595430Y-83906193D01*
X109598049Y-83911730D01*
X109600112Y-83917497D01*
X109601601Y-83923438D01*
X109602499Y-83929497D01*
X109602800Y-83935615D01*
X109602800Y-84722385D01*
X109602499Y-84728503D01*
X109601601Y-84734562D01*
X109600112Y-84740503D01*
X109598049Y-84746270D01*
X109595430Y-84751807D01*
X109592281Y-84757061D01*
X109588632Y-84761981D01*
X109584519Y-84766519D01*
X109579981Y-84770632D01*
X109575061Y-84774281D01*
X109569807Y-84777430D01*
X109564270Y-84780049D01*
X109558503Y-84782112D01*
X109552562Y-84783601D01*
X109546503Y-84784499D01*
X109540385Y-84784800D01*
X109153615Y-84784800D01*
X109147497Y-84784499D01*
X109141438Y-84783601D01*
X109135497Y-84782112D01*
X109129730Y-84780049D01*
X109124193Y-84777430D01*
X109118939Y-84774281D01*
X109114019Y-84770632D01*
X109109481Y-84766519D01*
X109105368Y-84761981D01*
X109101719Y-84757061D01*
X109098570Y-84751807D01*
X109095951Y-84746270D01*
X109093888Y-84740503D01*
X109092399Y-84734562D01*
X109091501Y-84728503D01*
X109091200Y-84722385D01*
X109091200Y-83935615D01*
X109091501Y-83929497D01*
X109092399Y-83923438D01*
X109093888Y-83917497D01*
X109095951Y-83911730D01*
X109098570Y-83906193D01*
X109101719Y-83900939D01*
X109105368Y-83896019D01*
X109109481Y-83891481D01*
X109114019Y-83887368D01*
X109118939Y-83883719D01*
X109124193Y-83880570D01*
X109129730Y-83877951D01*
X109135497Y-83875888D01*
X109141438Y-83874399D01*
X109147497Y-83873501D01*
X109153615Y-83873200D01*
X109540385Y-83873200D01*
X109546503Y-83873501D01*
X109546503Y-83873501D01*
G37*
D17*
X109347000Y-84329000D03*
D10*
G36*
X108276503Y-83873501D02*
G01*
X108282562Y-83874399D01*
X108288503Y-83875888D01*
X108294270Y-83877951D01*
X108299807Y-83880570D01*
X108305061Y-83883719D01*
X108309981Y-83887368D01*
X108314519Y-83891481D01*
X108318632Y-83896019D01*
X108322281Y-83900939D01*
X108325430Y-83906193D01*
X108328049Y-83911730D01*
X108330112Y-83917497D01*
X108331601Y-83923438D01*
X108332499Y-83929497D01*
X108332800Y-83935615D01*
X108332800Y-84722385D01*
X108332499Y-84728503D01*
X108331601Y-84734562D01*
X108330112Y-84740503D01*
X108328049Y-84746270D01*
X108325430Y-84751807D01*
X108322281Y-84757061D01*
X108318632Y-84761981D01*
X108314519Y-84766519D01*
X108309981Y-84770632D01*
X108305061Y-84774281D01*
X108299807Y-84777430D01*
X108294270Y-84780049D01*
X108288503Y-84782112D01*
X108282562Y-84783601D01*
X108276503Y-84784499D01*
X108270385Y-84784800D01*
X107883615Y-84784800D01*
X107877497Y-84784499D01*
X107871438Y-84783601D01*
X107865497Y-84782112D01*
X107859730Y-84780049D01*
X107854193Y-84777430D01*
X107848939Y-84774281D01*
X107844019Y-84770632D01*
X107839481Y-84766519D01*
X107835368Y-84761981D01*
X107831719Y-84757061D01*
X107828570Y-84751807D01*
X107825951Y-84746270D01*
X107823888Y-84740503D01*
X107822399Y-84734562D01*
X107821501Y-84728503D01*
X107821200Y-84722385D01*
X107821200Y-83935615D01*
X107821501Y-83929497D01*
X107822399Y-83923438D01*
X107823888Y-83917497D01*
X107825951Y-83911730D01*
X107828570Y-83906193D01*
X107831719Y-83900939D01*
X107835368Y-83896019D01*
X107839481Y-83891481D01*
X107844019Y-83887368D01*
X107848939Y-83883719D01*
X107854193Y-83880570D01*
X107859730Y-83877951D01*
X107865497Y-83875888D01*
X107871438Y-83874399D01*
X107877497Y-83873501D01*
X107883615Y-83873200D01*
X108270385Y-83873200D01*
X108276503Y-83873501D01*
X108276503Y-83873501D01*
G37*
D17*
X108077000Y-84329000D03*
D10*
G36*
X107006503Y-83873501D02*
G01*
X107012562Y-83874399D01*
X107018503Y-83875888D01*
X107024270Y-83877951D01*
X107029807Y-83880570D01*
X107035061Y-83883719D01*
X107039981Y-83887368D01*
X107044519Y-83891481D01*
X107048632Y-83896019D01*
X107052281Y-83900939D01*
X107055430Y-83906193D01*
X107058049Y-83911730D01*
X107060112Y-83917497D01*
X107061601Y-83923438D01*
X107062499Y-83929497D01*
X107062800Y-83935615D01*
X107062800Y-84722385D01*
X107062499Y-84728503D01*
X107061601Y-84734562D01*
X107060112Y-84740503D01*
X107058049Y-84746270D01*
X107055430Y-84751807D01*
X107052281Y-84757061D01*
X107048632Y-84761981D01*
X107044519Y-84766519D01*
X107039981Y-84770632D01*
X107035061Y-84774281D01*
X107029807Y-84777430D01*
X107024270Y-84780049D01*
X107018503Y-84782112D01*
X107012562Y-84783601D01*
X107006503Y-84784499D01*
X107000385Y-84784800D01*
X106613615Y-84784800D01*
X106607497Y-84784499D01*
X106601438Y-84783601D01*
X106595497Y-84782112D01*
X106589730Y-84780049D01*
X106584193Y-84777430D01*
X106578939Y-84774281D01*
X106574019Y-84770632D01*
X106569481Y-84766519D01*
X106565368Y-84761981D01*
X106561719Y-84757061D01*
X106558570Y-84751807D01*
X106555951Y-84746270D01*
X106553888Y-84740503D01*
X106552399Y-84734562D01*
X106551501Y-84728503D01*
X106551200Y-84722385D01*
X106551200Y-83935615D01*
X106551501Y-83929497D01*
X106552399Y-83923438D01*
X106553888Y-83917497D01*
X106555951Y-83911730D01*
X106558570Y-83906193D01*
X106561719Y-83900939D01*
X106565368Y-83896019D01*
X106569481Y-83891481D01*
X106574019Y-83887368D01*
X106578939Y-83883719D01*
X106584193Y-83880570D01*
X106589730Y-83877951D01*
X106595497Y-83875888D01*
X106601438Y-83874399D01*
X106607497Y-83873501D01*
X106613615Y-83873200D01*
X107000385Y-83873200D01*
X107006503Y-83873501D01*
X107006503Y-83873501D01*
G37*
D17*
X106807000Y-84329000D03*
D10*
G36*
X105736503Y-83873501D02*
G01*
X105742562Y-83874399D01*
X105748503Y-83875888D01*
X105754270Y-83877951D01*
X105759807Y-83880570D01*
X105765061Y-83883719D01*
X105769981Y-83887368D01*
X105774519Y-83891481D01*
X105778632Y-83896019D01*
X105782281Y-83900939D01*
X105785430Y-83906193D01*
X105788049Y-83911730D01*
X105790112Y-83917497D01*
X105791601Y-83923438D01*
X105792499Y-83929497D01*
X105792800Y-83935615D01*
X105792800Y-84722385D01*
X105792499Y-84728503D01*
X105791601Y-84734562D01*
X105790112Y-84740503D01*
X105788049Y-84746270D01*
X105785430Y-84751807D01*
X105782281Y-84757061D01*
X105778632Y-84761981D01*
X105774519Y-84766519D01*
X105769981Y-84770632D01*
X105765061Y-84774281D01*
X105759807Y-84777430D01*
X105754270Y-84780049D01*
X105748503Y-84782112D01*
X105742562Y-84783601D01*
X105736503Y-84784499D01*
X105730385Y-84784800D01*
X105343615Y-84784800D01*
X105337497Y-84784499D01*
X105331438Y-84783601D01*
X105325497Y-84782112D01*
X105319730Y-84780049D01*
X105314193Y-84777430D01*
X105308939Y-84774281D01*
X105304019Y-84770632D01*
X105299481Y-84766519D01*
X105295368Y-84761981D01*
X105291719Y-84757061D01*
X105288570Y-84751807D01*
X105285951Y-84746270D01*
X105283888Y-84740503D01*
X105282399Y-84734562D01*
X105281501Y-84728503D01*
X105281200Y-84722385D01*
X105281200Y-83935615D01*
X105281501Y-83929497D01*
X105282399Y-83923438D01*
X105283888Y-83917497D01*
X105285951Y-83911730D01*
X105288570Y-83906193D01*
X105291719Y-83900939D01*
X105295368Y-83896019D01*
X105299481Y-83891481D01*
X105304019Y-83887368D01*
X105308939Y-83883719D01*
X105314193Y-83880570D01*
X105319730Y-83877951D01*
X105325497Y-83875888D01*
X105331438Y-83874399D01*
X105337497Y-83873501D01*
X105343615Y-83873200D01*
X105730385Y-83873200D01*
X105736503Y-83873501D01*
X105736503Y-83873501D01*
G37*
D17*
X105537000Y-84329000D03*
D10*
G36*
X105736503Y-78283501D02*
G01*
X105742562Y-78284399D01*
X105748503Y-78285888D01*
X105754270Y-78287951D01*
X105759807Y-78290570D01*
X105765061Y-78293719D01*
X105769981Y-78297368D01*
X105774519Y-78301481D01*
X105778632Y-78306019D01*
X105782281Y-78310939D01*
X105785430Y-78316193D01*
X105788049Y-78321730D01*
X105790112Y-78327497D01*
X105791601Y-78333438D01*
X105792499Y-78339497D01*
X105792800Y-78345615D01*
X105792800Y-79132385D01*
X105792499Y-79138503D01*
X105791601Y-79144562D01*
X105790112Y-79150503D01*
X105788049Y-79156270D01*
X105785430Y-79161807D01*
X105782281Y-79167061D01*
X105778632Y-79171981D01*
X105774519Y-79176519D01*
X105769981Y-79180632D01*
X105765061Y-79184281D01*
X105759807Y-79187430D01*
X105754270Y-79190049D01*
X105748503Y-79192112D01*
X105742562Y-79193601D01*
X105736503Y-79194499D01*
X105730385Y-79194800D01*
X105343615Y-79194800D01*
X105337497Y-79194499D01*
X105331438Y-79193601D01*
X105325497Y-79192112D01*
X105319730Y-79190049D01*
X105314193Y-79187430D01*
X105308939Y-79184281D01*
X105304019Y-79180632D01*
X105299481Y-79176519D01*
X105295368Y-79171981D01*
X105291719Y-79167061D01*
X105288570Y-79161807D01*
X105285951Y-79156270D01*
X105283888Y-79150503D01*
X105282399Y-79144562D01*
X105281501Y-79138503D01*
X105281200Y-79132385D01*
X105281200Y-78345615D01*
X105281501Y-78339497D01*
X105282399Y-78333438D01*
X105283888Y-78327497D01*
X105285951Y-78321730D01*
X105288570Y-78316193D01*
X105291719Y-78310939D01*
X105295368Y-78306019D01*
X105299481Y-78301481D01*
X105304019Y-78297368D01*
X105308939Y-78293719D01*
X105314193Y-78290570D01*
X105319730Y-78287951D01*
X105325497Y-78285888D01*
X105331438Y-78284399D01*
X105337497Y-78283501D01*
X105343615Y-78283200D01*
X105730385Y-78283200D01*
X105736503Y-78283501D01*
X105736503Y-78283501D01*
G37*
D17*
X105537000Y-78739000D03*
D10*
G36*
X107006503Y-78283501D02*
G01*
X107012562Y-78284399D01*
X107018503Y-78285888D01*
X107024270Y-78287951D01*
X107029807Y-78290570D01*
X107035061Y-78293719D01*
X107039981Y-78297368D01*
X107044519Y-78301481D01*
X107048632Y-78306019D01*
X107052281Y-78310939D01*
X107055430Y-78316193D01*
X107058049Y-78321730D01*
X107060112Y-78327497D01*
X107061601Y-78333438D01*
X107062499Y-78339497D01*
X107062800Y-78345615D01*
X107062800Y-79132385D01*
X107062499Y-79138503D01*
X107061601Y-79144562D01*
X107060112Y-79150503D01*
X107058049Y-79156270D01*
X107055430Y-79161807D01*
X107052281Y-79167061D01*
X107048632Y-79171981D01*
X107044519Y-79176519D01*
X107039981Y-79180632D01*
X107035061Y-79184281D01*
X107029807Y-79187430D01*
X107024270Y-79190049D01*
X107018503Y-79192112D01*
X107012562Y-79193601D01*
X107006503Y-79194499D01*
X107000385Y-79194800D01*
X106613615Y-79194800D01*
X106607497Y-79194499D01*
X106601438Y-79193601D01*
X106595497Y-79192112D01*
X106589730Y-79190049D01*
X106584193Y-79187430D01*
X106578939Y-79184281D01*
X106574019Y-79180632D01*
X106569481Y-79176519D01*
X106565368Y-79171981D01*
X106561719Y-79167061D01*
X106558570Y-79161807D01*
X106555951Y-79156270D01*
X106553888Y-79150503D01*
X106552399Y-79144562D01*
X106551501Y-79138503D01*
X106551200Y-79132385D01*
X106551200Y-78345615D01*
X106551501Y-78339497D01*
X106552399Y-78333438D01*
X106553888Y-78327497D01*
X106555951Y-78321730D01*
X106558570Y-78316193D01*
X106561719Y-78310939D01*
X106565368Y-78306019D01*
X106569481Y-78301481D01*
X106574019Y-78297368D01*
X106578939Y-78293719D01*
X106584193Y-78290570D01*
X106589730Y-78287951D01*
X106595497Y-78285888D01*
X106601438Y-78284399D01*
X106607497Y-78283501D01*
X106613615Y-78283200D01*
X107000385Y-78283200D01*
X107006503Y-78283501D01*
X107006503Y-78283501D01*
G37*
D17*
X106807000Y-78739000D03*
D10*
G36*
X108276503Y-78283501D02*
G01*
X108282562Y-78284399D01*
X108288503Y-78285888D01*
X108294270Y-78287951D01*
X108299807Y-78290570D01*
X108305061Y-78293719D01*
X108309981Y-78297368D01*
X108314519Y-78301481D01*
X108318632Y-78306019D01*
X108322281Y-78310939D01*
X108325430Y-78316193D01*
X108328049Y-78321730D01*
X108330112Y-78327497D01*
X108331601Y-78333438D01*
X108332499Y-78339497D01*
X108332800Y-78345615D01*
X108332800Y-79132385D01*
X108332499Y-79138503D01*
X108331601Y-79144562D01*
X108330112Y-79150503D01*
X108328049Y-79156270D01*
X108325430Y-79161807D01*
X108322281Y-79167061D01*
X108318632Y-79171981D01*
X108314519Y-79176519D01*
X108309981Y-79180632D01*
X108305061Y-79184281D01*
X108299807Y-79187430D01*
X108294270Y-79190049D01*
X108288503Y-79192112D01*
X108282562Y-79193601D01*
X108276503Y-79194499D01*
X108270385Y-79194800D01*
X107883615Y-79194800D01*
X107877497Y-79194499D01*
X107871438Y-79193601D01*
X107865497Y-79192112D01*
X107859730Y-79190049D01*
X107854193Y-79187430D01*
X107848939Y-79184281D01*
X107844019Y-79180632D01*
X107839481Y-79176519D01*
X107835368Y-79171981D01*
X107831719Y-79167061D01*
X107828570Y-79161807D01*
X107825951Y-79156270D01*
X107823888Y-79150503D01*
X107822399Y-79144562D01*
X107821501Y-79138503D01*
X107821200Y-79132385D01*
X107821200Y-78345615D01*
X107821501Y-78339497D01*
X107822399Y-78333438D01*
X107823888Y-78327497D01*
X107825951Y-78321730D01*
X107828570Y-78316193D01*
X107831719Y-78310939D01*
X107835368Y-78306019D01*
X107839481Y-78301481D01*
X107844019Y-78297368D01*
X107848939Y-78293719D01*
X107854193Y-78290570D01*
X107859730Y-78287951D01*
X107865497Y-78285888D01*
X107871438Y-78284399D01*
X107877497Y-78283501D01*
X107883615Y-78283200D01*
X108270385Y-78283200D01*
X108276503Y-78283501D01*
X108276503Y-78283501D01*
G37*
D17*
X108077000Y-78739000D03*
D10*
G36*
X109546503Y-78283501D02*
G01*
X109552562Y-78284399D01*
X109558503Y-78285888D01*
X109564270Y-78287951D01*
X109569807Y-78290570D01*
X109575061Y-78293719D01*
X109579981Y-78297368D01*
X109584519Y-78301481D01*
X109588632Y-78306019D01*
X109592281Y-78310939D01*
X109595430Y-78316193D01*
X109598049Y-78321730D01*
X109600112Y-78327497D01*
X109601601Y-78333438D01*
X109602499Y-78339497D01*
X109602800Y-78345615D01*
X109602800Y-79132385D01*
X109602499Y-79138503D01*
X109601601Y-79144562D01*
X109600112Y-79150503D01*
X109598049Y-79156270D01*
X109595430Y-79161807D01*
X109592281Y-79167061D01*
X109588632Y-79171981D01*
X109584519Y-79176519D01*
X109579981Y-79180632D01*
X109575061Y-79184281D01*
X109569807Y-79187430D01*
X109564270Y-79190049D01*
X109558503Y-79192112D01*
X109552562Y-79193601D01*
X109546503Y-79194499D01*
X109540385Y-79194800D01*
X109153615Y-79194800D01*
X109147497Y-79194499D01*
X109141438Y-79193601D01*
X109135497Y-79192112D01*
X109129730Y-79190049D01*
X109124193Y-79187430D01*
X109118939Y-79184281D01*
X109114019Y-79180632D01*
X109109481Y-79176519D01*
X109105368Y-79171981D01*
X109101719Y-79167061D01*
X109098570Y-79161807D01*
X109095951Y-79156270D01*
X109093888Y-79150503D01*
X109092399Y-79144562D01*
X109091501Y-79138503D01*
X109091200Y-79132385D01*
X109091200Y-78345615D01*
X109091501Y-78339497D01*
X109092399Y-78333438D01*
X109093888Y-78327497D01*
X109095951Y-78321730D01*
X109098570Y-78316193D01*
X109101719Y-78310939D01*
X109105368Y-78306019D01*
X109109481Y-78301481D01*
X109114019Y-78297368D01*
X109118939Y-78293719D01*
X109124193Y-78290570D01*
X109129730Y-78287951D01*
X109135497Y-78285888D01*
X109141438Y-78284399D01*
X109147497Y-78283501D01*
X109153615Y-78283200D01*
X109540385Y-78283200D01*
X109546503Y-78283501D01*
X109546503Y-78283501D01*
G37*
D17*
X109347000Y-78739000D03*
D18*
X79962000Y-54620000D03*
X79962000Y-44820000D03*
D19*
X87662000Y-53720000D03*
X87662000Y-51720000D03*
X87662000Y-49720000D03*
X87662000Y-47720000D03*
X87662000Y-45720000D03*
X89662000Y-53720000D03*
X89662000Y-51720000D03*
X89662000Y-49720000D03*
X89662000Y-47720000D03*
D10*
G36*
X90068213Y-45070506D02*
G01*
X90094536Y-45074410D01*
X90120349Y-45080876D01*
X90145405Y-45089841D01*
X90169461Y-45101219D01*
X90192286Y-45114900D01*
X90213660Y-45130752D01*
X90233377Y-45148623D01*
X90251248Y-45168340D01*
X90267100Y-45189714D01*
X90280781Y-45212539D01*
X90292159Y-45236595D01*
X90301124Y-45261651D01*
X90307590Y-45287464D01*
X90311494Y-45313787D01*
X90312800Y-45340366D01*
X90312800Y-46099634D01*
X90311494Y-46126213D01*
X90307590Y-46152536D01*
X90301124Y-46178349D01*
X90292159Y-46203405D01*
X90280781Y-46227461D01*
X90267100Y-46250286D01*
X90251248Y-46271660D01*
X90233377Y-46291377D01*
X90213660Y-46309248D01*
X90192286Y-46325100D01*
X90169461Y-46338781D01*
X90145405Y-46350159D01*
X90120349Y-46359124D01*
X90094536Y-46365590D01*
X90068213Y-46369494D01*
X90041634Y-46370800D01*
X89282366Y-46370800D01*
X89255787Y-46369494D01*
X89229464Y-46365590D01*
X89203651Y-46359124D01*
X89178595Y-46350159D01*
X89154539Y-46338781D01*
X89131714Y-46325100D01*
X89110340Y-46309248D01*
X89090623Y-46291377D01*
X89072752Y-46271660D01*
X89056900Y-46250286D01*
X89043219Y-46227461D01*
X89031841Y-46203405D01*
X89022876Y-46178349D01*
X89016410Y-46152536D01*
X89012506Y-46126213D01*
X89011200Y-46099634D01*
X89011200Y-45340366D01*
X89012506Y-45313787D01*
X89016410Y-45287464D01*
X89022876Y-45261651D01*
X89031841Y-45236595D01*
X89043219Y-45212539D01*
X89056900Y-45189714D01*
X89072752Y-45168340D01*
X89090623Y-45148623D01*
X89110340Y-45130752D01*
X89131714Y-45114900D01*
X89154539Y-45101219D01*
X89178595Y-45089841D01*
X89203651Y-45080876D01*
X89229464Y-45074410D01*
X89255787Y-45070506D01*
X89282366Y-45069200D01*
X90041634Y-45069200D01*
X90068213Y-45070506D01*
X90068213Y-45070506D01*
G37*
D19*
X89662000Y-45720000D03*
D20*
X89246000Y-40396000D03*
X96246000Y-40396000D03*
D21*
X90496000Y-37846000D03*
D22*
X94996000Y-37846000D03*
D10*
G36*
X122096418Y-68941779D02*
G01*
X122108082Y-68943509D01*
X122119521Y-68946374D01*
X122130623Y-68950347D01*
X122141283Y-68955388D01*
X122151397Y-68961451D01*
X122160869Y-68968475D01*
X122169606Y-68976394D01*
X122177525Y-68985131D01*
X122184549Y-68994603D01*
X122190612Y-69004717D01*
X122195653Y-69015377D01*
X122199626Y-69026479D01*
X122202491Y-69037918D01*
X122204221Y-69049582D01*
X122204800Y-69061360D01*
X122204800Y-70022640D01*
X122204221Y-70034418D01*
X122202491Y-70046082D01*
X122199626Y-70057521D01*
X122195653Y-70068623D01*
X122190612Y-70079283D01*
X122184549Y-70089397D01*
X122177525Y-70098869D01*
X122169606Y-70107606D01*
X122160869Y-70115525D01*
X122151397Y-70122549D01*
X122141283Y-70128612D01*
X122130623Y-70133653D01*
X122119521Y-70137626D01*
X122108082Y-70140491D01*
X122096418Y-70142221D01*
X122084640Y-70142800D01*
X119023360Y-70142800D01*
X119011582Y-70142221D01*
X118999918Y-70140491D01*
X118988479Y-70137626D01*
X118977377Y-70133653D01*
X118966717Y-70128612D01*
X118956603Y-70122549D01*
X118947131Y-70115525D01*
X118938394Y-70107606D01*
X118930475Y-70098869D01*
X118923451Y-70089397D01*
X118917388Y-70079283D01*
X118912347Y-70068623D01*
X118908374Y-70057521D01*
X118905509Y-70046082D01*
X118903779Y-70034418D01*
X118903200Y-70022640D01*
X118903200Y-69061360D01*
X118903779Y-69049582D01*
X118905509Y-69037918D01*
X118908374Y-69026479D01*
X118912347Y-69015377D01*
X118917388Y-69004717D01*
X118923451Y-68994603D01*
X118930475Y-68985131D01*
X118938394Y-68976394D01*
X118947131Y-68968475D01*
X118956603Y-68961451D01*
X118966717Y-68955388D01*
X118977377Y-68950347D01*
X118988479Y-68946374D01*
X118999918Y-68943509D01*
X119011582Y-68941779D01*
X119023360Y-68941200D01*
X122084640Y-68941200D01*
X122096418Y-68941779D01*
X122096418Y-68941779D01*
G37*
D23*
X120554000Y-69542000D03*
D10*
G36*
X114296418Y-68941779D02*
G01*
X114308082Y-68943509D01*
X114319521Y-68946374D01*
X114330623Y-68950347D01*
X114341283Y-68955388D01*
X114351397Y-68961451D01*
X114360869Y-68968475D01*
X114369606Y-68976394D01*
X114377525Y-68985131D01*
X114384549Y-68994603D01*
X114390612Y-69004717D01*
X114395653Y-69015377D01*
X114399626Y-69026479D01*
X114402491Y-69037918D01*
X114404221Y-69049582D01*
X114404800Y-69061360D01*
X114404800Y-70022640D01*
X114404221Y-70034418D01*
X114402491Y-70046082D01*
X114399626Y-70057521D01*
X114395653Y-70068623D01*
X114390612Y-70079283D01*
X114384549Y-70089397D01*
X114377525Y-70098869D01*
X114369606Y-70107606D01*
X114360869Y-70115525D01*
X114351397Y-70122549D01*
X114341283Y-70128612D01*
X114330623Y-70133653D01*
X114319521Y-70137626D01*
X114308082Y-70140491D01*
X114296418Y-70142221D01*
X114284640Y-70142800D01*
X111223360Y-70142800D01*
X111211582Y-70142221D01*
X111199918Y-70140491D01*
X111188479Y-70137626D01*
X111177377Y-70133653D01*
X111166717Y-70128612D01*
X111156603Y-70122549D01*
X111147131Y-70115525D01*
X111138394Y-70107606D01*
X111130475Y-70098869D01*
X111123451Y-70089397D01*
X111117388Y-70079283D01*
X111112347Y-70068623D01*
X111108374Y-70057521D01*
X111105509Y-70046082D01*
X111103779Y-70034418D01*
X111103200Y-70022640D01*
X111103200Y-69061360D01*
X111103779Y-69049582D01*
X111105509Y-69037918D01*
X111108374Y-69026479D01*
X111112347Y-69015377D01*
X111117388Y-69004717D01*
X111123451Y-68994603D01*
X111130475Y-68985131D01*
X111138394Y-68976394D01*
X111147131Y-68968475D01*
X111156603Y-68961451D01*
X111166717Y-68955388D01*
X111177377Y-68950347D01*
X111188479Y-68946374D01*
X111199918Y-68943509D01*
X111211582Y-68941779D01*
X111223360Y-68941200D01*
X114284640Y-68941200D01*
X114296418Y-68941779D01*
X114296418Y-68941779D01*
G37*
D23*
X112754000Y-69542000D03*
D10*
G36*
X122096418Y-57311779D02*
G01*
X122108082Y-57313509D01*
X122119521Y-57316374D01*
X122130623Y-57320347D01*
X122141283Y-57325388D01*
X122151397Y-57331451D01*
X122160869Y-57338475D01*
X122169606Y-57346394D01*
X122177525Y-57355131D01*
X122184549Y-57364603D01*
X122190612Y-57374717D01*
X122195653Y-57385377D01*
X122199626Y-57396479D01*
X122202491Y-57407918D01*
X122204221Y-57419582D01*
X122204800Y-57431360D01*
X122204800Y-58392640D01*
X122204221Y-58404418D01*
X122202491Y-58416082D01*
X122199626Y-58427521D01*
X122195653Y-58438623D01*
X122190612Y-58449283D01*
X122184549Y-58459397D01*
X122177525Y-58468869D01*
X122169606Y-58477606D01*
X122160869Y-58485525D01*
X122151397Y-58492549D01*
X122141283Y-58498612D01*
X122130623Y-58503653D01*
X122119521Y-58507626D01*
X122108082Y-58510491D01*
X122096418Y-58512221D01*
X122084640Y-58512800D01*
X119023360Y-58512800D01*
X119011582Y-58512221D01*
X118999918Y-58510491D01*
X118988479Y-58507626D01*
X118977377Y-58503653D01*
X118966717Y-58498612D01*
X118956603Y-58492549D01*
X118947131Y-58485525D01*
X118938394Y-58477606D01*
X118930475Y-58468869D01*
X118923451Y-58459397D01*
X118917388Y-58449283D01*
X118912347Y-58438623D01*
X118908374Y-58427521D01*
X118905509Y-58416082D01*
X118903779Y-58404418D01*
X118903200Y-58392640D01*
X118903200Y-57431360D01*
X118903779Y-57419582D01*
X118905509Y-57407918D01*
X118908374Y-57396479D01*
X118912347Y-57385377D01*
X118917388Y-57374717D01*
X118923451Y-57364603D01*
X118930475Y-57355131D01*
X118938394Y-57346394D01*
X118947131Y-57338475D01*
X118956603Y-57331451D01*
X118966717Y-57325388D01*
X118977377Y-57320347D01*
X118988479Y-57316374D01*
X118999918Y-57313509D01*
X119011582Y-57311779D01*
X119023360Y-57311200D01*
X122084640Y-57311200D01*
X122096418Y-57311779D01*
X122096418Y-57311779D01*
G37*
D23*
X120554000Y-57912000D03*
D10*
G36*
X114296418Y-57311779D02*
G01*
X114308082Y-57313509D01*
X114319521Y-57316374D01*
X114330623Y-57320347D01*
X114341283Y-57325388D01*
X114351397Y-57331451D01*
X114360869Y-57338475D01*
X114369606Y-57346394D01*
X114377525Y-57355131D01*
X114384549Y-57364603D01*
X114390612Y-57374717D01*
X114395653Y-57385377D01*
X114399626Y-57396479D01*
X114402491Y-57407918D01*
X114404221Y-57419582D01*
X114404800Y-57431360D01*
X114404800Y-58392640D01*
X114404221Y-58404418D01*
X114402491Y-58416082D01*
X114399626Y-58427521D01*
X114395653Y-58438623D01*
X114390612Y-58449283D01*
X114384549Y-58459397D01*
X114377525Y-58468869D01*
X114369606Y-58477606D01*
X114360869Y-58485525D01*
X114351397Y-58492549D01*
X114341283Y-58498612D01*
X114330623Y-58503653D01*
X114319521Y-58507626D01*
X114308082Y-58510491D01*
X114296418Y-58512221D01*
X114284640Y-58512800D01*
X111223360Y-58512800D01*
X111211582Y-58512221D01*
X111199918Y-58510491D01*
X111188479Y-58507626D01*
X111177377Y-58503653D01*
X111166717Y-58498612D01*
X111156603Y-58492549D01*
X111147131Y-58485525D01*
X111138394Y-58477606D01*
X111130475Y-58468869D01*
X111123451Y-58459397D01*
X111117388Y-58449283D01*
X111112347Y-58438623D01*
X111108374Y-58427521D01*
X111105509Y-58416082D01*
X111103779Y-58404418D01*
X111103200Y-58392640D01*
X111103200Y-57431360D01*
X111103779Y-57419582D01*
X111105509Y-57407918D01*
X111108374Y-57396479D01*
X111112347Y-57385377D01*
X111117388Y-57374717D01*
X111123451Y-57364603D01*
X111130475Y-57355131D01*
X111138394Y-57346394D01*
X111147131Y-57338475D01*
X111156603Y-57331451D01*
X111166717Y-57325388D01*
X111177377Y-57320347D01*
X111188479Y-57316374D01*
X111199918Y-57313509D01*
X111211582Y-57311779D01*
X111223360Y-57311200D01*
X114284640Y-57311200D01*
X114296418Y-57311779D01*
X114296418Y-57311779D01*
G37*
D23*
X112754000Y-57912000D03*
D10*
G36*
X100766418Y-68941779D02*
G01*
X100778082Y-68943509D01*
X100789521Y-68946374D01*
X100800623Y-68950347D01*
X100811283Y-68955388D01*
X100821397Y-68961451D01*
X100830869Y-68968475D01*
X100839606Y-68976394D01*
X100847525Y-68985131D01*
X100854549Y-68994603D01*
X100860612Y-69004717D01*
X100865653Y-69015377D01*
X100869626Y-69026479D01*
X100872491Y-69037918D01*
X100874221Y-69049582D01*
X100874800Y-69061360D01*
X100874800Y-70022640D01*
X100874221Y-70034418D01*
X100872491Y-70046082D01*
X100869626Y-70057521D01*
X100865653Y-70068623D01*
X100860612Y-70079283D01*
X100854549Y-70089397D01*
X100847525Y-70098869D01*
X100839606Y-70107606D01*
X100830869Y-70115525D01*
X100821397Y-70122549D01*
X100811283Y-70128612D01*
X100800623Y-70133653D01*
X100789521Y-70137626D01*
X100778082Y-70140491D01*
X100766418Y-70142221D01*
X100754640Y-70142800D01*
X97693360Y-70142800D01*
X97681582Y-70142221D01*
X97669918Y-70140491D01*
X97658479Y-70137626D01*
X97647377Y-70133653D01*
X97636717Y-70128612D01*
X97626603Y-70122549D01*
X97617131Y-70115525D01*
X97608394Y-70107606D01*
X97600475Y-70098869D01*
X97593451Y-70089397D01*
X97587388Y-70079283D01*
X97582347Y-70068623D01*
X97578374Y-70057521D01*
X97575509Y-70046082D01*
X97573779Y-70034418D01*
X97573200Y-70022640D01*
X97573200Y-69061360D01*
X97573779Y-69049582D01*
X97575509Y-69037918D01*
X97578374Y-69026479D01*
X97582347Y-69015377D01*
X97587388Y-69004717D01*
X97593451Y-68994603D01*
X97600475Y-68985131D01*
X97608394Y-68976394D01*
X97617131Y-68968475D01*
X97626603Y-68961451D01*
X97636717Y-68955388D01*
X97647377Y-68950347D01*
X97658479Y-68946374D01*
X97669918Y-68943509D01*
X97681582Y-68941779D01*
X97693360Y-68941200D01*
X100754640Y-68941200D01*
X100766418Y-68941779D01*
X100766418Y-68941779D01*
G37*
D23*
X99224000Y-69542000D03*
D10*
G36*
X108566418Y-68941779D02*
G01*
X108578082Y-68943509D01*
X108589521Y-68946374D01*
X108600623Y-68950347D01*
X108611283Y-68955388D01*
X108621397Y-68961451D01*
X108630869Y-68968475D01*
X108639606Y-68976394D01*
X108647525Y-68985131D01*
X108654549Y-68994603D01*
X108660612Y-69004717D01*
X108665653Y-69015377D01*
X108669626Y-69026479D01*
X108672491Y-69037918D01*
X108674221Y-69049582D01*
X108674800Y-69061360D01*
X108674800Y-70022640D01*
X108674221Y-70034418D01*
X108672491Y-70046082D01*
X108669626Y-70057521D01*
X108665653Y-70068623D01*
X108660612Y-70079283D01*
X108654549Y-70089397D01*
X108647525Y-70098869D01*
X108639606Y-70107606D01*
X108630869Y-70115525D01*
X108621397Y-70122549D01*
X108611283Y-70128612D01*
X108600623Y-70133653D01*
X108589521Y-70137626D01*
X108578082Y-70140491D01*
X108566418Y-70142221D01*
X108554640Y-70142800D01*
X105493360Y-70142800D01*
X105481582Y-70142221D01*
X105469918Y-70140491D01*
X105458479Y-70137626D01*
X105447377Y-70133653D01*
X105436717Y-70128612D01*
X105426603Y-70122549D01*
X105417131Y-70115525D01*
X105408394Y-70107606D01*
X105400475Y-70098869D01*
X105393451Y-70089397D01*
X105387388Y-70079283D01*
X105382347Y-70068623D01*
X105378374Y-70057521D01*
X105375509Y-70046082D01*
X105373779Y-70034418D01*
X105373200Y-70022640D01*
X105373200Y-69061360D01*
X105373779Y-69049582D01*
X105375509Y-69037918D01*
X105378374Y-69026479D01*
X105382347Y-69015377D01*
X105387388Y-69004717D01*
X105393451Y-68994603D01*
X105400475Y-68985131D01*
X105408394Y-68976394D01*
X105417131Y-68968475D01*
X105426603Y-68961451D01*
X105436717Y-68955388D01*
X105447377Y-68950347D01*
X105458479Y-68946374D01*
X105469918Y-68943509D01*
X105481582Y-68941779D01*
X105493360Y-68941200D01*
X108554640Y-68941200D01*
X108566418Y-68941779D01*
X108566418Y-68941779D01*
G37*
D23*
X107024000Y-69542000D03*
D10*
G36*
X100766418Y-57311779D02*
G01*
X100778082Y-57313509D01*
X100789521Y-57316374D01*
X100800623Y-57320347D01*
X100811283Y-57325388D01*
X100821397Y-57331451D01*
X100830869Y-57338475D01*
X100839606Y-57346394D01*
X100847525Y-57355131D01*
X100854549Y-57364603D01*
X100860612Y-57374717D01*
X100865653Y-57385377D01*
X100869626Y-57396479D01*
X100872491Y-57407918D01*
X100874221Y-57419582D01*
X100874800Y-57431360D01*
X100874800Y-58392640D01*
X100874221Y-58404418D01*
X100872491Y-58416082D01*
X100869626Y-58427521D01*
X100865653Y-58438623D01*
X100860612Y-58449283D01*
X100854549Y-58459397D01*
X100847525Y-58468869D01*
X100839606Y-58477606D01*
X100830869Y-58485525D01*
X100821397Y-58492549D01*
X100811283Y-58498612D01*
X100800623Y-58503653D01*
X100789521Y-58507626D01*
X100778082Y-58510491D01*
X100766418Y-58512221D01*
X100754640Y-58512800D01*
X97693360Y-58512800D01*
X97681582Y-58512221D01*
X97669918Y-58510491D01*
X97658479Y-58507626D01*
X97647377Y-58503653D01*
X97636717Y-58498612D01*
X97626603Y-58492549D01*
X97617131Y-58485525D01*
X97608394Y-58477606D01*
X97600475Y-58468869D01*
X97593451Y-58459397D01*
X97587388Y-58449283D01*
X97582347Y-58438623D01*
X97578374Y-58427521D01*
X97575509Y-58416082D01*
X97573779Y-58404418D01*
X97573200Y-58392640D01*
X97573200Y-57431360D01*
X97573779Y-57419582D01*
X97575509Y-57407918D01*
X97578374Y-57396479D01*
X97582347Y-57385377D01*
X97587388Y-57374717D01*
X97593451Y-57364603D01*
X97600475Y-57355131D01*
X97608394Y-57346394D01*
X97617131Y-57338475D01*
X97626603Y-57331451D01*
X97636717Y-57325388D01*
X97647377Y-57320347D01*
X97658479Y-57316374D01*
X97669918Y-57313509D01*
X97681582Y-57311779D01*
X97693360Y-57311200D01*
X100754640Y-57311200D01*
X100766418Y-57311779D01*
X100766418Y-57311779D01*
G37*
D23*
X99224000Y-57912000D03*
D10*
G36*
X108566418Y-57311779D02*
G01*
X108578082Y-57313509D01*
X108589521Y-57316374D01*
X108600623Y-57320347D01*
X108611283Y-57325388D01*
X108621397Y-57331451D01*
X108630869Y-57338475D01*
X108639606Y-57346394D01*
X108647525Y-57355131D01*
X108654549Y-57364603D01*
X108660612Y-57374717D01*
X108665653Y-57385377D01*
X108669626Y-57396479D01*
X108672491Y-57407918D01*
X108674221Y-57419582D01*
X108674800Y-57431360D01*
X108674800Y-58392640D01*
X108674221Y-58404418D01*
X108672491Y-58416082D01*
X108669626Y-58427521D01*
X108665653Y-58438623D01*
X108660612Y-58449283D01*
X108654549Y-58459397D01*
X108647525Y-58468869D01*
X108639606Y-58477606D01*
X108630869Y-58485525D01*
X108621397Y-58492549D01*
X108611283Y-58498612D01*
X108600623Y-58503653D01*
X108589521Y-58507626D01*
X108578082Y-58510491D01*
X108566418Y-58512221D01*
X108554640Y-58512800D01*
X105493360Y-58512800D01*
X105481582Y-58512221D01*
X105469918Y-58510491D01*
X105458479Y-58507626D01*
X105447377Y-58503653D01*
X105436717Y-58498612D01*
X105426603Y-58492549D01*
X105417131Y-58485525D01*
X105408394Y-58477606D01*
X105400475Y-58468869D01*
X105393451Y-58459397D01*
X105387388Y-58449283D01*
X105382347Y-58438623D01*
X105378374Y-58427521D01*
X105375509Y-58416082D01*
X105373779Y-58404418D01*
X105373200Y-58392640D01*
X105373200Y-57431360D01*
X105373779Y-57419582D01*
X105375509Y-57407918D01*
X105378374Y-57396479D01*
X105382347Y-57385377D01*
X105387388Y-57374717D01*
X105393451Y-57364603D01*
X105400475Y-57355131D01*
X105408394Y-57346394D01*
X105417131Y-57338475D01*
X105426603Y-57331451D01*
X105436717Y-57325388D01*
X105447377Y-57320347D01*
X105458479Y-57316374D01*
X105469918Y-57313509D01*
X105481582Y-57311779D01*
X105493360Y-57311200D01*
X108554640Y-57311200D01*
X108566418Y-57311779D01*
X108566418Y-57311779D01*
G37*
D23*
X107024000Y-57912000D03*
D24*
X132000000Y-95780000D03*
D10*
G36*
X133166818Y-98340449D02*
G01*
X133192000Y-98344184D01*
X133216694Y-98350370D01*
X133240663Y-98358946D01*
X133263676Y-98369831D01*
X133285511Y-98382918D01*
X133305959Y-98398083D01*
X133324821Y-98415179D01*
X133341917Y-98434041D01*
X133357082Y-98454489D01*
X133370169Y-98476324D01*
X133381054Y-98499337D01*
X133389630Y-98523306D01*
X133395816Y-98548000D01*
X133399551Y-98573182D01*
X133400800Y-98598608D01*
X133400800Y-100881392D01*
X133399551Y-100906818D01*
X133395816Y-100932000D01*
X133389630Y-100956694D01*
X133381054Y-100980663D01*
X133370169Y-101003676D01*
X133357082Y-101025511D01*
X133341917Y-101045959D01*
X133324821Y-101064821D01*
X133305959Y-101081917D01*
X133285511Y-101097082D01*
X133263676Y-101110169D01*
X133240663Y-101121054D01*
X133216694Y-101129630D01*
X133192000Y-101135816D01*
X133166818Y-101139551D01*
X133141392Y-101140800D01*
X130858608Y-101140800D01*
X130833182Y-101139551D01*
X130808000Y-101135816D01*
X130783306Y-101129630D01*
X130759337Y-101121054D01*
X130736324Y-101110169D01*
X130714489Y-101097082D01*
X130694041Y-101081917D01*
X130675179Y-101064821D01*
X130658083Y-101045959D01*
X130642918Y-101025511D01*
X130629831Y-101003676D01*
X130618946Y-100980663D01*
X130610370Y-100956694D01*
X130604184Y-100932000D01*
X130600449Y-100906818D01*
X130599200Y-100881392D01*
X130599200Y-98598608D01*
X130600449Y-98573182D01*
X130604184Y-98548000D01*
X130610370Y-98523306D01*
X130618946Y-98499337D01*
X130629831Y-98476324D01*
X130642918Y-98454489D01*
X130658083Y-98434041D01*
X130675179Y-98415179D01*
X130694041Y-98398083D01*
X130714489Y-98382918D01*
X130736324Y-98369831D01*
X130759337Y-98358946D01*
X130783306Y-98350370D01*
X130808000Y-98344184D01*
X130833182Y-98340449D01*
X130858608Y-98339200D01*
X133141392Y-98339200D01*
X133166818Y-98340449D01*
X133166818Y-98340449D01*
G37*
D24*
X132000000Y-99740000D03*
X132000000Y-75938000D03*
D10*
G36*
X133166818Y-78498449D02*
G01*
X133192000Y-78502184D01*
X133216694Y-78508370D01*
X133240663Y-78516946D01*
X133263676Y-78527831D01*
X133285511Y-78540918D01*
X133305959Y-78556083D01*
X133324821Y-78573179D01*
X133341917Y-78592041D01*
X133357082Y-78612489D01*
X133370169Y-78634324D01*
X133381054Y-78657337D01*
X133389630Y-78681306D01*
X133395816Y-78706000D01*
X133399551Y-78731182D01*
X133400800Y-78756608D01*
X133400800Y-81039392D01*
X133399551Y-81064818D01*
X133395816Y-81090000D01*
X133389630Y-81114694D01*
X133381054Y-81138663D01*
X133370169Y-81161676D01*
X133357082Y-81183511D01*
X133341917Y-81203959D01*
X133324821Y-81222821D01*
X133305959Y-81239917D01*
X133285511Y-81255082D01*
X133263676Y-81268169D01*
X133240663Y-81279054D01*
X133216694Y-81287630D01*
X133192000Y-81293816D01*
X133166818Y-81297551D01*
X133141392Y-81298800D01*
X130858608Y-81298800D01*
X130833182Y-81297551D01*
X130808000Y-81293816D01*
X130783306Y-81287630D01*
X130759337Y-81279054D01*
X130736324Y-81268169D01*
X130714489Y-81255082D01*
X130694041Y-81239917D01*
X130675179Y-81222821D01*
X130658083Y-81203959D01*
X130642918Y-81183511D01*
X130629831Y-81161676D01*
X130618946Y-81138663D01*
X130610370Y-81114694D01*
X130604184Y-81090000D01*
X130600449Y-81064818D01*
X130599200Y-81039392D01*
X130599200Y-78756608D01*
X130600449Y-78731182D01*
X130604184Y-78706000D01*
X130610370Y-78681306D01*
X130618946Y-78657337D01*
X130629831Y-78634324D01*
X130642918Y-78612489D01*
X130658083Y-78592041D01*
X130675179Y-78573179D01*
X130694041Y-78556083D01*
X130714489Y-78540918D01*
X130736324Y-78527831D01*
X130759337Y-78516946D01*
X130783306Y-78508370D01*
X130808000Y-78502184D01*
X130833182Y-78498449D01*
X130858608Y-78497200D01*
X133141392Y-78497200D01*
X133166818Y-78498449D01*
X133166818Y-78498449D01*
G37*
D24*
X132000000Y-79898000D03*
X132000000Y-61938000D03*
D10*
G36*
X133166818Y-64498449D02*
G01*
X133192000Y-64502184D01*
X133216694Y-64508370D01*
X133240663Y-64516946D01*
X133263676Y-64527831D01*
X133285511Y-64540918D01*
X133305959Y-64556083D01*
X133324821Y-64573179D01*
X133341917Y-64592041D01*
X133357082Y-64612489D01*
X133370169Y-64634324D01*
X133381054Y-64657337D01*
X133389630Y-64681306D01*
X133395816Y-64706000D01*
X133399551Y-64731182D01*
X133400800Y-64756608D01*
X133400800Y-67039392D01*
X133399551Y-67064818D01*
X133395816Y-67090000D01*
X133389630Y-67114694D01*
X133381054Y-67138663D01*
X133370169Y-67161676D01*
X133357082Y-67183511D01*
X133341917Y-67203959D01*
X133324821Y-67222821D01*
X133305959Y-67239917D01*
X133285511Y-67255082D01*
X133263676Y-67268169D01*
X133240663Y-67279054D01*
X133216694Y-67287630D01*
X133192000Y-67293816D01*
X133166818Y-67297551D01*
X133141392Y-67298800D01*
X130858608Y-67298800D01*
X130833182Y-67297551D01*
X130808000Y-67293816D01*
X130783306Y-67287630D01*
X130759337Y-67279054D01*
X130736324Y-67268169D01*
X130714489Y-67255082D01*
X130694041Y-67239917D01*
X130675179Y-67222821D01*
X130658083Y-67203959D01*
X130642918Y-67183511D01*
X130629831Y-67161676D01*
X130618946Y-67138663D01*
X130610370Y-67114694D01*
X130604184Y-67090000D01*
X130600449Y-67064818D01*
X130599200Y-67039392D01*
X130599200Y-64756608D01*
X130600449Y-64731182D01*
X130604184Y-64706000D01*
X130610370Y-64681306D01*
X130618946Y-64657337D01*
X130629831Y-64634324D01*
X130642918Y-64612489D01*
X130658083Y-64592041D01*
X130675179Y-64573179D01*
X130694041Y-64556083D01*
X130714489Y-64540918D01*
X130736324Y-64527831D01*
X130759337Y-64516946D01*
X130783306Y-64508370D01*
X130808000Y-64502184D01*
X130833182Y-64498449D01*
X130858608Y-64497200D01*
X133141392Y-64497200D01*
X133166818Y-64498449D01*
X133166818Y-64498449D01*
G37*
D24*
X132000000Y-65898000D03*
X92000000Y-99740000D03*
D10*
G36*
X93166818Y-94380449D02*
G01*
X93192000Y-94384184D01*
X93216694Y-94390370D01*
X93240663Y-94398946D01*
X93263676Y-94409831D01*
X93285511Y-94422918D01*
X93305959Y-94438083D01*
X93324821Y-94455179D01*
X93341917Y-94474041D01*
X93357082Y-94494489D01*
X93370169Y-94516324D01*
X93381054Y-94539337D01*
X93389630Y-94563306D01*
X93395816Y-94588000D01*
X93399551Y-94613182D01*
X93400800Y-94638608D01*
X93400800Y-96921392D01*
X93399551Y-96946818D01*
X93395816Y-96972000D01*
X93389630Y-96996694D01*
X93381054Y-97020663D01*
X93370169Y-97043676D01*
X93357082Y-97065511D01*
X93341917Y-97085959D01*
X93324821Y-97104821D01*
X93305959Y-97121917D01*
X93285511Y-97137082D01*
X93263676Y-97150169D01*
X93240663Y-97161054D01*
X93216694Y-97169630D01*
X93192000Y-97175816D01*
X93166818Y-97179551D01*
X93141392Y-97180800D01*
X90858608Y-97180800D01*
X90833182Y-97179551D01*
X90808000Y-97175816D01*
X90783306Y-97169630D01*
X90759337Y-97161054D01*
X90736324Y-97150169D01*
X90714489Y-97137082D01*
X90694041Y-97121917D01*
X90675179Y-97104821D01*
X90658083Y-97085959D01*
X90642918Y-97065511D01*
X90629831Y-97043676D01*
X90618946Y-97020663D01*
X90610370Y-96996694D01*
X90604184Y-96972000D01*
X90600449Y-96946818D01*
X90599200Y-96921392D01*
X90599200Y-94638608D01*
X90600449Y-94613182D01*
X90604184Y-94588000D01*
X90610370Y-94563306D01*
X90618946Y-94539337D01*
X90629831Y-94516324D01*
X90642918Y-94494489D01*
X90658083Y-94474041D01*
X90675179Y-94455179D01*
X90694041Y-94438083D01*
X90714489Y-94422918D01*
X90736324Y-94409831D01*
X90759337Y-94398946D01*
X90783306Y-94390370D01*
X90808000Y-94384184D01*
X90833182Y-94380449D01*
X90858608Y-94379200D01*
X93141392Y-94379200D01*
X93166818Y-94380449D01*
X93166818Y-94380449D01*
G37*
D24*
X92000000Y-95780000D03*
X92000000Y-79898000D03*
D10*
G36*
X93166818Y-74538449D02*
G01*
X93192000Y-74542184D01*
X93216694Y-74548370D01*
X93240663Y-74556946D01*
X93263676Y-74567831D01*
X93285511Y-74580918D01*
X93305959Y-74596083D01*
X93324821Y-74613179D01*
X93341917Y-74632041D01*
X93357082Y-74652489D01*
X93370169Y-74674324D01*
X93381054Y-74697337D01*
X93389630Y-74721306D01*
X93395816Y-74746000D01*
X93399551Y-74771182D01*
X93400800Y-74796608D01*
X93400800Y-77079392D01*
X93399551Y-77104818D01*
X93395816Y-77130000D01*
X93389630Y-77154694D01*
X93381054Y-77178663D01*
X93370169Y-77201676D01*
X93357082Y-77223511D01*
X93341917Y-77243959D01*
X93324821Y-77262821D01*
X93305959Y-77279917D01*
X93285511Y-77295082D01*
X93263676Y-77308169D01*
X93240663Y-77319054D01*
X93216694Y-77327630D01*
X93192000Y-77333816D01*
X93166818Y-77337551D01*
X93141392Y-77338800D01*
X90858608Y-77338800D01*
X90833182Y-77337551D01*
X90808000Y-77333816D01*
X90783306Y-77327630D01*
X90759337Y-77319054D01*
X90736324Y-77308169D01*
X90714489Y-77295082D01*
X90694041Y-77279917D01*
X90675179Y-77262821D01*
X90658083Y-77243959D01*
X90642918Y-77223511D01*
X90629831Y-77201676D01*
X90618946Y-77178663D01*
X90610370Y-77154694D01*
X90604184Y-77130000D01*
X90600449Y-77104818D01*
X90599200Y-77079392D01*
X90599200Y-74796608D01*
X90600449Y-74771182D01*
X90604184Y-74746000D01*
X90610370Y-74721306D01*
X90618946Y-74697337D01*
X90629831Y-74674324D01*
X90642918Y-74652489D01*
X90658083Y-74632041D01*
X90675179Y-74613179D01*
X90694041Y-74596083D01*
X90714489Y-74580918D01*
X90736324Y-74567831D01*
X90759337Y-74556946D01*
X90783306Y-74548370D01*
X90808000Y-74542184D01*
X90833182Y-74538449D01*
X90858608Y-74537200D01*
X93141392Y-74537200D01*
X93166818Y-74538449D01*
X93166818Y-74538449D01*
G37*
D24*
X92000000Y-75938000D03*
X92000000Y-65898000D03*
D10*
G36*
X93166818Y-60538449D02*
G01*
X93192000Y-60542184D01*
X93216694Y-60548370D01*
X93240663Y-60556946D01*
X93263676Y-60567831D01*
X93285511Y-60580918D01*
X93305959Y-60596083D01*
X93324821Y-60613179D01*
X93341917Y-60632041D01*
X93357082Y-60652489D01*
X93370169Y-60674324D01*
X93381054Y-60697337D01*
X93389630Y-60721306D01*
X93395816Y-60746000D01*
X93399551Y-60771182D01*
X93400800Y-60796608D01*
X93400800Y-63079392D01*
X93399551Y-63104818D01*
X93395816Y-63130000D01*
X93389630Y-63154694D01*
X93381054Y-63178663D01*
X93370169Y-63201676D01*
X93357082Y-63223511D01*
X93341917Y-63243959D01*
X93324821Y-63262821D01*
X93305959Y-63279917D01*
X93285511Y-63295082D01*
X93263676Y-63308169D01*
X93240663Y-63319054D01*
X93216694Y-63327630D01*
X93192000Y-63333816D01*
X93166818Y-63337551D01*
X93141392Y-63338800D01*
X90858608Y-63338800D01*
X90833182Y-63337551D01*
X90808000Y-63333816D01*
X90783306Y-63327630D01*
X90759337Y-63319054D01*
X90736324Y-63308169D01*
X90714489Y-63295082D01*
X90694041Y-63279917D01*
X90675179Y-63262821D01*
X90658083Y-63243959D01*
X90642918Y-63223511D01*
X90629831Y-63201676D01*
X90618946Y-63178663D01*
X90610370Y-63154694D01*
X90604184Y-63130000D01*
X90600449Y-63104818D01*
X90599200Y-63079392D01*
X90599200Y-60796608D01*
X90600449Y-60771182D01*
X90604184Y-60746000D01*
X90610370Y-60721306D01*
X90618946Y-60697337D01*
X90629831Y-60674324D01*
X90642918Y-60652489D01*
X90658083Y-60632041D01*
X90675179Y-60613179D01*
X90694041Y-60596083D01*
X90714489Y-60580918D01*
X90736324Y-60567831D01*
X90759337Y-60556946D01*
X90783306Y-60548370D01*
X90808000Y-60542184D01*
X90833182Y-60538449D01*
X90858608Y-60537200D01*
X93141392Y-60537200D01*
X93166818Y-60538449D01*
X93166818Y-60538449D01*
G37*
D24*
X92000000Y-61938000D03*
X102062000Y-50038000D03*
X106022000Y-50038000D03*
D10*
G36*
X111148818Y-48638449D02*
G01*
X111174000Y-48642184D01*
X111198694Y-48648370D01*
X111222663Y-48656946D01*
X111245676Y-48667831D01*
X111267511Y-48680918D01*
X111287959Y-48696083D01*
X111306821Y-48713179D01*
X111323917Y-48732041D01*
X111339082Y-48752489D01*
X111352169Y-48774324D01*
X111363054Y-48797337D01*
X111371630Y-48821306D01*
X111377816Y-48846000D01*
X111381551Y-48871182D01*
X111382800Y-48896608D01*
X111382800Y-51179392D01*
X111381551Y-51204818D01*
X111377816Y-51230000D01*
X111371630Y-51254694D01*
X111363054Y-51278663D01*
X111352169Y-51301676D01*
X111339082Y-51323511D01*
X111323917Y-51343959D01*
X111306821Y-51362821D01*
X111287959Y-51379917D01*
X111267511Y-51395082D01*
X111245676Y-51408169D01*
X111222663Y-51419054D01*
X111198694Y-51427630D01*
X111174000Y-51433816D01*
X111148818Y-51437551D01*
X111123392Y-51438800D01*
X108840608Y-51438800D01*
X108815182Y-51437551D01*
X108790000Y-51433816D01*
X108765306Y-51427630D01*
X108741337Y-51419054D01*
X108718324Y-51408169D01*
X108696489Y-51395082D01*
X108676041Y-51379917D01*
X108657179Y-51362821D01*
X108640083Y-51343959D01*
X108624918Y-51323511D01*
X108611831Y-51301676D01*
X108600946Y-51278663D01*
X108592370Y-51254694D01*
X108586184Y-51230000D01*
X108582449Y-51204818D01*
X108581200Y-51179392D01*
X108581200Y-48896608D01*
X108582449Y-48871182D01*
X108586184Y-48846000D01*
X108592370Y-48821306D01*
X108600946Y-48797337D01*
X108611831Y-48774324D01*
X108624918Y-48752489D01*
X108640083Y-48732041D01*
X108657179Y-48713179D01*
X108676041Y-48696083D01*
X108696489Y-48680918D01*
X108718324Y-48667831D01*
X108741337Y-48656946D01*
X108765306Y-48648370D01*
X108790000Y-48642184D01*
X108815182Y-48638449D01*
X108840608Y-48637200D01*
X111123392Y-48637200D01*
X111148818Y-48638449D01*
X111148818Y-48638449D01*
G37*
D24*
X109982000Y-50038000D03*
X143500000Y-111500000D03*
X80500000Y-111500000D03*
X143500000Y-38500000D03*
X80500000Y-38500000D03*
D10*
G36*
X115231976Y-79975502D02*
G01*
X115258217Y-79979394D01*
X115283950Y-79985840D01*
X115308927Y-79994777D01*
X115332908Y-80006119D01*
X115355662Y-80019757D01*
X115376969Y-80035560D01*
X115396625Y-80053375D01*
X115414440Y-80073031D01*
X115430243Y-80094338D01*
X115443881Y-80117092D01*
X115455223Y-80141073D01*
X115464160Y-80166050D01*
X115470606Y-80191783D01*
X115474498Y-80218024D01*
X115475800Y-80244520D01*
X115475800Y-81055480D01*
X115474498Y-81081976D01*
X115470606Y-81108217D01*
X115464160Y-81133950D01*
X115455223Y-81158927D01*
X115443881Y-81182908D01*
X115430243Y-81205662D01*
X115414440Y-81226969D01*
X115396625Y-81246625D01*
X115376969Y-81264440D01*
X115355662Y-81280243D01*
X115332908Y-81293881D01*
X115308927Y-81305223D01*
X115283950Y-81314160D01*
X115258217Y-81320606D01*
X115231976Y-81324498D01*
X115205480Y-81325800D01*
X113894520Y-81325800D01*
X113868024Y-81324498D01*
X113841783Y-81320606D01*
X113816050Y-81314160D01*
X113791073Y-81305223D01*
X113767092Y-81293881D01*
X113744338Y-81280243D01*
X113723031Y-81264440D01*
X113703375Y-81246625D01*
X113685560Y-81226969D01*
X113669757Y-81205662D01*
X113656119Y-81182908D01*
X113644777Y-81158927D01*
X113635840Y-81133950D01*
X113629394Y-81108217D01*
X113625502Y-81081976D01*
X113624200Y-81055480D01*
X113624200Y-80244520D01*
X113625502Y-80218024D01*
X113629394Y-80191783D01*
X113635840Y-80166050D01*
X113644777Y-80141073D01*
X113656119Y-80117092D01*
X113669757Y-80094338D01*
X113685560Y-80073031D01*
X113703375Y-80053375D01*
X113723031Y-80035560D01*
X113744338Y-80019757D01*
X113767092Y-80006119D01*
X113791073Y-79994777D01*
X113816050Y-79985840D01*
X113841783Y-79979394D01*
X113868024Y-79975502D01*
X113894520Y-79974200D01*
X115205480Y-79974200D01*
X115231976Y-79975502D01*
X115231976Y-79975502D01*
G37*
D12*
X114550000Y-80650000D03*
D10*
G36*
X115231976Y-77175502D02*
G01*
X115258217Y-77179394D01*
X115283950Y-77185840D01*
X115308927Y-77194777D01*
X115332908Y-77206119D01*
X115355662Y-77219757D01*
X115376969Y-77235560D01*
X115396625Y-77253375D01*
X115414440Y-77273031D01*
X115430243Y-77294338D01*
X115443881Y-77317092D01*
X115455223Y-77341073D01*
X115464160Y-77366050D01*
X115470606Y-77391783D01*
X115474498Y-77418024D01*
X115475800Y-77444520D01*
X115475800Y-78255480D01*
X115474498Y-78281976D01*
X115470606Y-78308217D01*
X115464160Y-78333950D01*
X115455223Y-78358927D01*
X115443881Y-78382908D01*
X115430243Y-78405662D01*
X115414440Y-78426969D01*
X115396625Y-78446625D01*
X115376969Y-78464440D01*
X115355662Y-78480243D01*
X115332908Y-78493881D01*
X115308927Y-78505223D01*
X115283950Y-78514160D01*
X115258217Y-78520606D01*
X115231976Y-78524498D01*
X115205480Y-78525800D01*
X113894520Y-78525800D01*
X113868024Y-78524498D01*
X113841783Y-78520606D01*
X113816050Y-78514160D01*
X113791073Y-78505223D01*
X113767092Y-78493881D01*
X113744338Y-78480243D01*
X113723031Y-78464440D01*
X113703375Y-78446625D01*
X113685560Y-78426969D01*
X113669757Y-78405662D01*
X113656119Y-78382908D01*
X113644777Y-78358927D01*
X113635840Y-78333950D01*
X113629394Y-78308217D01*
X113625502Y-78281976D01*
X113624200Y-78255480D01*
X113624200Y-77444520D01*
X113625502Y-77418024D01*
X113629394Y-77391783D01*
X113635840Y-77366050D01*
X113644777Y-77341073D01*
X113656119Y-77317092D01*
X113669757Y-77294338D01*
X113685560Y-77273031D01*
X113703375Y-77253375D01*
X113723031Y-77235560D01*
X113744338Y-77219757D01*
X113767092Y-77206119D01*
X113791073Y-77194777D01*
X113816050Y-77185840D01*
X113841783Y-77179394D01*
X113868024Y-77175502D01*
X113894520Y-77174200D01*
X115205480Y-77174200D01*
X115231976Y-77175502D01*
X115231976Y-77175502D01*
G37*
D12*
X114550000Y-77850000D03*
D10*
G36*
X127131976Y-90425502D02*
G01*
X127158217Y-90429394D01*
X127183950Y-90435840D01*
X127208927Y-90444777D01*
X127232908Y-90456119D01*
X127255662Y-90469757D01*
X127276969Y-90485560D01*
X127296625Y-90503375D01*
X127314440Y-90523031D01*
X127330243Y-90544338D01*
X127343881Y-90567092D01*
X127355223Y-90591073D01*
X127364160Y-90616050D01*
X127370606Y-90641783D01*
X127374498Y-90668024D01*
X127375800Y-90694520D01*
X127375800Y-91505480D01*
X127374498Y-91531976D01*
X127370606Y-91558217D01*
X127364160Y-91583950D01*
X127355223Y-91608927D01*
X127343881Y-91632908D01*
X127330243Y-91655662D01*
X127314440Y-91676969D01*
X127296625Y-91696625D01*
X127276969Y-91714440D01*
X127255662Y-91730243D01*
X127232908Y-91743881D01*
X127208927Y-91755223D01*
X127183950Y-91764160D01*
X127158217Y-91770606D01*
X127131976Y-91774498D01*
X127105480Y-91775800D01*
X124894520Y-91775800D01*
X124868024Y-91774498D01*
X124841783Y-91770606D01*
X124816050Y-91764160D01*
X124791073Y-91755223D01*
X124767092Y-91743881D01*
X124744338Y-91730243D01*
X124723031Y-91714440D01*
X124703375Y-91696625D01*
X124685560Y-91676969D01*
X124669757Y-91655662D01*
X124656119Y-91632908D01*
X124644777Y-91608927D01*
X124635840Y-91583950D01*
X124629394Y-91558217D01*
X124625502Y-91531976D01*
X124624200Y-91505480D01*
X124624200Y-90694520D01*
X124625502Y-90668024D01*
X124629394Y-90641783D01*
X124635840Y-90616050D01*
X124644777Y-90591073D01*
X124656119Y-90567092D01*
X124669757Y-90544338D01*
X124685560Y-90523031D01*
X124703375Y-90503375D01*
X124723031Y-90485560D01*
X124744338Y-90469757D01*
X124767092Y-90456119D01*
X124791073Y-90444777D01*
X124816050Y-90435840D01*
X124841783Y-90429394D01*
X124868024Y-90425502D01*
X124894520Y-90424200D01*
X127105480Y-90424200D01*
X127131976Y-90425502D01*
X127131976Y-90425502D01*
G37*
D12*
X126000000Y-91100000D03*
D10*
G36*
X127131976Y-93225502D02*
G01*
X127158217Y-93229394D01*
X127183950Y-93235840D01*
X127208927Y-93244777D01*
X127232908Y-93256119D01*
X127255662Y-93269757D01*
X127276969Y-93285560D01*
X127296625Y-93303375D01*
X127314440Y-93323031D01*
X127330243Y-93344338D01*
X127343881Y-93367092D01*
X127355223Y-93391073D01*
X127364160Y-93416050D01*
X127370606Y-93441783D01*
X127374498Y-93468024D01*
X127375800Y-93494520D01*
X127375800Y-94305480D01*
X127374498Y-94331976D01*
X127370606Y-94358217D01*
X127364160Y-94383950D01*
X127355223Y-94408927D01*
X127343881Y-94432908D01*
X127330243Y-94455662D01*
X127314440Y-94476969D01*
X127296625Y-94496625D01*
X127276969Y-94514440D01*
X127255662Y-94530243D01*
X127232908Y-94543881D01*
X127208927Y-94555223D01*
X127183950Y-94564160D01*
X127158217Y-94570606D01*
X127131976Y-94574498D01*
X127105480Y-94575800D01*
X124894520Y-94575800D01*
X124868024Y-94574498D01*
X124841783Y-94570606D01*
X124816050Y-94564160D01*
X124791073Y-94555223D01*
X124767092Y-94543881D01*
X124744338Y-94530243D01*
X124723031Y-94514440D01*
X124703375Y-94496625D01*
X124685560Y-94476969D01*
X124669757Y-94455662D01*
X124656119Y-94432908D01*
X124644777Y-94408927D01*
X124635840Y-94383950D01*
X124629394Y-94358217D01*
X124625502Y-94331976D01*
X124624200Y-94305480D01*
X124624200Y-93494520D01*
X124625502Y-93468024D01*
X124629394Y-93441783D01*
X124635840Y-93416050D01*
X124644777Y-93391073D01*
X124656119Y-93367092D01*
X124669757Y-93344338D01*
X124685560Y-93323031D01*
X124703375Y-93303375D01*
X124723031Y-93285560D01*
X124744338Y-93269757D01*
X124767092Y-93256119D01*
X124791073Y-93244777D01*
X124816050Y-93235840D01*
X124841783Y-93229394D01*
X124868024Y-93225502D01*
X124894520Y-93224200D01*
X127105480Y-93224200D01*
X127131976Y-93225502D01*
X127131976Y-93225502D01*
G37*
D12*
X126000000Y-93900000D03*
D10*
G36*
X127131976Y-99725502D02*
G01*
X127158217Y-99729394D01*
X127183950Y-99735840D01*
X127208927Y-99744777D01*
X127232908Y-99756119D01*
X127255662Y-99769757D01*
X127276969Y-99785560D01*
X127296625Y-99803375D01*
X127314440Y-99823031D01*
X127330243Y-99844338D01*
X127343881Y-99867092D01*
X127355223Y-99891073D01*
X127364160Y-99916050D01*
X127370606Y-99941783D01*
X127374498Y-99968024D01*
X127375800Y-99994520D01*
X127375800Y-100805480D01*
X127374498Y-100831976D01*
X127370606Y-100858217D01*
X127364160Y-100883950D01*
X127355223Y-100908927D01*
X127343881Y-100932908D01*
X127330243Y-100955662D01*
X127314440Y-100976969D01*
X127296625Y-100996625D01*
X127276969Y-101014440D01*
X127255662Y-101030243D01*
X127232908Y-101043881D01*
X127208927Y-101055223D01*
X127183950Y-101064160D01*
X127158217Y-101070606D01*
X127131976Y-101074498D01*
X127105480Y-101075800D01*
X124894520Y-101075800D01*
X124868024Y-101074498D01*
X124841783Y-101070606D01*
X124816050Y-101064160D01*
X124791073Y-101055223D01*
X124767092Y-101043881D01*
X124744338Y-101030243D01*
X124723031Y-101014440D01*
X124703375Y-100996625D01*
X124685560Y-100976969D01*
X124669757Y-100955662D01*
X124656119Y-100932908D01*
X124644777Y-100908927D01*
X124635840Y-100883950D01*
X124629394Y-100858217D01*
X124625502Y-100831976D01*
X124624200Y-100805480D01*
X124624200Y-99994520D01*
X124625502Y-99968024D01*
X124629394Y-99941783D01*
X124635840Y-99916050D01*
X124644777Y-99891073D01*
X124656119Y-99867092D01*
X124669757Y-99844338D01*
X124685560Y-99823031D01*
X124703375Y-99803375D01*
X124723031Y-99785560D01*
X124744338Y-99769757D01*
X124767092Y-99756119D01*
X124791073Y-99744777D01*
X124816050Y-99735840D01*
X124841783Y-99729394D01*
X124868024Y-99725502D01*
X124894520Y-99724200D01*
X127105480Y-99724200D01*
X127131976Y-99725502D01*
X127131976Y-99725502D01*
G37*
D12*
X126000000Y-100400000D03*
D10*
G36*
X127131976Y-96925502D02*
G01*
X127158217Y-96929394D01*
X127183950Y-96935840D01*
X127208927Y-96944777D01*
X127232908Y-96956119D01*
X127255662Y-96969757D01*
X127276969Y-96985560D01*
X127296625Y-97003375D01*
X127314440Y-97023031D01*
X127330243Y-97044338D01*
X127343881Y-97067092D01*
X127355223Y-97091073D01*
X127364160Y-97116050D01*
X127370606Y-97141783D01*
X127374498Y-97168024D01*
X127375800Y-97194520D01*
X127375800Y-98005480D01*
X127374498Y-98031976D01*
X127370606Y-98058217D01*
X127364160Y-98083950D01*
X127355223Y-98108927D01*
X127343881Y-98132908D01*
X127330243Y-98155662D01*
X127314440Y-98176969D01*
X127296625Y-98196625D01*
X127276969Y-98214440D01*
X127255662Y-98230243D01*
X127232908Y-98243881D01*
X127208927Y-98255223D01*
X127183950Y-98264160D01*
X127158217Y-98270606D01*
X127131976Y-98274498D01*
X127105480Y-98275800D01*
X124894520Y-98275800D01*
X124868024Y-98274498D01*
X124841783Y-98270606D01*
X124816050Y-98264160D01*
X124791073Y-98255223D01*
X124767092Y-98243881D01*
X124744338Y-98230243D01*
X124723031Y-98214440D01*
X124703375Y-98196625D01*
X124685560Y-98176969D01*
X124669757Y-98155662D01*
X124656119Y-98132908D01*
X124644777Y-98108927D01*
X124635840Y-98083950D01*
X124629394Y-98058217D01*
X124625502Y-98031976D01*
X124624200Y-98005480D01*
X124624200Y-97194520D01*
X124625502Y-97168024D01*
X124629394Y-97141783D01*
X124635840Y-97116050D01*
X124644777Y-97091073D01*
X124656119Y-97067092D01*
X124669757Y-97044338D01*
X124685560Y-97023031D01*
X124703375Y-97003375D01*
X124723031Y-96985560D01*
X124744338Y-96969757D01*
X124767092Y-96956119D01*
X124791073Y-96944777D01*
X124816050Y-96935840D01*
X124841783Y-96929394D01*
X124868024Y-96925502D01*
X124894520Y-96924200D01*
X127105480Y-96924200D01*
X127131976Y-96925502D01*
X127131976Y-96925502D01*
G37*
D12*
X126000000Y-97600000D03*
D10*
G36*
X103171976Y-93113502D02*
G01*
X103198217Y-93117394D01*
X103223950Y-93123840D01*
X103248927Y-93132777D01*
X103272908Y-93144119D01*
X103295662Y-93157757D01*
X103316969Y-93173560D01*
X103336625Y-93191375D01*
X103354440Y-93211031D01*
X103370243Y-93232338D01*
X103383881Y-93255092D01*
X103395223Y-93279073D01*
X103404160Y-93304050D01*
X103410606Y-93329783D01*
X103414498Y-93356024D01*
X103415800Y-93382520D01*
X103415800Y-95593480D01*
X103414498Y-95619976D01*
X103410606Y-95646217D01*
X103404160Y-95671950D01*
X103395223Y-95696927D01*
X103383881Y-95720908D01*
X103370243Y-95743662D01*
X103354440Y-95764969D01*
X103336625Y-95784625D01*
X103316969Y-95802440D01*
X103295662Y-95818243D01*
X103272908Y-95831881D01*
X103248927Y-95843223D01*
X103223950Y-95852160D01*
X103198217Y-95858606D01*
X103171976Y-95862498D01*
X103145480Y-95863800D01*
X102334520Y-95863800D01*
X102308024Y-95862498D01*
X102281783Y-95858606D01*
X102256050Y-95852160D01*
X102231073Y-95843223D01*
X102207092Y-95831881D01*
X102184338Y-95818243D01*
X102163031Y-95802440D01*
X102143375Y-95784625D01*
X102125560Y-95764969D01*
X102109757Y-95743662D01*
X102096119Y-95720908D01*
X102084777Y-95696927D01*
X102075840Y-95671950D01*
X102069394Y-95646217D01*
X102065502Y-95619976D01*
X102064200Y-95593480D01*
X102064200Y-93382520D01*
X102065502Y-93356024D01*
X102069394Y-93329783D01*
X102075840Y-93304050D01*
X102084777Y-93279073D01*
X102096119Y-93255092D01*
X102109757Y-93232338D01*
X102125560Y-93211031D01*
X102143375Y-93191375D01*
X102163031Y-93173560D01*
X102184338Y-93157757D01*
X102207092Y-93144119D01*
X102231073Y-93132777D01*
X102256050Y-93123840D01*
X102281783Y-93117394D01*
X102308024Y-93113502D01*
X102334520Y-93112200D01*
X103145480Y-93112200D01*
X103171976Y-93113502D01*
X103171976Y-93113502D01*
G37*
D12*
X102740000Y-94488000D03*
D10*
G36*
X105971976Y-93113502D02*
G01*
X105998217Y-93117394D01*
X106023950Y-93123840D01*
X106048927Y-93132777D01*
X106072908Y-93144119D01*
X106095662Y-93157757D01*
X106116969Y-93173560D01*
X106136625Y-93191375D01*
X106154440Y-93211031D01*
X106170243Y-93232338D01*
X106183881Y-93255092D01*
X106195223Y-93279073D01*
X106204160Y-93304050D01*
X106210606Y-93329783D01*
X106214498Y-93356024D01*
X106215800Y-93382520D01*
X106215800Y-95593480D01*
X106214498Y-95619976D01*
X106210606Y-95646217D01*
X106204160Y-95671950D01*
X106195223Y-95696927D01*
X106183881Y-95720908D01*
X106170243Y-95743662D01*
X106154440Y-95764969D01*
X106136625Y-95784625D01*
X106116969Y-95802440D01*
X106095662Y-95818243D01*
X106072908Y-95831881D01*
X106048927Y-95843223D01*
X106023950Y-95852160D01*
X105998217Y-95858606D01*
X105971976Y-95862498D01*
X105945480Y-95863800D01*
X105134520Y-95863800D01*
X105108024Y-95862498D01*
X105081783Y-95858606D01*
X105056050Y-95852160D01*
X105031073Y-95843223D01*
X105007092Y-95831881D01*
X104984338Y-95818243D01*
X104963031Y-95802440D01*
X104943375Y-95784625D01*
X104925560Y-95764969D01*
X104909757Y-95743662D01*
X104896119Y-95720908D01*
X104884777Y-95696927D01*
X104875840Y-95671950D01*
X104869394Y-95646217D01*
X104865502Y-95619976D01*
X104864200Y-95593480D01*
X104864200Y-93382520D01*
X104865502Y-93356024D01*
X104869394Y-93329783D01*
X104875840Y-93304050D01*
X104884777Y-93279073D01*
X104896119Y-93255092D01*
X104909757Y-93232338D01*
X104925560Y-93211031D01*
X104943375Y-93191375D01*
X104963031Y-93173560D01*
X104984338Y-93157757D01*
X105007092Y-93144119D01*
X105031073Y-93132777D01*
X105056050Y-93123840D01*
X105081783Y-93117394D01*
X105108024Y-93113502D01*
X105134520Y-93112200D01*
X105945480Y-93112200D01*
X105971976Y-93113502D01*
X105971976Y-93113502D01*
G37*
D12*
X105540000Y-94488000D03*
D10*
G36*
X103165976Y-97939502D02*
G01*
X103192217Y-97943394D01*
X103217950Y-97949840D01*
X103242927Y-97958777D01*
X103266908Y-97970119D01*
X103289662Y-97983757D01*
X103310969Y-97999560D01*
X103330625Y-98017375D01*
X103348440Y-98037031D01*
X103364243Y-98058338D01*
X103377881Y-98081092D01*
X103389223Y-98105073D01*
X103398160Y-98130050D01*
X103404606Y-98155783D01*
X103408498Y-98182024D01*
X103409800Y-98208520D01*
X103409800Y-100419480D01*
X103408498Y-100445976D01*
X103404606Y-100472217D01*
X103398160Y-100497950D01*
X103389223Y-100522927D01*
X103377881Y-100546908D01*
X103364243Y-100569662D01*
X103348440Y-100590969D01*
X103330625Y-100610625D01*
X103310969Y-100628440D01*
X103289662Y-100644243D01*
X103266908Y-100657881D01*
X103242927Y-100669223D01*
X103217950Y-100678160D01*
X103192217Y-100684606D01*
X103165976Y-100688498D01*
X103139480Y-100689800D01*
X102328520Y-100689800D01*
X102302024Y-100688498D01*
X102275783Y-100684606D01*
X102250050Y-100678160D01*
X102225073Y-100669223D01*
X102201092Y-100657881D01*
X102178338Y-100644243D01*
X102157031Y-100628440D01*
X102137375Y-100610625D01*
X102119560Y-100590969D01*
X102103757Y-100569662D01*
X102090119Y-100546908D01*
X102078777Y-100522927D01*
X102069840Y-100497950D01*
X102063394Y-100472217D01*
X102059502Y-100445976D01*
X102058200Y-100419480D01*
X102058200Y-98208520D01*
X102059502Y-98182024D01*
X102063394Y-98155783D01*
X102069840Y-98130050D01*
X102078777Y-98105073D01*
X102090119Y-98081092D01*
X102103757Y-98058338D01*
X102119560Y-98037031D01*
X102137375Y-98017375D01*
X102157031Y-97999560D01*
X102178338Y-97983757D01*
X102201092Y-97970119D01*
X102225073Y-97958777D01*
X102250050Y-97949840D01*
X102275783Y-97943394D01*
X102302024Y-97939502D01*
X102328520Y-97938200D01*
X103139480Y-97938200D01*
X103165976Y-97939502D01*
X103165976Y-97939502D01*
G37*
D12*
X102734000Y-99314000D03*
D10*
G36*
X105965976Y-97939502D02*
G01*
X105992217Y-97943394D01*
X106017950Y-97949840D01*
X106042927Y-97958777D01*
X106066908Y-97970119D01*
X106089662Y-97983757D01*
X106110969Y-97999560D01*
X106130625Y-98017375D01*
X106148440Y-98037031D01*
X106164243Y-98058338D01*
X106177881Y-98081092D01*
X106189223Y-98105073D01*
X106198160Y-98130050D01*
X106204606Y-98155783D01*
X106208498Y-98182024D01*
X106209800Y-98208520D01*
X106209800Y-100419480D01*
X106208498Y-100445976D01*
X106204606Y-100472217D01*
X106198160Y-100497950D01*
X106189223Y-100522927D01*
X106177881Y-100546908D01*
X106164243Y-100569662D01*
X106148440Y-100590969D01*
X106130625Y-100610625D01*
X106110969Y-100628440D01*
X106089662Y-100644243D01*
X106066908Y-100657881D01*
X106042927Y-100669223D01*
X106017950Y-100678160D01*
X105992217Y-100684606D01*
X105965976Y-100688498D01*
X105939480Y-100689800D01*
X105128520Y-100689800D01*
X105102024Y-100688498D01*
X105075783Y-100684606D01*
X105050050Y-100678160D01*
X105025073Y-100669223D01*
X105001092Y-100657881D01*
X104978338Y-100644243D01*
X104957031Y-100628440D01*
X104937375Y-100610625D01*
X104919560Y-100590969D01*
X104903757Y-100569662D01*
X104890119Y-100546908D01*
X104878777Y-100522927D01*
X104869840Y-100497950D01*
X104863394Y-100472217D01*
X104859502Y-100445976D01*
X104858200Y-100419480D01*
X104858200Y-98208520D01*
X104859502Y-98182024D01*
X104863394Y-98155783D01*
X104869840Y-98130050D01*
X104878777Y-98105073D01*
X104890119Y-98081092D01*
X104903757Y-98058338D01*
X104919560Y-98037031D01*
X104937375Y-98017375D01*
X104957031Y-97999560D01*
X104978338Y-97983757D01*
X105001092Y-97970119D01*
X105025073Y-97958777D01*
X105050050Y-97949840D01*
X105075783Y-97943394D01*
X105102024Y-97939502D01*
X105128520Y-97938200D01*
X105939480Y-97938200D01*
X105965976Y-97939502D01*
X105965976Y-97939502D01*
G37*
D12*
X105534000Y-99314000D03*
D10*
G36*
X103190976Y-101542502D02*
G01*
X103217217Y-101546394D01*
X103242950Y-101552840D01*
X103267927Y-101561777D01*
X103291908Y-101573119D01*
X103314662Y-101586757D01*
X103335969Y-101602560D01*
X103355625Y-101620375D01*
X103373440Y-101640031D01*
X103389243Y-101661338D01*
X103402881Y-101684092D01*
X103414223Y-101708073D01*
X103423160Y-101733050D01*
X103429606Y-101758783D01*
X103433498Y-101785024D01*
X103434800Y-101811520D01*
X103434800Y-103122480D01*
X103433498Y-103148976D01*
X103429606Y-103175217D01*
X103423160Y-103200950D01*
X103414223Y-103225927D01*
X103402881Y-103249908D01*
X103389243Y-103272662D01*
X103373440Y-103293969D01*
X103355625Y-103313625D01*
X103335969Y-103331440D01*
X103314662Y-103347243D01*
X103291908Y-103360881D01*
X103267927Y-103372223D01*
X103242950Y-103381160D01*
X103217217Y-103387606D01*
X103190976Y-103391498D01*
X103164480Y-103392800D01*
X102353520Y-103392800D01*
X102327024Y-103391498D01*
X102300783Y-103387606D01*
X102275050Y-103381160D01*
X102250073Y-103372223D01*
X102226092Y-103360881D01*
X102203338Y-103347243D01*
X102182031Y-103331440D01*
X102162375Y-103313625D01*
X102144560Y-103293969D01*
X102128757Y-103272662D01*
X102115119Y-103249908D01*
X102103777Y-103225927D01*
X102094840Y-103200950D01*
X102088394Y-103175217D01*
X102084502Y-103148976D01*
X102083200Y-103122480D01*
X102083200Y-101811520D01*
X102084502Y-101785024D01*
X102088394Y-101758783D01*
X102094840Y-101733050D01*
X102103777Y-101708073D01*
X102115119Y-101684092D01*
X102128757Y-101661338D01*
X102144560Y-101640031D01*
X102162375Y-101620375D01*
X102182031Y-101602560D01*
X102203338Y-101586757D01*
X102226092Y-101573119D01*
X102250073Y-101561777D01*
X102275050Y-101552840D01*
X102300783Y-101546394D01*
X102327024Y-101542502D01*
X102353520Y-101541200D01*
X103164480Y-101541200D01*
X103190976Y-101542502D01*
X103190976Y-101542502D01*
G37*
D12*
X102759000Y-102467000D03*
D10*
G36*
X105990976Y-101542502D02*
G01*
X106017217Y-101546394D01*
X106042950Y-101552840D01*
X106067927Y-101561777D01*
X106091908Y-101573119D01*
X106114662Y-101586757D01*
X106135969Y-101602560D01*
X106155625Y-101620375D01*
X106173440Y-101640031D01*
X106189243Y-101661338D01*
X106202881Y-101684092D01*
X106214223Y-101708073D01*
X106223160Y-101733050D01*
X106229606Y-101758783D01*
X106233498Y-101785024D01*
X106234800Y-101811520D01*
X106234800Y-103122480D01*
X106233498Y-103148976D01*
X106229606Y-103175217D01*
X106223160Y-103200950D01*
X106214223Y-103225927D01*
X106202881Y-103249908D01*
X106189243Y-103272662D01*
X106173440Y-103293969D01*
X106155625Y-103313625D01*
X106135969Y-103331440D01*
X106114662Y-103347243D01*
X106091908Y-103360881D01*
X106067927Y-103372223D01*
X106042950Y-103381160D01*
X106017217Y-103387606D01*
X105990976Y-103391498D01*
X105964480Y-103392800D01*
X105153520Y-103392800D01*
X105127024Y-103391498D01*
X105100783Y-103387606D01*
X105075050Y-103381160D01*
X105050073Y-103372223D01*
X105026092Y-103360881D01*
X105003338Y-103347243D01*
X104982031Y-103331440D01*
X104962375Y-103313625D01*
X104944560Y-103293969D01*
X104928757Y-103272662D01*
X104915119Y-103249908D01*
X104903777Y-103225927D01*
X104894840Y-103200950D01*
X104888394Y-103175217D01*
X104884502Y-103148976D01*
X104883200Y-103122480D01*
X104883200Y-101811520D01*
X104884502Y-101785024D01*
X104888394Y-101758783D01*
X104894840Y-101733050D01*
X104903777Y-101708073D01*
X104915119Y-101684092D01*
X104928757Y-101661338D01*
X104944560Y-101640031D01*
X104962375Y-101620375D01*
X104982031Y-101602560D01*
X105003338Y-101586757D01*
X105026092Y-101573119D01*
X105050073Y-101561777D01*
X105075050Y-101552840D01*
X105100783Y-101546394D01*
X105127024Y-101542502D01*
X105153520Y-101541200D01*
X105964480Y-101541200D01*
X105990976Y-101542502D01*
X105990976Y-101542502D01*
G37*
D12*
X105559000Y-102467000D03*
D10*
G36*
X112505976Y-79984502D02*
G01*
X112532217Y-79988394D01*
X112557950Y-79994840D01*
X112582927Y-80003777D01*
X112606908Y-80015119D01*
X112629662Y-80028757D01*
X112650969Y-80044560D01*
X112670625Y-80062375D01*
X112688440Y-80082031D01*
X112704243Y-80103338D01*
X112717881Y-80126092D01*
X112729223Y-80150073D01*
X112738160Y-80175050D01*
X112744606Y-80200783D01*
X112748498Y-80227024D01*
X112749800Y-80253520D01*
X112749800Y-81064480D01*
X112748498Y-81090976D01*
X112744606Y-81117217D01*
X112738160Y-81142950D01*
X112729223Y-81167927D01*
X112717881Y-81191908D01*
X112704243Y-81214662D01*
X112688440Y-81235969D01*
X112670625Y-81255625D01*
X112650969Y-81273440D01*
X112629662Y-81289243D01*
X112606908Y-81302881D01*
X112582927Y-81314223D01*
X112557950Y-81323160D01*
X112532217Y-81329606D01*
X112505976Y-81333498D01*
X112479480Y-81334800D01*
X111168520Y-81334800D01*
X111142024Y-81333498D01*
X111115783Y-81329606D01*
X111090050Y-81323160D01*
X111065073Y-81314223D01*
X111041092Y-81302881D01*
X111018338Y-81289243D01*
X110997031Y-81273440D01*
X110977375Y-81255625D01*
X110959560Y-81235969D01*
X110943757Y-81214662D01*
X110930119Y-81191908D01*
X110918777Y-81167927D01*
X110909840Y-81142950D01*
X110903394Y-81117217D01*
X110899502Y-81090976D01*
X110898200Y-81064480D01*
X110898200Y-80253520D01*
X110899502Y-80227024D01*
X110903394Y-80200783D01*
X110909840Y-80175050D01*
X110918777Y-80150073D01*
X110930119Y-80126092D01*
X110943757Y-80103338D01*
X110959560Y-80082031D01*
X110977375Y-80062375D01*
X110997031Y-80044560D01*
X111018338Y-80028757D01*
X111041092Y-80015119D01*
X111065073Y-80003777D01*
X111090050Y-79994840D01*
X111115783Y-79988394D01*
X111142024Y-79984502D01*
X111168520Y-79983200D01*
X112479480Y-79983200D01*
X112505976Y-79984502D01*
X112505976Y-79984502D01*
G37*
D12*
X111824000Y-80659000D03*
D10*
G36*
X112505976Y-77184502D02*
G01*
X112532217Y-77188394D01*
X112557950Y-77194840D01*
X112582927Y-77203777D01*
X112606908Y-77215119D01*
X112629662Y-77228757D01*
X112650969Y-77244560D01*
X112670625Y-77262375D01*
X112688440Y-77282031D01*
X112704243Y-77303338D01*
X112717881Y-77326092D01*
X112729223Y-77350073D01*
X112738160Y-77375050D01*
X112744606Y-77400783D01*
X112748498Y-77427024D01*
X112749800Y-77453520D01*
X112749800Y-78264480D01*
X112748498Y-78290976D01*
X112744606Y-78317217D01*
X112738160Y-78342950D01*
X112729223Y-78367927D01*
X112717881Y-78391908D01*
X112704243Y-78414662D01*
X112688440Y-78435969D01*
X112670625Y-78455625D01*
X112650969Y-78473440D01*
X112629662Y-78489243D01*
X112606908Y-78502881D01*
X112582927Y-78514223D01*
X112557950Y-78523160D01*
X112532217Y-78529606D01*
X112505976Y-78533498D01*
X112479480Y-78534800D01*
X111168520Y-78534800D01*
X111142024Y-78533498D01*
X111115783Y-78529606D01*
X111090050Y-78523160D01*
X111065073Y-78514223D01*
X111041092Y-78502881D01*
X111018338Y-78489243D01*
X110997031Y-78473440D01*
X110977375Y-78455625D01*
X110959560Y-78435969D01*
X110943757Y-78414662D01*
X110930119Y-78391908D01*
X110918777Y-78367927D01*
X110909840Y-78342950D01*
X110903394Y-78317217D01*
X110899502Y-78290976D01*
X110898200Y-78264480D01*
X110898200Y-77453520D01*
X110899502Y-77427024D01*
X110903394Y-77400783D01*
X110909840Y-77375050D01*
X110918777Y-77350073D01*
X110930119Y-77326092D01*
X110943757Y-77303338D01*
X110959560Y-77282031D01*
X110977375Y-77262375D01*
X110997031Y-77244560D01*
X111018338Y-77228757D01*
X111041092Y-77215119D01*
X111065073Y-77203777D01*
X111090050Y-77194840D01*
X111115783Y-77188394D01*
X111142024Y-77184502D01*
X111168520Y-77183200D01*
X112479480Y-77183200D01*
X112505976Y-77184502D01*
X112505976Y-77184502D01*
G37*
D12*
X111824000Y-77859000D03*
D10*
G36*
X104008031Y-89600496D02*
G01*
X104034159Y-89604372D01*
X104059780Y-89610790D01*
X104084649Y-89619688D01*
X104108526Y-89630981D01*
X104131182Y-89644560D01*
X104152397Y-89660294D01*
X104171968Y-89678032D01*
X104189706Y-89697603D01*
X104205440Y-89718818D01*
X104219019Y-89741474D01*
X104230312Y-89765351D01*
X104239210Y-89790220D01*
X104245628Y-89815841D01*
X104249504Y-89841969D01*
X104250800Y-89868350D01*
X104250800Y-90831650D01*
X104249504Y-90858031D01*
X104245628Y-90884159D01*
X104239210Y-90909780D01*
X104230312Y-90934649D01*
X104219019Y-90958526D01*
X104205440Y-90981182D01*
X104189706Y-91002397D01*
X104171968Y-91021968D01*
X104152397Y-91039706D01*
X104131182Y-91055440D01*
X104108526Y-91069019D01*
X104084649Y-91080312D01*
X104059780Y-91089210D01*
X104034159Y-91095628D01*
X104008031Y-91099504D01*
X103981650Y-91100800D01*
X103443350Y-91100800D01*
X103416969Y-91099504D01*
X103390841Y-91095628D01*
X103365220Y-91089210D01*
X103340351Y-91080312D01*
X103316474Y-91069019D01*
X103293818Y-91055440D01*
X103272603Y-91039706D01*
X103253032Y-91021968D01*
X103235294Y-91002397D01*
X103219560Y-90981182D01*
X103205981Y-90958526D01*
X103194688Y-90934649D01*
X103185790Y-90909780D01*
X103179372Y-90884159D01*
X103175496Y-90858031D01*
X103174200Y-90831650D01*
X103174200Y-89868350D01*
X103175496Y-89841969D01*
X103179372Y-89815841D01*
X103185790Y-89790220D01*
X103194688Y-89765351D01*
X103205981Y-89741474D01*
X103219560Y-89718818D01*
X103235294Y-89697603D01*
X103253032Y-89678032D01*
X103272603Y-89660294D01*
X103293818Y-89644560D01*
X103316474Y-89630981D01*
X103340351Y-89619688D01*
X103365220Y-89610790D01*
X103390841Y-89604372D01*
X103416969Y-89600496D01*
X103443350Y-89599200D01*
X103981650Y-89599200D01*
X104008031Y-89600496D01*
X104008031Y-89600496D01*
G37*
D25*
X103712500Y-90350000D03*
D10*
G36*
X105883031Y-89600496D02*
G01*
X105909159Y-89604372D01*
X105934780Y-89610790D01*
X105959649Y-89619688D01*
X105983526Y-89630981D01*
X106006182Y-89644560D01*
X106027397Y-89660294D01*
X106046968Y-89678032D01*
X106064706Y-89697603D01*
X106080440Y-89718818D01*
X106094019Y-89741474D01*
X106105312Y-89765351D01*
X106114210Y-89790220D01*
X106120628Y-89815841D01*
X106124504Y-89841969D01*
X106125800Y-89868350D01*
X106125800Y-90831650D01*
X106124504Y-90858031D01*
X106120628Y-90884159D01*
X106114210Y-90909780D01*
X106105312Y-90934649D01*
X106094019Y-90958526D01*
X106080440Y-90981182D01*
X106064706Y-91002397D01*
X106046968Y-91021968D01*
X106027397Y-91039706D01*
X106006182Y-91055440D01*
X105983526Y-91069019D01*
X105959649Y-91080312D01*
X105934780Y-91089210D01*
X105909159Y-91095628D01*
X105883031Y-91099504D01*
X105856650Y-91100800D01*
X105318350Y-91100800D01*
X105291969Y-91099504D01*
X105265841Y-91095628D01*
X105240220Y-91089210D01*
X105215351Y-91080312D01*
X105191474Y-91069019D01*
X105168818Y-91055440D01*
X105147603Y-91039706D01*
X105128032Y-91021968D01*
X105110294Y-91002397D01*
X105094560Y-90981182D01*
X105080981Y-90958526D01*
X105069688Y-90934649D01*
X105060790Y-90909780D01*
X105054372Y-90884159D01*
X105050496Y-90858031D01*
X105049200Y-90831650D01*
X105049200Y-89868350D01*
X105050496Y-89841969D01*
X105054372Y-89815841D01*
X105060790Y-89790220D01*
X105069688Y-89765351D01*
X105080981Y-89741474D01*
X105094560Y-89718818D01*
X105110294Y-89697603D01*
X105128032Y-89678032D01*
X105147603Y-89660294D01*
X105168818Y-89644560D01*
X105191474Y-89630981D01*
X105215351Y-89619688D01*
X105240220Y-89610790D01*
X105265841Y-89604372D01*
X105291969Y-89600496D01*
X105318350Y-89599200D01*
X105856650Y-89599200D01*
X105883031Y-89600496D01*
X105883031Y-89600496D01*
G37*
D25*
X105587500Y-90350000D03*
D10*
G36*
X103498031Y-76212496D02*
G01*
X103524159Y-76216372D01*
X103549780Y-76222790D01*
X103574649Y-76231688D01*
X103598526Y-76242981D01*
X103621182Y-76256560D01*
X103642397Y-76272294D01*
X103661968Y-76290032D01*
X103679706Y-76309603D01*
X103695440Y-76330818D01*
X103709019Y-76353474D01*
X103720312Y-76377351D01*
X103729210Y-76402220D01*
X103735628Y-76427841D01*
X103739504Y-76453969D01*
X103740800Y-76480350D01*
X103740800Y-77443650D01*
X103739504Y-77470031D01*
X103735628Y-77496159D01*
X103729210Y-77521780D01*
X103720312Y-77546649D01*
X103709019Y-77570526D01*
X103695440Y-77593182D01*
X103679706Y-77614397D01*
X103661968Y-77633968D01*
X103642397Y-77651706D01*
X103621182Y-77667440D01*
X103598526Y-77681019D01*
X103574649Y-77692312D01*
X103549780Y-77701210D01*
X103524159Y-77707628D01*
X103498031Y-77711504D01*
X103471650Y-77712800D01*
X102933350Y-77712800D01*
X102906969Y-77711504D01*
X102880841Y-77707628D01*
X102855220Y-77701210D01*
X102830351Y-77692312D01*
X102806474Y-77681019D01*
X102783818Y-77667440D01*
X102762603Y-77651706D01*
X102743032Y-77633968D01*
X102725294Y-77614397D01*
X102709560Y-77593182D01*
X102695981Y-77570526D01*
X102684688Y-77546649D01*
X102675790Y-77521780D01*
X102669372Y-77496159D01*
X102665496Y-77470031D01*
X102664200Y-77443650D01*
X102664200Y-76480350D01*
X102665496Y-76453969D01*
X102669372Y-76427841D01*
X102675790Y-76402220D01*
X102684688Y-76377351D01*
X102695981Y-76353474D01*
X102709560Y-76330818D01*
X102725294Y-76309603D01*
X102743032Y-76290032D01*
X102762603Y-76272294D01*
X102783818Y-76256560D01*
X102806474Y-76242981D01*
X102830351Y-76231688D01*
X102855220Y-76222790D01*
X102880841Y-76216372D01*
X102906969Y-76212496D01*
X102933350Y-76211200D01*
X103471650Y-76211200D01*
X103498031Y-76212496D01*
X103498031Y-76212496D01*
G37*
D25*
X103202500Y-76962000D03*
D10*
G36*
X105373031Y-76212496D02*
G01*
X105399159Y-76216372D01*
X105424780Y-76222790D01*
X105449649Y-76231688D01*
X105473526Y-76242981D01*
X105496182Y-76256560D01*
X105517397Y-76272294D01*
X105536968Y-76290032D01*
X105554706Y-76309603D01*
X105570440Y-76330818D01*
X105584019Y-76353474D01*
X105595312Y-76377351D01*
X105604210Y-76402220D01*
X105610628Y-76427841D01*
X105614504Y-76453969D01*
X105615800Y-76480350D01*
X105615800Y-77443650D01*
X105614504Y-77470031D01*
X105610628Y-77496159D01*
X105604210Y-77521780D01*
X105595312Y-77546649D01*
X105584019Y-77570526D01*
X105570440Y-77593182D01*
X105554706Y-77614397D01*
X105536968Y-77633968D01*
X105517397Y-77651706D01*
X105496182Y-77667440D01*
X105473526Y-77681019D01*
X105449649Y-77692312D01*
X105424780Y-77701210D01*
X105399159Y-77707628D01*
X105373031Y-77711504D01*
X105346650Y-77712800D01*
X104808350Y-77712800D01*
X104781969Y-77711504D01*
X104755841Y-77707628D01*
X104730220Y-77701210D01*
X104705351Y-77692312D01*
X104681474Y-77681019D01*
X104658818Y-77667440D01*
X104637603Y-77651706D01*
X104618032Y-77633968D01*
X104600294Y-77614397D01*
X104584560Y-77593182D01*
X104570981Y-77570526D01*
X104559688Y-77546649D01*
X104550790Y-77521780D01*
X104544372Y-77496159D01*
X104540496Y-77470031D01*
X104539200Y-77443650D01*
X104539200Y-76480350D01*
X104540496Y-76453969D01*
X104544372Y-76427841D01*
X104550790Y-76402220D01*
X104559688Y-76377351D01*
X104570981Y-76353474D01*
X104584560Y-76330818D01*
X104600294Y-76309603D01*
X104618032Y-76290032D01*
X104637603Y-76272294D01*
X104658818Y-76256560D01*
X104681474Y-76242981D01*
X104705351Y-76231688D01*
X104730220Y-76222790D01*
X104755841Y-76216372D01*
X104781969Y-76212496D01*
X104808350Y-76211200D01*
X105346650Y-76211200D01*
X105373031Y-76212496D01*
X105373031Y-76212496D01*
G37*
D25*
X105077500Y-76962000D03*
D10*
G36*
X142211669Y-49259466D02*
G01*
X142237189Y-49263252D01*
X142262216Y-49269520D01*
X142286507Y-49278212D01*
X142309830Y-49289243D01*
X142331959Y-49302507D01*
X142352682Y-49317876D01*
X142371798Y-49335202D01*
X142389124Y-49354318D01*
X142404493Y-49375041D01*
X142417757Y-49397170D01*
X142428788Y-49420493D01*
X142437480Y-49444784D01*
X142443748Y-49469811D01*
X142447534Y-49495331D01*
X142448800Y-49521100D01*
X142448800Y-50046900D01*
X142447534Y-50072669D01*
X142443748Y-50098189D01*
X142437480Y-50123216D01*
X142428788Y-50147507D01*
X142417757Y-50170830D01*
X142404493Y-50192959D01*
X142389124Y-50213682D01*
X142371798Y-50232798D01*
X142352682Y-50250124D01*
X142331959Y-50265493D01*
X142309830Y-50278757D01*
X142286507Y-50289788D01*
X142262216Y-50298480D01*
X142237189Y-50304748D01*
X142211669Y-50308534D01*
X142185900Y-50309800D01*
X141560100Y-50309800D01*
X141534331Y-50308534D01*
X141508811Y-50304748D01*
X141483784Y-50298480D01*
X141459493Y-50289788D01*
X141436170Y-50278757D01*
X141414041Y-50265493D01*
X141393318Y-50250124D01*
X141374202Y-50232798D01*
X141356876Y-50213682D01*
X141341507Y-50192959D01*
X141328243Y-50170830D01*
X141317212Y-50147507D01*
X141308520Y-50123216D01*
X141302252Y-50098189D01*
X141298466Y-50072669D01*
X141297200Y-50046900D01*
X141297200Y-49521100D01*
X141298466Y-49495331D01*
X141302252Y-49469811D01*
X141308520Y-49444784D01*
X141317212Y-49420493D01*
X141328243Y-49397170D01*
X141341507Y-49375041D01*
X141356876Y-49354318D01*
X141374202Y-49335202D01*
X141393318Y-49317876D01*
X141414041Y-49302507D01*
X141436170Y-49289243D01*
X141459493Y-49278212D01*
X141483784Y-49269520D01*
X141508811Y-49263252D01*
X141534331Y-49259466D01*
X141560100Y-49258200D01*
X142185900Y-49258200D01*
X142211669Y-49259466D01*
X142211669Y-49259466D01*
G37*
D26*
X141873000Y-49784000D03*
D10*
G36*
X143961669Y-49259466D02*
G01*
X143987189Y-49263252D01*
X144012216Y-49269520D01*
X144036507Y-49278212D01*
X144059830Y-49289243D01*
X144081959Y-49302507D01*
X144102682Y-49317876D01*
X144121798Y-49335202D01*
X144139124Y-49354318D01*
X144154493Y-49375041D01*
X144167757Y-49397170D01*
X144178788Y-49420493D01*
X144187480Y-49444784D01*
X144193748Y-49469811D01*
X144197534Y-49495331D01*
X144198800Y-49521100D01*
X144198800Y-50046900D01*
X144197534Y-50072669D01*
X144193748Y-50098189D01*
X144187480Y-50123216D01*
X144178788Y-50147507D01*
X144167757Y-50170830D01*
X144154493Y-50192959D01*
X144139124Y-50213682D01*
X144121798Y-50232798D01*
X144102682Y-50250124D01*
X144081959Y-50265493D01*
X144059830Y-50278757D01*
X144036507Y-50289788D01*
X144012216Y-50298480D01*
X143987189Y-50304748D01*
X143961669Y-50308534D01*
X143935900Y-50309800D01*
X143310100Y-50309800D01*
X143284331Y-50308534D01*
X143258811Y-50304748D01*
X143233784Y-50298480D01*
X143209493Y-50289788D01*
X143186170Y-50278757D01*
X143164041Y-50265493D01*
X143143318Y-50250124D01*
X143124202Y-50232798D01*
X143106876Y-50213682D01*
X143091507Y-50192959D01*
X143078243Y-50170830D01*
X143067212Y-50147507D01*
X143058520Y-50123216D01*
X143052252Y-50098189D01*
X143048466Y-50072669D01*
X143047200Y-50046900D01*
X143047200Y-49521100D01*
X143048466Y-49495331D01*
X143052252Y-49469811D01*
X143058520Y-49444784D01*
X143067212Y-49420493D01*
X143078243Y-49397170D01*
X143091507Y-49375041D01*
X143106876Y-49354318D01*
X143124202Y-49335202D01*
X143143318Y-49317876D01*
X143164041Y-49302507D01*
X143186170Y-49289243D01*
X143209493Y-49278212D01*
X143233784Y-49269520D01*
X143258811Y-49263252D01*
X143284331Y-49259466D01*
X143310100Y-49258200D01*
X143935900Y-49258200D01*
X143961669Y-49259466D01*
X143961669Y-49259466D01*
G37*
D26*
X143623000Y-49784000D03*
D10*
G36*
X142211669Y-47227466D02*
G01*
X142237189Y-47231252D01*
X142262216Y-47237520D01*
X142286507Y-47246212D01*
X142309830Y-47257243D01*
X142331959Y-47270507D01*
X142352682Y-47285876D01*
X142371798Y-47303202D01*
X142389124Y-47322318D01*
X142404493Y-47343041D01*
X142417757Y-47365170D01*
X142428788Y-47388493D01*
X142437480Y-47412784D01*
X142443748Y-47437811D01*
X142447534Y-47463331D01*
X142448800Y-47489100D01*
X142448800Y-48014900D01*
X142447534Y-48040669D01*
X142443748Y-48066189D01*
X142437480Y-48091216D01*
X142428788Y-48115507D01*
X142417757Y-48138830D01*
X142404493Y-48160959D01*
X142389124Y-48181682D01*
X142371798Y-48200798D01*
X142352682Y-48218124D01*
X142331959Y-48233493D01*
X142309830Y-48246757D01*
X142286507Y-48257788D01*
X142262216Y-48266480D01*
X142237189Y-48272748D01*
X142211669Y-48276534D01*
X142185900Y-48277800D01*
X141560100Y-48277800D01*
X141534331Y-48276534D01*
X141508811Y-48272748D01*
X141483784Y-48266480D01*
X141459493Y-48257788D01*
X141436170Y-48246757D01*
X141414041Y-48233493D01*
X141393318Y-48218124D01*
X141374202Y-48200798D01*
X141356876Y-48181682D01*
X141341507Y-48160959D01*
X141328243Y-48138830D01*
X141317212Y-48115507D01*
X141308520Y-48091216D01*
X141302252Y-48066189D01*
X141298466Y-48040669D01*
X141297200Y-48014900D01*
X141297200Y-47489100D01*
X141298466Y-47463331D01*
X141302252Y-47437811D01*
X141308520Y-47412784D01*
X141317212Y-47388493D01*
X141328243Y-47365170D01*
X141341507Y-47343041D01*
X141356876Y-47322318D01*
X141374202Y-47303202D01*
X141393318Y-47285876D01*
X141414041Y-47270507D01*
X141436170Y-47257243D01*
X141459493Y-47246212D01*
X141483784Y-47237520D01*
X141508811Y-47231252D01*
X141534331Y-47227466D01*
X141560100Y-47226200D01*
X142185900Y-47226200D01*
X142211669Y-47227466D01*
X142211669Y-47227466D01*
G37*
D26*
X141873000Y-47752000D03*
D10*
G36*
X143961669Y-47227466D02*
G01*
X143987189Y-47231252D01*
X144012216Y-47237520D01*
X144036507Y-47246212D01*
X144059830Y-47257243D01*
X144081959Y-47270507D01*
X144102682Y-47285876D01*
X144121798Y-47303202D01*
X144139124Y-47322318D01*
X144154493Y-47343041D01*
X144167757Y-47365170D01*
X144178788Y-47388493D01*
X144187480Y-47412784D01*
X144193748Y-47437811D01*
X144197534Y-47463331D01*
X144198800Y-47489100D01*
X144198800Y-48014900D01*
X144197534Y-48040669D01*
X144193748Y-48066189D01*
X144187480Y-48091216D01*
X144178788Y-48115507D01*
X144167757Y-48138830D01*
X144154493Y-48160959D01*
X144139124Y-48181682D01*
X144121798Y-48200798D01*
X144102682Y-48218124D01*
X144081959Y-48233493D01*
X144059830Y-48246757D01*
X144036507Y-48257788D01*
X144012216Y-48266480D01*
X143987189Y-48272748D01*
X143961669Y-48276534D01*
X143935900Y-48277800D01*
X143310100Y-48277800D01*
X143284331Y-48276534D01*
X143258811Y-48272748D01*
X143233784Y-48266480D01*
X143209493Y-48257788D01*
X143186170Y-48246757D01*
X143164041Y-48233493D01*
X143143318Y-48218124D01*
X143124202Y-48200798D01*
X143106876Y-48181682D01*
X143091507Y-48160959D01*
X143078243Y-48138830D01*
X143067212Y-48115507D01*
X143058520Y-48091216D01*
X143052252Y-48066189D01*
X143048466Y-48040669D01*
X143047200Y-48014900D01*
X143047200Y-47489100D01*
X143048466Y-47463331D01*
X143052252Y-47437811D01*
X143058520Y-47412784D01*
X143067212Y-47388493D01*
X143078243Y-47365170D01*
X143091507Y-47343041D01*
X143106876Y-47322318D01*
X143124202Y-47303202D01*
X143143318Y-47285876D01*
X143164041Y-47270507D01*
X143186170Y-47257243D01*
X143209493Y-47246212D01*
X143233784Y-47237520D01*
X143258811Y-47231252D01*
X143284331Y-47227466D01*
X143310100Y-47226200D01*
X143935900Y-47226200D01*
X143961669Y-47227466D01*
X143961669Y-47227466D01*
G37*
D26*
X143623000Y-47752000D03*
D10*
G36*
X143803581Y-52053376D02*
G01*
X143827281Y-52056891D01*
X143850523Y-52062713D01*
X143873082Y-52070785D01*
X143894742Y-52081029D01*
X143915292Y-52093347D01*
X143934537Y-52107619D01*
X143952290Y-52123710D01*
X143968381Y-52141463D01*
X143982653Y-52160708D01*
X143994971Y-52181258D01*
X144005215Y-52202918D01*
X144013287Y-52225477D01*
X144019109Y-52248719D01*
X144022624Y-52272419D01*
X144023800Y-52296350D01*
X144023800Y-52859650D01*
X144022624Y-52883581D01*
X144019109Y-52907281D01*
X144013287Y-52930523D01*
X144005215Y-52953082D01*
X143994971Y-52974742D01*
X143982653Y-52995292D01*
X143968381Y-53014537D01*
X143952290Y-53032290D01*
X143934537Y-53048381D01*
X143915292Y-53062653D01*
X143894742Y-53074971D01*
X143873082Y-53085215D01*
X143850523Y-53093287D01*
X143827281Y-53099109D01*
X143803581Y-53102624D01*
X143779650Y-53103800D01*
X143291350Y-53103800D01*
X143267419Y-53102624D01*
X143243719Y-53099109D01*
X143220477Y-53093287D01*
X143197918Y-53085215D01*
X143176258Y-53074971D01*
X143155708Y-53062653D01*
X143136463Y-53048381D01*
X143118710Y-53032290D01*
X143102619Y-53014537D01*
X143088347Y-52995292D01*
X143076029Y-52974742D01*
X143065785Y-52953082D01*
X143057713Y-52930523D01*
X143051891Y-52907281D01*
X143048376Y-52883581D01*
X143047200Y-52859650D01*
X143047200Y-52296350D01*
X143048376Y-52272419D01*
X143051891Y-52248719D01*
X143057713Y-52225477D01*
X143065785Y-52202918D01*
X143076029Y-52181258D01*
X143088347Y-52160708D01*
X143102619Y-52141463D01*
X143118710Y-52123710D01*
X143136463Y-52107619D01*
X143155708Y-52093347D01*
X143176258Y-52081029D01*
X143197918Y-52070785D01*
X143220477Y-52062713D01*
X143243719Y-52056891D01*
X143267419Y-52053376D01*
X143291350Y-52052200D01*
X143779650Y-52052200D01*
X143803581Y-52053376D01*
X143803581Y-52053376D01*
G37*
D27*
X143535500Y-52578000D03*
D10*
G36*
X142228581Y-52053376D02*
G01*
X142252281Y-52056891D01*
X142275523Y-52062713D01*
X142298082Y-52070785D01*
X142319742Y-52081029D01*
X142340292Y-52093347D01*
X142359537Y-52107619D01*
X142377290Y-52123710D01*
X142393381Y-52141463D01*
X142407653Y-52160708D01*
X142419971Y-52181258D01*
X142430215Y-52202918D01*
X142438287Y-52225477D01*
X142444109Y-52248719D01*
X142447624Y-52272419D01*
X142448800Y-52296350D01*
X142448800Y-52859650D01*
X142447624Y-52883581D01*
X142444109Y-52907281D01*
X142438287Y-52930523D01*
X142430215Y-52953082D01*
X142419971Y-52974742D01*
X142407653Y-52995292D01*
X142393381Y-53014537D01*
X142377290Y-53032290D01*
X142359537Y-53048381D01*
X142340292Y-53062653D01*
X142319742Y-53074971D01*
X142298082Y-53085215D01*
X142275523Y-53093287D01*
X142252281Y-53099109D01*
X142228581Y-53102624D01*
X142204650Y-53103800D01*
X141716350Y-53103800D01*
X141692419Y-53102624D01*
X141668719Y-53099109D01*
X141645477Y-53093287D01*
X141622918Y-53085215D01*
X141601258Y-53074971D01*
X141580708Y-53062653D01*
X141561463Y-53048381D01*
X141543710Y-53032290D01*
X141527619Y-53014537D01*
X141513347Y-52995292D01*
X141501029Y-52974742D01*
X141490785Y-52953082D01*
X141482713Y-52930523D01*
X141476891Y-52907281D01*
X141473376Y-52883581D01*
X141472200Y-52859650D01*
X141472200Y-52296350D01*
X141473376Y-52272419D01*
X141476891Y-52248719D01*
X141482713Y-52225477D01*
X141490785Y-52202918D01*
X141501029Y-52181258D01*
X141513347Y-52160708D01*
X141527619Y-52141463D01*
X141543710Y-52123710D01*
X141561463Y-52107619D01*
X141580708Y-52093347D01*
X141601258Y-52081029D01*
X141622918Y-52070785D01*
X141645477Y-52062713D01*
X141668719Y-52056891D01*
X141692419Y-52053376D01*
X141716350Y-52052200D01*
X142204650Y-52052200D01*
X142228581Y-52053376D01*
X142228581Y-52053376D01*
G37*
D27*
X141960500Y-52578000D03*
D10*
G36*
X142228581Y-45195376D02*
G01*
X142252281Y-45198891D01*
X142275523Y-45204713D01*
X142298082Y-45212785D01*
X142319742Y-45223029D01*
X142340292Y-45235347D01*
X142359537Y-45249619D01*
X142377290Y-45265710D01*
X142393381Y-45283463D01*
X142407653Y-45302708D01*
X142419971Y-45323258D01*
X142430215Y-45344918D01*
X142438287Y-45367477D01*
X142444109Y-45390719D01*
X142447624Y-45414419D01*
X142448800Y-45438350D01*
X142448800Y-46001650D01*
X142447624Y-46025581D01*
X142444109Y-46049281D01*
X142438287Y-46072523D01*
X142430215Y-46095082D01*
X142419971Y-46116742D01*
X142407653Y-46137292D01*
X142393381Y-46156537D01*
X142377290Y-46174290D01*
X142359537Y-46190381D01*
X142340292Y-46204653D01*
X142319742Y-46216971D01*
X142298082Y-46227215D01*
X142275523Y-46235287D01*
X142252281Y-46241109D01*
X142228581Y-46244624D01*
X142204650Y-46245800D01*
X141716350Y-46245800D01*
X141692419Y-46244624D01*
X141668719Y-46241109D01*
X141645477Y-46235287D01*
X141622918Y-46227215D01*
X141601258Y-46216971D01*
X141580708Y-46204653D01*
X141561463Y-46190381D01*
X141543710Y-46174290D01*
X141527619Y-46156537D01*
X141513347Y-46137292D01*
X141501029Y-46116742D01*
X141490785Y-46095082D01*
X141482713Y-46072523D01*
X141476891Y-46049281D01*
X141473376Y-46025581D01*
X141472200Y-46001650D01*
X141472200Y-45438350D01*
X141473376Y-45414419D01*
X141476891Y-45390719D01*
X141482713Y-45367477D01*
X141490785Y-45344918D01*
X141501029Y-45323258D01*
X141513347Y-45302708D01*
X141527619Y-45283463D01*
X141543710Y-45265710D01*
X141561463Y-45249619D01*
X141580708Y-45235347D01*
X141601258Y-45223029D01*
X141622918Y-45212785D01*
X141645477Y-45204713D01*
X141668719Y-45198891D01*
X141692419Y-45195376D01*
X141716350Y-45194200D01*
X142204650Y-45194200D01*
X142228581Y-45195376D01*
X142228581Y-45195376D01*
G37*
D27*
X141960500Y-45720000D03*
D10*
G36*
X143803581Y-45195376D02*
G01*
X143827281Y-45198891D01*
X143850523Y-45204713D01*
X143873082Y-45212785D01*
X143894742Y-45223029D01*
X143915292Y-45235347D01*
X143934537Y-45249619D01*
X143952290Y-45265710D01*
X143968381Y-45283463D01*
X143982653Y-45302708D01*
X143994971Y-45323258D01*
X144005215Y-45344918D01*
X144013287Y-45367477D01*
X144019109Y-45390719D01*
X144022624Y-45414419D01*
X144023800Y-45438350D01*
X144023800Y-46001650D01*
X144022624Y-46025581D01*
X144019109Y-46049281D01*
X144013287Y-46072523D01*
X144005215Y-46095082D01*
X143994971Y-46116742D01*
X143982653Y-46137292D01*
X143968381Y-46156537D01*
X143952290Y-46174290D01*
X143934537Y-46190381D01*
X143915292Y-46204653D01*
X143894742Y-46216971D01*
X143873082Y-46227215D01*
X143850523Y-46235287D01*
X143827281Y-46241109D01*
X143803581Y-46244624D01*
X143779650Y-46245800D01*
X143291350Y-46245800D01*
X143267419Y-46244624D01*
X143243719Y-46241109D01*
X143220477Y-46235287D01*
X143197918Y-46227215D01*
X143176258Y-46216971D01*
X143155708Y-46204653D01*
X143136463Y-46190381D01*
X143118710Y-46174290D01*
X143102619Y-46156537D01*
X143088347Y-46137292D01*
X143076029Y-46116742D01*
X143065785Y-46095082D01*
X143057713Y-46072523D01*
X143051891Y-46049281D01*
X143048376Y-46025581D01*
X143047200Y-46001650D01*
X143047200Y-45438350D01*
X143048376Y-45414419D01*
X143051891Y-45390719D01*
X143057713Y-45367477D01*
X143065785Y-45344918D01*
X143076029Y-45323258D01*
X143088347Y-45302708D01*
X143102619Y-45283463D01*
X143118710Y-45265710D01*
X143136463Y-45249619D01*
X143155708Y-45235347D01*
X143176258Y-45223029D01*
X143197918Y-45212785D01*
X143220477Y-45204713D01*
X143243719Y-45198891D01*
X143267419Y-45195376D01*
X143291350Y-45194200D01*
X143779650Y-45194200D01*
X143803581Y-45195376D01*
X143803581Y-45195376D01*
G37*
D27*
X143535500Y-45720000D03*
D10*
G36*
X105880581Y-87975376D02*
G01*
X105904281Y-87978891D01*
X105927523Y-87984713D01*
X105950082Y-87992785D01*
X105971742Y-88003029D01*
X105992292Y-88015347D01*
X106011537Y-88029619D01*
X106029290Y-88045710D01*
X106045381Y-88063463D01*
X106059653Y-88082708D01*
X106071971Y-88103258D01*
X106082215Y-88124918D01*
X106090287Y-88147477D01*
X106096109Y-88170719D01*
X106099624Y-88194419D01*
X106100800Y-88218350D01*
X106100800Y-88706650D01*
X106099624Y-88730581D01*
X106096109Y-88754281D01*
X106090287Y-88777523D01*
X106082215Y-88800082D01*
X106071971Y-88821742D01*
X106059653Y-88842292D01*
X106045381Y-88861537D01*
X106029290Y-88879290D01*
X106011537Y-88895381D01*
X105992292Y-88909653D01*
X105971742Y-88921971D01*
X105950082Y-88932215D01*
X105927523Y-88940287D01*
X105904281Y-88946109D01*
X105880581Y-88949624D01*
X105856650Y-88950800D01*
X105293350Y-88950800D01*
X105269419Y-88949624D01*
X105245719Y-88946109D01*
X105222477Y-88940287D01*
X105199918Y-88932215D01*
X105178258Y-88921971D01*
X105157708Y-88909653D01*
X105138463Y-88895381D01*
X105120710Y-88879290D01*
X105104619Y-88861537D01*
X105090347Y-88842292D01*
X105078029Y-88821742D01*
X105067785Y-88800082D01*
X105059713Y-88777523D01*
X105053891Y-88754281D01*
X105050376Y-88730581D01*
X105049200Y-88706650D01*
X105049200Y-88218350D01*
X105050376Y-88194419D01*
X105053891Y-88170719D01*
X105059713Y-88147477D01*
X105067785Y-88124918D01*
X105078029Y-88103258D01*
X105090347Y-88082708D01*
X105104619Y-88063463D01*
X105120710Y-88045710D01*
X105138463Y-88029619D01*
X105157708Y-88015347D01*
X105178258Y-88003029D01*
X105199918Y-87992785D01*
X105222477Y-87984713D01*
X105245719Y-87978891D01*
X105269419Y-87975376D01*
X105293350Y-87974200D01*
X105856650Y-87974200D01*
X105880581Y-87975376D01*
X105880581Y-87975376D01*
G37*
D27*
X105575000Y-88462500D03*
D10*
G36*
X105880581Y-86400376D02*
G01*
X105904281Y-86403891D01*
X105927523Y-86409713D01*
X105950082Y-86417785D01*
X105971742Y-86428029D01*
X105992292Y-86440347D01*
X106011537Y-86454619D01*
X106029290Y-86470710D01*
X106045381Y-86488463D01*
X106059653Y-86507708D01*
X106071971Y-86528258D01*
X106082215Y-86549918D01*
X106090287Y-86572477D01*
X106096109Y-86595719D01*
X106099624Y-86619419D01*
X106100800Y-86643350D01*
X106100800Y-87131650D01*
X106099624Y-87155581D01*
X106096109Y-87179281D01*
X106090287Y-87202523D01*
X106082215Y-87225082D01*
X106071971Y-87246742D01*
X106059653Y-87267292D01*
X106045381Y-87286537D01*
X106029290Y-87304290D01*
X106011537Y-87320381D01*
X105992292Y-87334653D01*
X105971742Y-87346971D01*
X105950082Y-87357215D01*
X105927523Y-87365287D01*
X105904281Y-87371109D01*
X105880581Y-87374624D01*
X105856650Y-87375800D01*
X105293350Y-87375800D01*
X105269419Y-87374624D01*
X105245719Y-87371109D01*
X105222477Y-87365287D01*
X105199918Y-87357215D01*
X105178258Y-87346971D01*
X105157708Y-87334653D01*
X105138463Y-87320381D01*
X105120710Y-87304290D01*
X105104619Y-87286537D01*
X105090347Y-87267292D01*
X105078029Y-87246742D01*
X105067785Y-87225082D01*
X105059713Y-87202523D01*
X105053891Y-87179281D01*
X105050376Y-87155581D01*
X105049200Y-87131650D01*
X105049200Y-86643350D01*
X105050376Y-86619419D01*
X105053891Y-86595719D01*
X105059713Y-86572477D01*
X105067785Y-86549918D01*
X105078029Y-86528258D01*
X105090347Y-86507708D01*
X105104619Y-86488463D01*
X105120710Y-86470710D01*
X105138463Y-86454619D01*
X105157708Y-86440347D01*
X105178258Y-86428029D01*
X105199918Y-86417785D01*
X105222477Y-86409713D01*
X105245719Y-86403891D01*
X105269419Y-86400376D01*
X105293350Y-86399200D01*
X105856650Y-86399200D01*
X105880581Y-86400376D01*
X105880581Y-86400376D01*
G37*
D27*
X105575000Y-86887500D03*
M02*
