M48
; DRILL file {KiCad (5.1.0-0)} date Tuesday, June 11, 2019 at 08:39:21 AM
; FORMAT={-:-/ absolute / inch / decimal}
; #@! TF.CreationDate,2019-06-11T08:39:21-04:00
; #@! TF.GenerationSoftware,Kicad,Pcbnew,(5.1.0-0)
FMAT,2
INCH
T1C0.0079
T2C0.0100
T3C0.0118
T4C0.0197
T5C0.0295
T6C0.0394
T7C0.0669
T8C0.0512
T9C0.0650
T10C0.1063
%
G90
G05
T1
X3.8004Y-3.3778
X3.8004Y-3.4243
X3.8468Y-3.3778
X3.8468Y-3.4243
T2
X3.7618Y-3.288
X3.7968Y-3.2766
X3.819Y-3.619
X3.845Y-3.68
X3.8659Y-3.6418
X5.1307Y-1.963
X5.1327Y-2.0339
X5.1327Y-2.1047
X5.2154Y-1.963
X5.2154Y-2.0339
X5.2154Y-2.1047
X5.3Y-1.963
X5.3Y-2.0339
X5.3Y-2.1047
X5.3827Y-1.963
X5.3827Y-2.0339
X5.3827Y-2.1047
X4.1548Y-3.21
X4.2022Y-3.1577
X4.2022Y-3.21
X4.2022Y-3.2623
X4.2578Y-3.1577
X4.2578Y-3.21
X4.2578Y-3.2623
X4.3052Y-3.21
T3
X3.3102Y-2.175
X3.32Y-1.655
X3.3988Y-2.4055
X3.3988Y-2.4449
X3.3988Y-2.4843
X3.3988Y-2.5236
X3.3988Y-2.9567
X3.3988Y-2.9961
X3.3988Y-3.0354
X3.3988Y-3.0748
X3.3988Y-3.7379
X3.3988Y-3.7772
X3.3988Y-3.8166
X3.3988Y-3.856
X3.4362Y-2.4055
X3.4362Y-2.4449
X3.4362Y-2.4843
X3.4362Y-2.5236
X3.4362Y-2.9567
X3.4362Y-2.9961
X3.4362Y-3.0354
X3.4362Y-3.0748
X3.4362Y-3.7379
X3.4362Y-3.7772
X3.4362Y-3.8166
X3.4362Y-3.856
X3.52Y-3.2982
X3.52Y-3.3297
X3.52Y-3.3612
X3.5433Y-2.7067
X3.5433Y-4.0846
X3.5496Y-3.4045
X3.5496Y-3.436
X3.5496Y-3.4675
X3.5838Y-2.125
X3.5925Y-2.7559
X3.5925Y-4.0354
X3.6Y-2.03
X3.6Y-2.08
X3.605Y-2.21
X3.625Y-1.81
X3.628Y-3.2697
X3.635Y-1.71
X3.6417Y-2.7067
X3.6417Y-4.0846
X3.674Y-3.2697
X3.6909Y-2.6575
X3.6909Y-2.7559
X3.6909Y-4.0354
X3.7023Y-3.5394
X3.72Y-3.2697
X3.72Y-3.3098
X3.72Y-3.35
X3.7307Y-3.1004
X3.7402Y-1.811
X3.7402Y-2.4114
X3.7402Y-2.5098
X3.7402Y-2.6083
X3.7402Y-2.7067
X3.7402Y-2.8051
X3.7402Y-3.7894
X3.7402Y-3.8878
X3.7402Y-3.9862
X3.7402Y-4.0846
X3.7443Y-3.7047
X3.7622Y-3.1004
X3.77Y-2.01
X3.7786Y-3.7049
X3.78Y-2.2
X3.7894Y-2.4606
X3.7894Y-2.5591
X3.7894Y-2.6575
X3.7894Y-2.8543
X3.7894Y-2.9528
X3.7894Y-3.0512
X3.7894Y-3.0512
X3.7894Y-3.7402
X3.7894Y-3.8386
X3.7894Y-3.937
X3.7894Y-4.0354
X3.7936Y-1.8364
X3.7937Y-3.1004
X3.8058Y-2.71
X3.8058Y-2.7415
X3.8058Y-2.773
X3.8108Y-2.25
X3.8108Y-2.2815
X3.8108Y-2.313
X3.813Y-3.7047
X3.82Y-2.2013
X3.8261Y-3.0879
X3.8386Y-2.8051
X3.8386Y-2.9035
X3.8386Y-3.002
X3.8386Y-3.7894
X3.8386Y-3.8878
X3.8386Y-3.9862
X3.8386Y-4.0846
X3.8753Y-3.0387
X3.8878Y-2.5591
X3.8878Y-2.6575
X3.8878Y-2.8543
X3.8878Y-2.9528
X3.8878Y-3.7402
X3.8878Y-3.8386
X3.8878Y-3.937
X3.8878Y-4.0354
X3.92Y-1.96
X3.9245Y-2.9895
X3.937Y-1.8701
X3.937Y-2.1161
X3.937Y-2.6083
X3.937Y-2.7067
X3.937Y-2.9035
X3.937Y-3.7894
X3.937Y-3.8878
X3.937Y-3.9862
X3.937Y-4.0846
X3.945Y-2.02
X3.9745Y-3.8809
X3.9745Y-3.9124
X3.9745Y-3.9439
X3.9748Y-3.6909
X3.9748Y-3.7224
X3.9748Y-3.7539
X3.9817Y-3.1433
X3.9862Y-1.8209
X3.9862Y-2.0669
X3.9862Y-3.8386
X3.9918Y-4.0351
X3.9941Y-2.8543
X4.0354Y-1.8701
X4.0354Y-3.7894
X4.0354Y-4.0846
X4.0387Y-3.4965
X4.0397Y-3.5361
X4.0492Y-3.6242
X4.0832Y-3.6242
X4.0846Y-1.8209
X4.1166Y-3.6242
X4.1549Y-3.373
X4.23Y-3.72
X4.3039Y-2.28
X4.3039Y-2.7379
X4.305Y-2.67
X4.3487Y-2.28
X4.365Y-2.82
X4.3711Y-3.2482
X4.4026Y-3.2482
X4.4341Y-3.2482
X4.445Y-2.825
X4.4783Y-3.2972
X4.4784Y-3.2478
X4.5099Y-3.2478
X4.54Y-2.975
X4.5414Y-3.2478
X4.5768Y-3.1988
X4.5768Y-3.2972
X4.626Y-1.8209
X4.626Y-3.0512
X4.626Y-3.1496
X4.626Y-3.248
X4.64Y-2.205
X4.6467Y-2.2519
X4.6467Y-2.2834
X4.6467Y-2.3149
X4.6479Y-2.1056
X4.6479Y-2.1371
X4.6515Y-1.8694
X4.6515Y-1.9009
X4.6517Y-2.7083
X4.6517Y-2.7398
X4.6517Y-2.7713
X4.6519Y-1.932
X4.6519Y-1.9635
X4.6519Y-1.995
X4.67Y-2.9851
X4.6752Y-3.1004
X4.6752Y-3.1988
X4.6752Y-3.2972
X4.7244Y-3.0512
X4.7244Y-3.1496
X4.7244Y-3.248
X4.7291Y-2.9484
X4.7736Y-3.1004
X4.7736Y-3.1988
X4.7736Y-3.2972
X4.8228Y-3.0512
X4.8228Y-3.1496
X4.8228Y-3.248
X4.872Y-3.002
X4.872Y-3.1004
X4.872Y-3.1988
X4.872Y-3.2972
X4.8798Y-2.019
X4.8798Y-2.0505
X4.9213Y-2.9528
X4.9213Y-3.0512
X4.9213Y-3.1496
X4.9213Y-3.248
X4.9213Y-3.3465
X4.9213Y-3.4449
X4.9213Y-3.9976
X4.9213Y-4.0846
X4.924Y-3.5354
X4.9409Y-4.0354
X4.9413Y-2.5802
X4.9413Y-2.6117
X4.9413Y-2.6431
X4.9555Y-3.5354
X4.9606Y-3.9976
X4.9705Y-2.5098
X4.9705Y-2.7067
X4.9705Y-2.8051
X4.9705Y-2.9035
X4.9705Y-3.002
X4.9705Y-3.1004
X4.9705Y-3.1988
X4.9705Y-3.2972
X4.9705Y-3.3957
X4.9705Y-3.4941
X4.9732Y-1.7768
X4.9803Y-4.0354
X4.987Y-3.5354
X5.0Y-3.9976
X5.0197Y-2.4606
X5.0197Y-2.7559
X5.0197Y-2.8543
X5.0197Y-2.9528
X5.0197Y-3.0512
X5.0197Y-3.1496
X5.0197Y-3.248
X5.0197Y-3.3465
X5.0197Y-3.4449
X5.0197Y-4.0846
X5.0689Y-2.5098
X5.0689Y-2.7067
X5.0689Y-2.8051
X5.0689Y-2.9035
X5.0689Y-3.002
X5.0689Y-3.1004
X5.0689Y-3.1988
X5.0689Y-3.2972
X5.0689Y-3.3957
X5.0689Y-3.4941
X5.0689Y-3.5925
X5.0689Y-3.6909
X5.0689Y-3.7894
X5.0689Y-3.8878
X5.0877Y-2.2454
X5.0877Y-2.2769
X5.0877Y-2.3083
X5.0885Y-2.3434
X5.0885Y-2.3759
X5.0893Y-2.4085
X5.1181Y-1.4764
X5.1181Y-1.8701
X5.1181Y-2.1654
X5.1181Y-2.4606
X5.1181Y-2.7559
X5.1181Y-2.8543
X5.1181Y-3.3465
X5.1181Y-3.4449
X5.1181Y-3.5433
X5.1181Y-3.6417
X5.1181Y-3.7402
X5.1181Y-3.8386
X5.1181Y-4.0846
X5.1581Y-1.7261
X5.1581Y-1.7576
X5.1581Y-1.7891
X5.1673Y-1.5256
X5.1673Y-2.2146
X5.1673Y-2.313
X5.1673Y-2.8051
X5.1673Y-2.9035
X5.1673Y-3.3957
X5.1673Y-3.4941
X5.1673Y-3.5925
X5.1673Y-3.6909
X5.1873Y-1.6154
X5.1873Y-1.6469
X5.1873Y-1.6784
X5.2165Y-1.4764
X5.2165Y-1.7717
X5.2165Y-1.8701
X5.2165Y-2.1654
X5.2165Y-2.2638
X5.2165Y-2.8543
X5.2165Y-3.3465
X5.2165Y-3.4449
X5.2165Y-3.5433
X5.2165Y-3.6417
X5.2657Y-1.5256
X5.2657Y-1.624
X5.2657Y-1.7224
X5.2657Y-1.8209
X5.2657Y-3.3957
X5.2657Y-3.4941
X5.315Y-1.4764
X5.315Y-1.6732
X5.315Y-1.7717
X5.315Y-1.8701
X5.315Y-2.1654
X5.3614Y-2.3654
X5.3614Y-2.4047
X5.3614Y-2.4441
X5.3614Y-2.4835
X5.3614Y-2.9165
X5.3614Y-2.9559
X5.3614Y-2.9953
X5.3614Y-3.0346
X5.3614Y-3.6977
X5.3614Y-3.7371
X5.3614Y-3.7765
X5.3614Y-3.8158
X5.3642Y-1.5256
X5.3642Y-1.624
X5.3642Y-1.7224
X5.3642Y-1.8209
X5.4008Y-2.3654
X5.4008Y-2.4047
X5.4008Y-2.4441
X5.4008Y-2.4835
X5.4008Y-2.9165
X5.4008Y-2.9559
X5.4008Y-2.9953
X5.4008Y-3.0346
X5.4008Y-3.6977
X5.4008Y-3.7371
X5.4008Y-3.7765
X5.4008Y-3.8158
X5.4134Y-1.4764
X5.4134Y-1.6732
X5.4134Y-1.7717
X5.4134Y-1.8701
X5.4134Y-2.1654
X5.4626Y-1.7224
X5.4626Y-1.8209
X5.4626Y-1.9193
X5.4626Y-2.0177
X5.4626Y-2.1161
X5.5118Y-2.0669
X5.5118Y-2.1654
X5.52Y-1.8
X5.54Y-1.88
X5.54Y-1.96
X5.561Y-1.624
X5.561Y-1.7224
T4
X3.834Y-3.2667
X4.0097Y-3.0323
X4.2069Y-2.9882
X4.2571Y-2.9882
X4.264Y-3.0453
X4.3142Y-3.0453
X4.5236Y-2.9094
T5
X3.4513Y-1.8
X3.4513Y-1.8787
X3.4513Y-1.9575
X3.4513Y-2.0362
X3.4513Y-2.115
X3.53Y-1.8
X3.53Y-1.8787
X3.53Y-1.9575
X3.53Y-2.0362
X3.53Y-2.115
T6
X3.5628Y-1.49
X3.74Y-1.49
T7
X5.1969Y-3.7709
X5.1969Y-3.9268
X4.33Y-1.97
X5.1969Y-2.9897
X5.1969Y-3.1456
X5.1969Y-2.4385
X5.1969Y-2.5944
X3.622Y-3.7709
X3.622Y-3.9268
X3.622Y-2.9897
X3.622Y-3.1456
X3.622Y-2.4385
X3.622Y-2.5944
X4.0182Y-1.97
X4.1741Y-1.97
T8
X3.5136Y-1.5904
X3.7892Y-1.5904
T9
X3.1481Y-1.7646
X3.1481Y-2.1504
T10
X3.1693Y-4.3898
X5.6496Y-1.5157
X5.6496Y-4.3898
X3.1693Y-1.5157
T0
M30
