G04 #@! TF.GenerationSoftware,KiCad,Pcbnew,(5.1.0-0)*
G04 #@! TF.CreationDate,2019-05-02T09:23:52-04:00*
G04 #@! TF.ProjectId,Power Board,506f7765-7220-4426-9f61-72642e6b6963,rev?*
G04 #@! TF.SameCoordinates,Original*
G04 #@! TF.FileFunction,Copper,L3,Inr*
G04 #@! TF.FilePolarity,Positive*
%FSLAX46Y46*%
G04 Gerber Fmt 4.6, Leading zero omitted, Abs format (unit mm)*
G04 Created by KiCad (PCBNEW (5.1.0-0)) date 2019-05-02 09:23:52*
%MOMM*%
%LPD*%
G04 APERTURE LIST*
%ADD10C,0.400000*%
%ADD11C,0.500000*%
%ADD12C,1.200000*%
%ADD13C,0.100000*%
%ADD14C,0.508000*%
%ADD15C,2.300000*%
%ADD16C,1.700000*%
%ADD17R,1.700000X1.700000*%
%ADD18C,2.700000*%
%ADD19C,0.600000*%
%ADD20C,1.000000*%
%ADD21C,0.800000*%
%ADD22C,0.254000*%
%ADD23C,1.000000*%
%ADD24C,0.200000*%
%ADD25C,0.400000*%
%ADD26C,0.300000*%
G04 APERTURE END LIST*
D10*
X105532000Y-81534000D03*
X106737000Y-82862000D03*
X106737000Y-81534000D03*
X106737000Y-80206000D03*
X108147000Y-80206000D03*
X108147000Y-82862000D03*
X109352000Y-81534000D03*
X108147000Y-81534000D03*
D11*
X96529000Y-85797000D03*
X96529000Y-86977000D03*
X97709000Y-85797000D03*
X97709000Y-86977000D03*
D12*
X87662000Y-53720000D03*
X87662000Y-51720000D03*
X87662000Y-49720000D03*
X87662000Y-47720000D03*
X87662000Y-45720000D03*
X89662000Y-53720000D03*
X89662000Y-51720000D03*
X89662000Y-49720000D03*
X89662000Y-47720000D03*
D13*
G36*
X90036505Y-45121204D02*
G01*
X90060773Y-45124804D01*
X90084572Y-45130765D01*
X90107671Y-45139030D01*
X90129850Y-45149520D01*
X90150893Y-45162132D01*
X90170599Y-45176747D01*
X90188777Y-45193223D01*
X90205253Y-45211401D01*
X90219868Y-45231107D01*
X90232480Y-45252150D01*
X90242970Y-45274329D01*
X90251235Y-45297428D01*
X90257196Y-45321227D01*
X90260796Y-45345495D01*
X90262000Y-45369999D01*
X90262000Y-46070001D01*
X90260796Y-46094505D01*
X90257196Y-46118773D01*
X90251235Y-46142572D01*
X90242970Y-46165671D01*
X90232480Y-46187850D01*
X90219868Y-46208893D01*
X90205253Y-46228599D01*
X90188777Y-46246777D01*
X90170599Y-46263253D01*
X90150893Y-46277868D01*
X90129850Y-46290480D01*
X90107671Y-46300970D01*
X90084572Y-46309235D01*
X90060773Y-46315196D01*
X90036505Y-46318796D01*
X90012001Y-46320000D01*
X89311999Y-46320000D01*
X89287495Y-46318796D01*
X89263227Y-46315196D01*
X89239428Y-46309235D01*
X89216329Y-46300970D01*
X89194150Y-46290480D01*
X89173107Y-46277868D01*
X89153401Y-46263253D01*
X89135223Y-46246777D01*
X89118747Y-46228599D01*
X89104132Y-46208893D01*
X89091520Y-46187850D01*
X89081030Y-46165671D01*
X89072765Y-46142572D01*
X89066804Y-46118773D01*
X89063204Y-46094505D01*
X89062000Y-46070001D01*
X89062000Y-45369999D01*
X89063204Y-45345495D01*
X89066804Y-45321227D01*
X89072765Y-45297428D01*
X89081030Y-45274329D01*
X89091520Y-45252150D01*
X89104132Y-45231107D01*
X89118747Y-45211401D01*
X89135223Y-45193223D01*
X89153401Y-45176747D01*
X89173107Y-45162132D01*
X89194150Y-45149520D01*
X89216329Y-45139030D01*
X89239428Y-45130765D01*
X89263227Y-45124804D01*
X89287495Y-45121204D01*
X89311999Y-45120000D01*
X90012001Y-45120000D01*
X90036505Y-45121204D01*
X90036505Y-45121204D01*
G37*
D12*
X89662000Y-45720000D03*
D14*
X130370000Y-51660000D03*
X130370000Y-53460000D03*
X130320000Y-49860000D03*
X134620000Y-53460000D03*
X132470000Y-53460000D03*
X132470000Y-49860000D03*
X134620000Y-49860000D03*
X132470000Y-51660000D03*
X134620000Y-51660000D03*
X136720000Y-49860000D03*
X136720000Y-51660000D03*
X136720000Y-53460000D03*
D15*
X89246000Y-40396000D03*
X96246000Y-40396000D03*
D16*
X90496000Y-37846000D03*
D17*
X94996000Y-37846000D03*
D18*
X132000000Y-95780000D03*
D13*
G36*
X133124503Y-98391204D02*
G01*
X133148772Y-98394804D01*
X133172570Y-98400765D01*
X133195670Y-98409030D01*
X133217849Y-98419520D01*
X133238892Y-98432133D01*
X133258598Y-98446748D01*
X133276776Y-98463224D01*
X133293252Y-98481402D01*
X133307867Y-98501108D01*
X133320480Y-98522151D01*
X133330970Y-98544330D01*
X133339235Y-98567430D01*
X133345196Y-98591228D01*
X133348796Y-98615497D01*
X133350000Y-98640001D01*
X133350000Y-100839999D01*
X133348796Y-100864503D01*
X133345196Y-100888772D01*
X133339235Y-100912570D01*
X133330970Y-100935670D01*
X133320480Y-100957849D01*
X133307867Y-100978892D01*
X133293252Y-100998598D01*
X133276776Y-101016776D01*
X133258598Y-101033252D01*
X133238892Y-101047867D01*
X133217849Y-101060480D01*
X133195670Y-101070970D01*
X133172570Y-101079235D01*
X133148772Y-101085196D01*
X133124503Y-101088796D01*
X133099999Y-101090000D01*
X130900001Y-101090000D01*
X130875497Y-101088796D01*
X130851228Y-101085196D01*
X130827430Y-101079235D01*
X130804330Y-101070970D01*
X130782151Y-101060480D01*
X130761108Y-101047867D01*
X130741402Y-101033252D01*
X130723224Y-101016776D01*
X130706748Y-100998598D01*
X130692133Y-100978892D01*
X130679520Y-100957849D01*
X130669030Y-100935670D01*
X130660765Y-100912570D01*
X130654804Y-100888772D01*
X130651204Y-100864503D01*
X130650000Y-100839999D01*
X130650000Y-98640001D01*
X130651204Y-98615497D01*
X130654804Y-98591228D01*
X130660765Y-98567430D01*
X130669030Y-98544330D01*
X130679520Y-98522151D01*
X130692133Y-98501108D01*
X130706748Y-98481402D01*
X130723224Y-98463224D01*
X130741402Y-98446748D01*
X130761108Y-98432133D01*
X130782151Y-98419520D01*
X130804330Y-98409030D01*
X130827430Y-98400765D01*
X130851228Y-98394804D01*
X130875497Y-98391204D01*
X130900001Y-98390000D01*
X133099999Y-98390000D01*
X133124503Y-98391204D01*
X133124503Y-98391204D01*
G37*
D18*
X132000000Y-99740000D03*
X132000000Y-75938000D03*
D13*
G36*
X133124503Y-78549204D02*
G01*
X133148772Y-78552804D01*
X133172570Y-78558765D01*
X133195670Y-78567030D01*
X133217849Y-78577520D01*
X133238892Y-78590133D01*
X133258598Y-78604748D01*
X133276776Y-78621224D01*
X133293252Y-78639402D01*
X133307867Y-78659108D01*
X133320480Y-78680151D01*
X133330970Y-78702330D01*
X133339235Y-78725430D01*
X133345196Y-78749228D01*
X133348796Y-78773497D01*
X133350000Y-78798001D01*
X133350000Y-80997999D01*
X133348796Y-81022503D01*
X133345196Y-81046772D01*
X133339235Y-81070570D01*
X133330970Y-81093670D01*
X133320480Y-81115849D01*
X133307867Y-81136892D01*
X133293252Y-81156598D01*
X133276776Y-81174776D01*
X133258598Y-81191252D01*
X133238892Y-81205867D01*
X133217849Y-81218480D01*
X133195670Y-81228970D01*
X133172570Y-81237235D01*
X133148772Y-81243196D01*
X133124503Y-81246796D01*
X133099999Y-81248000D01*
X130900001Y-81248000D01*
X130875497Y-81246796D01*
X130851228Y-81243196D01*
X130827430Y-81237235D01*
X130804330Y-81228970D01*
X130782151Y-81218480D01*
X130761108Y-81205867D01*
X130741402Y-81191252D01*
X130723224Y-81174776D01*
X130706748Y-81156598D01*
X130692133Y-81136892D01*
X130679520Y-81115849D01*
X130669030Y-81093670D01*
X130660765Y-81070570D01*
X130654804Y-81046772D01*
X130651204Y-81022503D01*
X130650000Y-80997999D01*
X130650000Y-78798001D01*
X130651204Y-78773497D01*
X130654804Y-78749228D01*
X130660765Y-78725430D01*
X130669030Y-78702330D01*
X130679520Y-78680151D01*
X130692133Y-78659108D01*
X130706748Y-78639402D01*
X130723224Y-78621224D01*
X130741402Y-78604748D01*
X130761108Y-78590133D01*
X130782151Y-78577520D01*
X130804330Y-78567030D01*
X130827430Y-78558765D01*
X130851228Y-78552804D01*
X130875497Y-78549204D01*
X130900001Y-78548000D01*
X133099999Y-78548000D01*
X133124503Y-78549204D01*
X133124503Y-78549204D01*
G37*
D18*
X132000000Y-79898000D03*
X132000000Y-61938000D03*
D13*
G36*
X133124503Y-64549204D02*
G01*
X133148772Y-64552804D01*
X133172570Y-64558765D01*
X133195670Y-64567030D01*
X133217849Y-64577520D01*
X133238892Y-64590133D01*
X133258598Y-64604748D01*
X133276776Y-64621224D01*
X133293252Y-64639402D01*
X133307867Y-64659108D01*
X133320480Y-64680151D01*
X133330970Y-64702330D01*
X133339235Y-64725430D01*
X133345196Y-64749228D01*
X133348796Y-64773497D01*
X133350000Y-64798001D01*
X133350000Y-66997999D01*
X133348796Y-67022503D01*
X133345196Y-67046772D01*
X133339235Y-67070570D01*
X133330970Y-67093670D01*
X133320480Y-67115849D01*
X133307867Y-67136892D01*
X133293252Y-67156598D01*
X133276776Y-67174776D01*
X133258598Y-67191252D01*
X133238892Y-67205867D01*
X133217849Y-67218480D01*
X133195670Y-67228970D01*
X133172570Y-67237235D01*
X133148772Y-67243196D01*
X133124503Y-67246796D01*
X133099999Y-67248000D01*
X130900001Y-67248000D01*
X130875497Y-67246796D01*
X130851228Y-67243196D01*
X130827430Y-67237235D01*
X130804330Y-67228970D01*
X130782151Y-67218480D01*
X130761108Y-67205867D01*
X130741402Y-67191252D01*
X130723224Y-67174776D01*
X130706748Y-67156598D01*
X130692133Y-67136892D01*
X130679520Y-67115849D01*
X130669030Y-67093670D01*
X130660765Y-67070570D01*
X130654804Y-67046772D01*
X130651204Y-67022503D01*
X130650000Y-66997999D01*
X130650000Y-64798001D01*
X130651204Y-64773497D01*
X130654804Y-64749228D01*
X130660765Y-64725430D01*
X130669030Y-64702330D01*
X130679520Y-64680151D01*
X130692133Y-64659108D01*
X130706748Y-64639402D01*
X130723224Y-64621224D01*
X130741402Y-64604748D01*
X130761108Y-64590133D01*
X130782151Y-64577520D01*
X130804330Y-64567030D01*
X130827430Y-64558765D01*
X130851228Y-64552804D01*
X130875497Y-64549204D01*
X130900001Y-64548000D01*
X133099999Y-64548000D01*
X133124503Y-64549204D01*
X133124503Y-64549204D01*
G37*
D18*
X132000000Y-65898000D03*
X92000000Y-99740000D03*
D13*
G36*
X93124503Y-94431204D02*
G01*
X93148772Y-94434804D01*
X93172570Y-94440765D01*
X93195670Y-94449030D01*
X93217849Y-94459520D01*
X93238892Y-94472133D01*
X93258598Y-94486748D01*
X93276776Y-94503224D01*
X93293252Y-94521402D01*
X93307867Y-94541108D01*
X93320480Y-94562151D01*
X93330970Y-94584330D01*
X93339235Y-94607430D01*
X93345196Y-94631228D01*
X93348796Y-94655497D01*
X93350000Y-94680001D01*
X93350000Y-96879999D01*
X93348796Y-96904503D01*
X93345196Y-96928772D01*
X93339235Y-96952570D01*
X93330970Y-96975670D01*
X93320480Y-96997849D01*
X93307867Y-97018892D01*
X93293252Y-97038598D01*
X93276776Y-97056776D01*
X93258598Y-97073252D01*
X93238892Y-97087867D01*
X93217849Y-97100480D01*
X93195670Y-97110970D01*
X93172570Y-97119235D01*
X93148772Y-97125196D01*
X93124503Y-97128796D01*
X93099999Y-97130000D01*
X90900001Y-97130000D01*
X90875497Y-97128796D01*
X90851228Y-97125196D01*
X90827430Y-97119235D01*
X90804330Y-97110970D01*
X90782151Y-97100480D01*
X90761108Y-97087867D01*
X90741402Y-97073252D01*
X90723224Y-97056776D01*
X90706748Y-97038598D01*
X90692133Y-97018892D01*
X90679520Y-96997849D01*
X90669030Y-96975670D01*
X90660765Y-96952570D01*
X90654804Y-96928772D01*
X90651204Y-96904503D01*
X90650000Y-96879999D01*
X90650000Y-94680001D01*
X90651204Y-94655497D01*
X90654804Y-94631228D01*
X90660765Y-94607430D01*
X90669030Y-94584330D01*
X90679520Y-94562151D01*
X90692133Y-94541108D01*
X90706748Y-94521402D01*
X90723224Y-94503224D01*
X90741402Y-94486748D01*
X90761108Y-94472133D01*
X90782151Y-94459520D01*
X90804330Y-94449030D01*
X90827430Y-94440765D01*
X90851228Y-94434804D01*
X90875497Y-94431204D01*
X90900001Y-94430000D01*
X93099999Y-94430000D01*
X93124503Y-94431204D01*
X93124503Y-94431204D01*
G37*
D18*
X92000000Y-95780000D03*
X92000000Y-79898000D03*
D13*
G36*
X93124503Y-74589204D02*
G01*
X93148772Y-74592804D01*
X93172570Y-74598765D01*
X93195670Y-74607030D01*
X93217849Y-74617520D01*
X93238892Y-74630133D01*
X93258598Y-74644748D01*
X93276776Y-74661224D01*
X93293252Y-74679402D01*
X93307867Y-74699108D01*
X93320480Y-74720151D01*
X93330970Y-74742330D01*
X93339235Y-74765430D01*
X93345196Y-74789228D01*
X93348796Y-74813497D01*
X93350000Y-74838001D01*
X93350000Y-77037999D01*
X93348796Y-77062503D01*
X93345196Y-77086772D01*
X93339235Y-77110570D01*
X93330970Y-77133670D01*
X93320480Y-77155849D01*
X93307867Y-77176892D01*
X93293252Y-77196598D01*
X93276776Y-77214776D01*
X93258598Y-77231252D01*
X93238892Y-77245867D01*
X93217849Y-77258480D01*
X93195670Y-77268970D01*
X93172570Y-77277235D01*
X93148772Y-77283196D01*
X93124503Y-77286796D01*
X93099999Y-77288000D01*
X90900001Y-77288000D01*
X90875497Y-77286796D01*
X90851228Y-77283196D01*
X90827430Y-77277235D01*
X90804330Y-77268970D01*
X90782151Y-77258480D01*
X90761108Y-77245867D01*
X90741402Y-77231252D01*
X90723224Y-77214776D01*
X90706748Y-77196598D01*
X90692133Y-77176892D01*
X90679520Y-77155849D01*
X90669030Y-77133670D01*
X90660765Y-77110570D01*
X90654804Y-77086772D01*
X90651204Y-77062503D01*
X90650000Y-77037999D01*
X90650000Y-74838001D01*
X90651204Y-74813497D01*
X90654804Y-74789228D01*
X90660765Y-74765430D01*
X90669030Y-74742330D01*
X90679520Y-74720151D01*
X90692133Y-74699108D01*
X90706748Y-74679402D01*
X90723224Y-74661224D01*
X90741402Y-74644748D01*
X90761108Y-74630133D01*
X90782151Y-74617520D01*
X90804330Y-74607030D01*
X90827430Y-74598765D01*
X90851228Y-74592804D01*
X90875497Y-74589204D01*
X90900001Y-74588000D01*
X93099999Y-74588000D01*
X93124503Y-74589204D01*
X93124503Y-74589204D01*
G37*
D18*
X92000000Y-75938000D03*
X92000000Y-65898000D03*
D13*
G36*
X93124503Y-60589204D02*
G01*
X93148772Y-60592804D01*
X93172570Y-60598765D01*
X93195670Y-60607030D01*
X93217849Y-60617520D01*
X93238892Y-60630133D01*
X93258598Y-60644748D01*
X93276776Y-60661224D01*
X93293252Y-60679402D01*
X93307867Y-60699108D01*
X93320480Y-60720151D01*
X93330970Y-60742330D01*
X93339235Y-60765430D01*
X93345196Y-60789228D01*
X93348796Y-60813497D01*
X93350000Y-60838001D01*
X93350000Y-63037999D01*
X93348796Y-63062503D01*
X93345196Y-63086772D01*
X93339235Y-63110570D01*
X93330970Y-63133670D01*
X93320480Y-63155849D01*
X93307867Y-63176892D01*
X93293252Y-63196598D01*
X93276776Y-63214776D01*
X93258598Y-63231252D01*
X93238892Y-63245867D01*
X93217849Y-63258480D01*
X93195670Y-63268970D01*
X93172570Y-63277235D01*
X93148772Y-63283196D01*
X93124503Y-63286796D01*
X93099999Y-63288000D01*
X90900001Y-63288000D01*
X90875497Y-63286796D01*
X90851228Y-63283196D01*
X90827430Y-63277235D01*
X90804330Y-63268970D01*
X90782151Y-63258480D01*
X90761108Y-63245867D01*
X90741402Y-63231252D01*
X90723224Y-63214776D01*
X90706748Y-63196598D01*
X90692133Y-63176892D01*
X90679520Y-63155849D01*
X90669030Y-63133670D01*
X90660765Y-63110570D01*
X90654804Y-63086772D01*
X90651204Y-63062503D01*
X90650000Y-63037999D01*
X90650000Y-60838001D01*
X90651204Y-60813497D01*
X90654804Y-60789228D01*
X90660765Y-60765430D01*
X90669030Y-60742330D01*
X90679520Y-60720151D01*
X90692133Y-60699108D01*
X90706748Y-60679402D01*
X90723224Y-60661224D01*
X90741402Y-60644748D01*
X90761108Y-60630133D01*
X90782151Y-60617520D01*
X90804330Y-60607030D01*
X90827430Y-60598765D01*
X90851228Y-60592804D01*
X90875497Y-60589204D01*
X90900001Y-60588000D01*
X93099999Y-60588000D01*
X93124503Y-60589204D01*
X93124503Y-60589204D01*
G37*
D18*
X92000000Y-61938000D03*
X102062000Y-50038000D03*
X106022000Y-50038000D03*
D13*
G36*
X111106503Y-48689204D02*
G01*
X111130772Y-48692804D01*
X111154570Y-48698765D01*
X111177670Y-48707030D01*
X111199849Y-48717520D01*
X111220892Y-48730133D01*
X111240598Y-48744748D01*
X111258776Y-48761224D01*
X111275252Y-48779402D01*
X111289867Y-48799108D01*
X111302480Y-48820151D01*
X111312970Y-48842330D01*
X111321235Y-48865430D01*
X111327196Y-48889228D01*
X111330796Y-48913497D01*
X111332000Y-48938001D01*
X111332000Y-51137999D01*
X111330796Y-51162503D01*
X111327196Y-51186772D01*
X111321235Y-51210570D01*
X111312970Y-51233670D01*
X111302480Y-51255849D01*
X111289867Y-51276892D01*
X111275252Y-51296598D01*
X111258776Y-51314776D01*
X111240598Y-51331252D01*
X111220892Y-51345867D01*
X111199849Y-51358480D01*
X111177670Y-51368970D01*
X111154570Y-51377235D01*
X111130772Y-51383196D01*
X111106503Y-51386796D01*
X111081999Y-51388000D01*
X108882001Y-51388000D01*
X108857497Y-51386796D01*
X108833228Y-51383196D01*
X108809430Y-51377235D01*
X108786330Y-51368970D01*
X108764151Y-51358480D01*
X108743108Y-51345867D01*
X108723402Y-51331252D01*
X108705224Y-51314776D01*
X108688748Y-51296598D01*
X108674133Y-51276892D01*
X108661520Y-51255849D01*
X108651030Y-51233670D01*
X108642765Y-51210570D01*
X108636804Y-51186772D01*
X108633204Y-51162503D01*
X108632000Y-51137999D01*
X108632000Y-48938001D01*
X108633204Y-48913497D01*
X108636804Y-48889228D01*
X108642765Y-48865430D01*
X108651030Y-48842330D01*
X108661520Y-48820151D01*
X108674133Y-48799108D01*
X108688748Y-48779402D01*
X108705224Y-48761224D01*
X108723402Y-48744748D01*
X108743108Y-48730133D01*
X108764151Y-48717520D01*
X108786330Y-48707030D01*
X108809430Y-48698765D01*
X108833228Y-48692804D01*
X108857497Y-48689204D01*
X108882001Y-48688000D01*
X111081999Y-48688000D01*
X111106503Y-48689204D01*
X111106503Y-48689204D01*
G37*
D18*
X109982000Y-50038000D03*
D19*
X110871000Y-71628000D03*
X84079410Y-55245000D03*
X120120000Y-74889000D03*
D20*
X108130000Y-75901000D03*
X106855000Y-75901000D03*
X108305000Y-77351000D03*
D21*
X92150000Y-83050000D03*
X93319000Y-83050000D03*
X94488000Y-83050000D03*
X94488000Y-84070000D03*
D20*
X109580000Y-77351000D03*
X114900000Y-73900000D03*
D21*
X94488000Y-85090000D03*
X112903000Y-71755000D03*
X109320000Y-69542000D03*
X110458000Y-57912000D03*
X109320000Y-57912000D03*
X109347000Y-67818000D03*
D19*
X129267500Y-61176000D03*
X100953000Y-98576000D03*
X100953000Y-100176000D03*
X100953000Y-99376000D03*
X104562000Y-92054000D03*
X95104000Y-94100000D03*
X113751000Y-82495000D03*
X115351000Y-82495000D03*
X114551000Y-82495000D03*
X96668000Y-68834000D03*
X96668000Y-69634000D03*
X96668000Y-70434000D03*
X118618000Y-75822000D03*
X90159000Y-86475000D03*
X90159000Y-87275000D03*
X90159000Y-88075000D03*
X94759000Y-78750000D03*
X96359000Y-78750000D03*
X95559000Y-78750000D03*
X127000000Y-101540000D03*
X126000000Y-101540000D03*
X125000000Y-101540000D03*
X125070000Y-89800000D03*
X125870000Y-89800000D03*
X126670000Y-89800000D03*
X118057000Y-54282000D03*
X118057000Y-53482000D03*
X123947000Y-52082000D03*
X123947000Y-51282000D03*
X118148000Y-47482000D03*
X118148000Y-48282000D03*
X118158000Y-50672000D03*
X118158000Y-49072000D03*
X118158000Y-49872000D03*
X131017000Y-43842000D03*
X131017000Y-45442000D03*
X131017000Y-44642000D03*
X131757000Y-41032000D03*
X131757000Y-42632000D03*
X131757000Y-41832000D03*
X129247000Y-59522000D03*
X129247000Y-60349000D03*
X129227000Y-57032000D03*
X129227000Y-58632000D03*
X129227000Y-57832000D03*
X125509000Y-67136000D03*
X125509000Y-65536000D03*
X125509000Y-66336000D03*
X96850000Y-94100000D03*
X95977000Y-94105000D03*
X102850500Y-92054000D03*
X103712500Y-92054000D03*
X89409000Y-85375000D03*
X89409000Y-83775000D03*
X89409000Y-84575000D03*
X100959000Y-95350000D03*
X100959000Y-93750000D03*
X100959000Y-94550000D03*
X112625000Y-82504000D03*
X111025000Y-82504000D03*
X111825000Y-82504000D03*
X118152000Y-70390000D03*
X118152000Y-68790000D03*
X118152000Y-69590000D03*
X118025000Y-58799000D03*
X118025000Y-57199000D03*
X118025000Y-57999000D03*
X96795000Y-58750000D03*
X96795000Y-57150000D03*
X96795000Y-57950000D03*
X140716000Y-49784000D03*
X140716000Y-47752000D03*
D21*
X101392000Y-102492410D03*
D19*
X96358205Y-46643795D03*
D21*
X97028000Y-55913179D03*
D19*
X91028986Y-53975364D03*
X102609000Y-89817000D03*
X100203000Y-51308000D03*
X95000000Y-46000008D03*
D21*
X91567000Y-56134000D03*
D19*
X125500000Y-102500000D03*
X126500000Y-102500000D03*
X130000000Y-37500000D03*
X132500000Y-37500000D03*
X135000000Y-37500000D03*
X137500000Y-37500000D03*
X131250000Y-38750000D03*
X133750000Y-38750000D03*
X136250000Y-38750000D03*
X133750000Y-41250000D03*
X136250000Y-41250000D03*
X141250000Y-41250000D03*
X137500000Y-42500000D03*
X135000000Y-42500000D03*
X133750000Y-43750000D03*
X136250000Y-43750000D03*
X138750000Y-43750000D03*
X141250000Y-43750000D03*
X132500000Y-45000000D03*
X135000000Y-45000000D03*
X137500000Y-45000000D03*
X133750000Y-46250000D03*
X136250000Y-46250000D03*
X138750000Y-46250000D03*
X137500000Y-47500000D03*
X135000000Y-47500000D03*
X132500000Y-47500000D03*
X130000000Y-47500000D03*
X117500000Y-46250000D03*
X101250000Y-46250000D03*
X100000000Y-47500000D03*
X102500000Y-47500000D03*
X103750000Y-46250000D03*
X101250000Y-52500000D03*
X100000000Y-53750000D03*
X95000000Y-61250000D03*
X96250000Y-62500000D03*
X95000000Y-63750000D03*
X96250000Y-65000000D03*
X98750000Y-65000000D03*
X100000000Y-66250000D03*
X95000000Y-66250000D03*
X96250000Y-67500000D03*
X98750000Y-67500000D03*
X93750000Y-67500000D03*
X95000000Y-68750000D03*
X92500000Y-68750000D03*
X90000000Y-68750000D03*
X100000000Y-68750000D03*
X91250000Y-70000000D03*
X93750000Y-70000000D03*
X95000000Y-71250000D03*
X97500000Y-71250000D03*
X98750000Y-72500000D03*
X96250000Y-72500000D03*
X97500000Y-73750000D03*
X100000000Y-73750000D03*
X98750000Y-75000000D03*
X96250000Y-75000000D03*
X97500000Y-76250000D03*
X96250000Y-77500000D03*
X96250000Y-77500000D03*
X95000000Y-96250000D03*
X96250000Y-95000000D03*
X97500000Y-96250000D03*
X98750000Y-95000000D03*
X100000000Y-96250000D03*
X102500000Y-96250000D03*
X101250000Y-97500000D03*
X98750000Y-97500000D03*
X96250000Y-97500000D03*
X95000000Y-98750000D03*
X97500000Y-98750000D03*
X100000000Y-98750000D03*
X98750000Y-100000000D03*
X96250000Y-100000000D03*
X95000000Y-101250000D03*
X97500000Y-101250000D03*
X100000000Y-101250000D03*
X98750000Y-102500000D03*
X96250000Y-102500000D03*
X93750000Y-102500000D03*
X91250000Y-102500000D03*
X90000000Y-103750000D03*
X92500000Y-103750000D03*
X95000000Y-103750000D03*
X97500000Y-103750000D03*
X100000000Y-103750000D03*
X102500000Y-103750000D03*
X125000000Y-103750000D03*
X127500000Y-103750000D03*
X130000000Y-103750000D03*
X128750000Y-98750000D03*
X130000000Y-97500000D03*
X128750000Y-96250000D03*
X130000000Y-95000000D03*
X128750000Y-93750000D03*
X131250000Y-93750000D03*
X132500000Y-92500000D03*
X130000000Y-92500000D03*
X128750000Y-91250000D03*
X131250000Y-91250000D03*
X132500000Y-90000000D03*
X130000000Y-90000000D03*
X128750000Y-88750000D03*
X131250000Y-88750000D03*
X133750000Y-88750000D03*
X126250000Y-88750000D03*
X123750000Y-88750000D03*
X125000000Y-87500000D03*
X127500000Y-87500000D03*
X130000000Y-87500000D03*
X132500000Y-87500000D03*
X133750000Y-86250000D03*
X131250000Y-86250000D03*
X128750000Y-86250000D03*
X126250000Y-86250000D03*
X123750000Y-86250000D03*
X125000000Y-85000000D03*
X127500000Y-85000000D03*
X130000000Y-85000000D03*
X132500000Y-85000000D03*
X128750000Y-83750000D03*
X126250000Y-83750000D03*
X123750000Y-83750000D03*
X121250000Y-83750000D03*
X118750000Y-83750000D03*
X116250000Y-83750000D03*
X113750000Y-83750000D03*
X117500000Y-82500000D03*
X120000000Y-82500000D03*
X122500000Y-82500000D03*
X125000000Y-82500000D03*
X127500000Y-82500000D03*
X116250000Y-81250000D03*
X118750000Y-81250000D03*
X121250000Y-81250000D03*
X123750000Y-81250000D03*
X126250000Y-81250000D03*
X128750000Y-81250000D03*
X127500000Y-80000000D03*
X125000000Y-80000000D03*
X122500000Y-80000000D03*
X120000000Y-80000000D03*
X117500000Y-80000000D03*
X118750000Y-78750000D03*
X121250000Y-78750000D03*
X123750000Y-78750000D03*
X126250000Y-78750000D03*
X128750000Y-78750000D03*
X127500000Y-77500000D03*
X125000000Y-77500000D03*
X122500000Y-77500000D03*
X120000000Y-77500000D03*
X117500000Y-77500000D03*
X123750000Y-76250000D03*
X126250000Y-76250000D03*
X128750000Y-76250000D03*
X127500000Y-75000000D03*
X125000000Y-75000000D03*
X126250000Y-73750000D03*
X128750000Y-73750000D03*
X131250000Y-73750000D03*
X132500000Y-72500000D03*
X130000000Y-72500000D03*
X127500000Y-72500000D03*
X126250000Y-71250000D03*
X128750000Y-71250000D03*
X131250000Y-71250000D03*
X130000000Y-70000000D03*
X127500000Y-70000000D03*
X126250000Y-68750000D03*
X128750000Y-68750000D03*
X128750000Y-63750000D03*
X126250000Y-63750000D03*
X127500000Y-62500000D03*
X130000000Y-62500000D03*
X131250000Y-58750000D03*
X132500000Y-57500000D03*
X132500000Y-55000000D03*
X131250000Y-56250000D03*
X130000000Y-55000000D03*
X138750000Y-48750000D03*
X138750000Y-51250000D03*
X138750000Y-53750000D03*
X140000000Y-55000000D03*
X137500000Y-55000000D03*
X135000000Y-55000000D03*
X140000000Y-52500000D03*
X99682530Y-75932530D03*
X98432530Y-77182530D03*
X97182530Y-78432530D03*
D21*
X101450002Y-72500000D03*
D19*
X126320000Y-45130000D03*
X140208000Y-45720000D03*
D21*
X92329000Y-43434002D03*
D19*
X84328000Y-42037000D03*
X115316000Y-75565000D03*
D14*
X95550000Y-83514000D03*
D19*
X102584000Y-88812000D03*
X101135500Y-79840010D03*
X107442000Y-94488000D03*
X94037500Y-89900000D03*
D21*
X86330000Y-62100000D03*
X86330000Y-63100000D03*
X87279410Y-61100000D03*
X86330000Y-61100000D03*
X87279410Y-62100000D03*
X86330000Y-64100000D03*
X87279410Y-63100000D03*
X87279410Y-64100000D03*
X87279410Y-78100000D03*
X87279410Y-75100000D03*
X86330000Y-76100000D03*
X87279410Y-76100000D03*
X87279410Y-77100000D03*
X86330000Y-77100000D03*
X86330000Y-78100000D03*
X86330000Y-75100000D03*
X86330000Y-94942000D03*
X86330000Y-97942000D03*
X86330000Y-96942000D03*
X87279410Y-96942000D03*
X87279410Y-95942000D03*
X86330000Y-95942000D03*
X87279410Y-94942000D03*
X87279410Y-97942000D03*
X137179410Y-63080000D03*
X137179410Y-60080000D03*
X136179410Y-61080000D03*
X137179410Y-61080000D03*
X137179410Y-62080000D03*
X136179410Y-62080000D03*
X136179410Y-63080000D03*
X136179410Y-60080000D03*
X137179410Y-77080000D03*
X137179410Y-74080000D03*
X136179410Y-75080000D03*
X137179410Y-75080000D03*
X137179410Y-76080000D03*
X136179410Y-76080000D03*
X136179410Y-77080000D03*
X136179410Y-74080000D03*
X137179410Y-96922000D03*
X137179410Y-93922000D03*
X136179410Y-94922000D03*
X137179410Y-94922000D03*
X137179410Y-95922000D03*
X136179410Y-95922000D03*
X136179410Y-96922000D03*
X136179410Y-93922000D03*
D14*
X97002590Y-91922582D03*
D20*
X97384000Y-82975000D03*
X101846252Y-77021531D03*
D14*
X96439000Y-83225000D03*
D21*
X105534000Y-85675000D03*
D19*
X95758000Y-51054000D03*
X96012000Y-55880000D03*
X91440000Y-52832000D03*
D14*
X98194801Y-92502104D03*
D19*
X91440000Y-51562000D03*
X92075000Y-45974000D03*
D14*
X97663000Y-93472000D03*
D21*
X117856000Y-56007000D03*
D19*
X99568000Y-49784000D03*
D22*
X98425000Y-53213000D02*
X98425000Y-45225000D01*
X109982000Y-71628000D02*
X100330000Y-61976000D01*
X100330000Y-55118000D02*
X98425000Y-53213000D01*
X91046000Y-37846000D02*
X90496000Y-37846000D01*
X98425000Y-45225000D02*
X91046000Y-37846000D01*
X100330000Y-61976000D02*
X100330000Y-55118000D01*
X110871000Y-71628000D02*
X109982000Y-71628000D01*
D23*
X108305000Y-77351000D02*
X109580000Y-77351000D01*
X106404000Y-75450000D02*
X108305000Y-77351000D01*
X107679000Y-75450000D02*
X106404000Y-75450000D01*
X109580000Y-77351000D02*
X107679000Y-75450000D01*
X101650000Y-75450000D02*
X106404000Y-75450000D01*
X94488000Y-85090000D02*
X94488000Y-82612000D01*
X94488000Y-82612000D02*
X101650000Y-75450000D01*
D24*
X126320000Y-45130000D02*
X126320000Y-40558000D01*
X126320000Y-40558000D02*
X127254000Y-39624000D01*
X127254000Y-39624000D02*
X137922000Y-39624000D01*
X140208000Y-41910000D02*
X140208000Y-45720000D01*
X137922000Y-39624000D02*
X140208000Y-41910000D01*
D22*
X92329000Y-43434002D02*
X92329000Y-44686514D01*
X97917000Y-55245000D02*
X97917000Y-68966998D01*
X97917000Y-68966998D02*
X101450002Y-72500000D01*
X97028000Y-54356000D02*
X97917000Y-55245000D01*
X97028000Y-49385514D02*
X97028000Y-54356000D01*
X92329000Y-44686514D02*
X97028000Y-49385514D01*
X114891736Y-75565000D02*
X115316000Y-75565000D01*
X112522000Y-75565000D02*
X114891736Y-75565000D01*
X98806000Y-61849000D02*
X112522000Y-75565000D01*
X97790000Y-53975000D02*
X98806000Y-54991000D01*
X98806000Y-54991000D02*
X98806000Y-61849000D01*
X97790000Y-46190000D02*
X97790000Y-53975000D01*
X93637000Y-42037000D02*
X97790000Y-46190000D01*
X84328000Y-42037000D02*
X93637000Y-42037000D01*
D25*
X102072000Y-88300000D02*
X96159000Y-88300000D01*
X95758000Y-84709000D02*
X95550000Y-84501000D01*
X95550000Y-84501000D02*
X95550000Y-83638000D01*
X95758000Y-87899000D02*
X95758000Y-84709000D01*
X96159000Y-88300000D02*
X95758000Y-87899000D01*
X102584000Y-88812000D02*
X102072000Y-88300000D01*
X107442000Y-93742000D02*
X104450000Y-90750000D01*
X94887500Y-90750000D02*
X94037500Y-89900000D01*
X104450000Y-90750000D02*
X94887500Y-90750000D01*
X107442000Y-94488000D02*
X107442000Y-93742000D01*
D22*
X88646000Y-52736000D02*
X89662000Y-51720000D01*
X86964000Y-52736000D02*
X88646000Y-52736000D01*
X85250000Y-54450000D02*
X86964000Y-52736000D01*
X85250000Y-87350000D02*
X85250000Y-54450000D01*
X89822582Y-91922582D02*
X85250000Y-87350000D01*
X97002590Y-91922582D02*
X89822582Y-91922582D01*
D25*
X96439000Y-83225000D02*
X96439000Y-84280000D01*
X96439000Y-84280000D02*
X97059000Y-84900000D01*
X104759000Y-84900000D02*
X105534000Y-85675000D01*
X97059000Y-84900000D02*
X104759000Y-84900000D01*
D26*
X89662000Y-45720000D02*
X90678000Y-45720000D01*
X90678000Y-45720000D02*
X92202000Y-47244000D01*
X92202000Y-47244000D02*
X92202000Y-49784000D01*
X92202000Y-49784000D02*
X93472000Y-51054000D01*
X93472000Y-51054000D02*
X95758000Y-51054000D01*
X95758000Y-51054000D02*
X96012000Y-51308000D01*
X96012000Y-51308000D02*
X96012000Y-55880000D01*
D22*
X93218000Y-51054000D02*
X93472000Y-51054000D01*
D26*
X91440000Y-52832000D02*
X93218000Y-51054000D01*
D22*
X89062001Y-50319999D02*
X89662000Y-49720000D01*
X88709000Y-50673000D02*
X89062001Y-50319999D01*
X86995000Y-50673000D02*
X88709000Y-50673000D01*
X82050000Y-55618000D02*
X86995000Y-50673000D01*
X82050000Y-85550000D02*
X82050000Y-55618000D01*
X89002104Y-92502104D02*
X82050000Y-85550000D01*
X98194801Y-92502104D02*
X89002104Y-92502104D01*
X89662000Y-47720000D02*
X91440000Y-49498000D01*
X91440000Y-49498000D02*
X91440000Y-51137736D01*
X91440000Y-51137736D02*
X91440000Y-51562000D01*
X87112335Y-44392989D02*
X89958266Y-44392989D01*
X90860599Y-48918599D02*
X90261999Y-48319999D01*
X90261999Y-48319999D02*
X89662000Y-47720000D01*
X90493989Y-44392989D02*
X87112335Y-44392989D01*
X92075000Y-45974000D02*
X90493989Y-44392989D01*
X82000000Y-49505324D02*
X87112335Y-44392989D01*
X78450000Y-53055324D02*
X82000000Y-49505324D01*
X78450000Y-85950000D02*
X78450000Y-53055324D01*
X85972000Y-93472000D02*
X78450000Y-85950000D01*
X97663000Y-93472000D02*
X85972000Y-93472000D01*
X99568000Y-50208264D02*
X99568000Y-49784000D01*
X117856000Y-56007000D02*
X103378000Y-56007000D01*
X99568000Y-52197000D02*
X99568000Y-50208264D01*
X103378000Y-56007000D02*
X99568000Y-52197000D01*
G36*
X144050930Y-35717586D02*
G01*
X144580884Y-35877589D01*
X145069658Y-36137475D01*
X145498649Y-36487351D01*
X145851510Y-36913887D01*
X146114804Y-37400839D01*
X146278500Y-37929657D01*
X146339600Y-38510983D01*
X146339601Y-111467692D01*
X146282414Y-112050931D01*
X146122413Y-112580880D01*
X145862526Y-113069657D01*
X145512651Y-113498647D01*
X145086112Y-113851511D01*
X144599164Y-114114802D01*
X144070343Y-114278500D01*
X143489017Y-114339600D01*
X80532297Y-114339600D01*
X79949069Y-114282414D01*
X79419120Y-114122413D01*
X78930343Y-113862526D01*
X78501353Y-113512651D01*
X78148489Y-113086112D01*
X77885198Y-112599164D01*
X77721500Y-112070343D01*
X77660400Y-111489017D01*
X77660400Y-111339518D01*
X78870600Y-111339518D01*
X78870600Y-111660482D01*
X78933217Y-111975278D01*
X79056044Y-112271810D01*
X79234362Y-112538682D01*
X79461318Y-112765638D01*
X79728190Y-112943956D01*
X80024722Y-113066783D01*
X80339518Y-113129400D01*
X80660482Y-113129400D01*
X80975278Y-113066783D01*
X81271810Y-112943956D01*
X81538682Y-112765638D01*
X81765638Y-112538682D01*
X81943956Y-112271810D01*
X82066783Y-111975278D01*
X82129400Y-111660482D01*
X82129400Y-111339518D01*
X141870600Y-111339518D01*
X141870600Y-111660482D01*
X141933217Y-111975278D01*
X142056044Y-112271810D01*
X142234362Y-112538682D01*
X142461318Y-112765638D01*
X142728190Y-112943956D01*
X143024722Y-113066783D01*
X143339518Y-113129400D01*
X143660482Y-113129400D01*
X143975278Y-113066783D01*
X144271810Y-112943956D01*
X144538682Y-112765638D01*
X144765638Y-112538682D01*
X144943956Y-112271810D01*
X145066783Y-111975278D01*
X145129400Y-111660482D01*
X145129400Y-111339518D01*
X145066783Y-111024722D01*
X144943956Y-110728190D01*
X144765638Y-110461318D01*
X144538682Y-110234362D01*
X144271810Y-110056044D01*
X143975278Y-109933217D01*
X143660482Y-109870600D01*
X143339518Y-109870600D01*
X143024722Y-109933217D01*
X142728190Y-110056044D01*
X142461318Y-110234362D01*
X142234362Y-110461318D01*
X142056044Y-110728190D01*
X141933217Y-111024722D01*
X141870600Y-111339518D01*
X82129400Y-111339518D01*
X82066783Y-111024722D01*
X81943956Y-110728190D01*
X81765638Y-110461318D01*
X81538682Y-110234362D01*
X81271810Y-110056044D01*
X80975278Y-109933217D01*
X80660482Y-109870600D01*
X80339518Y-109870600D01*
X80024722Y-109933217D01*
X79728190Y-110056044D01*
X79461318Y-110234362D01*
X79234362Y-110461318D01*
X79056044Y-110728190D01*
X78933217Y-111024722D01*
X78870600Y-111339518D01*
X77660400Y-111339518D01*
X77660400Y-98640001D01*
X130369249Y-98640001D01*
X130369249Y-100839999D01*
X130379447Y-100943544D01*
X130409650Y-101043109D01*
X130458697Y-101134869D01*
X130524703Y-101215297D01*
X130605131Y-101281303D01*
X130696891Y-101330350D01*
X130796456Y-101360553D01*
X130900001Y-101370751D01*
X133099999Y-101370751D01*
X133203544Y-101360553D01*
X133303109Y-101330350D01*
X133394869Y-101281303D01*
X133475297Y-101215297D01*
X133541303Y-101134869D01*
X133590350Y-101043109D01*
X133620553Y-100943544D01*
X133630751Y-100839999D01*
X133630751Y-98640001D01*
X133620553Y-98536456D01*
X133590350Y-98436891D01*
X133541303Y-98345131D01*
X133475297Y-98264703D01*
X133394869Y-98198697D01*
X133303109Y-98149650D01*
X133203544Y-98119447D01*
X133099999Y-98109249D01*
X130900001Y-98109249D01*
X130796456Y-98119447D01*
X130696891Y-98149650D01*
X130605131Y-98198697D01*
X130524703Y-98264703D01*
X130458697Y-98345131D01*
X130409650Y-98436891D01*
X130379447Y-98536456D01*
X130369249Y-98640001D01*
X77660400Y-98640001D01*
X77660400Y-94875085D01*
X85650600Y-94875085D01*
X85650600Y-95008915D01*
X85676709Y-95140174D01*
X85727924Y-95263816D01*
X85802276Y-95375092D01*
X85869184Y-95442000D01*
X85802276Y-95508908D01*
X85727924Y-95620184D01*
X85676709Y-95743826D01*
X85650600Y-95875085D01*
X85650600Y-96008915D01*
X85676709Y-96140174D01*
X85727924Y-96263816D01*
X85802276Y-96375092D01*
X85869184Y-96442000D01*
X85802276Y-96508908D01*
X85727924Y-96620184D01*
X85676709Y-96743826D01*
X85650600Y-96875085D01*
X85650600Y-97008915D01*
X85676709Y-97140174D01*
X85727924Y-97263816D01*
X85802276Y-97375092D01*
X85869184Y-97442000D01*
X85802276Y-97508908D01*
X85727924Y-97620184D01*
X85676709Y-97743826D01*
X85650600Y-97875085D01*
X85650600Y-98008915D01*
X85676709Y-98140174D01*
X85727924Y-98263816D01*
X85802276Y-98375092D01*
X85896908Y-98469724D01*
X86008184Y-98544076D01*
X86131826Y-98595291D01*
X86263085Y-98621400D01*
X86396915Y-98621400D01*
X86528174Y-98595291D01*
X86651816Y-98544076D01*
X86763092Y-98469724D01*
X86804705Y-98428111D01*
X86846318Y-98469724D01*
X86957594Y-98544076D01*
X87081236Y-98595291D01*
X87212495Y-98621400D01*
X87346325Y-98621400D01*
X87477584Y-98595291D01*
X87601226Y-98544076D01*
X87712502Y-98469724D01*
X87807134Y-98375092D01*
X87881486Y-98263816D01*
X87932701Y-98140174D01*
X87958810Y-98008915D01*
X87958810Y-97875085D01*
X87932701Y-97743826D01*
X87881486Y-97620184D01*
X87807134Y-97508908D01*
X87740226Y-97442000D01*
X87807134Y-97375092D01*
X87881486Y-97263816D01*
X87932701Y-97140174D01*
X87958810Y-97008915D01*
X87958810Y-96875085D01*
X87932701Y-96743826D01*
X87881486Y-96620184D01*
X87807134Y-96508908D01*
X87740226Y-96442000D01*
X87807134Y-96375092D01*
X87881486Y-96263816D01*
X87932701Y-96140174D01*
X87958810Y-96008915D01*
X87958810Y-95875085D01*
X87932701Y-95743826D01*
X87881486Y-95620184D01*
X87807134Y-95508908D01*
X87740226Y-95442000D01*
X87807134Y-95375092D01*
X87881486Y-95263816D01*
X87932701Y-95140174D01*
X87958810Y-95008915D01*
X87958810Y-94875085D01*
X87932701Y-94743826D01*
X87906264Y-94680001D01*
X90369249Y-94680001D01*
X90369249Y-96879999D01*
X90379447Y-96983544D01*
X90409650Y-97083109D01*
X90458697Y-97174869D01*
X90524703Y-97255297D01*
X90605131Y-97321303D01*
X90696891Y-97370350D01*
X90796456Y-97400553D01*
X90900001Y-97410751D01*
X93099999Y-97410751D01*
X93203544Y-97400553D01*
X93303109Y-97370350D01*
X93394869Y-97321303D01*
X93475297Y-97255297D01*
X93541303Y-97174869D01*
X93590350Y-97083109D01*
X93620553Y-96983544D01*
X93630751Y-96879999D01*
X93630751Y-94680001D01*
X93620553Y-94576456D01*
X93590350Y-94476891D01*
X93541303Y-94385131D01*
X93475297Y-94304703D01*
X93394869Y-94238697D01*
X93303109Y-94189650D01*
X93203544Y-94159447D01*
X93099999Y-94149249D01*
X90900001Y-94149249D01*
X90796456Y-94159447D01*
X90696891Y-94189650D01*
X90605131Y-94238697D01*
X90524703Y-94304703D01*
X90458697Y-94385131D01*
X90409650Y-94476891D01*
X90379447Y-94576456D01*
X90369249Y-94680001D01*
X87906264Y-94680001D01*
X87881486Y-94620184D01*
X87807134Y-94508908D01*
X87712502Y-94414276D01*
X87601226Y-94339924D01*
X87477584Y-94288709D01*
X87346325Y-94262600D01*
X87212495Y-94262600D01*
X87081236Y-94288709D01*
X86957594Y-94339924D01*
X86846318Y-94414276D01*
X86804705Y-94455889D01*
X86763092Y-94414276D01*
X86651816Y-94339924D01*
X86528174Y-94288709D01*
X86396915Y-94262600D01*
X86263085Y-94262600D01*
X86131826Y-94288709D01*
X86008184Y-94339924D01*
X85896908Y-94414276D01*
X85802276Y-94508908D01*
X85727924Y-94620184D01*
X85676709Y-94743826D01*
X85650600Y-94875085D01*
X77660400Y-94875085D01*
X77660400Y-53055324D01*
X78041635Y-53055324D01*
X78043601Y-53075287D01*
X78043600Y-85930047D01*
X78041635Y-85950000D01*
X78043600Y-85969953D01*
X78043600Y-85969959D01*
X78048098Y-86015627D01*
X78049481Y-86029668D01*
X78070301Y-86098303D01*
X78072719Y-86106274D01*
X78110456Y-86176875D01*
X78161242Y-86238758D01*
X78176746Y-86251482D01*
X85670518Y-93745254D01*
X85683242Y-93760758D01*
X85745124Y-93811544D01*
X85815725Y-93849281D01*
X85869093Y-93865470D01*
X85892331Y-93872519D01*
X85900335Y-93873307D01*
X85952040Y-93878400D01*
X85952046Y-93878400D01*
X85971999Y-93880365D01*
X85991952Y-93878400D01*
X97315058Y-93878400D01*
X97322977Y-93886319D01*
X97410340Y-93944693D01*
X97507413Y-93984902D01*
X97610465Y-94005400D01*
X97715535Y-94005400D01*
X97818587Y-93984902D01*
X97915660Y-93944693D01*
X98003023Y-93886319D01*
X98077319Y-93812023D01*
X98135693Y-93724660D01*
X98175902Y-93627587D01*
X98196400Y-93524535D01*
X98196400Y-93419465D01*
X98175902Y-93316413D01*
X98135693Y-93219340D01*
X98077319Y-93131977D01*
X98003023Y-93057681D01*
X97915660Y-92999307D01*
X97818587Y-92959098D01*
X97715535Y-92938600D01*
X97610465Y-92938600D01*
X97507413Y-92959098D01*
X97410340Y-92999307D01*
X97322977Y-93057681D01*
X97315058Y-93065600D01*
X86140336Y-93065600D01*
X78856400Y-85781664D01*
X78856400Y-54511226D01*
X78857600Y-54511226D01*
X78857600Y-54728774D01*
X78900041Y-54942142D01*
X78983293Y-55143130D01*
X79104156Y-55324014D01*
X79257986Y-55477844D01*
X79438870Y-55598707D01*
X79639858Y-55681959D01*
X79853226Y-55724400D01*
X80070774Y-55724400D01*
X80284142Y-55681959D01*
X80438552Y-55618000D01*
X81641635Y-55618000D01*
X81643601Y-55637963D01*
X81643600Y-85530047D01*
X81641635Y-85550000D01*
X81643600Y-85569953D01*
X81643600Y-85569959D01*
X81649481Y-85629667D01*
X81672719Y-85706274D01*
X81710456Y-85776875D01*
X81761242Y-85838758D01*
X81776746Y-85851482D01*
X88700627Y-92775364D01*
X88713346Y-92790862D01*
X88728844Y-92803581D01*
X88728849Y-92803586D01*
X88749850Y-92820821D01*
X88775228Y-92841648D01*
X88845829Y-92879385D01*
X88922435Y-92902623D01*
X88929708Y-92903339D01*
X88982144Y-92908504D01*
X88982151Y-92908504D01*
X89002104Y-92910469D01*
X89022057Y-92908504D01*
X97846859Y-92908504D01*
X97854778Y-92916423D01*
X97942141Y-92974797D01*
X98039214Y-93015006D01*
X98142266Y-93035504D01*
X98247336Y-93035504D01*
X98350388Y-93015006D01*
X98447461Y-92974797D01*
X98534824Y-92916423D01*
X98609120Y-92842127D01*
X98667494Y-92754764D01*
X98707703Y-92657691D01*
X98728201Y-92554639D01*
X98728201Y-92449569D01*
X98707703Y-92346517D01*
X98667494Y-92249444D01*
X98609120Y-92162081D01*
X98534824Y-92087785D01*
X98447461Y-92029411D01*
X98350388Y-91989202D01*
X98247336Y-91968704D01*
X98142266Y-91968704D01*
X98039214Y-91989202D01*
X97942141Y-92029411D01*
X97854778Y-92087785D01*
X97846859Y-92095704D01*
X97508229Y-92095704D01*
X97515492Y-92078169D01*
X97535990Y-91975117D01*
X97535990Y-91870047D01*
X97515492Y-91766995D01*
X97475283Y-91669922D01*
X97416909Y-91582559D01*
X97342613Y-91508263D01*
X97255250Y-91449889D01*
X97158177Y-91409680D01*
X97055125Y-91389182D01*
X96950055Y-91389182D01*
X96847003Y-91409680D01*
X96749930Y-91449889D01*
X96662567Y-91508263D01*
X96654648Y-91516182D01*
X89990918Y-91516182D01*
X88308057Y-89833321D01*
X93360500Y-89833321D01*
X93360500Y-89966679D01*
X93386516Y-90097474D01*
X93437550Y-90220680D01*
X93511640Y-90331563D01*
X93605937Y-90425860D01*
X93716820Y-90499950D01*
X93840026Y-90550984D01*
X93880542Y-90559043D01*
X94459461Y-91137962D01*
X94477526Y-91159974D01*
X94565385Y-91232079D01*
X94639728Y-91271816D01*
X94665623Y-91285657D01*
X94774388Y-91318651D01*
X94887500Y-91329791D01*
X94915839Y-91327000D01*
X104210999Y-91327000D01*
X106865000Y-93981002D01*
X106865000Y-94132973D01*
X106842050Y-94167320D01*
X106791016Y-94290526D01*
X106765000Y-94421321D01*
X106765000Y-94554679D01*
X106791016Y-94685474D01*
X106842050Y-94808680D01*
X106916140Y-94919563D01*
X107010437Y-95013860D01*
X107121320Y-95087950D01*
X107244526Y-95138984D01*
X107375321Y-95165000D01*
X107508679Y-95165000D01*
X107639474Y-95138984D01*
X107762680Y-95087950D01*
X107873563Y-95013860D01*
X107967860Y-94919563D01*
X108041950Y-94808680D01*
X108092984Y-94685474D01*
X108119000Y-94554679D01*
X108119000Y-94421321D01*
X108092984Y-94290526D01*
X108041950Y-94167320D01*
X108019000Y-94132973D01*
X108019000Y-93855085D01*
X135500010Y-93855085D01*
X135500010Y-93988915D01*
X135526119Y-94120174D01*
X135577334Y-94243816D01*
X135651686Y-94355092D01*
X135718594Y-94422000D01*
X135651686Y-94488908D01*
X135577334Y-94600184D01*
X135526119Y-94723826D01*
X135500010Y-94855085D01*
X135500010Y-94988915D01*
X135526119Y-95120174D01*
X135577334Y-95243816D01*
X135651686Y-95355092D01*
X135718594Y-95422000D01*
X135651686Y-95488908D01*
X135577334Y-95600184D01*
X135526119Y-95723826D01*
X135500010Y-95855085D01*
X135500010Y-95988915D01*
X135526119Y-96120174D01*
X135577334Y-96243816D01*
X135651686Y-96355092D01*
X135718594Y-96422000D01*
X135651686Y-96488908D01*
X135577334Y-96600184D01*
X135526119Y-96723826D01*
X135500010Y-96855085D01*
X135500010Y-96988915D01*
X135526119Y-97120174D01*
X135577334Y-97243816D01*
X135651686Y-97355092D01*
X135746318Y-97449724D01*
X135857594Y-97524076D01*
X135981236Y-97575291D01*
X136112495Y-97601400D01*
X136246325Y-97601400D01*
X136377584Y-97575291D01*
X136501226Y-97524076D01*
X136612502Y-97449724D01*
X136679410Y-97382816D01*
X136746318Y-97449724D01*
X136857594Y-97524076D01*
X136981236Y-97575291D01*
X137112495Y-97601400D01*
X137246325Y-97601400D01*
X137377584Y-97575291D01*
X137501226Y-97524076D01*
X137612502Y-97449724D01*
X137707134Y-97355092D01*
X137781486Y-97243816D01*
X137832701Y-97120174D01*
X137858810Y-96988915D01*
X137858810Y-96855085D01*
X137832701Y-96723826D01*
X137781486Y-96600184D01*
X137707134Y-96488908D01*
X137640226Y-96422000D01*
X137707134Y-96355092D01*
X137781486Y-96243816D01*
X137832701Y-96120174D01*
X137858810Y-95988915D01*
X137858810Y-95855085D01*
X137832701Y-95723826D01*
X137781486Y-95600184D01*
X137707134Y-95488908D01*
X137640226Y-95422000D01*
X137707134Y-95355092D01*
X137781486Y-95243816D01*
X137832701Y-95120174D01*
X137858810Y-94988915D01*
X137858810Y-94855085D01*
X137832701Y-94723826D01*
X137781486Y-94600184D01*
X137707134Y-94488908D01*
X137640226Y-94422000D01*
X137707134Y-94355092D01*
X137781486Y-94243816D01*
X137832701Y-94120174D01*
X137858810Y-93988915D01*
X137858810Y-93855085D01*
X137832701Y-93723826D01*
X137781486Y-93600184D01*
X137707134Y-93488908D01*
X137612502Y-93394276D01*
X137501226Y-93319924D01*
X137377584Y-93268709D01*
X137246325Y-93242600D01*
X137112495Y-93242600D01*
X136981236Y-93268709D01*
X136857594Y-93319924D01*
X136746318Y-93394276D01*
X136679410Y-93461184D01*
X136612502Y-93394276D01*
X136501226Y-93319924D01*
X136377584Y-93268709D01*
X136246325Y-93242600D01*
X136112495Y-93242600D01*
X135981236Y-93268709D01*
X135857594Y-93319924D01*
X135746318Y-93394276D01*
X135651686Y-93488908D01*
X135577334Y-93600184D01*
X135526119Y-93723826D01*
X135500010Y-93855085D01*
X108019000Y-93855085D01*
X108019000Y-93770331D01*
X108021790Y-93742000D01*
X108010651Y-93628888D01*
X107987226Y-93551668D01*
X107977657Y-93520124D01*
X107924079Y-93419885D01*
X107851974Y-93332026D01*
X107829967Y-93313965D01*
X104878037Y-90362036D01*
X104859974Y-90340026D01*
X104772115Y-90267921D01*
X104671876Y-90214343D01*
X104607770Y-90194897D01*
X104563111Y-90181349D01*
X104508045Y-90175926D01*
X104478336Y-90173000D01*
X104478331Y-90173000D01*
X104450000Y-90170210D01*
X104421669Y-90173000D01*
X95126501Y-90173000D01*
X94696543Y-89743042D01*
X94688484Y-89702526D01*
X94637450Y-89579320D01*
X94563360Y-89468437D01*
X94469063Y-89374140D01*
X94358180Y-89300050D01*
X94234974Y-89249016D01*
X94104179Y-89223000D01*
X93970821Y-89223000D01*
X93840026Y-89249016D01*
X93716820Y-89300050D01*
X93605937Y-89374140D01*
X93511640Y-89468437D01*
X93437550Y-89579320D01*
X93386516Y-89702526D01*
X93360500Y-89833321D01*
X88308057Y-89833321D01*
X85656400Y-87181664D01*
X85656400Y-82125000D01*
X91223000Y-82125000D01*
X91223000Y-85750000D01*
X91230244Y-85823549D01*
X91251697Y-85894272D01*
X91286536Y-85959450D01*
X91333421Y-86016579D01*
X91390550Y-86063464D01*
X91455728Y-86098303D01*
X91526451Y-86119756D01*
X91600000Y-86127000D01*
X95000000Y-86127000D01*
X95073549Y-86119756D01*
X95144272Y-86098303D01*
X95209450Y-86063464D01*
X95266579Y-86016579D01*
X95278601Y-86001931D01*
X95278600Y-87875455D01*
X95276281Y-87899000D01*
X95278600Y-87922545D01*
X95285537Y-87992978D01*
X95312950Y-88083345D01*
X95357465Y-88166629D01*
X95417373Y-88239627D01*
X95435669Y-88254643D01*
X95803361Y-88622335D01*
X95818373Y-88640627D01*
X95891371Y-88700535D01*
X95974654Y-88745050D01*
X96065021Y-88772463D01*
X96159000Y-88781719D01*
X96182545Y-88779400D01*
X101873427Y-88779400D01*
X102014906Y-88920880D01*
X102026866Y-88981005D01*
X102070543Y-89086449D01*
X102133951Y-89181346D01*
X102214654Y-89262049D01*
X102309551Y-89325457D01*
X102414995Y-89369134D01*
X102526934Y-89391400D01*
X102641066Y-89391400D01*
X102753005Y-89369134D01*
X102858449Y-89325457D01*
X102953346Y-89262049D01*
X103034049Y-89181346D01*
X103097457Y-89086449D01*
X103141134Y-88981005D01*
X103163400Y-88869066D01*
X103163400Y-88754934D01*
X103141134Y-88642995D01*
X103097457Y-88537551D01*
X103034049Y-88442654D01*
X102953346Y-88361951D01*
X102858449Y-88298543D01*
X102753005Y-88254866D01*
X102692880Y-88242906D01*
X102427643Y-87977670D01*
X102412627Y-87959373D01*
X102339629Y-87899465D01*
X102256346Y-87854950D01*
X102165979Y-87827537D01*
X102095546Y-87820600D01*
X102095545Y-87820600D01*
X102072000Y-87818281D01*
X102048455Y-87820600D01*
X96357574Y-87820600D01*
X96237400Y-87700427D01*
X96237400Y-84756373D01*
X96703361Y-85222335D01*
X96718373Y-85240627D01*
X96791371Y-85300535D01*
X96874654Y-85345050D01*
X96943988Y-85366082D01*
X96965020Y-85372463D01*
X97058999Y-85381719D01*
X97082545Y-85379400D01*
X104560427Y-85379400D01*
X104854600Y-85673574D01*
X104854600Y-85741915D01*
X104880709Y-85873174D01*
X104931924Y-85996816D01*
X105006276Y-86108092D01*
X105100908Y-86202724D01*
X105212184Y-86277076D01*
X105335826Y-86328291D01*
X105467085Y-86354400D01*
X105600915Y-86354400D01*
X105732174Y-86328291D01*
X105855816Y-86277076D01*
X105967092Y-86202724D01*
X106061724Y-86108092D01*
X106136076Y-85996816D01*
X106187291Y-85873174D01*
X106213400Y-85741915D01*
X106213400Y-85608085D01*
X106187291Y-85476826D01*
X106136076Y-85353184D01*
X106061724Y-85241908D01*
X105967092Y-85147276D01*
X105855816Y-85072924D01*
X105732174Y-85021709D01*
X105600915Y-84995600D01*
X105532574Y-84995600D01*
X105114643Y-84577670D01*
X105099627Y-84559373D01*
X105026629Y-84499465D01*
X104943346Y-84454950D01*
X104852979Y-84427537D01*
X104782546Y-84420600D01*
X104782545Y-84420600D01*
X104759000Y-84418281D01*
X104735455Y-84420600D01*
X97257574Y-84420600D01*
X96918400Y-84081427D01*
X96918400Y-83601272D01*
X97014816Y-83665695D01*
X97156657Y-83724448D01*
X97307236Y-83754400D01*
X97460764Y-83754400D01*
X97611343Y-83724448D01*
X97753184Y-83665695D01*
X97880838Y-83580399D01*
X97989399Y-83471838D01*
X98074695Y-83344184D01*
X98133448Y-83202343D01*
X98163400Y-83051764D01*
X98163400Y-82898236D01*
X98133448Y-82747657D01*
X98074695Y-82605816D01*
X97989399Y-82478162D01*
X97880838Y-82369601D01*
X97753184Y-82284305D01*
X97611343Y-82225552D01*
X97460764Y-82195600D01*
X97307236Y-82195600D01*
X97156657Y-82225552D01*
X97014816Y-82284305D01*
X96887162Y-82369601D01*
X96778601Y-82478162D01*
X96693305Y-82605816D01*
X96641271Y-82731435D01*
X96594587Y-82712098D01*
X96491535Y-82691600D01*
X96386465Y-82691600D01*
X96283413Y-82712098D01*
X96186340Y-82752307D01*
X96098977Y-82810681D01*
X96024681Y-82884977D01*
X95966307Y-82972340D01*
X95926098Y-83069413D01*
X95915091Y-83124749D01*
X95890023Y-83099681D01*
X95802660Y-83041307D01*
X95705587Y-83001098D01*
X95602535Y-82980600D01*
X95497465Y-82980600D01*
X95394413Y-83001098D01*
X95377000Y-83008311D01*
X95377000Y-82963265D01*
X98557321Y-79782944D01*
X100556100Y-79782944D01*
X100556100Y-79897076D01*
X100578366Y-80009015D01*
X100622043Y-80114459D01*
X100685451Y-80209356D01*
X100766154Y-80290059D01*
X100861051Y-80353467D01*
X100966495Y-80397144D01*
X101078434Y-80419410D01*
X101192566Y-80419410D01*
X101304505Y-80397144D01*
X101409949Y-80353467D01*
X101504846Y-80290059D01*
X101585549Y-80209356D01*
X101648957Y-80114459D01*
X101692634Y-80009015D01*
X101714900Y-79897076D01*
X101714900Y-79782944D01*
X101692634Y-79671005D01*
X101648957Y-79565561D01*
X101585549Y-79470664D01*
X101504846Y-79389961D01*
X101409949Y-79326553D01*
X101304505Y-79282876D01*
X101192566Y-79260610D01*
X101078434Y-79260610D01*
X100966495Y-79282876D01*
X100861051Y-79326553D01*
X100766154Y-79389961D01*
X100685451Y-79470664D01*
X100622043Y-79565561D01*
X100578366Y-79671005D01*
X100556100Y-79782944D01*
X98557321Y-79782944D01*
X99542264Y-78798001D01*
X130369249Y-78798001D01*
X130369249Y-80997999D01*
X130379447Y-81101544D01*
X130409650Y-81201109D01*
X130458697Y-81292869D01*
X130524703Y-81373297D01*
X130605131Y-81439303D01*
X130696891Y-81488350D01*
X130796456Y-81518553D01*
X130900001Y-81528751D01*
X133099999Y-81528751D01*
X133203544Y-81518553D01*
X133303109Y-81488350D01*
X133394869Y-81439303D01*
X133475297Y-81373297D01*
X133541303Y-81292869D01*
X133590350Y-81201109D01*
X133620553Y-81101544D01*
X133630751Y-80997999D01*
X133630751Y-78798001D01*
X133620553Y-78694456D01*
X133590350Y-78594891D01*
X133541303Y-78503131D01*
X133475297Y-78422703D01*
X133394869Y-78356697D01*
X133303109Y-78307650D01*
X133203544Y-78277447D01*
X133099999Y-78267249D01*
X130900001Y-78267249D01*
X130796456Y-78277447D01*
X130696891Y-78307650D01*
X130605131Y-78356697D01*
X130524703Y-78422703D01*
X130458697Y-78503131D01*
X130409650Y-78594891D01*
X130379447Y-78694456D01*
X130369249Y-78798001D01*
X99542264Y-78798001D01*
X101095906Y-77244359D01*
X101096804Y-77248874D01*
X101155557Y-77390715D01*
X101240853Y-77518369D01*
X101349414Y-77626930D01*
X101477068Y-77712226D01*
X101618909Y-77770979D01*
X101769488Y-77800931D01*
X101923016Y-77800931D01*
X102073595Y-77770979D01*
X102215436Y-77712226D01*
X102343090Y-77626930D01*
X102451651Y-77518369D01*
X102536947Y-77390715D01*
X102595700Y-77248874D01*
X102625652Y-77098295D01*
X102625652Y-76944767D01*
X102595700Y-76794188D01*
X102536947Y-76652347D01*
X102451651Y-76524693D01*
X102343090Y-76416132D01*
X102215436Y-76330836D01*
X102206175Y-76327000D01*
X106040735Y-76327000D01*
X107654408Y-77940674D01*
X107681867Y-77974133D01*
X107715332Y-78001597D01*
X107745945Y-78032210D01*
X107781943Y-78056263D01*
X107815408Y-78083727D01*
X107853587Y-78104134D01*
X107889585Y-78128187D01*
X107929585Y-78144755D01*
X107967763Y-78165162D01*
X108009190Y-78177729D01*
X108049189Y-78194297D01*
X108091650Y-78202743D01*
X108133077Y-78215310D01*
X108176159Y-78219553D01*
X108218623Y-78228000D01*
X108261920Y-78228000D01*
X108305000Y-78232243D01*
X108348079Y-78228000D01*
X109536920Y-78228000D01*
X109580000Y-78232243D01*
X109623079Y-78228000D01*
X109666377Y-78228000D01*
X109708842Y-78219553D01*
X109751922Y-78215310D01*
X109793348Y-78202744D01*
X109835811Y-78194297D01*
X109875811Y-78177729D01*
X109917237Y-78165162D01*
X109955415Y-78144755D01*
X109995415Y-78128187D01*
X110031413Y-78104134D01*
X110069592Y-78083727D01*
X110103057Y-78056263D01*
X110139055Y-78032210D01*
X110169668Y-78001597D01*
X110203133Y-77974133D01*
X110230597Y-77940668D01*
X110261210Y-77910055D01*
X110285263Y-77874057D01*
X110312727Y-77840592D01*
X110333134Y-77802413D01*
X110357187Y-77766415D01*
X110373755Y-77726415D01*
X110394162Y-77688237D01*
X110406729Y-77646811D01*
X110423297Y-77606811D01*
X110431744Y-77564348D01*
X110444310Y-77522922D01*
X110448553Y-77479842D01*
X110457000Y-77437377D01*
X110457000Y-77394079D01*
X110461243Y-77351000D01*
X110457000Y-77307921D01*
X110457000Y-77264623D01*
X110448553Y-77222158D01*
X110444310Y-77179078D01*
X110440621Y-77166915D01*
X110431743Y-77137650D01*
X110423297Y-77095189D01*
X110406729Y-77055190D01*
X110394162Y-77013763D01*
X110373756Y-76975586D01*
X110357187Y-76935585D01*
X110333134Y-76899587D01*
X110312727Y-76861408D01*
X110285263Y-76827943D01*
X110261210Y-76791945D01*
X110230599Y-76761334D01*
X110230594Y-76761328D01*
X110230592Y-76761326D01*
X110203133Y-76727867D01*
X110169674Y-76700408D01*
X108329597Y-74860332D01*
X108302133Y-74826867D01*
X108168592Y-74717273D01*
X108016237Y-74635838D01*
X107850922Y-74585690D01*
X107722079Y-74573000D01*
X107679000Y-74568757D01*
X107635921Y-74573000D01*
X106447079Y-74573000D01*
X106404000Y-74568757D01*
X106360921Y-74573000D01*
X101693079Y-74573000D01*
X101650000Y-74568757D01*
X101478077Y-74585690D01*
X101382936Y-74614551D01*
X101312763Y-74635838D01*
X101160408Y-74717273D01*
X101026867Y-74826867D01*
X100999403Y-74860332D01*
X94111735Y-81748000D01*
X91600000Y-81748000D01*
X91526451Y-81755244D01*
X91455728Y-81776697D01*
X91390550Y-81811536D01*
X91333421Y-81858421D01*
X91286536Y-81915550D01*
X91251697Y-81980728D01*
X91230244Y-82051451D01*
X91223000Y-82125000D01*
X85656400Y-82125000D01*
X85656400Y-78196074D01*
X85676709Y-78298174D01*
X85727924Y-78421816D01*
X85802276Y-78533092D01*
X85896908Y-78627724D01*
X86008184Y-78702076D01*
X86131826Y-78753291D01*
X86263085Y-78779400D01*
X86396915Y-78779400D01*
X86528174Y-78753291D01*
X86651816Y-78702076D01*
X86763092Y-78627724D01*
X86804705Y-78586111D01*
X86846318Y-78627724D01*
X86957594Y-78702076D01*
X87081236Y-78753291D01*
X87212495Y-78779400D01*
X87346325Y-78779400D01*
X87477584Y-78753291D01*
X87601226Y-78702076D01*
X87712502Y-78627724D01*
X87807134Y-78533092D01*
X87881486Y-78421816D01*
X87932701Y-78298174D01*
X87958810Y-78166915D01*
X87958810Y-78033085D01*
X87932701Y-77901826D01*
X87881486Y-77778184D01*
X87807134Y-77666908D01*
X87740226Y-77600000D01*
X87807134Y-77533092D01*
X87881486Y-77421816D01*
X87932701Y-77298174D01*
X87958810Y-77166915D01*
X87958810Y-77033085D01*
X87932701Y-76901826D01*
X87881486Y-76778184D01*
X87807134Y-76666908D01*
X87740226Y-76600000D01*
X87807134Y-76533092D01*
X87881486Y-76421816D01*
X87932701Y-76298174D01*
X87958810Y-76166915D01*
X87958810Y-76033085D01*
X87932701Y-75901826D01*
X87881486Y-75778184D01*
X87807134Y-75666908D01*
X87740226Y-75600000D01*
X87807134Y-75533092D01*
X87881486Y-75421816D01*
X87932701Y-75298174D01*
X87958810Y-75166915D01*
X87958810Y-75033085D01*
X87932701Y-74901826D01*
X87906264Y-74838001D01*
X90369249Y-74838001D01*
X90369249Y-77037999D01*
X90379447Y-77141544D01*
X90409650Y-77241109D01*
X90458697Y-77332869D01*
X90524703Y-77413297D01*
X90605131Y-77479303D01*
X90696891Y-77528350D01*
X90796456Y-77558553D01*
X90900001Y-77568751D01*
X93099999Y-77568751D01*
X93203544Y-77558553D01*
X93303109Y-77528350D01*
X93394869Y-77479303D01*
X93475297Y-77413297D01*
X93541303Y-77332869D01*
X93590350Y-77241109D01*
X93620553Y-77141544D01*
X93630751Y-77037999D01*
X93630751Y-74838001D01*
X93620553Y-74734456D01*
X93590350Y-74634891D01*
X93541303Y-74543131D01*
X93475297Y-74462703D01*
X93394869Y-74396697D01*
X93303109Y-74347650D01*
X93203544Y-74317447D01*
X93099999Y-74307249D01*
X90900001Y-74307249D01*
X90796456Y-74317447D01*
X90696891Y-74347650D01*
X90605131Y-74396697D01*
X90524703Y-74462703D01*
X90458697Y-74543131D01*
X90409650Y-74634891D01*
X90379447Y-74734456D01*
X90369249Y-74838001D01*
X87906264Y-74838001D01*
X87881486Y-74778184D01*
X87807134Y-74666908D01*
X87712502Y-74572276D01*
X87601226Y-74497924D01*
X87477584Y-74446709D01*
X87346325Y-74420600D01*
X87212495Y-74420600D01*
X87081236Y-74446709D01*
X86957594Y-74497924D01*
X86846318Y-74572276D01*
X86804705Y-74613889D01*
X86763092Y-74572276D01*
X86651816Y-74497924D01*
X86528174Y-74446709D01*
X86396915Y-74420600D01*
X86263085Y-74420600D01*
X86131826Y-74446709D01*
X86008184Y-74497924D01*
X85896908Y-74572276D01*
X85802276Y-74666908D01*
X85727924Y-74778184D01*
X85676709Y-74901826D01*
X85656400Y-75003926D01*
X85656400Y-64196074D01*
X85676709Y-64298174D01*
X85727924Y-64421816D01*
X85802276Y-64533092D01*
X85896908Y-64627724D01*
X86008184Y-64702076D01*
X86131826Y-64753291D01*
X86263085Y-64779400D01*
X86396915Y-64779400D01*
X86528174Y-64753291D01*
X86651816Y-64702076D01*
X86763092Y-64627724D01*
X86804705Y-64586111D01*
X86846318Y-64627724D01*
X86957594Y-64702076D01*
X87081236Y-64753291D01*
X87212495Y-64779400D01*
X87346325Y-64779400D01*
X87477584Y-64753291D01*
X87601226Y-64702076D01*
X87712502Y-64627724D01*
X87807134Y-64533092D01*
X87881486Y-64421816D01*
X87932701Y-64298174D01*
X87958810Y-64166915D01*
X87958810Y-64033085D01*
X87932701Y-63901826D01*
X87881486Y-63778184D01*
X87807134Y-63666908D01*
X87740226Y-63600000D01*
X87807134Y-63533092D01*
X87881486Y-63421816D01*
X87932701Y-63298174D01*
X87958810Y-63166915D01*
X87958810Y-63033085D01*
X87932701Y-62901826D01*
X87881486Y-62778184D01*
X87807134Y-62666908D01*
X87740226Y-62600000D01*
X87807134Y-62533092D01*
X87881486Y-62421816D01*
X87932701Y-62298174D01*
X87958810Y-62166915D01*
X87958810Y-62033085D01*
X87932701Y-61901826D01*
X87881486Y-61778184D01*
X87807134Y-61666908D01*
X87740226Y-61600000D01*
X87807134Y-61533092D01*
X87881486Y-61421816D01*
X87932701Y-61298174D01*
X87958810Y-61166915D01*
X87958810Y-61033085D01*
X87932701Y-60901826D01*
X87906264Y-60838001D01*
X90369249Y-60838001D01*
X90369249Y-63037999D01*
X90379447Y-63141544D01*
X90409650Y-63241109D01*
X90458697Y-63332869D01*
X90524703Y-63413297D01*
X90605131Y-63479303D01*
X90696891Y-63528350D01*
X90796456Y-63558553D01*
X90900001Y-63568751D01*
X93099999Y-63568751D01*
X93203544Y-63558553D01*
X93303109Y-63528350D01*
X93394869Y-63479303D01*
X93475297Y-63413297D01*
X93541303Y-63332869D01*
X93590350Y-63241109D01*
X93620553Y-63141544D01*
X93630751Y-63037999D01*
X93630751Y-60838001D01*
X93620553Y-60734456D01*
X93590350Y-60634891D01*
X93541303Y-60543131D01*
X93475297Y-60462703D01*
X93394869Y-60396697D01*
X93303109Y-60347650D01*
X93203544Y-60317447D01*
X93099999Y-60307249D01*
X90900001Y-60307249D01*
X90796456Y-60317447D01*
X90696891Y-60347650D01*
X90605131Y-60396697D01*
X90524703Y-60462703D01*
X90458697Y-60543131D01*
X90409650Y-60634891D01*
X90379447Y-60734456D01*
X90369249Y-60838001D01*
X87906264Y-60838001D01*
X87881486Y-60778184D01*
X87807134Y-60666908D01*
X87712502Y-60572276D01*
X87601226Y-60497924D01*
X87477584Y-60446709D01*
X87346325Y-60420600D01*
X87212495Y-60420600D01*
X87081236Y-60446709D01*
X86957594Y-60497924D01*
X86846318Y-60572276D01*
X86804705Y-60613889D01*
X86763092Y-60572276D01*
X86651816Y-60497924D01*
X86528174Y-60446709D01*
X86396915Y-60420600D01*
X86263085Y-60420600D01*
X86131826Y-60446709D01*
X86008184Y-60497924D01*
X85896908Y-60572276D01*
X85802276Y-60666908D01*
X85727924Y-60778184D01*
X85676709Y-60901826D01*
X85656400Y-61003926D01*
X85656400Y-54618336D01*
X86820034Y-53454703D01*
X86816395Y-53463488D01*
X86782600Y-53633387D01*
X86782600Y-53806613D01*
X86816395Y-53976512D01*
X86882686Y-54136552D01*
X86978925Y-54280585D01*
X87101415Y-54403075D01*
X87245448Y-54499314D01*
X87405488Y-54565605D01*
X87575387Y-54599400D01*
X87748613Y-54599400D01*
X87918512Y-54565605D01*
X88078552Y-54499314D01*
X88222585Y-54403075D01*
X88345075Y-54280585D01*
X88441314Y-54136552D01*
X88507605Y-53976512D01*
X88541400Y-53806613D01*
X88541400Y-53633387D01*
X88507605Y-53463488D01*
X88441314Y-53303448D01*
X88345075Y-53159415D01*
X88328060Y-53142400D01*
X88626047Y-53142400D01*
X88646000Y-53144365D01*
X88665953Y-53142400D01*
X88665960Y-53142400D01*
X88725668Y-53136519D01*
X88802275Y-53113281D01*
X88872876Y-53075544D01*
X88934758Y-53024758D01*
X88947482Y-53009254D01*
X89395336Y-52561400D01*
X89405488Y-52565605D01*
X89575387Y-52599400D01*
X89748613Y-52599400D01*
X89918512Y-52565605D01*
X90078552Y-52499314D01*
X90222585Y-52403075D01*
X90345075Y-52280585D01*
X90441314Y-52136552D01*
X90507605Y-51976512D01*
X90541400Y-51806613D01*
X90541400Y-51633387D01*
X90507605Y-51463488D01*
X90441314Y-51303448D01*
X90345075Y-51159415D01*
X90222585Y-51036925D01*
X90078552Y-50940686D01*
X89918512Y-50874395D01*
X89748613Y-50840600D01*
X89575387Y-50840600D01*
X89405488Y-50874395D01*
X89245448Y-50940686D01*
X89101415Y-51036925D01*
X88978925Y-51159415D01*
X88882686Y-51303448D01*
X88816395Y-51463488D01*
X88782600Y-51633387D01*
X88782600Y-51806613D01*
X88816395Y-51976512D01*
X88820600Y-51986664D01*
X88477664Y-52329600D01*
X88296060Y-52329600D01*
X88345075Y-52280585D01*
X88441314Y-52136552D01*
X88507605Y-51976512D01*
X88541400Y-51806613D01*
X88541400Y-51633387D01*
X88507605Y-51463488D01*
X88441314Y-51303448D01*
X88345075Y-51159415D01*
X88265060Y-51079400D01*
X88689047Y-51079400D01*
X88709000Y-51081365D01*
X88728953Y-51079400D01*
X88728960Y-51079400D01*
X88788668Y-51073519D01*
X88865275Y-51050281D01*
X88935876Y-51012544D01*
X88997758Y-50961758D01*
X89010482Y-50946254D01*
X89363483Y-50593254D01*
X89363487Y-50593249D01*
X89395336Y-50561400D01*
X89405488Y-50565605D01*
X89575387Y-50599400D01*
X89748613Y-50599400D01*
X89918512Y-50565605D01*
X90078552Y-50499314D01*
X90222585Y-50403075D01*
X90345075Y-50280585D01*
X90441314Y-50136552D01*
X90507605Y-49976512D01*
X90541400Y-49806613D01*
X90541400Y-49633387D01*
X90507605Y-49463488D01*
X90441314Y-49303448D01*
X90345075Y-49159415D01*
X90222585Y-49036925D01*
X90078552Y-48940686D01*
X89918512Y-48874395D01*
X89748613Y-48840600D01*
X89575387Y-48840600D01*
X89405488Y-48874395D01*
X89245448Y-48940686D01*
X89101415Y-49036925D01*
X88978925Y-49159415D01*
X88882686Y-49303448D01*
X88816395Y-49463488D01*
X88782600Y-49633387D01*
X88782600Y-49806613D01*
X88816395Y-49976512D01*
X88820600Y-49986664D01*
X88788751Y-50018513D01*
X88788746Y-50018517D01*
X88540664Y-50266600D01*
X87014952Y-50266600D01*
X86994999Y-50264635D01*
X86975046Y-50266600D01*
X86975040Y-50266600D01*
X86923335Y-50271693D01*
X86915331Y-50272481D01*
X86838725Y-50295719D01*
X86768124Y-50333456D01*
X86742746Y-50354283D01*
X86721745Y-50371518D01*
X86721740Y-50371523D01*
X86706242Y-50384242D01*
X86693523Y-50399740D01*
X81776741Y-55316523D01*
X81761243Y-55329242D01*
X81748524Y-55344740D01*
X81748518Y-55344746D01*
X81730630Y-55366543D01*
X81710457Y-55391124D01*
X81698227Y-55414005D01*
X81672719Y-55461726D01*
X81649481Y-55538332D01*
X81641635Y-55618000D01*
X80438552Y-55618000D01*
X80485130Y-55598707D01*
X80666014Y-55477844D01*
X80819844Y-55324014D01*
X80940707Y-55143130D01*
X81023959Y-54942142D01*
X81066400Y-54728774D01*
X81066400Y-54511226D01*
X81023959Y-54297858D01*
X80940707Y-54096870D01*
X80819844Y-53915986D01*
X80666014Y-53762156D01*
X80485130Y-53641293D01*
X80284142Y-53558041D01*
X80070774Y-53515600D01*
X79853226Y-53515600D01*
X79639858Y-53558041D01*
X79438870Y-53641293D01*
X79257986Y-53762156D01*
X79104156Y-53915986D01*
X78983293Y-54096870D01*
X78900041Y-54297858D01*
X78857600Y-54511226D01*
X78856400Y-54511226D01*
X78856400Y-53223660D01*
X84456286Y-47623774D01*
X86685000Y-47623774D01*
X86685000Y-47816226D01*
X86722546Y-48004980D01*
X86796194Y-48182783D01*
X86903115Y-48342801D01*
X87039199Y-48478885D01*
X87199217Y-48585806D01*
X87377020Y-48659454D01*
X87565774Y-48697000D01*
X87758226Y-48697000D01*
X87946980Y-48659454D01*
X88124783Y-48585806D01*
X88284801Y-48478885D01*
X88420885Y-48342801D01*
X88527806Y-48182783D01*
X88601454Y-48004980D01*
X88639000Y-47816226D01*
X88639000Y-47623774D01*
X88601454Y-47435020D01*
X88527806Y-47257217D01*
X88420885Y-47097199D01*
X88284801Y-46961115D01*
X88124783Y-46854194D01*
X87946980Y-46780546D01*
X87758226Y-46743000D01*
X87565774Y-46743000D01*
X87377020Y-46780546D01*
X87199217Y-46854194D01*
X87039199Y-46961115D01*
X86903115Y-47097199D01*
X86796194Y-47257217D01*
X86722546Y-47435020D01*
X86685000Y-47623774D01*
X84456286Y-47623774D01*
X86777350Y-45302710D01*
X86722546Y-45435020D01*
X86685000Y-45623774D01*
X86685000Y-45816226D01*
X86722546Y-46004980D01*
X86796194Y-46182783D01*
X86903115Y-46342801D01*
X87039199Y-46478885D01*
X87199217Y-46585806D01*
X87377020Y-46659454D01*
X87565774Y-46697000D01*
X87758226Y-46697000D01*
X87946980Y-46659454D01*
X88124783Y-46585806D01*
X88284801Y-46478885D01*
X88420885Y-46342801D01*
X88527806Y-46182783D01*
X88601454Y-46004980D01*
X88639000Y-45816226D01*
X88639000Y-45623774D01*
X88601454Y-45435020D01*
X88527806Y-45257217D01*
X88420885Y-45097199D01*
X88284801Y-44961115D01*
X88124783Y-44854194D01*
X87992471Y-44799389D01*
X90325653Y-44799389D01*
X90852812Y-45326548D01*
X90843119Y-45321367D01*
X90762177Y-45296814D01*
X90699087Y-45290600D01*
X90699080Y-45290600D01*
X90678000Y-45288524D01*
X90656920Y-45290600D01*
X90534931Y-45290600D01*
X90532553Y-45266455D01*
X90502350Y-45166890D01*
X90453303Y-45075130D01*
X90387298Y-44994702D01*
X90306870Y-44928697D01*
X90215110Y-44879650D01*
X90115545Y-44849447D01*
X90012001Y-44839249D01*
X89311999Y-44839249D01*
X89208455Y-44849447D01*
X89108890Y-44879650D01*
X89017130Y-44928697D01*
X88936702Y-44994702D01*
X88870697Y-45075130D01*
X88821650Y-45166890D01*
X88791447Y-45266455D01*
X88781249Y-45369999D01*
X88781249Y-46070001D01*
X88791447Y-46173545D01*
X88821650Y-46273110D01*
X88870697Y-46364870D01*
X88936702Y-46445298D01*
X89017130Y-46511303D01*
X89108890Y-46560350D01*
X89208455Y-46590553D01*
X89311999Y-46600751D01*
X90012001Y-46600751D01*
X90115545Y-46590553D01*
X90215110Y-46560350D01*
X90306870Y-46511303D01*
X90387298Y-46445298D01*
X90453303Y-46364870D01*
X90502350Y-46273110D01*
X90530628Y-46179890D01*
X91772600Y-47421864D01*
X91772601Y-49262664D01*
X91747493Y-49232070D01*
X91741482Y-49224745D01*
X91741477Y-49224740D01*
X91728758Y-49209242D01*
X91713261Y-49196524D01*
X90563484Y-48046748D01*
X90563481Y-48046744D01*
X90503400Y-47986663D01*
X90507605Y-47976512D01*
X90541400Y-47806613D01*
X90541400Y-47633387D01*
X90507605Y-47463488D01*
X90441314Y-47303448D01*
X90345075Y-47159415D01*
X90222585Y-47036925D01*
X90078552Y-46940686D01*
X89918512Y-46874395D01*
X89748613Y-46840600D01*
X89575387Y-46840600D01*
X89405488Y-46874395D01*
X89245448Y-46940686D01*
X89101415Y-47036925D01*
X88978925Y-47159415D01*
X88882686Y-47303448D01*
X88816395Y-47463488D01*
X88782600Y-47633387D01*
X88782600Y-47806613D01*
X88816395Y-47976512D01*
X88882686Y-48136552D01*
X88978925Y-48280585D01*
X89101415Y-48403075D01*
X89245448Y-48499314D01*
X89405488Y-48565605D01*
X89575387Y-48599400D01*
X89748613Y-48599400D01*
X89918512Y-48565605D01*
X89928663Y-48561400D01*
X89988744Y-48621481D01*
X89988748Y-48621484D01*
X91033600Y-49666337D01*
X91033601Y-51117767D01*
X91033600Y-51117777D01*
X91033600Y-51149005D01*
X90989951Y-51192654D01*
X90926543Y-51287551D01*
X90882866Y-51392995D01*
X90860600Y-51504934D01*
X90860600Y-51619066D01*
X90882866Y-51731005D01*
X90926543Y-51836449D01*
X90989951Y-51931346D01*
X91070654Y-52012049D01*
X91165551Y-52075457D01*
X91270995Y-52119134D01*
X91382934Y-52141400D01*
X91497066Y-52141400D01*
X91529861Y-52134877D01*
X91412138Y-52252600D01*
X91382934Y-52252600D01*
X91270995Y-52274866D01*
X91165551Y-52318543D01*
X91070654Y-52381951D01*
X90989951Y-52462654D01*
X90926543Y-52557551D01*
X90882866Y-52662995D01*
X90860600Y-52774934D01*
X90860600Y-52889066D01*
X90882866Y-53001005D01*
X90926543Y-53106449D01*
X90989951Y-53201346D01*
X91070654Y-53282049D01*
X91165551Y-53345457D01*
X91270995Y-53389134D01*
X91382934Y-53411400D01*
X91497066Y-53411400D01*
X91609005Y-53389134D01*
X91714449Y-53345457D01*
X91809346Y-53282049D01*
X91890049Y-53201346D01*
X91953457Y-53106449D01*
X91997134Y-53001005D01*
X92019400Y-52889066D01*
X92019400Y-52859862D01*
X93400799Y-51478464D01*
X93450913Y-51483400D01*
X93450919Y-51483400D01*
X93471999Y-51485476D01*
X93493079Y-51483400D01*
X95368005Y-51483400D01*
X95388654Y-51504049D01*
X95483551Y-51567457D01*
X95582600Y-51608485D01*
X95582601Y-55490004D01*
X95561951Y-55510654D01*
X95498543Y-55605551D01*
X95454866Y-55710995D01*
X95432600Y-55822934D01*
X95432600Y-55937066D01*
X95454866Y-56049005D01*
X95498543Y-56154449D01*
X95561951Y-56249346D01*
X95642654Y-56330049D01*
X95737551Y-56393457D01*
X95842995Y-56437134D01*
X95954934Y-56459400D01*
X96069066Y-56459400D01*
X96181005Y-56437134D01*
X96286449Y-56393457D01*
X96381346Y-56330049D01*
X96462049Y-56249346D01*
X96525457Y-56154449D01*
X96569134Y-56049005D01*
X96591400Y-55937066D01*
X96591400Y-55822934D01*
X96569134Y-55710995D01*
X96525457Y-55605551D01*
X96462049Y-55510654D01*
X96441400Y-55490005D01*
X96441400Y-51329079D01*
X96443476Y-51307999D01*
X96441400Y-51286919D01*
X96441400Y-51286913D01*
X96435186Y-51223823D01*
X96410633Y-51142881D01*
X96370760Y-51068284D01*
X96337400Y-51027635D01*
X96337400Y-50996934D01*
X96315134Y-50884995D01*
X96271457Y-50779551D01*
X96208049Y-50684654D01*
X96127346Y-50603951D01*
X96032449Y-50540543D01*
X95927005Y-50496866D01*
X95815066Y-50474600D01*
X95700934Y-50474600D01*
X95588995Y-50496866D01*
X95483551Y-50540543D01*
X95388654Y-50603951D01*
X95368005Y-50624600D01*
X93649864Y-50624600D01*
X92631400Y-49606138D01*
X92631400Y-47265079D01*
X92633476Y-47243999D01*
X92631400Y-47222919D01*
X92631400Y-47222913D01*
X92625186Y-47159823D01*
X92625063Y-47159415D01*
X92617738Y-47135269D01*
X92600633Y-47078881D01*
X92560760Y-47004284D01*
X92525332Y-46961115D01*
X92520542Y-46955278D01*
X92520538Y-46955274D01*
X92507100Y-46938900D01*
X92490727Y-46925463D01*
X92118663Y-46553400D01*
X92132066Y-46553400D01*
X92244005Y-46531134D01*
X92349449Y-46487457D01*
X92444346Y-46424049D01*
X92525049Y-46343346D01*
X92588457Y-46248449D01*
X92632134Y-46143005D01*
X92654400Y-46031066D01*
X92654400Y-45916934D01*
X92632134Y-45804995D01*
X92588457Y-45699551D01*
X92525049Y-45604654D01*
X92444346Y-45523951D01*
X92349449Y-45460543D01*
X92244005Y-45416866D01*
X92132066Y-45394600D01*
X92070336Y-45394600D01*
X90795471Y-44119735D01*
X90782747Y-44104231D01*
X90720865Y-44053445D01*
X90650264Y-44015708D01*
X90573657Y-43992470D01*
X90513949Y-43986589D01*
X90513942Y-43986589D01*
X90493989Y-43984624D01*
X90474036Y-43986589D01*
X87132287Y-43986589D01*
X87112334Y-43984624D01*
X87092381Y-43986589D01*
X87092375Y-43986589D01*
X87040670Y-43991682D01*
X87032666Y-43992470D01*
X87009428Y-43999519D01*
X86956060Y-44015708D01*
X86885459Y-44053445D01*
X86823577Y-44104231D01*
X86810853Y-44119735D01*
X78176741Y-52753847D01*
X78161243Y-52766566D01*
X78148524Y-52782064D01*
X78148518Y-52782070D01*
X78130000Y-52804635D01*
X78110457Y-52828448D01*
X78106571Y-52835719D01*
X78072719Y-52899050D01*
X78049481Y-52975656D01*
X78041635Y-53055324D01*
X77660400Y-53055324D01*
X77660400Y-44711226D01*
X78857600Y-44711226D01*
X78857600Y-44928774D01*
X78900041Y-45142142D01*
X78983293Y-45343130D01*
X79104156Y-45524014D01*
X79257986Y-45677844D01*
X79438870Y-45798707D01*
X79639858Y-45881959D01*
X79853226Y-45924400D01*
X80070774Y-45924400D01*
X80284142Y-45881959D01*
X80485130Y-45798707D01*
X80666014Y-45677844D01*
X80819844Y-45524014D01*
X80940707Y-45343130D01*
X81023959Y-45142142D01*
X81066400Y-44928774D01*
X81066400Y-44711226D01*
X81023959Y-44497858D01*
X80940707Y-44296870D01*
X80819844Y-44115986D01*
X80666014Y-43962156D01*
X80485130Y-43841293D01*
X80284142Y-43758041D01*
X80070774Y-43715600D01*
X79853226Y-43715600D01*
X79639858Y-43758041D01*
X79438870Y-43841293D01*
X79257986Y-43962156D01*
X79104156Y-44115986D01*
X78983293Y-44296870D01*
X78900041Y-44497858D01*
X78857600Y-44711226D01*
X77660400Y-44711226D01*
X77660400Y-41979934D01*
X83748600Y-41979934D01*
X83748600Y-42094066D01*
X83770866Y-42206005D01*
X83814543Y-42311449D01*
X83877951Y-42406346D01*
X83958654Y-42487049D01*
X84053551Y-42550457D01*
X84158995Y-42594134D01*
X84270934Y-42616400D01*
X84385066Y-42616400D01*
X84497005Y-42594134D01*
X84602449Y-42550457D01*
X84697346Y-42487049D01*
X84740995Y-42443400D01*
X93468664Y-42443400D01*
X97383600Y-46358337D01*
X97383600Y-49188677D01*
X97367544Y-49158638D01*
X97342436Y-49128044D01*
X97329482Y-49112259D01*
X97329477Y-49112254D01*
X97316758Y-49096756D01*
X97301261Y-49084038D01*
X92735400Y-44518178D01*
X92735400Y-43979561D01*
X92762092Y-43961726D01*
X92856724Y-43867094D01*
X92931076Y-43755818D01*
X92982291Y-43632176D01*
X93008400Y-43500917D01*
X93008400Y-43367087D01*
X92982291Y-43235828D01*
X92931076Y-43112186D01*
X92856724Y-43000910D01*
X92762092Y-42906278D01*
X92650816Y-42831926D01*
X92527174Y-42780711D01*
X92395915Y-42754602D01*
X92262085Y-42754602D01*
X92130826Y-42780711D01*
X92007184Y-42831926D01*
X91895908Y-42906278D01*
X91801276Y-43000910D01*
X91726924Y-43112186D01*
X91675709Y-43235828D01*
X91649600Y-43367087D01*
X91649600Y-43500917D01*
X91675709Y-43632176D01*
X91726924Y-43755818D01*
X91801276Y-43867094D01*
X91895908Y-43961726D01*
X91922600Y-43979561D01*
X91922601Y-44666552D01*
X91920635Y-44686514D01*
X91928481Y-44766182D01*
X91951719Y-44842788D01*
X91957816Y-44854194D01*
X91989457Y-44913390D01*
X92002083Y-44928774D01*
X92027518Y-44959768D01*
X92027524Y-44959774D01*
X92040243Y-44975272D01*
X92055741Y-44987991D01*
X96621600Y-49553851D01*
X96621601Y-54336037D01*
X96619635Y-54356000D01*
X96627481Y-54435668D01*
X96650719Y-54512274D01*
X96650720Y-54512275D01*
X96688457Y-54582876D01*
X96702018Y-54599400D01*
X96726518Y-54629254D01*
X96726524Y-54629260D01*
X96739243Y-54644758D01*
X96754741Y-54657477D01*
X97510600Y-55413337D01*
X97510601Y-68947035D01*
X97508635Y-68966998D01*
X97516481Y-69046666D01*
X97539719Y-69123272D01*
X97539720Y-69123273D01*
X97577457Y-69193874D01*
X97594549Y-69214700D01*
X97615518Y-69240252D01*
X97615524Y-69240258D01*
X97628243Y-69255756D01*
X97643741Y-69268475D01*
X100776865Y-72401599D01*
X100770602Y-72433085D01*
X100770602Y-72566915D01*
X100796711Y-72698174D01*
X100847926Y-72821816D01*
X100922278Y-72933092D01*
X101016910Y-73027724D01*
X101128186Y-73102076D01*
X101251828Y-73153291D01*
X101383087Y-73179400D01*
X101516917Y-73179400D01*
X101648176Y-73153291D01*
X101771818Y-73102076D01*
X101883094Y-73027724D01*
X101977726Y-72933092D01*
X102052078Y-72821816D01*
X102103293Y-72698174D01*
X102129402Y-72566915D01*
X102129402Y-72433085D01*
X102103293Y-72301826D01*
X102052078Y-72178184D01*
X101977726Y-72066908D01*
X101883094Y-71972276D01*
X101771818Y-71897924D01*
X101648176Y-71846709D01*
X101516917Y-71820600D01*
X101383087Y-71820600D01*
X101351601Y-71826863D01*
X98323400Y-68798662D01*
X98323400Y-55264953D01*
X98325365Y-55245000D01*
X98323400Y-55225047D01*
X98323400Y-55225040D01*
X98317519Y-55165332D01*
X98312042Y-55147274D01*
X98294281Y-55088725D01*
X98256544Y-55018124D01*
X98248107Y-55007844D01*
X98399600Y-55159337D01*
X98399601Y-61829037D01*
X98397635Y-61849000D01*
X98405481Y-61928668D01*
X98428719Y-62005274D01*
X98443585Y-62033085D01*
X98466457Y-62075876D01*
X98483549Y-62096702D01*
X98504518Y-62122254D01*
X98504524Y-62122260D01*
X98517243Y-62137758D01*
X98532741Y-62150477D01*
X112220518Y-75838254D01*
X112233242Y-75853758D01*
X112295124Y-75904544D01*
X112365725Y-75942281D01*
X112424502Y-75960110D01*
X112442331Y-75965519D01*
X112450335Y-75966307D01*
X112502040Y-75971400D01*
X112502046Y-75971400D01*
X112521999Y-75973365D01*
X112541952Y-75971400D01*
X114903005Y-75971400D01*
X114946654Y-76015049D01*
X115041551Y-76078457D01*
X115146995Y-76122134D01*
X115258934Y-76144400D01*
X115373066Y-76144400D01*
X115485005Y-76122134D01*
X115590449Y-76078457D01*
X115685346Y-76015049D01*
X115766049Y-75934346D01*
X115829457Y-75839449D01*
X115873134Y-75734005D01*
X115895400Y-75622066D01*
X115895400Y-75507934D01*
X115873134Y-75395995D01*
X115829457Y-75290551D01*
X115766049Y-75195654D01*
X115685346Y-75114951D01*
X115590449Y-75051543D01*
X115485005Y-75007866D01*
X115373066Y-74985600D01*
X115258934Y-74985600D01*
X115146995Y-75007866D01*
X115041551Y-75051543D01*
X114946654Y-75114951D01*
X114903005Y-75158600D01*
X112690336Y-75158600D01*
X112363670Y-74831934D01*
X119540600Y-74831934D01*
X119540600Y-74946066D01*
X119562866Y-75058005D01*
X119606543Y-75163449D01*
X119669951Y-75258346D01*
X119750654Y-75339049D01*
X119845551Y-75402457D01*
X119950995Y-75446134D01*
X120062934Y-75468400D01*
X120177066Y-75468400D01*
X120289005Y-75446134D01*
X120394449Y-75402457D01*
X120489346Y-75339049D01*
X120570049Y-75258346D01*
X120633457Y-75163449D01*
X120677134Y-75058005D01*
X120699400Y-74946066D01*
X120699400Y-74831934D01*
X120677134Y-74719995D01*
X120633457Y-74614551D01*
X120570049Y-74519654D01*
X120489346Y-74438951D01*
X120394449Y-74375543D01*
X120289005Y-74331866D01*
X120177066Y-74309600D01*
X120062934Y-74309600D01*
X119950995Y-74331866D01*
X119845551Y-74375543D01*
X119750654Y-74438951D01*
X119669951Y-74519654D01*
X119606543Y-74614551D01*
X119562866Y-74719995D01*
X119540600Y-74831934D01*
X112363670Y-74831934D01*
X111345359Y-73813623D01*
X114023000Y-73813623D01*
X114023000Y-73986377D01*
X114056703Y-74155811D01*
X114122813Y-74315415D01*
X114218790Y-74459055D01*
X114340945Y-74581210D01*
X114484585Y-74677187D01*
X114644189Y-74743297D01*
X114813623Y-74777000D01*
X114986377Y-74777000D01*
X115155811Y-74743297D01*
X115315415Y-74677187D01*
X115459055Y-74581210D01*
X115581210Y-74459055D01*
X115677187Y-74315415D01*
X115743297Y-74155811D01*
X115771687Y-74013085D01*
X135500010Y-74013085D01*
X135500010Y-74146915D01*
X135526119Y-74278174D01*
X135577334Y-74401816D01*
X135651686Y-74513092D01*
X135718594Y-74580000D01*
X135651686Y-74646908D01*
X135577334Y-74758184D01*
X135526119Y-74881826D01*
X135500010Y-75013085D01*
X135500010Y-75146915D01*
X135526119Y-75278174D01*
X135577334Y-75401816D01*
X135651686Y-75513092D01*
X135718594Y-75580000D01*
X135651686Y-75646908D01*
X135577334Y-75758184D01*
X135526119Y-75881826D01*
X135500010Y-76013085D01*
X135500010Y-76146915D01*
X135526119Y-76278174D01*
X135577334Y-76401816D01*
X135651686Y-76513092D01*
X135718594Y-76580000D01*
X135651686Y-76646908D01*
X135577334Y-76758184D01*
X135526119Y-76881826D01*
X135500010Y-77013085D01*
X135500010Y-77146915D01*
X135526119Y-77278174D01*
X135577334Y-77401816D01*
X135651686Y-77513092D01*
X135746318Y-77607724D01*
X135857594Y-77682076D01*
X135981236Y-77733291D01*
X136112495Y-77759400D01*
X136246325Y-77759400D01*
X136377584Y-77733291D01*
X136501226Y-77682076D01*
X136612502Y-77607724D01*
X136679410Y-77540816D01*
X136746318Y-77607724D01*
X136857594Y-77682076D01*
X136981236Y-77733291D01*
X137112495Y-77759400D01*
X137246325Y-77759400D01*
X137377584Y-77733291D01*
X137501226Y-77682076D01*
X137612502Y-77607724D01*
X137707134Y-77513092D01*
X137781486Y-77401816D01*
X137832701Y-77278174D01*
X137858810Y-77146915D01*
X137858810Y-77013085D01*
X137832701Y-76881826D01*
X137781486Y-76758184D01*
X137707134Y-76646908D01*
X137640226Y-76580000D01*
X137707134Y-76513092D01*
X137781486Y-76401816D01*
X137832701Y-76278174D01*
X137858810Y-76146915D01*
X137858810Y-76013085D01*
X137832701Y-75881826D01*
X137781486Y-75758184D01*
X137707134Y-75646908D01*
X137640226Y-75580000D01*
X137707134Y-75513092D01*
X137781486Y-75401816D01*
X137832701Y-75278174D01*
X137858810Y-75146915D01*
X137858810Y-75013085D01*
X137832701Y-74881826D01*
X137781486Y-74758184D01*
X137707134Y-74646908D01*
X137640226Y-74580000D01*
X137707134Y-74513092D01*
X137781486Y-74401816D01*
X137832701Y-74278174D01*
X137858810Y-74146915D01*
X137858810Y-74013085D01*
X137832701Y-73881826D01*
X137781486Y-73758184D01*
X137707134Y-73646908D01*
X137612502Y-73552276D01*
X137501226Y-73477924D01*
X137377584Y-73426709D01*
X137246325Y-73400600D01*
X137112495Y-73400600D01*
X136981236Y-73426709D01*
X136857594Y-73477924D01*
X136746318Y-73552276D01*
X136679410Y-73619184D01*
X136612502Y-73552276D01*
X136501226Y-73477924D01*
X136377584Y-73426709D01*
X136246325Y-73400600D01*
X136112495Y-73400600D01*
X135981236Y-73426709D01*
X135857594Y-73477924D01*
X135746318Y-73552276D01*
X135651686Y-73646908D01*
X135577334Y-73758184D01*
X135526119Y-73881826D01*
X135500010Y-74013085D01*
X115771687Y-74013085D01*
X115777000Y-73986377D01*
X115777000Y-73813623D01*
X115743297Y-73644189D01*
X115677187Y-73484585D01*
X115581210Y-73340945D01*
X115459055Y-73218790D01*
X115315415Y-73122813D01*
X115155811Y-73056703D01*
X114986377Y-73023000D01*
X114813623Y-73023000D01*
X114644189Y-73056703D01*
X114484585Y-73122813D01*
X114340945Y-73218790D01*
X114218790Y-73340945D01*
X114122813Y-73484585D01*
X114056703Y-73644189D01*
X114023000Y-73813623D01*
X111345359Y-73813623D01*
X99212400Y-61680664D01*
X99212400Y-55010953D01*
X99214365Y-54991000D01*
X99212400Y-54971047D01*
X99212400Y-54971040D01*
X99206519Y-54911332D01*
X99195697Y-54875654D01*
X99183281Y-54834725D01*
X99162021Y-54794951D01*
X99145544Y-54764124D01*
X99124717Y-54738746D01*
X99107482Y-54717745D01*
X99107477Y-54717740D01*
X99094758Y-54702242D01*
X99079261Y-54689524D01*
X98196400Y-53806664D01*
X98196400Y-53559136D01*
X99923601Y-55286338D01*
X99923600Y-61956047D01*
X99921635Y-61976000D01*
X99923600Y-61995953D01*
X99923600Y-61995959D01*
X99924518Y-62005275D01*
X99929481Y-62055668D01*
X99952719Y-62132274D01*
X99990456Y-62202875D01*
X100041242Y-62264758D01*
X100056746Y-62277482D01*
X109680518Y-71901254D01*
X109693242Y-71916758D01*
X109755124Y-71967544D01*
X109825725Y-72005281D01*
X109879093Y-72021470D01*
X109902331Y-72028519D01*
X109910335Y-72029307D01*
X109962040Y-72034400D01*
X109962046Y-72034400D01*
X109981999Y-72036365D01*
X110001952Y-72034400D01*
X110458005Y-72034400D01*
X110501654Y-72078049D01*
X110596551Y-72141457D01*
X110701995Y-72185134D01*
X110813934Y-72207400D01*
X110928066Y-72207400D01*
X111040005Y-72185134D01*
X111145449Y-72141457D01*
X111240346Y-72078049D01*
X111321049Y-71997346D01*
X111384457Y-71902449D01*
X111428134Y-71797005D01*
X111450400Y-71685066D01*
X111450400Y-71678472D01*
X112126000Y-71678472D01*
X112126000Y-71831528D01*
X112155859Y-71981643D01*
X112214431Y-72123048D01*
X112299464Y-72250309D01*
X112407691Y-72358536D01*
X112534952Y-72443569D01*
X112676357Y-72502141D01*
X112826472Y-72532000D01*
X112979528Y-72532000D01*
X113129643Y-72502141D01*
X113271048Y-72443569D01*
X113398309Y-72358536D01*
X113506536Y-72250309D01*
X113591569Y-72123048D01*
X113650141Y-71981643D01*
X113680000Y-71831528D01*
X113680000Y-71678472D01*
X113650141Y-71528357D01*
X113591569Y-71386952D01*
X113506536Y-71259691D01*
X113398309Y-71151464D01*
X113271048Y-71066431D01*
X113129643Y-71007859D01*
X112979528Y-70978000D01*
X112826472Y-70978000D01*
X112676357Y-71007859D01*
X112534952Y-71066431D01*
X112407691Y-71151464D01*
X112299464Y-71259691D01*
X112214431Y-71386952D01*
X112155859Y-71528357D01*
X112126000Y-71678472D01*
X111450400Y-71678472D01*
X111450400Y-71570934D01*
X111428134Y-71458995D01*
X111384457Y-71353551D01*
X111321049Y-71258654D01*
X111240346Y-71177951D01*
X111145449Y-71114543D01*
X111040005Y-71070866D01*
X110928066Y-71048600D01*
X110813934Y-71048600D01*
X110701995Y-71070866D01*
X110596551Y-71114543D01*
X110501654Y-71177951D01*
X110458005Y-71221600D01*
X110150336Y-71221600D01*
X109247736Y-70319000D01*
X109396528Y-70319000D01*
X109546643Y-70289141D01*
X109688048Y-70230569D01*
X109815309Y-70145536D01*
X109923536Y-70037309D01*
X110008569Y-69910048D01*
X110067141Y-69768643D01*
X110097000Y-69618528D01*
X110097000Y-69465472D01*
X110067141Y-69315357D01*
X110008569Y-69173952D01*
X109923536Y-69046691D01*
X109815309Y-68938464D01*
X109688048Y-68853431D01*
X109546643Y-68794859D01*
X109396528Y-68765000D01*
X109243472Y-68765000D01*
X109093357Y-68794859D01*
X108951952Y-68853431D01*
X108824691Y-68938464D01*
X108716464Y-69046691D01*
X108631431Y-69173952D01*
X108572859Y-69315357D01*
X108543000Y-69465472D01*
X108543000Y-69614264D01*
X106670208Y-67741472D01*
X108570000Y-67741472D01*
X108570000Y-67894528D01*
X108599859Y-68044643D01*
X108658431Y-68186048D01*
X108743464Y-68313309D01*
X108851691Y-68421536D01*
X108978952Y-68506569D01*
X109120357Y-68565141D01*
X109270472Y-68595000D01*
X109423528Y-68595000D01*
X109573643Y-68565141D01*
X109715048Y-68506569D01*
X109842309Y-68421536D01*
X109950536Y-68313309D01*
X110035569Y-68186048D01*
X110094141Y-68044643D01*
X110124000Y-67894528D01*
X110124000Y-67741472D01*
X110094141Y-67591357D01*
X110035569Y-67449952D01*
X109950536Y-67322691D01*
X109842309Y-67214464D01*
X109715048Y-67129431D01*
X109573643Y-67070859D01*
X109423528Y-67041000D01*
X109270472Y-67041000D01*
X109120357Y-67070859D01*
X108978952Y-67129431D01*
X108851691Y-67214464D01*
X108743464Y-67322691D01*
X108658431Y-67449952D01*
X108599859Y-67591357D01*
X108570000Y-67741472D01*
X106670208Y-67741472D01*
X103726737Y-64798001D01*
X130369249Y-64798001D01*
X130369249Y-66997999D01*
X130379447Y-67101544D01*
X130409650Y-67201109D01*
X130458697Y-67292869D01*
X130524703Y-67373297D01*
X130605131Y-67439303D01*
X130696891Y-67488350D01*
X130796456Y-67518553D01*
X130900001Y-67528751D01*
X133099999Y-67528751D01*
X133203544Y-67518553D01*
X133303109Y-67488350D01*
X133394869Y-67439303D01*
X133475297Y-67373297D01*
X133541303Y-67292869D01*
X133590350Y-67201109D01*
X133620553Y-67101544D01*
X133630751Y-66997999D01*
X133630751Y-64798001D01*
X133620553Y-64694456D01*
X133590350Y-64594891D01*
X133541303Y-64503131D01*
X133475297Y-64422703D01*
X133394869Y-64356697D01*
X133303109Y-64307650D01*
X133203544Y-64277447D01*
X133099999Y-64267249D01*
X130900001Y-64267249D01*
X130796456Y-64277447D01*
X130696891Y-64307650D01*
X130605131Y-64356697D01*
X130524703Y-64422703D01*
X130458697Y-64503131D01*
X130409650Y-64594891D01*
X130379447Y-64694456D01*
X130369249Y-64798001D01*
X103726737Y-64798001D01*
X100736400Y-61807664D01*
X100736400Y-60013085D01*
X135500010Y-60013085D01*
X135500010Y-60146915D01*
X135526119Y-60278174D01*
X135577334Y-60401816D01*
X135651686Y-60513092D01*
X135718594Y-60580000D01*
X135651686Y-60646908D01*
X135577334Y-60758184D01*
X135526119Y-60881826D01*
X135500010Y-61013085D01*
X135500010Y-61146915D01*
X135526119Y-61278174D01*
X135577334Y-61401816D01*
X135651686Y-61513092D01*
X135718594Y-61580000D01*
X135651686Y-61646908D01*
X135577334Y-61758184D01*
X135526119Y-61881826D01*
X135500010Y-62013085D01*
X135500010Y-62146915D01*
X135526119Y-62278174D01*
X135577334Y-62401816D01*
X135651686Y-62513092D01*
X135718594Y-62580000D01*
X135651686Y-62646908D01*
X135577334Y-62758184D01*
X135526119Y-62881826D01*
X135500010Y-63013085D01*
X135500010Y-63146915D01*
X135526119Y-63278174D01*
X135577334Y-63401816D01*
X135651686Y-63513092D01*
X135746318Y-63607724D01*
X135857594Y-63682076D01*
X135981236Y-63733291D01*
X136112495Y-63759400D01*
X136246325Y-63759400D01*
X136377584Y-63733291D01*
X136501226Y-63682076D01*
X136612502Y-63607724D01*
X136679410Y-63540816D01*
X136746318Y-63607724D01*
X136857594Y-63682076D01*
X136981236Y-63733291D01*
X137112495Y-63759400D01*
X137246325Y-63759400D01*
X137377584Y-63733291D01*
X137501226Y-63682076D01*
X137612502Y-63607724D01*
X137707134Y-63513092D01*
X137781486Y-63401816D01*
X137832701Y-63278174D01*
X137858810Y-63146915D01*
X137858810Y-63013085D01*
X137832701Y-62881826D01*
X137781486Y-62758184D01*
X137707134Y-62646908D01*
X137640226Y-62580000D01*
X137707134Y-62513092D01*
X137781486Y-62401816D01*
X137832701Y-62278174D01*
X137858810Y-62146915D01*
X137858810Y-62013085D01*
X137832701Y-61881826D01*
X137781486Y-61758184D01*
X137707134Y-61646908D01*
X137640226Y-61580000D01*
X137707134Y-61513092D01*
X137781486Y-61401816D01*
X137832701Y-61278174D01*
X137858810Y-61146915D01*
X137858810Y-61013085D01*
X137832701Y-60881826D01*
X137781486Y-60758184D01*
X137707134Y-60646908D01*
X137640226Y-60580000D01*
X137707134Y-60513092D01*
X137781486Y-60401816D01*
X137832701Y-60278174D01*
X137858810Y-60146915D01*
X137858810Y-60013085D01*
X137832701Y-59881826D01*
X137781486Y-59758184D01*
X137707134Y-59646908D01*
X137612502Y-59552276D01*
X137501226Y-59477924D01*
X137377584Y-59426709D01*
X137246325Y-59400600D01*
X137112495Y-59400600D01*
X136981236Y-59426709D01*
X136857594Y-59477924D01*
X136746318Y-59552276D01*
X136679410Y-59619184D01*
X136612502Y-59552276D01*
X136501226Y-59477924D01*
X136377584Y-59426709D01*
X136246325Y-59400600D01*
X136112495Y-59400600D01*
X135981236Y-59426709D01*
X135857594Y-59477924D01*
X135746318Y-59552276D01*
X135651686Y-59646908D01*
X135577334Y-59758184D01*
X135526119Y-59881826D01*
X135500010Y-60013085D01*
X100736400Y-60013085D01*
X100736400Y-57835472D01*
X108543000Y-57835472D01*
X108543000Y-57988528D01*
X108572859Y-58138643D01*
X108631431Y-58280048D01*
X108716464Y-58407309D01*
X108824691Y-58515536D01*
X108951952Y-58600569D01*
X109093357Y-58659141D01*
X109243472Y-58689000D01*
X109396528Y-58689000D01*
X109546643Y-58659141D01*
X109688048Y-58600569D01*
X109815309Y-58515536D01*
X109889000Y-58441845D01*
X109962691Y-58515536D01*
X110089952Y-58600569D01*
X110231357Y-58659141D01*
X110381472Y-58689000D01*
X110534528Y-58689000D01*
X110684643Y-58659141D01*
X110826048Y-58600569D01*
X110953309Y-58515536D01*
X111061536Y-58407309D01*
X111146569Y-58280048D01*
X111205141Y-58138643D01*
X111235000Y-57988528D01*
X111235000Y-57835472D01*
X111205141Y-57685357D01*
X111146569Y-57543952D01*
X111061536Y-57416691D01*
X110953309Y-57308464D01*
X110826048Y-57223431D01*
X110684643Y-57164859D01*
X110534528Y-57135000D01*
X110381472Y-57135000D01*
X110231357Y-57164859D01*
X110089952Y-57223431D01*
X109962691Y-57308464D01*
X109889000Y-57382155D01*
X109815309Y-57308464D01*
X109688048Y-57223431D01*
X109546643Y-57164859D01*
X109396528Y-57135000D01*
X109243472Y-57135000D01*
X109093357Y-57164859D01*
X108951952Y-57223431D01*
X108824691Y-57308464D01*
X108716464Y-57416691D01*
X108631431Y-57543952D01*
X108572859Y-57685357D01*
X108543000Y-57835472D01*
X100736400Y-57835472D01*
X100736400Y-55137953D01*
X100738365Y-55118000D01*
X100736400Y-55098047D01*
X100736400Y-55098040D01*
X100730519Y-55038332D01*
X100724390Y-55018125D01*
X100707281Y-54961725D01*
X100704350Y-54956242D01*
X100669544Y-54891124D01*
X100636220Y-54850519D01*
X100631482Y-54844745D01*
X100631477Y-54844740D01*
X100618758Y-54829242D01*
X100603260Y-54816523D01*
X98831400Y-53044664D01*
X98831400Y-49726934D01*
X98988600Y-49726934D01*
X98988600Y-49841066D01*
X99010866Y-49953005D01*
X99054543Y-50058449D01*
X99117951Y-50153346D01*
X99161600Y-50196995D01*
X99161600Y-50228223D01*
X99161601Y-50228233D01*
X99161600Y-52177047D01*
X99159635Y-52197000D01*
X99161600Y-52216953D01*
X99161600Y-52216959D01*
X99167481Y-52276667D01*
X99190719Y-52353274D01*
X99228456Y-52423875D01*
X99279242Y-52485758D01*
X99294746Y-52498482D01*
X103076523Y-56280260D01*
X103089242Y-56295758D01*
X103104740Y-56308477D01*
X103104745Y-56308482D01*
X103108395Y-56311477D01*
X103151124Y-56346544D01*
X103221725Y-56384281D01*
X103298331Y-56407519D01*
X103305604Y-56408235D01*
X103358040Y-56413400D01*
X103358047Y-56413400D01*
X103378000Y-56415365D01*
X103397953Y-56413400D01*
X117310441Y-56413400D01*
X117328276Y-56440092D01*
X117422908Y-56534724D01*
X117534184Y-56609076D01*
X117657826Y-56660291D01*
X117789085Y-56686400D01*
X117922915Y-56686400D01*
X118054174Y-56660291D01*
X118177816Y-56609076D01*
X118289092Y-56534724D01*
X118383724Y-56440092D01*
X118458076Y-56328816D01*
X118509291Y-56205174D01*
X118535400Y-56073915D01*
X118535400Y-55940085D01*
X118509291Y-55808826D01*
X118458076Y-55685184D01*
X118383724Y-55573908D01*
X118289092Y-55479276D01*
X118177816Y-55404924D01*
X118054174Y-55353709D01*
X117922915Y-55327600D01*
X117789085Y-55327600D01*
X117657826Y-55353709D01*
X117534184Y-55404924D01*
X117422908Y-55479276D01*
X117328276Y-55573908D01*
X117310441Y-55600600D01*
X103546337Y-55600600D01*
X99974400Y-52028664D01*
X99974400Y-50196995D01*
X100018049Y-50153346D01*
X100081457Y-50058449D01*
X100125134Y-49953005D01*
X100140149Y-49877518D01*
X104392600Y-49877518D01*
X104392600Y-50198482D01*
X104455217Y-50513278D01*
X104578044Y-50809810D01*
X104756362Y-51076682D01*
X104983318Y-51303638D01*
X105250190Y-51481956D01*
X105546722Y-51604783D01*
X105861518Y-51667400D01*
X106182482Y-51667400D01*
X106497278Y-51604783D01*
X106793810Y-51481956D01*
X107060682Y-51303638D01*
X107287638Y-51076682D01*
X107465956Y-50809810D01*
X107588783Y-50513278D01*
X107651400Y-50198482D01*
X107651400Y-49877518D01*
X107588783Y-49562722D01*
X107465956Y-49266190D01*
X107287638Y-48999318D01*
X107226321Y-48938001D01*
X108253176Y-48938001D01*
X108253176Y-51137999D01*
X108265259Y-51260677D01*
X108301042Y-51378640D01*
X108359152Y-51487355D01*
X108437355Y-51582645D01*
X108532645Y-51660848D01*
X108641360Y-51718958D01*
X108759323Y-51754741D01*
X108882001Y-51766824D01*
X111081999Y-51766824D01*
X111204677Y-51754741D01*
X111322640Y-51718958D01*
X111431355Y-51660848D01*
X111526645Y-51582645D01*
X111604848Y-51487355D01*
X111662958Y-51378640D01*
X111698741Y-51260677D01*
X111710824Y-51137999D01*
X111710824Y-48938001D01*
X111698741Y-48815323D01*
X111662958Y-48697360D01*
X111604848Y-48588645D01*
X111526645Y-48493355D01*
X111431355Y-48415152D01*
X111322640Y-48357042D01*
X111204677Y-48321259D01*
X111081999Y-48309176D01*
X108882001Y-48309176D01*
X108759323Y-48321259D01*
X108641360Y-48357042D01*
X108532645Y-48415152D01*
X108437355Y-48493355D01*
X108359152Y-48588645D01*
X108301042Y-48697360D01*
X108265259Y-48815323D01*
X108253176Y-48938001D01*
X107226321Y-48938001D01*
X107060682Y-48772362D01*
X106793810Y-48594044D01*
X106497278Y-48471217D01*
X106182482Y-48408600D01*
X105861518Y-48408600D01*
X105546722Y-48471217D01*
X105250190Y-48594044D01*
X104983318Y-48772362D01*
X104756362Y-48999318D01*
X104578044Y-49266190D01*
X104455217Y-49562722D01*
X104392600Y-49877518D01*
X100140149Y-49877518D01*
X100147400Y-49841066D01*
X100147400Y-49726934D01*
X100125134Y-49614995D01*
X100081457Y-49509551D01*
X100018049Y-49414654D01*
X99937346Y-49333951D01*
X99842449Y-49270543D01*
X99737005Y-49226866D01*
X99625066Y-49204600D01*
X99510934Y-49204600D01*
X99398995Y-49226866D01*
X99293551Y-49270543D01*
X99198654Y-49333951D01*
X99117951Y-49414654D01*
X99054543Y-49509551D01*
X99010866Y-49614995D01*
X98988600Y-49726934D01*
X98831400Y-49726934D01*
X98831400Y-45244953D01*
X98833365Y-45225000D01*
X98831400Y-45205047D01*
X98831400Y-45205040D01*
X98825519Y-45145332D01*
X98824552Y-45142142D01*
X98803558Y-45072934D01*
X125740600Y-45072934D01*
X125740600Y-45187066D01*
X125762866Y-45299005D01*
X125806543Y-45404449D01*
X125869951Y-45499346D01*
X125950654Y-45580049D01*
X126045551Y-45643457D01*
X126150995Y-45687134D01*
X126262934Y-45709400D01*
X126377066Y-45709400D01*
X126489005Y-45687134D01*
X126594449Y-45643457D01*
X126689346Y-45580049D01*
X126770049Y-45499346D01*
X126833457Y-45404449D01*
X126877134Y-45299005D01*
X126899400Y-45187066D01*
X126899400Y-45072934D01*
X126877134Y-44960995D01*
X126833457Y-44855551D01*
X126770049Y-44760654D01*
X126699400Y-44690005D01*
X126699400Y-40715152D01*
X127411152Y-40003400D01*
X137764848Y-40003400D01*
X139828600Y-42067152D01*
X139828601Y-45280004D01*
X139757951Y-45350654D01*
X139694543Y-45445551D01*
X139650866Y-45550995D01*
X139628600Y-45662934D01*
X139628600Y-45777066D01*
X139650866Y-45889005D01*
X139694543Y-45994449D01*
X139757951Y-46089346D01*
X139838654Y-46170049D01*
X139933551Y-46233457D01*
X140038995Y-46277134D01*
X140150934Y-46299400D01*
X140265066Y-46299400D01*
X140377005Y-46277134D01*
X140482449Y-46233457D01*
X140577346Y-46170049D01*
X140658049Y-46089346D01*
X140721457Y-45994449D01*
X140765134Y-45889005D01*
X140787400Y-45777066D01*
X140787400Y-45662934D01*
X140765134Y-45550995D01*
X140721457Y-45445551D01*
X140658049Y-45350654D01*
X140587400Y-45280005D01*
X140587400Y-41928628D01*
X140589235Y-41909999D01*
X140586352Y-41880726D01*
X140581910Y-41835625D01*
X140560215Y-41764108D01*
X140524986Y-41698198D01*
X140524985Y-41698196D01*
X140493407Y-41659719D01*
X140477574Y-41640426D01*
X140463099Y-41628547D01*
X138203454Y-39368902D01*
X138191574Y-39354426D01*
X138133803Y-39307015D01*
X138067892Y-39271785D01*
X137996375Y-39250090D01*
X137940632Y-39244600D01*
X137940629Y-39244600D01*
X137922000Y-39242765D01*
X137903371Y-39244600D01*
X127272621Y-39244600D01*
X127253999Y-39242766D01*
X127235377Y-39244600D01*
X127235368Y-39244600D01*
X127179625Y-39250090D01*
X127108108Y-39271785D01*
X127077426Y-39288185D01*
X127042196Y-39307015D01*
X127019639Y-39325527D01*
X126984426Y-39354426D01*
X126972546Y-39368902D01*
X126064898Y-40276550D01*
X126050427Y-40288426D01*
X126038551Y-40302897D01*
X126038549Y-40302899D01*
X126003015Y-40346197D01*
X125967786Y-40412108D01*
X125946091Y-40483626D01*
X125938765Y-40558000D01*
X125940601Y-40576639D01*
X125940600Y-44690005D01*
X125869951Y-44760654D01*
X125806543Y-44855551D01*
X125762866Y-44960995D01*
X125740600Y-45072934D01*
X98803558Y-45072934D01*
X98802281Y-45068725D01*
X98799646Y-45063795D01*
X98764544Y-44998124D01*
X98743717Y-44972746D01*
X98726482Y-44951745D01*
X98726477Y-44951740D01*
X98713758Y-44936242D01*
X98698260Y-44923523D01*
X94029953Y-40255216D01*
X94816600Y-40255216D01*
X94816600Y-40536784D01*
X94871531Y-40812941D01*
X94979282Y-41073075D01*
X95135713Y-41307189D01*
X95334811Y-41506287D01*
X95568925Y-41662718D01*
X95829059Y-41770469D01*
X96105216Y-41825400D01*
X96386784Y-41825400D01*
X96662941Y-41770469D01*
X96923075Y-41662718D01*
X97157189Y-41506287D01*
X97356287Y-41307189D01*
X97512718Y-41073075D01*
X97620469Y-40812941D01*
X97675400Y-40536784D01*
X97675400Y-40255216D01*
X97620469Y-39979059D01*
X97512718Y-39718925D01*
X97356287Y-39484811D01*
X97157189Y-39285713D01*
X96923075Y-39129282D01*
X96662941Y-39021531D01*
X96386784Y-38966600D01*
X96105216Y-38966600D01*
X95829059Y-39021531D01*
X95568925Y-39129282D01*
X95334811Y-39285713D01*
X95135713Y-39484811D01*
X94979282Y-39718925D01*
X94871531Y-39979059D01*
X94816600Y-40255216D01*
X94029953Y-40255216D01*
X92114255Y-38339518D01*
X141870600Y-38339518D01*
X141870600Y-38660482D01*
X141933217Y-38975278D01*
X142056044Y-39271810D01*
X142234362Y-39538682D01*
X142461318Y-39765638D01*
X142728190Y-39943956D01*
X143024722Y-40066783D01*
X143339518Y-40129400D01*
X143660482Y-40129400D01*
X143975278Y-40066783D01*
X144271810Y-39943956D01*
X144538682Y-39765638D01*
X144765638Y-39538682D01*
X144943956Y-39271810D01*
X145066783Y-38975278D01*
X145129400Y-38660482D01*
X145129400Y-38339518D01*
X145066783Y-38024722D01*
X144943956Y-37728190D01*
X144765638Y-37461318D01*
X144538682Y-37234362D01*
X144271810Y-37056044D01*
X143975278Y-36933217D01*
X143660482Y-36870600D01*
X143339518Y-36870600D01*
X143024722Y-36933217D01*
X142728190Y-37056044D01*
X142461318Y-37234362D01*
X142234362Y-37461318D01*
X142056044Y-37728190D01*
X141933217Y-38024722D01*
X141870600Y-38339518D01*
X92114255Y-38339518D01*
X91625400Y-37850664D01*
X91625400Y-37734764D01*
X91581998Y-37516566D01*
X91496862Y-37311028D01*
X91373263Y-37126049D01*
X91215951Y-36968737D01*
X91030972Y-36845138D01*
X90825434Y-36760002D01*
X90607236Y-36716600D01*
X90384764Y-36716600D01*
X90166566Y-36760002D01*
X89961028Y-36845138D01*
X89776049Y-36968737D01*
X89618737Y-37126049D01*
X89495138Y-37311028D01*
X89410002Y-37516566D01*
X89366600Y-37734764D01*
X89366600Y-37957236D01*
X89410002Y-38175434D01*
X89495138Y-38380972D01*
X89618737Y-38565951D01*
X89776049Y-38723263D01*
X89961028Y-38846862D01*
X90166566Y-38931998D01*
X90384764Y-38975400D01*
X90607236Y-38975400D01*
X90825434Y-38931998D01*
X91030972Y-38846862D01*
X91215951Y-38723263D01*
X91282239Y-38656975D01*
X98018601Y-45393338D01*
X98018601Y-45843864D01*
X93938482Y-41763746D01*
X93925758Y-41748242D01*
X93863876Y-41697456D01*
X93793275Y-41659719D01*
X93716668Y-41636481D01*
X93656960Y-41630600D01*
X93656953Y-41630600D01*
X93637000Y-41628635D01*
X93617047Y-41630600D01*
X89971143Y-41630600D01*
X90157189Y-41506287D01*
X90356287Y-41307189D01*
X90512718Y-41073075D01*
X90620469Y-40812941D01*
X90675400Y-40536784D01*
X90675400Y-40255216D01*
X90620469Y-39979059D01*
X90512718Y-39718925D01*
X90356287Y-39484811D01*
X90157189Y-39285713D01*
X89923075Y-39129282D01*
X89662941Y-39021531D01*
X89386784Y-38966600D01*
X89105216Y-38966600D01*
X88829059Y-39021531D01*
X88568925Y-39129282D01*
X88334811Y-39285713D01*
X88135713Y-39484811D01*
X87979282Y-39718925D01*
X87871531Y-39979059D01*
X87816600Y-40255216D01*
X87816600Y-40536784D01*
X87871531Y-40812941D01*
X87979282Y-41073075D01*
X88135713Y-41307189D01*
X88334811Y-41506287D01*
X88520857Y-41630600D01*
X84740995Y-41630600D01*
X84697346Y-41586951D01*
X84602449Y-41523543D01*
X84497005Y-41479866D01*
X84385066Y-41457600D01*
X84270934Y-41457600D01*
X84158995Y-41479866D01*
X84053551Y-41523543D01*
X83958654Y-41586951D01*
X83877951Y-41667654D01*
X83814543Y-41762551D01*
X83770866Y-41867995D01*
X83748600Y-41979934D01*
X77660400Y-41979934D01*
X77660400Y-38532297D01*
X77679302Y-38339518D01*
X78870600Y-38339518D01*
X78870600Y-38660482D01*
X78933217Y-38975278D01*
X79056044Y-39271810D01*
X79234362Y-39538682D01*
X79461318Y-39765638D01*
X79728190Y-39943956D01*
X80024722Y-40066783D01*
X80339518Y-40129400D01*
X80660482Y-40129400D01*
X80975278Y-40066783D01*
X81271810Y-39943956D01*
X81538682Y-39765638D01*
X81765638Y-39538682D01*
X81943956Y-39271810D01*
X82066783Y-38975278D01*
X82129400Y-38660482D01*
X82129400Y-38339518D01*
X82066783Y-38024722D01*
X81943956Y-37728190D01*
X81765638Y-37461318D01*
X81538682Y-37234362D01*
X81271810Y-37056044D01*
X80975278Y-36933217D01*
X80660482Y-36870600D01*
X80339518Y-36870600D01*
X80024722Y-36933217D01*
X79728190Y-37056044D01*
X79461318Y-37234362D01*
X79234362Y-37461318D01*
X79056044Y-37728190D01*
X78933217Y-38024722D01*
X78870600Y-38339518D01*
X77679302Y-38339518D01*
X77717586Y-37949070D01*
X77877589Y-37419116D01*
X78137475Y-36930342D01*
X78487351Y-36501351D01*
X78913887Y-36148490D01*
X79400839Y-35885196D01*
X79929657Y-35721500D01*
X80510983Y-35660400D01*
X143467703Y-35660400D01*
X144050930Y-35717586D01*
X144050930Y-35717586D01*
G37*
X144050930Y-35717586D02*
X144580884Y-35877589D01*
X145069658Y-36137475D01*
X145498649Y-36487351D01*
X145851510Y-36913887D01*
X146114804Y-37400839D01*
X146278500Y-37929657D01*
X146339600Y-38510983D01*
X146339601Y-111467692D01*
X146282414Y-112050931D01*
X146122413Y-112580880D01*
X145862526Y-113069657D01*
X145512651Y-113498647D01*
X145086112Y-113851511D01*
X144599164Y-114114802D01*
X144070343Y-114278500D01*
X143489017Y-114339600D01*
X80532297Y-114339600D01*
X79949069Y-114282414D01*
X79419120Y-114122413D01*
X78930343Y-113862526D01*
X78501353Y-113512651D01*
X78148489Y-113086112D01*
X77885198Y-112599164D01*
X77721500Y-112070343D01*
X77660400Y-111489017D01*
X77660400Y-111339518D01*
X78870600Y-111339518D01*
X78870600Y-111660482D01*
X78933217Y-111975278D01*
X79056044Y-112271810D01*
X79234362Y-112538682D01*
X79461318Y-112765638D01*
X79728190Y-112943956D01*
X80024722Y-113066783D01*
X80339518Y-113129400D01*
X80660482Y-113129400D01*
X80975278Y-113066783D01*
X81271810Y-112943956D01*
X81538682Y-112765638D01*
X81765638Y-112538682D01*
X81943956Y-112271810D01*
X82066783Y-111975278D01*
X82129400Y-111660482D01*
X82129400Y-111339518D01*
X141870600Y-111339518D01*
X141870600Y-111660482D01*
X141933217Y-111975278D01*
X142056044Y-112271810D01*
X142234362Y-112538682D01*
X142461318Y-112765638D01*
X142728190Y-112943956D01*
X143024722Y-113066783D01*
X143339518Y-113129400D01*
X143660482Y-113129400D01*
X143975278Y-113066783D01*
X144271810Y-112943956D01*
X144538682Y-112765638D01*
X144765638Y-112538682D01*
X144943956Y-112271810D01*
X145066783Y-111975278D01*
X145129400Y-111660482D01*
X145129400Y-111339518D01*
X145066783Y-111024722D01*
X144943956Y-110728190D01*
X144765638Y-110461318D01*
X144538682Y-110234362D01*
X144271810Y-110056044D01*
X143975278Y-109933217D01*
X143660482Y-109870600D01*
X143339518Y-109870600D01*
X143024722Y-109933217D01*
X142728190Y-110056044D01*
X142461318Y-110234362D01*
X142234362Y-110461318D01*
X142056044Y-110728190D01*
X141933217Y-111024722D01*
X141870600Y-111339518D01*
X82129400Y-111339518D01*
X82066783Y-111024722D01*
X81943956Y-110728190D01*
X81765638Y-110461318D01*
X81538682Y-110234362D01*
X81271810Y-110056044D01*
X80975278Y-109933217D01*
X80660482Y-109870600D01*
X80339518Y-109870600D01*
X80024722Y-109933217D01*
X79728190Y-110056044D01*
X79461318Y-110234362D01*
X79234362Y-110461318D01*
X79056044Y-110728190D01*
X78933217Y-111024722D01*
X78870600Y-111339518D01*
X77660400Y-111339518D01*
X77660400Y-98640001D01*
X130369249Y-98640001D01*
X130369249Y-100839999D01*
X130379447Y-100943544D01*
X130409650Y-101043109D01*
X130458697Y-101134869D01*
X130524703Y-101215297D01*
X130605131Y-101281303D01*
X130696891Y-101330350D01*
X130796456Y-101360553D01*
X130900001Y-101370751D01*
X133099999Y-101370751D01*
X133203544Y-101360553D01*
X133303109Y-101330350D01*
X133394869Y-101281303D01*
X133475297Y-101215297D01*
X133541303Y-101134869D01*
X133590350Y-101043109D01*
X133620553Y-100943544D01*
X133630751Y-100839999D01*
X133630751Y-98640001D01*
X133620553Y-98536456D01*
X133590350Y-98436891D01*
X133541303Y-98345131D01*
X133475297Y-98264703D01*
X133394869Y-98198697D01*
X133303109Y-98149650D01*
X133203544Y-98119447D01*
X133099999Y-98109249D01*
X130900001Y-98109249D01*
X130796456Y-98119447D01*
X130696891Y-98149650D01*
X130605131Y-98198697D01*
X130524703Y-98264703D01*
X130458697Y-98345131D01*
X130409650Y-98436891D01*
X130379447Y-98536456D01*
X130369249Y-98640001D01*
X77660400Y-98640001D01*
X77660400Y-94875085D01*
X85650600Y-94875085D01*
X85650600Y-95008915D01*
X85676709Y-95140174D01*
X85727924Y-95263816D01*
X85802276Y-95375092D01*
X85869184Y-95442000D01*
X85802276Y-95508908D01*
X85727924Y-95620184D01*
X85676709Y-95743826D01*
X85650600Y-95875085D01*
X85650600Y-96008915D01*
X85676709Y-96140174D01*
X85727924Y-96263816D01*
X85802276Y-96375092D01*
X85869184Y-96442000D01*
X85802276Y-96508908D01*
X85727924Y-96620184D01*
X85676709Y-96743826D01*
X85650600Y-96875085D01*
X85650600Y-97008915D01*
X85676709Y-97140174D01*
X85727924Y-97263816D01*
X85802276Y-97375092D01*
X85869184Y-97442000D01*
X85802276Y-97508908D01*
X85727924Y-97620184D01*
X85676709Y-97743826D01*
X85650600Y-97875085D01*
X85650600Y-98008915D01*
X85676709Y-98140174D01*
X85727924Y-98263816D01*
X85802276Y-98375092D01*
X85896908Y-98469724D01*
X86008184Y-98544076D01*
X86131826Y-98595291D01*
X86263085Y-98621400D01*
X86396915Y-98621400D01*
X86528174Y-98595291D01*
X86651816Y-98544076D01*
X86763092Y-98469724D01*
X86804705Y-98428111D01*
X86846318Y-98469724D01*
X86957594Y-98544076D01*
X87081236Y-98595291D01*
X87212495Y-98621400D01*
X87346325Y-98621400D01*
X87477584Y-98595291D01*
X87601226Y-98544076D01*
X87712502Y-98469724D01*
X87807134Y-98375092D01*
X87881486Y-98263816D01*
X87932701Y-98140174D01*
X87958810Y-98008915D01*
X87958810Y-97875085D01*
X87932701Y-97743826D01*
X87881486Y-97620184D01*
X87807134Y-97508908D01*
X87740226Y-97442000D01*
X87807134Y-97375092D01*
X87881486Y-97263816D01*
X87932701Y-97140174D01*
X87958810Y-97008915D01*
X87958810Y-96875085D01*
X87932701Y-96743826D01*
X87881486Y-96620184D01*
X87807134Y-96508908D01*
X87740226Y-96442000D01*
X87807134Y-96375092D01*
X87881486Y-96263816D01*
X87932701Y-96140174D01*
X87958810Y-96008915D01*
X87958810Y-95875085D01*
X87932701Y-95743826D01*
X87881486Y-95620184D01*
X87807134Y-95508908D01*
X87740226Y-95442000D01*
X87807134Y-95375092D01*
X87881486Y-95263816D01*
X87932701Y-95140174D01*
X87958810Y-95008915D01*
X87958810Y-94875085D01*
X87932701Y-94743826D01*
X87906264Y-94680001D01*
X90369249Y-94680001D01*
X90369249Y-96879999D01*
X90379447Y-96983544D01*
X90409650Y-97083109D01*
X90458697Y-97174869D01*
X90524703Y-97255297D01*
X90605131Y-97321303D01*
X90696891Y-97370350D01*
X90796456Y-97400553D01*
X90900001Y-97410751D01*
X93099999Y-97410751D01*
X93203544Y-97400553D01*
X93303109Y-97370350D01*
X93394869Y-97321303D01*
X93475297Y-97255297D01*
X93541303Y-97174869D01*
X93590350Y-97083109D01*
X93620553Y-96983544D01*
X93630751Y-96879999D01*
X93630751Y-94680001D01*
X93620553Y-94576456D01*
X93590350Y-94476891D01*
X93541303Y-94385131D01*
X93475297Y-94304703D01*
X93394869Y-94238697D01*
X93303109Y-94189650D01*
X93203544Y-94159447D01*
X93099999Y-94149249D01*
X90900001Y-94149249D01*
X90796456Y-94159447D01*
X90696891Y-94189650D01*
X90605131Y-94238697D01*
X90524703Y-94304703D01*
X90458697Y-94385131D01*
X90409650Y-94476891D01*
X90379447Y-94576456D01*
X90369249Y-94680001D01*
X87906264Y-94680001D01*
X87881486Y-94620184D01*
X87807134Y-94508908D01*
X87712502Y-94414276D01*
X87601226Y-94339924D01*
X87477584Y-94288709D01*
X87346325Y-94262600D01*
X87212495Y-94262600D01*
X87081236Y-94288709D01*
X86957594Y-94339924D01*
X86846318Y-94414276D01*
X86804705Y-94455889D01*
X86763092Y-94414276D01*
X86651816Y-94339924D01*
X86528174Y-94288709D01*
X86396915Y-94262600D01*
X86263085Y-94262600D01*
X86131826Y-94288709D01*
X86008184Y-94339924D01*
X85896908Y-94414276D01*
X85802276Y-94508908D01*
X85727924Y-94620184D01*
X85676709Y-94743826D01*
X85650600Y-94875085D01*
X77660400Y-94875085D01*
X77660400Y-53055324D01*
X78041635Y-53055324D01*
X78043601Y-53075287D01*
X78043600Y-85930047D01*
X78041635Y-85950000D01*
X78043600Y-85969953D01*
X78043600Y-85969959D01*
X78048098Y-86015627D01*
X78049481Y-86029668D01*
X78070301Y-86098303D01*
X78072719Y-86106274D01*
X78110456Y-86176875D01*
X78161242Y-86238758D01*
X78176746Y-86251482D01*
X85670518Y-93745254D01*
X85683242Y-93760758D01*
X85745124Y-93811544D01*
X85815725Y-93849281D01*
X85869093Y-93865470D01*
X85892331Y-93872519D01*
X85900335Y-93873307D01*
X85952040Y-93878400D01*
X85952046Y-93878400D01*
X85971999Y-93880365D01*
X85991952Y-93878400D01*
X97315058Y-93878400D01*
X97322977Y-93886319D01*
X97410340Y-93944693D01*
X97507413Y-93984902D01*
X97610465Y-94005400D01*
X97715535Y-94005400D01*
X97818587Y-93984902D01*
X97915660Y-93944693D01*
X98003023Y-93886319D01*
X98077319Y-93812023D01*
X98135693Y-93724660D01*
X98175902Y-93627587D01*
X98196400Y-93524535D01*
X98196400Y-93419465D01*
X98175902Y-93316413D01*
X98135693Y-93219340D01*
X98077319Y-93131977D01*
X98003023Y-93057681D01*
X97915660Y-92999307D01*
X97818587Y-92959098D01*
X97715535Y-92938600D01*
X97610465Y-92938600D01*
X97507413Y-92959098D01*
X97410340Y-92999307D01*
X97322977Y-93057681D01*
X97315058Y-93065600D01*
X86140336Y-93065600D01*
X78856400Y-85781664D01*
X78856400Y-54511226D01*
X78857600Y-54511226D01*
X78857600Y-54728774D01*
X78900041Y-54942142D01*
X78983293Y-55143130D01*
X79104156Y-55324014D01*
X79257986Y-55477844D01*
X79438870Y-55598707D01*
X79639858Y-55681959D01*
X79853226Y-55724400D01*
X80070774Y-55724400D01*
X80284142Y-55681959D01*
X80438552Y-55618000D01*
X81641635Y-55618000D01*
X81643601Y-55637963D01*
X81643600Y-85530047D01*
X81641635Y-85550000D01*
X81643600Y-85569953D01*
X81643600Y-85569959D01*
X81649481Y-85629667D01*
X81672719Y-85706274D01*
X81710456Y-85776875D01*
X81761242Y-85838758D01*
X81776746Y-85851482D01*
X88700627Y-92775364D01*
X88713346Y-92790862D01*
X88728844Y-92803581D01*
X88728849Y-92803586D01*
X88749850Y-92820821D01*
X88775228Y-92841648D01*
X88845829Y-92879385D01*
X88922435Y-92902623D01*
X88929708Y-92903339D01*
X88982144Y-92908504D01*
X88982151Y-92908504D01*
X89002104Y-92910469D01*
X89022057Y-92908504D01*
X97846859Y-92908504D01*
X97854778Y-92916423D01*
X97942141Y-92974797D01*
X98039214Y-93015006D01*
X98142266Y-93035504D01*
X98247336Y-93035504D01*
X98350388Y-93015006D01*
X98447461Y-92974797D01*
X98534824Y-92916423D01*
X98609120Y-92842127D01*
X98667494Y-92754764D01*
X98707703Y-92657691D01*
X98728201Y-92554639D01*
X98728201Y-92449569D01*
X98707703Y-92346517D01*
X98667494Y-92249444D01*
X98609120Y-92162081D01*
X98534824Y-92087785D01*
X98447461Y-92029411D01*
X98350388Y-91989202D01*
X98247336Y-91968704D01*
X98142266Y-91968704D01*
X98039214Y-91989202D01*
X97942141Y-92029411D01*
X97854778Y-92087785D01*
X97846859Y-92095704D01*
X97508229Y-92095704D01*
X97515492Y-92078169D01*
X97535990Y-91975117D01*
X97535990Y-91870047D01*
X97515492Y-91766995D01*
X97475283Y-91669922D01*
X97416909Y-91582559D01*
X97342613Y-91508263D01*
X97255250Y-91449889D01*
X97158177Y-91409680D01*
X97055125Y-91389182D01*
X96950055Y-91389182D01*
X96847003Y-91409680D01*
X96749930Y-91449889D01*
X96662567Y-91508263D01*
X96654648Y-91516182D01*
X89990918Y-91516182D01*
X88308057Y-89833321D01*
X93360500Y-89833321D01*
X93360500Y-89966679D01*
X93386516Y-90097474D01*
X93437550Y-90220680D01*
X93511640Y-90331563D01*
X93605937Y-90425860D01*
X93716820Y-90499950D01*
X93840026Y-90550984D01*
X93880542Y-90559043D01*
X94459461Y-91137962D01*
X94477526Y-91159974D01*
X94565385Y-91232079D01*
X94639728Y-91271816D01*
X94665623Y-91285657D01*
X94774388Y-91318651D01*
X94887500Y-91329791D01*
X94915839Y-91327000D01*
X104210999Y-91327000D01*
X106865000Y-93981002D01*
X106865000Y-94132973D01*
X106842050Y-94167320D01*
X106791016Y-94290526D01*
X106765000Y-94421321D01*
X106765000Y-94554679D01*
X106791016Y-94685474D01*
X106842050Y-94808680D01*
X106916140Y-94919563D01*
X107010437Y-95013860D01*
X107121320Y-95087950D01*
X107244526Y-95138984D01*
X107375321Y-95165000D01*
X107508679Y-95165000D01*
X107639474Y-95138984D01*
X107762680Y-95087950D01*
X107873563Y-95013860D01*
X107967860Y-94919563D01*
X108041950Y-94808680D01*
X108092984Y-94685474D01*
X108119000Y-94554679D01*
X108119000Y-94421321D01*
X108092984Y-94290526D01*
X108041950Y-94167320D01*
X108019000Y-94132973D01*
X108019000Y-93855085D01*
X135500010Y-93855085D01*
X135500010Y-93988915D01*
X135526119Y-94120174D01*
X135577334Y-94243816D01*
X135651686Y-94355092D01*
X135718594Y-94422000D01*
X135651686Y-94488908D01*
X135577334Y-94600184D01*
X135526119Y-94723826D01*
X135500010Y-94855085D01*
X135500010Y-94988915D01*
X135526119Y-95120174D01*
X135577334Y-95243816D01*
X135651686Y-95355092D01*
X135718594Y-95422000D01*
X135651686Y-95488908D01*
X135577334Y-95600184D01*
X135526119Y-95723826D01*
X135500010Y-95855085D01*
X135500010Y-95988915D01*
X135526119Y-96120174D01*
X135577334Y-96243816D01*
X135651686Y-96355092D01*
X135718594Y-96422000D01*
X135651686Y-96488908D01*
X135577334Y-96600184D01*
X135526119Y-96723826D01*
X135500010Y-96855085D01*
X135500010Y-96988915D01*
X135526119Y-97120174D01*
X135577334Y-97243816D01*
X135651686Y-97355092D01*
X135746318Y-97449724D01*
X135857594Y-97524076D01*
X135981236Y-97575291D01*
X136112495Y-97601400D01*
X136246325Y-97601400D01*
X136377584Y-97575291D01*
X136501226Y-97524076D01*
X136612502Y-97449724D01*
X136679410Y-97382816D01*
X136746318Y-97449724D01*
X136857594Y-97524076D01*
X136981236Y-97575291D01*
X137112495Y-97601400D01*
X137246325Y-97601400D01*
X137377584Y-97575291D01*
X137501226Y-97524076D01*
X137612502Y-97449724D01*
X137707134Y-97355092D01*
X137781486Y-97243816D01*
X137832701Y-97120174D01*
X137858810Y-96988915D01*
X137858810Y-96855085D01*
X137832701Y-96723826D01*
X137781486Y-96600184D01*
X137707134Y-96488908D01*
X137640226Y-96422000D01*
X137707134Y-96355092D01*
X137781486Y-96243816D01*
X137832701Y-96120174D01*
X137858810Y-95988915D01*
X137858810Y-95855085D01*
X137832701Y-95723826D01*
X137781486Y-95600184D01*
X137707134Y-95488908D01*
X137640226Y-95422000D01*
X137707134Y-95355092D01*
X137781486Y-95243816D01*
X137832701Y-95120174D01*
X137858810Y-94988915D01*
X137858810Y-94855085D01*
X137832701Y-94723826D01*
X137781486Y-94600184D01*
X137707134Y-94488908D01*
X137640226Y-94422000D01*
X137707134Y-94355092D01*
X137781486Y-94243816D01*
X137832701Y-94120174D01*
X137858810Y-93988915D01*
X137858810Y-93855085D01*
X137832701Y-93723826D01*
X137781486Y-93600184D01*
X137707134Y-93488908D01*
X137612502Y-93394276D01*
X137501226Y-93319924D01*
X137377584Y-93268709D01*
X137246325Y-93242600D01*
X137112495Y-93242600D01*
X136981236Y-93268709D01*
X136857594Y-93319924D01*
X136746318Y-93394276D01*
X136679410Y-93461184D01*
X136612502Y-93394276D01*
X136501226Y-93319924D01*
X136377584Y-93268709D01*
X136246325Y-93242600D01*
X136112495Y-93242600D01*
X135981236Y-93268709D01*
X135857594Y-93319924D01*
X135746318Y-93394276D01*
X135651686Y-93488908D01*
X135577334Y-93600184D01*
X135526119Y-93723826D01*
X135500010Y-93855085D01*
X108019000Y-93855085D01*
X108019000Y-93770331D01*
X108021790Y-93742000D01*
X108010651Y-93628888D01*
X107987226Y-93551668D01*
X107977657Y-93520124D01*
X107924079Y-93419885D01*
X107851974Y-93332026D01*
X107829967Y-93313965D01*
X104878037Y-90362036D01*
X104859974Y-90340026D01*
X104772115Y-90267921D01*
X104671876Y-90214343D01*
X104607770Y-90194897D01*
X104563111Y-90181349D01*
X104508045Y-90175926D01*
X104478336Y-90173000D01*
X104478331Y-90173000D01*
X104450000Y-90170210D01*
X104421669Y-90173000D01*
X95126501Y-90173000D01*
X94696543Y-89743042D01*
X94688484Y-89702526D01*
X94637450Y-89579320D01*
X94563360Y-89468437D01*
X94469063Y-89374140D01*
X94358180Y-89300050D01*
X94234974Y-89249016D01*
X94104179Y-89223000D01*
X93970821Y-89223000D01*
X93840026Y-89249016D01*
X93716820Y-89300050D01*
X93605937Y-89374140D01*
X93511640Y-89468437D01*
X93437550Y-89579320D01*
X93386516Y-89702526D01*
X93360500Y-89833321D01*
X88308057Y-89833321D01*
X85656400Y-87181664D01*
X85656400Y-82125000D01*
X91223000Y-82125000D01*
X91223000Y-85750000D01*
X91230244Y-85823549D01*
X91251697Y-85894272D01*
X91286536Y-85959450D01*
X91333421Y-86016579D01*
X91390550Y-86063464D01*
X91455728Y-86098303D01*
X91526451Y-86119756D01*
X91600000Y-86127000D01*
X95000000Y-86127000D01*
X95073549Y-86119756D01*
X95144272Y-86098303D01*
X95209450Y-86063464D01*
X95266579Y-86016579D01*
X95278601Y-86001931D01*
X95278600Y-87875455D01*
X95276281Y-87899000D01*
X95278600Y-87922545D01*
X95285537Y-87992978D01*
X95312950Y-88083345D01*
X95357465Y-88166629D01*
X95417373Y-88239627D01*
X95435669Y-88254643D01*
X95803361Y-88622335D01*
X95818373Y-88640627D01*
X95891371Y-88700535D01*
X95974654Y-88745050D01*
X96065021Y-88772463D01*
X96159000Y-88781719D01*
X96182545Y-88779400D01*
X101873427Y-88779400D01*
X102014906Y-88920880D01*
X102026866Y-88981005D01*
X102070543Y-89086449D01*
X102133951Y-89181346D01*
X102214654Y-89262049D01*
X102309551Y-89325457D01*
X102414995Y-89369134D01*
X102526934Y-89391400D01*
X102641066Y-89391400D01*
X102753005Y-89369134D01*
X102858449Y-89325457D01*
X102953346Y-89262049D01*
X103034049Y-89181346D01*
X103097457Y-89086449D01*
X103141134Y-88981005D01*
X103163400Y-88869066D01*
X103163400Y-88754934D01*
X103141134Y-88642995D01*
X103097457Y-88537551D01*
X103034049Y-88442654D01*
X102953346Y-88361951D01*
X102858449Y-88298543D01*
X102753005Y-88254866D01*
X102692880Y-88242906D01*
X102427643Y-87977670D01*
X102412627Y-87959373D01*
X102339629Y-87899465D01*
X102256346Y-87854950D01*
X102165979Y-87827537D01*
X102095546Y-87820600D01*
X102095545Y-87820600D01*
X102072000Y-87818281D01*
X102048455Y-87820600D01*
X96357574Y-87820600D01*
X96237400Y-87700427D01*
X96237400Y-84756373D01*
X96703361Y-85222335D01*
X96718373Y-85240627D01*
X96791371Y-85300535D01*
X96874654Y-85345050D01*
X96943988Y-85366082D01*
X96965020Y-85372463D01*
X97058999Y-85381719D01*
X97082545Y-85379400D01*
X104560427Y-85379400D01*
X104854600Y-85673574D01*
X104854600Y-85741915D01*
X104880709Y-85873174D01*
X104931924Y-85996816D01*
X105006276Y-86108092D01*
X105100908Y-86202724D01*
X105212184Y-86277076D01*
X105335826Y-86328291D01*
X105467085Y-86354400D01*
X105600915Y-86354400D01*
X105732174Y-86328291D01*
X105855816Y-86277076D01*
X105967092Y-86202724D01*
X106061724Y-86108092D01*
X106136076Y-85996816D01*
X106187291Y-85873174D01*
X106213400Y-85741915D01*
X106213400Y-85608085D01*
X106187291Y-85476826D01*
X106136076Y-85353184D01*
X106061724Y-85241908D01*
X105967092Y-85147276D01*
X105855816Y-85072924D01*
X105732174Y-85021709D01*
X105600915Y-84995600D01*
X105532574Y-84995600D01*
X105114643Y-84577670D01*
X105099627Y-84559373D01*
X105026629Y-84499465D01*
X104943346Y-84454950D01*
X104852979Y-84427537D01*
X104782546Y-84420600D01*
X104782545Y-84420600D01*
X104759000Y-84418281D01*
X104735455Y-84420600D01*
X97257574Y-84420600D01*
X96918400Y-84081427D01*
X96918400Y-83601272D01*
X97014816Y-83665695D01*
X97156657Y-83724448D01*
X97307236Y-83754400D01*
X97460764Y-83754400D01*
X97611343Y-83724448D01*
X97753184Y-83665695D01*
X97880838Y-83580399D01*
X97989399Y-83471838D01*
X98074695Y-83344184D01*
X98133448Y-83202343D01*
X98163400Y-83051764D01*
X98163400Y-82898236D01*
X98133448Y-82747657D01*
X98074695Y-82605816D01*
X97989399Y-82478162D01*
X97880838Y-82369601D01*
X97753184Y-82284305D01*
X97611343Y-82225552D01*
X97460764Y-82195600D01*
X97307236Y-82195600D01*
X97156657Y-82225552D01*
X97014816Y-82284305D01*
X96887162Y-82369601D01*
X96778601Y-82478162D01*
X96693305Y-82605816D01*
X96641271Y-82731435D01*
X96594587Y-82712098D01*
X96491535Y-82691600D01*
X96386465Y-82691600D01*
X96283413Y-82712098D01*
X96186340Y-82752307D01*
X96098977Y-82810681D01*
X96024681Y-82884977D01*
X95966307Y-82972340D01*
X95926098Y-83069413D01*
X95915091Y-83124749D01*
X95890023Y-83099681D01*
X95802660Y-83041307D01*
X95705587Y-83001098D01*
X95602535Y-82980600D01*
X95497465Y-82980600D01*
X95394413Y-83001098D01*
X95377000Y-83008311D01*
X95377000Y-82963265D01*
X98557321Y-79782944D01*
X100556100Y-79782944D01*
X100556100Y-79897076D01*
X100578366Y-80009015D01*
X100622043Y-80114459D01*
X100685451Y-80209356D01*
X100766154Y-80290059D01*
X100861051Y-80353467D01*
X100966495Y-80397144D01*
X101078434Y-80419410D01*
X101192566Y-80419410D01*
X101304505Y-80397144D01*
X101409949Y-80353467D01*
X101504846Y-80290059D01*
X101585549Y-80209356D01*
X101648957Y-80114459D01*
X101692634Y-80009015D01*
X101714900Y-79897076D01*
X101714900Y-79782944D01*
X101692634Y-79671005D01*
X101648957Y-79565561D01*
X101585549Y-79470664D01*
X101504846Y-79389961D01*
X101409949Y-79326553D01*
X101304505Y-79282876D01*
X101192566Y-79260610D01*
X101078434Y-79260610D01*
X100966495Y-79282876D01*
X100861051Y-79326553D01*
X100766154Y-79389961D01*
X100685451Y-79470664D01*
X100622043Y-79565561D01*
X100578366Y-79671005D01*
X100556100Y-79782944D01*
X98557321Y-79782944D01*
X99542264Y-78798001D01*
X130369249Y-78798001D01*
X130369249Y-80997999D01*
X130379447Y-81101544D01*
X130409650Y-81201109D01*
X130458697Y-81292869D01*
X130524703Y-81373297D01*
X130605131Y-81439303D01*
X130696891Y-81488350D01*
X130796456Y-81518553D01*
X130900001Y-81528751D01*
X133099999Y-81528751D01*
X133203544Y-81518553D01*
X133303109Y-81488350D01*
X133394869Y-81439303D01*
X133475297Y-81373297D01*
X133541303Y-81292869D01*
X133590350Y-81201109D01*
X133620553Y-81101544D01*
X133630751Y-80997999D01*
X133630751Y-78798001D01*
X133620553Y-78694456D01*
X133590350Y-78594891D01*
X133541303Y-78503131D01*
X133475297Y-78422703D01*
X133394869Y-78356697D01*
X133303109Y-78307650D01*
X133203544Y-78277447D01*
X133099999Y-78267249D01*
X130900001Y-78267249D01*
X130796456Y-78277447D01*
X130696891Y-78307650D01*
X130605131Y-78356697D01*
X130524703Y-78422703D01*
X130458697Y-78503131D01*
X130409650Y-78594891D01*
X130379447Y-78694456D01*
X130369249Y-78798001D01*
X99542264Y-78798001D01*
X101095906Y-77244359D01*
X101096804Y-77248874D01*
X101155557Y-77390715D01*
X101240853Y-77518369D01*
X101349414Y-77626930D01*
X101477068Y-77712226D01*
X101618909Y-77770979D01*
X101769488Y-77800931D01*
X101923016Y-77800931D01*
X102073595Y-77770979D01*
X102215436Y-77712226D01*
X102343090Y-77626930D01*
X102451651Y-77518369D01*
X102536947Y-77390715D01*
X102595700Y-77248874D01*
X102625652Y-77098295D01*
X102625652Y-76944767D01*
X102595700Y-76794188D01*
X102536947Y-76652347D01*
X102451651Y-76524693D01*
X102343090Y-76416132D01*
X102215436Y-76330836D01*
X102206175Y-76327000D01*
X106040735Y-76327000D01*
X107654408Y-77940674D01*
X107681867Y-77974133D01*
X107715332Y-78001597D01*
X107745945Y-78032210D01*
X107781943Y-78056263D01*
X107815408Y-78083727D01*
X107853587Y-78104134D01*
X107889585Y-78128187D01*
X107929585Y-78144755D01*
X107967763Y-78165162D01*
X108009190Y-78177729D01*
X108049189Y-78194297D01*
X108091650Y-78202743D01*
X108133077Y-78215310D01*
X108176159Y-78219553D01*
X108218623Y-78228000D01*
X108261920Y-78228000D01*
X108305000Y-78232243D01*
X108348079Y-78228000D01*
X109536920Y-78228000D01*
X109580000Y-78232243D01*
X109623079Y-78228000D01*
X109666377Y-78228000D01*
X109708842Y-78219553D01*
X109751922Y-78215310D01*
X109793348Y-78202744D01*
X109835811Y-78194297D01*
X109875811Y-78177729D01*
X109917237Y-78165162D01*
X109955415Y-78144755D01*
X109995415Y-78128187D01*
X110031413Y-78104134D01*
X110069592Y-78083727D01*
X110103057Y-78056263D01*
X110139055Y-78032210D01*
X110169668Y-78001597D01*
X110203133Y-77974133D01*
X110230597Y-77940668D01*
X110261210Y-77910055D01*
X110285263Y-77874057D01*
X110312727Y-77840592D01*
X110333134Y-77802413D01*
X110357187Y-77766415D01*
X110373755Y-77726415D01*
X110394162Y-77688237D01*
X110406729Y-77646811D01*
X110423297Y-77606811D01*
X110431744Y-77564348D01*
X110444310Y-77522922D01*
X110448553Y-77479842D01*
X110457000Y-77437377D01*
X110457000Y-77394079D01*
X110461243Y-77351000D01*
X110457000Y-77307921D01*
X110457000Y-77264623D01*
X110448553Y-77222158D01*
X110444310Y-77179078D01*
X110440621Y-77166915D01*
X110431743Y-77137650D01*
X110423297Y-77095189D01*
X110406729Y-77055190D01*
X110394162Y-77013763D01*
X110373756Y-76975586D01*
X110357187Y-76935585D01*
X110333134Y-76899587D01*
X110312727Y-76861408D01*
X110285263Y-76827943D01*
X110261210Y-76791945D01*
X110230599Y-76761334D01*
X110230594Y-76761328D01*
X110230592Y-76761326D01*
X110203133Y-76727867D01*
X110169674Y-76700408D01*
X108329597Y-74860332D01*
X108302133Y-74826867D01*
X108168592Y-74717273D01*
X108016237Y-74635838D01*
X107850922Y-74585690D01*
X107722079Y-74573000D01*
X107679000Y-74568757D01*
X107635921Y-74573000D01*
X106447079Y-74573000D01*
X106404000Y-74568757D01*
X106360921Y-74573000D01*
X101693079Y-74573000D01*
X101650000Y-74568757D01*
X101478077Y-74585690D01*
X101382936Y-74614551D01*
X101312763Y-74635838D01*
X101160408Y-74717273D01*
X101026867Y-74826867D01*
X100999403Y-74860332D01*
X94111735Y-81748000D01*
X91600000Y-81748000D01*
X91526451Y-81755244D01*
X91455728Y-81776697D01*
X91390550Y-81811536D01*
X91333421Y-81858421D01*
X91286536Y-81915550D01*
X91251697Y-81980728D01*
X91230244Y-82051451D01*
X91223000Y-82125000D01*
X85656400Y-82125000D01*
X85656400Y-78196074D01*
X85676709Y-78298174D01*
X85727924Y-78421816D01*
X85802276Y-78533092D01*
X85896908Y-78627724D01*
X86008184Y-78702076D01*
X86131826Y-78753291D01*
X86263085Y-78779400D01*
X86396915Y-78779400D01*
X86528174Y-78753291D01*
X86651816Y-78702076D01*
X86763092Y-78627724D01*
X86804705Y-78586111D01*
X86846318Y-78627724D01*
X86957594Y-78702076D01*
X87081236Y-78753291D01*
X87212495Y-78779400D01*
X87346325Y-78779400D01*
X87477584Y-78753291D01*
X87601226Y-78702076D01*
X87712502Y-78627724D01*
X87807134Y-78533092D01*
X87881486Y-78421816D01*
X87932701Y-78298174D01*
X87958810Y-78166915D01*
X87958810Y-78033085D01*
X87932701Y-77901826D01*
X87881486Y-77778184D01*
X87807134Y-77666908D01*
X87740226Y-77600000D01*
X87807134Y-77533092D01*
X87881486Y-77421816D01*
X87932701Y-77298174D01*
X87958810Y-77166915D01*
X87958810Y-77033085D01*
X87932701Y-76901826D01*
X87881486Y-76778184D01*
X87807134Y-76666908D01*
X87740226Y-76600000D01*
X87807134Y-76533092D01*
X87881486Y-76421816D01*
X87932701Y-76298174D01*
X87958810Y-76166915D01*
X87958810Y-76033085D01*
X87932701Y-75901826D01*
X87881486Y-75778184D01*
X87807134Y-75666908D01*
X87740226Y-75600000D01*
X87807134Y-75533092D01*
X87881486Y-75421816D01*
X87932701Y-75298174D01*
X87958810Y-75166915D01*
X87958810Y-75033085D01*
X87932701Y-74901826D01*
X87906264Y-74838001D01*
X90369249Y-74838001D01*
X90369249Y-77037999D01*
X90379447Y-77141544D01*
X90409650Y-77241109D01*
X90458697Y-77332869D01*
X90524703Y-77413297D01*
X90605131Y-77479303D01*
X90696891Y-77528350D01*
X90796456Y-77558553D01*
X90900001Y-77568751D01*
X93099999Y-77568751D01*
X93203544Y-77558553D01*
X93303109Y-77528350D01*
X93394869Y-77479303D01*
X93475297Y-77413297D01*
X93541303Y-77332869D01*
X93590350Y-77241109D01*
X93620553Y-77141544D01*
X93630751Y-77037999D01*
X93630751Y-74838001D01*
X93620553Y-74734456D01*
X93590350Y-74634891D01*
X93541303Y-74543131D01*
X93475297Y-74462703D01*
X93394869Y-74396697D01*
X93303109Y-74347650D01*
X93203544Y-74317447D01*
X93099999Y-74307249D01*
X90900001Y-74307249D01*
X90796456Y-74317447D01*
X90696891Y-74347650D01*
X90605131Y-74396697D01*
X90524703Y-74462703D01*
X90458697Y-74543131D01*
X90409650Y-74634891D01*
X90379447Y-74734456D01*
X90369249Y-74838001D01*
X87906264Y-74838001D01*
X87881486Y-74778184D01*
X87807134Y-74666908D01*
X87712502Y-74572276D01*
X87601226Y-74497924D01*
X87477584Y-74446709D01*
X87346325Y-74420600D01*
X87212495Y-74420600D01*
X87081236Y-74446709D01*
X86957594Y-74497924D01*
X86846318Y-74572276D01*
X86804705Y-74613889D01*
X86763092Y-74572276D01*
X86651816Y-74497924D01*
X86528174Y-74446709D01*
X86396915Y-74420600D01*
X86263085Y-74420600D01*
X86131826Y-74446709D01*
X86008184Y-74497924D01*
X85896908Y-74572276D01*
X85802276Y-74666908D01*
X85727924Y-74778184D01*
X85676709Y-74901826D01*
X85656400Y-75003926D01*
X85656400Y-64196074D01*
X85676709Y-64298174D01*
X85727924Y-64421816D01*
X85802276Y-64533092D01*
X85896908Y-64627724D01*
X86008184Y-64702076D01*
X86131826Y-64753291D01*
X86263085Y-64779400D01*
X86396915Y-64779400D01*
X86528174Y-64753291D01*
X86651816Y-64702076D01*
X86763092Y-64627724D01*
X86804705Y-64586111D01*
X86846318Y-64627724D01*
X86957594Y-64702076D01*
X87081236Y-64753291D01*
X87212495Y-64779400D01*
X87346325Y-64779400D01*
X87477584Y-64753291D01*
X87601226Y-64702076D01*
X87712502Y-64627724D01*
X87807134Y-64533092D01*
X87881486Y-64421816D01*
X87932701Y-64298174D01*
X87958810Y-64166915D01*
X87958810Y-64033085D01*
X87932701Y-63901826D01*
X87881486Y-63778184D01*
X87807134Y-63666908D01*
X87740226Y-63600000D01*
X87807134Y-63533092D01*
X87881486Y-63421816D01*
X87932701Y-63298174D01*
X87958810Y-63166915D01*
X87958810Y-63033085D01*
X87932701Y-62901826D01*
X87881486Y-62778184D01*
X87807134Y-62666908D01*
X87740226Y-62600000D01*
X87807134Y-62533092D01*
X87881486Y-62421816D01*
X87932701Y-62298174D01*
X87958810Y-62166915D01*
X87958810Y-62033085D01*
X87932701Y-61901826D01*
X87881486Y-61778184D01*
X87807134Y-61666908D01*
X87740226Y-61600000D01*
X87807134Y-61533092D01*
X87881486Y-61421816D01*
X87932701Y-61298174D01*
X87958810Y-61166915D01*
X87958810Y-61033085D01*
X87932701Y-60901826D01*
X87906264Y-60838001D01*
X90369249Y-60838001D01*
X90369249Y-63037999D01*
X90379447Y-63141544D01*
X90409650Y-63241109D01*
X90458697Y-63332869D01*
X90524703Y-63413297D01*
X90605131Y-63479303D01*
X90696891Y-63528350D01*
X90796456Y-63558553D01*
X90900001Y-63568751D01*
X93099999Y-63568751D01*
X93203544Y-63558553D01*
X93303109Y-63528350D01*
X93394869Y-63479303D01*
X93475297Y-63413297D01*
X93541303Y-63332869D01*
X93590350Y-63241109D01*
X93620553Y-63141544D01*
X93630751Y-63037999D01*
X93630751Y-60838001D01*
X93620553Y-60734456D01*
X93590350Y-60634891D01*
X93541303Y-60543131D01*
X93475297Y-60462703D01*
X93394869Y-60396697D01*
X93303109Y-60347650D01*
X93203544Y-60317447D01*
X93099999Y-60307249D01*
X90900001Y-60307249D01*
X90796456Y-60317447D01*
X90696891Y-60347650D01*
X90605131Y-60396697D01*
X90524703Y-60462703D01*
X90458697Y-60543131D01*
X90409650Y-60634891D01*
X90379447Y-60734456D01*
X90369249Y-60838001D01*
X87906264Y-60838001D01*
X87881486Y-60778184D01*
X87807134Y-60666908D01*
X87712502Y-60572276D01*
X87601226Y-60497924D01*
X87477584Y-60446709D01*
X87346325Y-60420600D01*
X87212495Y-60420600D01*
X87081236Y-60446709D01*
X86957594Y-60497924D01*
X86846318Y-60572276D01*
X86804705Y-60613889D01*
X86763092Y-60572276D01*
X86651816Y-60497924D01*
X86528174Y-60446709D01*
X86396915Y-60420600D01*
X86263085Y-60420600D01*
X86131826Y-60446709D01*
X86008184Y-60497924D01*
X85896908Y-60572276D01*
X85802276Y-60666908D01*
X85727924Y-60778184D01*
X85676709Y-60901826D01*
X85656400Y-61003926D01*
X85656400Y-54618336D01*
X86820034Y-53454703D01*
X86816395Y-53463488D01*
X86782600Y-53633387D01*
X86782600Y-53806613D01*
X86816395Y-53976512D01*
X86882686Y-54136552D01*
X86978925Y-54280585D01*
X87101415Y-54403075D01*
X87245448Y-54499314D01*
X87405488Y-54565605D01*
X87575387Y-54599400D01*
X87748613Y-54599400D01*
X87918512Y-54565605D01*
X88078552Y-54499314D01*
X88222585Y-54403075D01*
X88345075Y-54280585D01*
X88441314Y-54136552D01*
X88507605Y-53976512D01*
X88541400Y-53806613D01*
X88541400Y-53633387D01*
X88507605Y-53463488D01*
X88441314Y-53303448D01*
X88345075Y-53159415D01*
X88328060Y-53142400D01*
X88626047Y-53142400D01*
X88646000Y-53144365D01*
X88665953Y-53142400D01*
X88665960Y-53142400D01*
X88725668Y-53136519D01*
X88802275Y-53113281D01*
X88872876Y-53075544D01*
X88934758Y-53024758D01*
X88947482Y-53009254D01*
X89395336Y-52561400D01*
X89405488Y-52565605D01*
X89575387Y-52599400D01*
X89748613Y-52599400D01*
X89918512Y-52565605D01*
X90078552Y-52499314D01*
X90222585Y-52403075D01*
X90345075Y-52280585D01*
X90441314Y-52136552D01*
X90507605Y-51976512D01*
X90541400Y-51806613D01*
X90541400Y-51633387D01*
X90507605Y-51463488D01*
X90441314Y-51303448D01*
X90345075Y-51159415D01*
X90222585Y-51036925D01*
X90078552Y-50940686D01*
X89918512Y-50874395D01*
X89748613Y-50840600D01*
X89575387Y-50840600D01*
X89405488Y-50874395D01*
X89245448Y-50940686D01*
X89101415Y-51036925D01*
X88978925Y-51159415D01*
X88882686Y-51303448D01*
X88816395Y-51463488D01*
X88782600Y-51633387D01*
X88782600Y-51806613D01*
X88816395Y-51976512D01*
X88820600Y-51986664D01*
X88477664Y-52329600D01*
X88296060Y-52329600D01*
X88345075Y-52280585D01*
X88441314Y-52136552D01*
X88507605Y-51976512D01*
X88541400Y-51806613D01*
X88541400Y-51633387D01*
X88507605Y-51463488D01*
X88441314Y-51303448D01*
X88345075Y-51159415D01*
X88265060Y-51079400D01*
X88689047Y-51079400D01*
X88709000Y-51081365D01*
X88728953Y-51079400D01*
X88728960Y-51079400D01*
X88788668Y-51073519D01*
X88865275Y-51050281D01*
X88935876Y-51012544D01*
X88997758Y-50961758D01*
X89010482Y-50946254D01*
X89363483Y-50593254D01*
X89363487Y-50593249D01*
X89395336Y-50561400D01*
X89405488Y-50565605D01*
X89575387Y-50599400D01*
X89748613Y-50599400D01*
X89918512Y-50565605D01*
X90078552Y-50499314D01*
X90222585Y-50403075D01*
X90345075Y-50280585D01*
X90441314Y-50136552D01*
X90507605Y-49976512D01*
X90541400Y-49806613D01*
X90541400Y-49633387D01*
X90507605Y-49463488D01*
X90441314Y-49303448D01*
X90345075Y-49159415D01*
X90222585Y-49036925D01*
X90078552Y-48940686D01*
X89918512Y-48874395D01*
X89748613Y-48840600D01*
X89575387Y-48840600D01*
X89405488Y-48874395D01*
X89245448Y-48940686D01*
X89101415Y-49036925D01*
X88978925Y-49159415D01*
X88882686Y-49303448D01*
X88816395Y-49463488D01*
X88782600Y-49633387D01*
X88782600Y-49806613D01*
X88816395Y-49976512D01*
X88820600Y-49986664D01*
X88788751Y-50018513D01*
X88788746Y-50018517D01*
X88540664Y-50266600D01*
X87014952Y-50266600D01*
X86994999Y-50264635D01*
X86975046Y-50266600D01*
X86975040Y-50266600D01*
X86923335Y-50271693D01*
X86915331Y-50272481D01*
X86838725Y-50295719D01*
X86768124Y-50333456D01*
X86742746Y-50354283D01*
X86721745Y-50371518D01*
X86721740Y-50371523D01*
X86706242Y-50384242D01*
X86693523Y-50399740D01*
X81776741Y-55316523D01*
X81761243Y-55329242D01*
X81748524Y-55344740D01*
X81748518Y-55344746D01*
X81730630Y-55366543D01*
X81710457Y-55391124D01*
X81698227Y-55414005D01*
X81672719Y-55461726D01*
X81649481Y-55538332D01*
X81641635Y-55618000D01*
X80438552Y-55618000D01*
X80485130Y-55598707D01*
X80666014Y-55477844D01*
X80819844Y-55324014D01*
X80940707Y-55143130D01*
X81023959Y-54942142D01*
X81066400Y-54728774D01*
X81066400Y-54511226D01*
X81023959Y-54297858D01*
X80940707Y-54096870D01*
X80819844Y-53915986D01*
X80666014Y-53762156D01*
X80485130Y-53641293D01*
X80284142Y-53558041D01*
X80070774Y-53515600D01*
X79853226Y-53515600D01*
X79639858Y-53558041D01*
X79438870Y-53641293D01*
X79257986Y-53762156D01*
X79104156Y-53915986D01*
X78983293Y-54096870D01*
X78900041Y-54297858D01*
X78857600Y-54511226D01*
X78856400Y-54511226D01*
X78856400Y-53223660D01*
X84456286Y-47623774D01*
X86685000Y-47623774D01*
X86685000Y-47816226D01*
X86722546Y-48004980D01*
X86796194Y-48182783D01*
X86903115Y-48342801D01*
X87039199Y-48478885D01*
X87199217Y-48585806D01*
X87377020Y-48659454D01*
X87565774Y-48697000D01*
X87758226Y-48697000D01*
X87946980Y-48659454D01*
X88124783Y-48585806D01*
X88284801Y-48478885D01*
X88420885Y-48342801D01*
X88527806Y-48182783D01*
X88601454Y-48004980D01*
X88639000Y-47816226D01*
X88639000Y-47623774D01*
X88601454Y-47435020D01*
X88527806Y-47257217D01*
X88420885Y-47097199D01*
X88284801Y-46961115D01*
X88124783Y-46854194D01*
X87946980Y-46780546D01*
X87758226Y-46743000D01*
X87565774Y-46743000D01*
X87377020Y-46780546D01*
X87199217Y-46854194D01*
X87039199Y-46961115D01*
X86903115Y-47097199D01*
X86796194Y-47257217D01*
X86722546Y-47435020D01*
X86685000Y-47623774D01*
X84456286Y-47623774D01*
X86777350Y-45302710D01*
X86722546Y-45435020D01*
X86685000Y-45623774D01*
X86685000Y-45816226D01*
X86722546Y-46004980D01*
X86796194Y-46182783D01*
X86903115Y-46342801D01*
X87039199Y-46478885D01*
X87199217Y-46585806D01*
X87377020Y-46659454D01*
X87565774Y-46697000D01*
X87758226Y-46697000D01*
X87946980Y-46659454D01*
X88124783Y-46585806D01*
X88284801Y-46478885D01*
X88420885Y-46342801D01*
X88527806Y-46182783D01*
X88601454Y-46004980D01*
X88639000Y-45816226D01*
X88639000Y-45623774D01*
X88601454Y-45435020D01*
X88527806Y-45257217D01*
X88420885Y-45097199D01*
X88284801Y-44961115D01*
X88124783Y-44854194D01*
X87992471Y-44799389D01*
X90325653Y-44799389D01*
X90852812Y-45326548D01*
X90843119Y-45321367D01*
X90762177Y-45296814D01*
X90699087Y-45290600D01*
X90699080Y-45290600D01*
X90678000Y-45288524D01*
X90656920Y-45290600D01*
X90534931Y-45290600D01*
X90532553Y-45266455D01*
X90502350Y-45166890D01*
X90453303Y-45075130D01*
X90387298Y-44994702D01*
X90306870Y-44928697D01*
X90215110Y-44879650D01*
X90115545Y-44849447D01*
X90012001Y-44839249D01*
X89311999Y-44839249D01*
X89208455Y-44849447D01*
X89108890Y-44879650D01*
X89017130Y-44928697D01*
X88936702Y-44994702D01*
X88870697Y-45075130D01*
X88821650Y-45166890D01*
X88791447Y-45266455D01*
X88781249Y-45369999D01*
X88781249Y-46070001D01*
X88791447Y-46173545D01*
X88821650Y-46273110D01*
X88870697Y-46364870D01*
X88936702Y-46445298D01*
X89017130Y-46511303D01*
X89108890Y-46560350D01*
X89208455Y-46590553D01*
X89311999Y-46600751D01*
X90012001Y-46600751D01*
X90115545Y-46590553D01*
X90215110Y-46560350D01*
X90306870Y-46511303D01*
X90387298Y-46445298D01*
X90453303Y-46364870D01*
X90502350Y-46273110D01*
X90530628Y-46179890D01*
X91772600Y-47421864D01*
X91772601Y-49262664D01*
X91747493Y-49232070D01*
X91741482Y-49224745D01*
X91741477Y-49224740D01*
X91728758Y-49209242D01*
X91713261Y-49196524D01*
X90563484Y-48046748D01*
X90563481Y-48046744D01*
X90503400Y-47986663D01*
X90507605Y-47976512D01*
X90541400Y-47806613D01*
X90541400Y-47633387D01*
X90507605Y-47463488D01*
X90441314Y-47303448D01*
X90345075Y-47159415D01*
X90222585Y-47036925D01*
X90078552Y-46940686D01*
X89918512Y-46874395D01*
X89748613Y-46840600D01*
X89575387Y-46840600D01*
X89405488Y-46874395D01*
X89245448Y-46940686D01*
X89101415Y-47036925D01*
X88978925Y-47159415D01*
X88882686Y-47303448D01*
X88816395Y-47463488D01*
X88782600Y-47633387D01*
X88782600Y-47806613D01*
X88816395Y-47976512D01*
X88882686Y-48136552D01*
X88978925Y-48280585D01*
X89101415Y-48403075D01*
X89245448Y-48499314D01*
X89405488Y-48565605D01*
X89575387Y-48599400D01*
X89748613Y-48599400D01*
X89918512Y-48565605D01*
X89928663Y-48561400D01*
X89988744Y-48621481D01*
X89988748Y-48621484D01*
X91033600Y-49666337D01*
X91033601Y-51117767D01*
X91033600Y-51117777D01*
X91033600Y-51149005D01*
X90989951Y-51192654D01*
X90926543Y-51287551D01*
X90882866Y-51392995D01*
X90860600Y-51504934D01*
X90860600Y-51619066D01*
X90882866Y-51731005D01*
X90926543Y-51836449D01*
X90989951Y-51931346D01*
X91070654Y-52012049D01*
X91165551Y-52075457D01*
X91270995Y-52119134D01*
X91382934Y-52141400D01*
X91497066Y-52141400D01*
X91529861Y-52134877D01*
X91412138Y-52252600D01*
X91382934Y-52252600D01*
X91270995Y-52274866D01*
X91165551Y-52318543D01*
X91070654Y-52381951D01*
X90989951Y-52462654D01*
X90926543Y-52557551D01*
X90882866Y-52662995D01*
X90860600Y-52774934D01*
X90860600Y-52889066D01*
X90882866Y-53001005D01*
X90926543Y-53106449D01*
X90989951Y-53201346D01*
X91070654Y-53282049D01*
X91165551Y-53345457D01*
X91270995Y-53389134D01*
X91382934Y-53411400D01*
X91497066Y-53411400D01*
X91609005Y-53389134D01*
X91714449Y-53345457D01*
X91809346Y-53282049D01*
X91890049Y-53201346D01*
X91953457Y-53106449D01*
X91997134Y-53001005D01*
X92019400Y-52889066D01*
X92019400Y-52859862D01*
X93400799Y-51478464D01*
X93450913Y-51483400D01*
X93450919Y-51483400D01*
X93471999Y-51485476D01*
X93493079Y-51483400D01*
X95368005Y-51483400D01*
X95388654Y-51504049D01*
X95483551Y-51567457D01*
X95582600Y-51608485D01*
X95582601Y-55490004D01*
X95561951Y-55510654D01*
X95498543Y-55605551D01*
X95454866Y-55710995D01*
X95432600Y-55822934D01*
X95432600Y-55937066D01*
X95454866Y-56049005D01*
X95498543Y-56154449D01*
X95561951Y-56249346D01*
X95642654Y-56330049D01*
X95737551Y-56393457D01*
X95842995Y-56437134D01*
X95954934Y-56459400D01*
X96069066Y-56459400D01*
X96181005Y-56437134D01*
X96286449Y-56393457D01*
X96381346Y-56330049D01*
X96462049Y-56249346D01*
X96525457Y-56154449D01*
X96569134Y-56049005D01*
X96591400Y-55937066D01*
X96591400Y-55822934D01*
X96569134Y-55710995D01*
X96525457Y-55605551D01*
X96462049Y-55510654D01*
X96441400Y-55490005D01*
X96441400Y-51329079D01*
X96443476Y-51307999D01*
X96441400Y-51286919D01*
X96441400Y-51286913D01*
X96435186Y-51223823D01*
X96410633Y-51142881D01*
X96370760Y-51068284D01*
X96337400Y-51027635D01*
X96337400Y-50996934D01*
X96315134Y-50884995D01*
X96271457Y-50779551D01*
X96208049Y-50684654D01*
X96127346Y-50603951D01*
X96032449Y-50540543D01*
X95927005Y-50496866D01*
X95815066Y-50474600D01*
X95700934Y-50474600D01*
X95588995Y-50496866D01*
X95483551Y-50540543D01*
X95388654Y-50603951D01*
X95368005Y-50624600D01*
X93649864Y-50624600D01*
X92631400Y-49606138D01*
X92631400Y-47265079D01*
X92633476Y-47243999D01*
X92631400Y-47222919D01*
X92631400Y-47222913D01*
X92625186Y-47159823D01*
X92625063Y-47159415D01*
X92617738Y-47135269D01*
X92600633Y-47078881D01*
X92560760Y-47004284D01*
X92525332Y-46961115D01*
X92520542Y-46955278D01*
X92520538Y-46955274D01*
X92507100Y-46938900D01*
X92490727Y-46925463D01*
X92118663Y-46553400D01*
X92132066Y-46553400D01*
X92244005Y-46531134D01*
X92349449Y-46487457D01*
X92444346Y-46424049D01*
X92525049Y-46343346D01*
X92588457Y-46248449D01*
X92632134Y-46143005D01*
X92654400Y-46031066D01*
X92654400Y-45916934D01*
X92632134Y-45804995D01*
X92588457Y-45699551D01*
X92525049Y-45604654D01*
X92444346Y-45523951D01*
X92349449Y-45460543D01*
X92244005Y-45416866D01*
X92132066Y-45394600D01*
X92070336Y-45394600D01*
X90795471Y-44119735D01*
X90782747Y-44104231D01*
X90720865Y-44053445D01*
X90650264Y-44015708D01*
X90573657Y-43992470D01*
X90513949Y-43986589D01*
X90513942Y-43986589D01*
X90493989Y-43984624D01*
X90474036Y-43986589D01*
X87132287Y-43986589D01*
X87112334Y-43984624D01*
X87092381Y-43986589D01*
X87092375Y-43986589D01*
X87040670Y-43991682D01*
X87032666Y-43992470D01*
X87009428Y-43999519D01*
X86956060Y-44015708D01*
X86885459Y-44053445D01*
X86823577Y-44104231D01*
X86810853Y-44119735D01*
X78176741Y-52753847D01*
X78161243Y-52766566D01*
X78148524Y-52782064D01*
X78148518Y-52782070D01*
X78130000Y-52804635D01*
X78110457Y-52828448D01*
X78106571Y-52835719D01*
X78072719Y-52899050D01*
X78049481Y-52975656D01*
X78041635Y-53055324D01*
X77660400Y-53055324D01*
X77660400Y-44711226D01*
X78857600Y-44711226D01*
X78857600Y-44928774D01*
X78900041Y-45142142D01*
X78983293Y-45343130D01*
X79104156Y-45524014D01*
X79257986Y-45677844D01*
X79438870Y-45798707D01*
X79639858Y-45881959D01*
X79853226Y-45924400D01*
X80070774Y-45924400D01*
X80284142Y-45881959D01*
X80485130Y-45798707D01*
X80666014Y-45677844D01*
X80819844Y-45524014D01*
X80940707Y-45343130D01*
X81023959Y-45142142D01*
X81066400Y-44928774D01*
X81066400Y-44711226D01*
X81023959Y-44497858D01*
X80940707Y-44296870D01*
X80819844Y-44115986D01*
X80666014Y-43962156D01*
X80485130Y-43841293D01*
X80284142Y-43758041D01*
X80070774Y-43715600D01*
X79853226Y-43715600D01*
X79639858Y-43758041D01*
X79438870Y-43841293D01*
X79257986Y-43962156D01*
X79104156Y-44115986D01*
X78983293Y-44296870D01*
X78900041Y-44497858D01*
X78857600Y-44711226D01*
X77660400Y-44711226D01*
X77660400Y-41979934D01*
X83748600Y-41979934D01*
X83748600Y-42094066D01*
X83770866Y-42206005D01*
X83814543Y-42311449D01*
X83877951Y-42406346D01*
X83958654Y-42487049D01*
X84053551Y-42550457D01*
X84158995Y-42594134D01*
X84270934Y-42616400D01*
X84385066Y-42616400D01*
X84497005Y-42594134D01*
X84602449Y-42550457D01*
X84697346Y-42487049D01*
X84740995Y-42443400D01*
X93468664Y-42443400D01*
X97383600Y-46358337D01*
X97383600Y-49188677D01*
X97367544Y-49158638D01*
X97342436Y-49128044D01*
X97329482Y-49112259D01*
X97329477Y-49112254D01*
X97316758Y-49096756D01*
X97301261Y-49084038D01*
X92735400Y-44518178D01*
X92735400Y-43979561D01*
X92762092Y-43961726D01*
X92856724Y-43867094D01*
X92931076Y-43755818D01*
X92982291Y-43632176D01*
X93008400Y-43500917D01*
X93008400Y-43367087D01*
X92982291Y-43235828D01*
X92931076Y-43112186D01*
X92856724Y-43000910D01*
X92762092Y-42906278D01*
X92650816Y-42831926D01*
X92527174Y-42780711D01*
X92395915Y-42754602D01*
X92262085Y-42754602D01*
X92130826Y-42780711D01*
X92007184Y-42831926D01*
X91895908Y-42906278D01*
X91801276Y-43000910D01*
X91726924Y-43112186D01*
X91675709Y-43235828D01*
X91649600Y-43367087D01*
X91649600Y-43500917D01*
X91675709Y-43632176D01*
X91726924Y-43755818D01*
X91801276Y-43867094D01*
X91895908Y-43961726D01*
X91922600Y-43979561D01*
X91922601Y-44666552D01*
X91920635Y-44686514D01*
X91928481Y-44766182D01*
X91951719Y-44842788D01*
X91957816Y-44854194D01*
X91989457Y-44913390D01*
X92002083Y-44928774D01*
X92027518Y-44959768D01*
X92027524Y-44959774D01*
X92040243Y-44975272D01*
X92055741Y-44987991D01*
X96621600Y-49553851D01*
X96621601Y-54336037D01*
X96619635Y-54356000D01*
X96627481Y-54435668D01*
X96650719Y-54512274D01*
X96650720Y-54512275D01*
X96688457Y-54582876D01*
X96702018Y-54599400D01*
X96726518Y-54629254D01*
X96726524Y-54629260D01*
X96739243Y-54644758D01*
X96754741Y-54657477D01*
X97510600Y-55413337D01*
X97510601Y-68947035D01*
X97508635Y-68966998D01*
X97516481Y-69046666D01*
X97539719Y-69123272D01*
X97539720Y-69123273D01*
X97577457Y-69193874D01*
X97594549Y-69214700D01*
X97615518Y-69240252D01*
X97615524Y-69240258D01*
X97628243Y-69255756D01*
X97643741Y-69268475D01*
X100776865Y-72401599D01*
X100770602Y-72433085D01*
X100770602Y-72566915D01*
X100796711Y-72698174D01*
X100847926Y-72821816D01*
X100922278Y-72933092D01*
X101016910Y-73027724D01*
X101128186Y-73102076D01*
X101251828Y-73153291D01*
X101383087Y-73179400D01*
X101516917Y-73179400D01*
X101648176Y-73153291D01*
X101771818Y-73102076D01*
X101883094Y-73027724D01*
X101977726Y-72933092D01*
X102052078Y-72821816D01*
X102103293Y-72698174D01*
X102129402Y-72566915D01*
X102129402Y-72433085D01*
X102103293Y-72301826D01*
X102052078Y-72178184D01*
X101977726Y-72066908D01*
X101883094Y-71972276D01*
X101771818Y-71897924D01*
X101648176Y-71846709D01*
X101516917Y-71820600D01*
X101383087Y-71820600D01*
X101351601Y-71826863D01*
X98323400Y-68798662D01*
X98323400Y-55264953D01*
X98325365Y-55245000D01*
X98323400Y-55225047D01*
X98323400Y-55225040D01*
X98317519Y-55165332D01*
X98312042Y-55147274D01*
X98294281Y-55088725D01*
X98256544Y-55018124D01*
X98248107Y-55007844D01*
X98399600Y-55159337D01*
X98399601Y-61829037D01*
X98397635Y-61849000D01*
X98405481Y-61928668D01*
X98428719Y-62005274D01*
X98443585Y-62033085D01*
X98466457Y-62075876D01*
X98483549Y-62096702D01*
X98504518Y-62122254D01*
X98504524Y-62122260D01*
X98517243Y-62137758D01*
X98532741Y-62150477D01*
X112220518Y-75838254D01*
X112233242Y-75853758D01*
X112295124Y-75904544D01*
X112365725Y-75942281D01*
X112424502Y-75960110D01*
X112442331Y-75965519D01*
X112450335Y-75966307D01*
X112502040Y-75971400D01*
X112502046Y-75971400D01*
X112521999Y-75973365D01*
X112541952Y-75971400D01*
X114903005Y-75971400D01*
X114946654Y-76015049D01*
X115041551Y-76078457D01*
X115146995Y-76122134D01*
X115258934Y-76144400D01*
X115373066Y-76144400D01*
X115485005Y-76122134D01*
X115590449Y-76078457D01*
X115685346Y-76015049D01*
X115766049Y-75934346D01*
X115829457Y-75839449D01*
X115873134Y-75734005D01*
X115895400Y-75622066D01*
X115895400Y-75507934D01*
X115873134Y-75395995D01*
X115829457Y-75290551D01*
X115766049Y-75195654D01*
X115685346Y-75114951D01*
X115590449Y-75051543D01*
X115485005Y-75007866D01*
X115373066Y-74985600D01*
X115258934Y-74985600D01*
X115146995Y-75007866D01*
X115041551Y-75051543D01*
X114946654Y-75114951D01*
X114903005Y-75158600D01*
X112690336Y-75158600D01*
X112363670Y-74831934D01*
X119540600Y-74831934D01*
X119540600Y-74946066D01*
X119562866Y-75058005D01*
X119606543Y-75163449D01*
X119669951Y-75258346D01*
X119750654Y-75339049D01*
X119845551Y-75402457D01*
X119950995Y-75446134D01*
X120062934Y-75468400D01*
X120177066Y-75468400D01*
X120289005Y-75446134D01*
X120394449Y-75402457D01*
X120489346Y-75339049D01*
X120570049Y-75258346D01*
X120633457Y-75163449D01*
X120677134Y-75058005D01*
X120699400Y-74946066D01*
X120699400Y-74831934D01*
X120677134Y-74719995D01*
X120633457Y-74614551D01*
X120570049Y-74519654D01*
X120489346Y-74438951D01*
X120394449Y-74375543D01*
X120289005Y-74331866D01*
X120177066Y-74309600D01*
X120062934Y-74309600D01*
X119950995Y-74331866D01*
X119845551Y-74375543D01*
X119750654Y-74438951D01*
X119669951Y-74519654D01*
X119606543Y-74614551D01*
X119562866Y-74719995D01*
X119540600Y-74831934D01*
X112363670Y-74831934D01*
X111345359Y-73813623D01*
X114023000Y-73813623D01*
X114023000Y-73986377D01*
X114056703Y-74155811D01*
X114122813Y-74315415D01*
X114218790Y-74459055D01*
X114340945Y-74581210D01*
X114484585Y-74677187D01*
X114644189Y-74743297D01*
X114813623Y-74777000D01*
X114986377Y-74777000D01*
X115155811Y-74743297D01*
X115315415Y-74677187D01*
X115459055Y-74581210D01*
X115581210Y-74459055D01*
X115677187Y-74315415D01*
X115743297Y-74155811D01*
X115771687Y-74013085D01*
X135500010Y-74013085D01*
X135500010Y-74146915D01*
X135526119Y-74278174D01*
X135577334Y-74401816D01*
X135651686Y-74513092D01*
X135718594Y-74580000D01*
X135651686Y-74646908D01*
X135577334Y-74758184D01*
X135526119Y-74881826D01*
X135500010Y-75013085D01*
X135500010Y-75146915D01*
X135526119Y-75278174D01*
X135577334Y-75401816D01*
X135651686Y-75513092D01*
X135718594Y-75580000D01*
X135651686Y-75646908D01*
X135577334Y-75758184D01*
X135526119Y-75881826D01*
X135500010Y-76013085D01*
X135500010Y-76146915D01*
X135526119Y-76278174D01*
X135577334Y-76401816D01*
X135651686Y-76513092D01*
X135718594Y-76580000D01*
X135651686Y-76646908D01*
X135577334Y-76758184D01*
X135526119Y-76881826D01*
X135500010Y-77013085D01*
X135500010Y-77146915D01*
X135526119Y-77278174D01*
X135577334Y-77401816D01*
X135651686Y-77513092D01*
X135746318Y-77607724D01*
X135857594Y-77682076D01*
X135981236Y-77733291D01*
X136112495Y-77759400D01*
X136246325Y-77759400D01*
X136377584Y-77733291D01*
X136501226Y-77682076D01*
X136612502Y-77607724D01*
X136679410Y-77540816D01*
X136746318Y-77607724D01*
X136857594Y-77682076D01*
X136981236Y-77733291D01*
X137112495Y-77759400D01*
X137246325Y-77759400D01*
X137377584Y-77733291D01*
X137501226Y-77682076D01*
X137612502Y-77607724D01*
X137707134Y-77513092D01*
X137781486Y-77401816D01*
X137832701Y-77278174D01*
X137858810Y-77146915D01*
X137858810Y-77013085D01*
X137832701Y-76881826D01*
X137781486Y-76758184D01*
X137707134Y-76646908D01*
X137640226Y-76580000D01*
X137707134Y-76513092D01*
X137781486Y-76401816D01*
X137832701Y-76278174D01*
X137858810Y-76146915D01*
X137858810Y-76013085D01*
X137832701Y-75881826D01*
X137781486Y-75758184D01*
X137707134Y-75646908D01*
X137640226Y-75580000D01*
X137707134Y-75513092D01*
X137781486Y-75401816D01*
X137832701Y-75278174D01*
X137858810Y-75146915D01*
X137858810Y-75013085D01*
X137832701Y-74881826D01*
X137781486Y-74758184D01*
X137707134Y-74646908D01*
X137640226Y-74580000D01*
X137707134Y-74513092D01*
X137781486Y-74401816D01*
X137832701Y-74278174D01*
X137858810Y-74146915D01*
X137858810Y-74013085D01*
X137832701Y-73881826D01*
X137781486Y-73758184D01*
X137707134Y-73646908D01*
X137612502Y-73552276D01*
X137501226Y-73477924D01*
X137377584Y-73426709D01*
X137246325Y-73400600D01*
X137112495Y-73400600D01*
X136981236Y-73426709D01*
X136857594Y-73477924D01*
X136746318Y-73552276D01*
X136679410Y-73619184D01*
X136612502Y-73552276D01*
X136501226Y-73477924D01*
X136377584Y-73426709D01*
X136246325Y-73400600D01*
X136112495Y-73400600D01*
X135981236Y-73426709D01*
X135857594Y-73477924D01*
X135746318Y-73552276D01*
X135651686Y-73646908D01*
X135577334Y-73758184D01*
X135526119Y-73881826D01*
X135500010Y-74013085D01*
X115771687Y-74013085D01*
X115777000Y-73986377D01*
X115777000Y-73813623D01*
X115743297Y-73644189D01*
X115677187Y-73484585D01*
X115581210Y-73340945D01*
X115459055Y-73218790D01*
X115315415Y-73122813D01*
X115155811Y-73056703D01*
X114986377Y-73023000D01*
X114813623Y-73023000D01*
X114644189Y-73056703D01*
X114484585Y-73122813D01*
X114340945Y-73218790D01*
X114218790Y-73340945D01*
X114122813Y-73484585D01*
X114056703Y-73644189D01*
X114023000Y-73813623D01*
X111345359Y-73813623D01*
X99212400Y-61680664D01*
X99212400Y-55010953D01*
X99214365Y-54991000D01*
X99212400Y-54971047D01*
X99212400Y-54971040D01*
X99206519Y-54911332D01*
X99195697Y-54875654D01*
X99183281Y-54834725D01*
X99162021Y-54794951D01*
X99145544Y-54764124D01*
X99124717Y-54738746D01*
X99107482Y-54717745D01*
X99107477Y-54717740D01*
X99094758Y-54702242D01*
X99079261Y-54689524D01*
X98196400Y-53806664D01*
X98196400Y-53559136D01*
X99923601Y-55286338D01*
X99923600Y-61956047D01*
X99921635Y-61976000D01*
X99923600Y-61995953D01*
X99923600Y-61995959D01*
X99924518Y-62005275D01*
X99929481Y-62055668D01*
X99952719Y-62132274D01*
X99990456Y-62202875D01*
X100041242Y-62264758D01*
X100056746Y-62277482D01*
X109680518Y-71901254D01*
X109693242Y-71916758D01*
X109755124Y-71967544D01*
X109825725Y-72005281D01*
X109879093Y-72021470D01*
X109902331Y-72028519D01*
X109910335Y-72029307D01*
X109962040Y-72034400D01*
X109962046Y-72034400D01*
X109981999Y-72036365D01*
X110001952Y-72034400D01*
X110458005Y-72034400D01*
X110501654Y-72078049D01*
X110596551Y-72141457D01*
X110701995Y-72185134D01*
X110813934Y-72207400D01*
X110928066Y-72207400D01*
X111040005Y-72185134D01*
X111145449Y-72141457D01*
X111240346Y-72078049D01*
X111321049Y-71997346D01*
X111384457Y-71902449D01*
X111428134Y-71797005D01*
X111450400Y-71685066D01*
X111450400Y-71678472D01*
X112126000Y-71678472D01*
X112126000Y-71831528D01*
X112155859Y-71981643D01*
X112214431Y-72123048D01*
X112299464Y-72250309D01*
X112407691Y-72358536D01*
X112534952Y-72443569D01*
X112676357Y-72502141D01*
X112826472Y-72532000D01*
X112979528Y-72532000D01*
X113129643Y-72502141D01*
X113271048Y-72443569D01*
X113398309Y-72358536D01*
X113506536Y-72250309D01*
X113591569Y-72123048D01*
X113650141Y-71981643D01*
X113680000Y-71831528D01*
X113680000Y-71678472D01*
X113650141Y-71528357D01*
X113591569Y-71386952D01*
X113506536Y-71259691D01*
X113398309Y-71151464D01*
X113271048Y-71066431D01*
X113129643Y-71007859D01*
X112979528Y-70978000D01*
X112826472Y-70978000D01*
X112676357Y-71007859D01*
X112534952Y-71066431D01*
X112407691Y-71151464D01*
X112299464Y-71259691D01*
X112214431Y-71386952D01*
X112155859Y-71528357D01*
X112126000Y-71678472D01*
X111450400Y-71678472D01*
X111450400Y-71570934D01*
X111428134Y-71458995D01*
X111384457Y-71353551D01*
X111321049Y-71258654D01*
X111240346Y-71177951D01*
X111145449Y-71114543D01*
X111040005Y-71070866D01*
X110928066Y-71048600D01*
X110813934Y-71048600D01*
X110701995Y-71070866D01*
X110596551Y-71114543D01*
X110501654Y-71177951D01*
X110458005Y-71221600D01*
X110150336Y-71221600D01*
X109247736Y-70319000D01*
X109396528Y-70319000D01*
X109546643Y-70289141D01*
X109688048Y-70230569D01*
X109815309Y-70145536D01*
X109923536Y-70037309D01*
X110008569Y-69910048D01*
X110067141Y-69768643D01*
X110097000Y-69618528D01*
X110097000Y-69465472D01*
X110067141Y-69315357D01*
X110008569Y-69173952D01*
X109923536Y-69046691D01*
X109815309Y-68938464D01*
X109688048Y-68853431D01*
X109546643Y-68794859D01*
X109396528Y-68765000D01*
X109243472Y-68765000D01*
X109093357Y-68794859D01*
X108951952Y-68853431D01*
X108824691Y-68938464D01*
X108716464Y-69046691D01*
X108631431Y-69173952D01*
X108572859Y-69315357D01*
X108543000Y-69465472D01*
X108543000Y-69614264D01*
X106670208Y-67741472D01*
X108570000Y-67741472D01*
X108570000Y-67894528D01*
X108599859Y-68044643D01*
X108658431Y-68186048D01*
X108743464Y-68313309D01*
X108851691Y-68421536D01*
X108978952Y-68506569D01*
X109120357Y-68565141D01*
X109270472Y-68595000D01*
X109423528Y-68595000D01*
X109573643Y-68565141D01*
X109715048Y-68506569D01*
X109842309Y-68421536D01*
X109950536Y-68313309D01*
X110035569Y-68186048D01*
X110094141Y-68044643D01*
X110124000Y-67894528D01*
X110124000Y-67741472D01*
X110094141Y-67591357D01*
X110035569Y-67449952D01*
X109950536Y-67322691D01*
X109842309Y-67214464D01*
X109715048Y-67129431D01*
X109573643Y-67070859D01*
X109423528Y-67041000D01*
X109270472Y-67041000D01*
X109120357Y-67070859D01*
X108978952Y-67129431D01*
X108851691Y-67214464D01*
X108743464Y-67322691D01*
X108658431Y-67449952D01*
X108599859Y-67591357D01*
X108570000Y-67741472D01*
X106670208Y-67741472D01*
X103726737Y-64798001D01*
X130369249Y-64798001D01*
X130369249Y-66997999D01*
X130379447Y-67101544D01*
X130409650Y-67201109D01*
X130458697Y-67292869D01*
X130524703Y-67373297D01*
X130605131Y-67439303D01*
X130696891Y-67488350D01*
X130796456Y-67518553D01*
X130900001Y-67528751D01*
X133099999Y-67528751D01*
X133203544Y-67518553D01*
X133303109Y-67488350D01*
X133394869Y-67439303D01*
X133475297Y-67373297D01*
X133541303Y-67292869D01*
X133590350Y-67201109D01*
X133620553Y-67101544D01*
X133630751Y-66997999D01*
X133630751Y-64798001D01*
X133620553Y-64694456D01*
X133590350Y-64594891D01*
X133541303Y-64503131D01*
X133475297Y-64422703D01*
X133394869Y-64356697D01*
X133303109Y-64307650D01*
X133203544Y-64277447D01*
X133099999Y-64267249D01*
X130900001Y-64267249D01*
X130796456Y-64277447D01*
X130696891Y-64307650D01*
X130605131Y-64356697D01*
X130524703Y-64422703D01*
X130458697Y-64503131D01*
X130409650Y-64594891D01*
X130379447Y-64694456D01*
X130369249Y-64798001D01*
X103726737Y-64798001D01*
X100736400Y-61807664D01*
X100736400Y-60013085D01*
X135500010Y-60013085D01*
X135500010Y-60146915D01*
X135526119Y-60278174D01*
X135577334Y-60401816D01*
X135651686Y-60513092D01*
X135718594Y-60580000D01*
X135651686Y-60646908D01*
X135577334Y-60758184D01*
X135526119Y-60881826D01*
X135500010Y-61013085D01*
X135500010Y-61146915D01*
X135526119Y-61278174D01*
X135577334Y-61401816D01*
X135651686Y-61513092D01*
X135718594Y-61580000D01*
X135651686Y-61646908D01*
X135577334Y-61758184D01*
X135526119Y-61881826D01*
X135500010Y-62013085D01*
X135500010Y-62146915D01*
X135526119Y-62278174D01*
X135577334Y-62401816D01*
X135651686Y-62513092D01*
X135718594Y-62580000D01*
X135651686Y-62646908D01*
X135577334Y-62758184D01*
X135526119Y-62881826D01*
X135500010Y-63013085D01*
X135500010Y-63146915D01*
X135526119Y-63278174D01*
X135577334Y-63401816D01*
X135651686Y-63513092D01*
X135746318Y-63607724D01*
X135857594Y-63682076D01*
X135981236Y-63733291D01*
X136112495Y-63759400D01*
X136246325Y-63759400D01*
X136377584Y-63733291D01*
X136501226Y-63682076D01*
X136612502Y-63607724D01*
X136679410Y-63540816D01*
X136746318Y-63607724D01*
X136857594Y-63682076D01*
X136981236Y-63733291D01*
X137112495Y-63759400D01*
X137246325Y-63759400D01*
X137377584Y-63733291D01*
X137501226Y-63682076D01*
X137612502Y-63607724D01*
X137707134Y-63513092D01*
X137781486Y-63401816D01*
X137832701Y-63278174D01*
X137858810Y-63146915D01*
X137858810Y-63013085D01*
X137832701Y-62881826D01*
X137781486Y-62758184D01*
X137707134Y-62646908D01*
X137640226Y-62580000D01*
X137707134Y-62513092D01*
X137781486Y-62401816D01*
X137832701Y-62278174D01*
X137858810Y-62146915D01*
X137858810Y-62013085D01*
X137832701Y-61881826D01*
X137781486Y-61758184D01*
X137707134Y-61646908D01*
X137640226Y-61580000D01*
X137707134Y-61513092D01*
X137781486Y-61401816D01*
X137832701Y-61278174D01*
X137858810Y-61146915D01*
X137858810Y-61013085D01*
X137832701Y-60881826D01*
X137781486Y-60758184D01*
X137707134Y-60646908D01*
X137640226Y-60580000D01*
X137707134Y-60513092D01*
X137781486Y-60401816D01*
X137832701Y-60278174D01*
X137858810Y-60146915D01*
X137858810Y-60013085D01*
X137832701Y-59881826D01*
X137781486Y-59758184D01*
X137707134Y-59646908D01*
X137612502Y-59552276D01*
X137501226Y-59477924D01*
X137377584Y-59426709D01*
X137246325Y-59400600D01*
X137112495Y-59400600D01*
X136981236Y-59426709D01*
X136857594Y-59477924D01*
X136746318Y-59552276D01*
X136679410Y-59619184D01*
X136612502Y-59552276D01*
X136501226Y-59477924D01*
X136377584Y-59426709D01*
X136246325Y-59400600D01*
X136112495Y-59400600D01*
X135981236Y-59426709D01*
X135857594Y-59477924D01*
X135746318Y-59552276D01*
X135651686Y-59646908D01*
X135577334Y-59758184D01*
X135526119Y-59881826D01*
X135500010Y-60013085D01*
X100736400Y-60013085D01*
X100736400Y-57835472D01*
X108543000Y-57835472D01*
X108543000Y-57988528D01*
X108572859Y-58138643D01*
X108631431Y-58280048D01*
X108716464Y-58407309D01*
X108824691Y-58515536D01*
X108951952Y-58600569D01*
X109093357Y-58659141D01*
X109243472Y-58689000D01*
X109396528Y-58689000D01*
X109546643Y-58659141D01*
X109688048Y-58600569D01*
X109815309Y-58515536D01*
X109889000Y-58441845D01*
X109962691Y-58515536D01*
X110089952Y-58600569D01*
X110231357Y-58659141D01*
X110381472Y-58689000D01*
X110534528Y-58689000D01*
X110684643Y-58659141D01*
X110826048Y-58600569D01*
X110953309Y-58515536D01*
X111061536Y-58407309D01*
X111146569Y-58280048D01*
X111205141Y-58138643D01*
X111235000Y-57988528D01*
X111235000Y-57835472D01*
X111205141Y-57685357D01*
X111146569Y-57543952D01*
X111061536Y-57416691D01*
X110953309Y-57308464D01*
X110826048Y-57223431D01*
X110684643Y-57164859D01*
X110534528Y-57135000D01*
X110381472Y-57135000D01*
X110231357Y-57164859D01*
X110089952Y-57223431D01*
X109962691Y-57308464D01*
X109889000Y-57382155D01*
X109815309Y-57308464D01*
X109688048Y-57223431D01*
X109546643Y-57164859D01*
X109396528Y-57135000D01*
X109243472Y-57135000D01*
X109093357Y-57164859D01*
X108951952Y-57223431D01*
X108824691Y-57308464D01*
X108716464Y-57416691D01*
X108631431Y-57543952D01*
X108572859Y-57685357D01*
X108543000Y-57835472D01*
X100736400Y-57835472D01*
X100736400Y-55137953D01*
X100738365Y-55118000D01*
X100736400Y-55098047D01*
X100736400Y-55098040D01*
X100730519Y-55038332D01*
X100724390Y-55018125D01*
X100707281Y-54961725D01*
X100704350Y-54956242D01*
X100669544Y-54891124D01*
X100636220Y-54850519D01*
X100631482Y-54844745D01*
X100631477Y-54844740D01*
X100618758Y-54829242D01*
X100603260Y-54816523D01*
X98831400Y-53044664D01*
X98831400Y-49726934D01*
X98988600Y-49726934D01*
X98988600Y-49841066D01*
X99010866Y-49953005D01*
X99054543Y-50058449D01*
X99117951Y-50153346D01*
X99161600Y-50196995D01*
X99161600Y-50228223D01*
X99161601Y-50228233D01*
X99161600Y-52177047D01*
X99159635Y-52197000D01*
X99161600Y-52216953D01*
X99161600Y-52216959D01*
X99167481Y-52276667D01*
X99190719Y-52353274D01*
X99228456Y-52423875D01*
X99279242Y-52485758D01*
X99294746Y-52498482D01*
X103076523Y-56280260D01*
X103089242Y-56295758D01*
X103104740Y-56308477D01*
X103104745Y-56308482D01*
X103108395Y-56311477D01*
X103151124Y-56346544D01*
X103221725Y-56384281D01*
X103298331Y-56407519D01*
X103305604Y-56408235D01*
X103358040Y-56413400D01*
X103358047Y-56413400D01*
X103378000Y-56415365D01*
X103397953Y-56413400D01*
X117310441Y-56413400D01*
X117328276Y-56440092D01*
X117422908Y-56534724D01*
X117534184Y-56609076D01*
X117657826Y-56660291D01*
X117789085Y-56686400D01*
X117922915Y-56686400D01*
X118054174Y-56660291D01*
X118177816Y-56609076D01*
X118289092Y-56534724D01*
X118383724Y-56440092D01*
X118458076Y-56328816D01*
X118509291Y-56205174D01*
X118535400Y-56073915D01*
X118535400Y-55940085D01*
X118509291Y-55808826D01*
X118458076Y-55685184D01*
X118383724Y-55573908D01*
X118289092Y-55479276D01*
X118177816Y-55404924D01*
X118054174Y-55353709D01*
X117922915Y-55327600D01*
X117789085Y-55327600D01*
X117657826Y-55353709D01*
X117534184Y-55404924D01*
X117422908Y-55479276D01*
X117328276Y-55573908D01*
X117310441Y-55600600D01*
X103546337Y-55600600D01*
X99974400Y-52028664D01*
X99974400Y-50196995D01*
X100018049Y-50153346D01*
X100081457Y-50058449D01*
X100125134Y-49953005D01*
X100140149Y-49877518D01*
X104392600Y-49877518D01*
X104392600Y-50198482D01*
X104455217Y-50513278D01*
X104578044Y-50809810D01*
X104756362Y-51076682D01*
X104983318Y-51303638D01*
X105250190Y-51481956D01*
X105546722Y-51604783D01*
X105861518Y-51667400D01*
X106182482Y-51667400D01*
X106497278Y-51604783D01*
X106793810Y-51481956D01*
X107060682Y-51303638D01*
X107287638Y-51076682D01*
X107465956Y-50809810D01*
X107588783Y-50513278D01*
X107651400Y-50198482D01*
X107651400Y-49877518D01*
X107588783Y-49562722D01*
X107465956Y-49266190D01*
X107287638Y-48999318D01*
X107226321Y-48938001D01*
X108253176Y-48938001D01*
X108253176Y-51137999D01*
X108265259Y-51260677D01*
X108301042Y-51378640D01*
X108359152Y-51487355D01*
X108437355Y-51582645D01*
X108532645Y-51660848D01*
X108641360Y-51718958D01*
X108759323Y-51754741D01*
X108882001Y-51766824D01*
X111081999Y-51766824D01*
X111204677Y-51754741D01*
X111322640Y-51718958D01*
X111431355Y-51660848D01*
X111526645Y-51582645D01*
X111604848Y-51487355D01*
X111662958Y-51378640D01*
X111698741Y-51260677D01*
X111710824Y-51137999D01*
X111710824Y-48938001D01*
X111698741Y-48815323D01*
X111662958Y-48697360D01*
X111604848Y-48588645D01*
X111526645Y-48493355D01*
X111431355Y-48415152D01*
X111322640Y-48357042D01*
X111204677Y-48321259D01*
X111081999Y-48309176D01*
X108882001Y-48309176D01*
X108759323Y-48321259D01*
X108641360Y-48357042D01*
X108532645Y-48415152D01*
X108437355Y-48493355D01*
X108359152Y-48588645D01*
X108301042Y-48697360D01*
X108265259Y-48815323D01*
X108253176Y-48938001D01*
X107226321Y-48938001D01*
X107060682Y-48772362D01*
X106793810Y-48594044D01*
X106497278Y-48471217D01*
X106182482Y-48408600D01*
X105861518Y-48408600D01*
X105546722Y-48471217D01*
X105250190Y-48594044D01*
X104983318Y-48772362D01*
X104756362Y-48999318D01*
X104578044Y-49266190D01*
X104455217Y-49562722D01*
X104392600Y-49877518D01*
X100140149Y-49877518D01*
X100147400Y-49841066D01*
X100147400Y-49726934D01*
X100125134Y-49614995D01*
X100081457Y-49509551D01*
X100018049Y-49414654D01*
X99937346Y-49333951D01*
X99842449Y-49270543D01*
X99737005Y-49226866D01*
X99625066Y-49204600D01*
X99510934Y-49204600D01*
X99398995Y-49226866D01*
X99293551Y-49270543D01*
X99198654Y-49333951D01*
X99117951Y-49414654D01*
X99054543Y-49509551D01*
X99010866Y-49614995D01*
X98988600Y-49726934D01*
X98831400Y-49726934D01*
X98831400Y-45244953D01*
X98833365Y-45225000D01*
X98831400Y-45205047D01*
X98831400Y-45205040D01*
X98825519Y-45145332D01*
X98824552Y-45142142D01*
X98803558Y-45072934D01*
X125740600Y-45072934D01*
X125740600Y-45187066D01*
X125762866Y-45299005D01*
X125806543Y-45404449D01*
X125869951Y-45499346D01*
X125950654Y-45580049D01*
X126045551Y-45643457D01*
X126150995Y-45687134D01*
X126262934Y-45709400D01*
X126377066Y-45709400D01*
X126489005Y-45687134D01*
X126594449Y-45643457D01*
X126689346Y-45580049D01*
X126770049Y-45499346D01*
X126833457Y-45404449D01*
X126877134Y-45299005D01*
X126899400Y-45187066D01*
X126899400Y-45072934D01*
X126877134Y-44960995D01*
X126833457Y-44855551D01*
X126770049Y-44760654D01*
X126699400Y-44690005D01*
X126699400Y-40715152D01*
X127411152Y-40003400D01*
X137764848Y-40003400D01*
X139828600Y-42067152D01*
X139828601Y-45280004D01*
X139757951Y-45350654D01*
X139694543Y-45445551D01*
X139650866Y-45550995D01*
X139628600Y-45662934D01*
X139628600Y-45777066D01*
X139650866Y-45889005D01*
X139694543Y-45994449D01*
X139757951Y-46089346D01*
X139838654Y-46170049D01*
X139933551Y-46233457D01*
X140038995Y-46277134D01*
X140150934Y-46299400D01*
X140265066Y-46299400D01*
X140377005Y-46277134D01*
X140482449Y-46233457D01*
X140577346Y-46170049D01*
X140658049Y-46089346D01*
X140721457Y-45994449D01*
X140765134Y-45889005D01*
X140787400Y-45777066D01*
X140787400Y-45662934D01*
X140765134Y-45550995D01*
X140721457Y-45445551D01*
X140658049Y-45350654D01*
X140587400Y-45280005D01*
X140587400Y-41928628D01*
X140589235Y-41909999D01*
X140586352Y-41880726D01*
X140581910Y-41835625D01*
X140560215Y-41764108D01*
X140524986Y-41698198D01*
X140524985Y-41698196D01*
X140493407Y-41659719D01*
X140477574Y-41640426D01*
X140463099Y-41628547D01*
X138203454Y-39368902D01*
X138191574Y-39354426D01*
X138133803Y-39307015D01*
X138067892Y-39271785D01*
X137996375Y-39250090D01*
X137940632Y-39244600D01*
X137940629Y-39244600D01*
X137922000Y-39242765D01*
X137903371Y-39244600D01*
X127272621Y-39244600D01*
X127253999Y-39242766D01*
X127235377Y-39244600D01*
X127235368Y-39244600D01*
X127179625Y-39250090D01*
X127108108Y-39271785D01*
X127077426Y-39288185D01*
X127042196Y-39307015D01*
X127019639Y-39325527D01*
X126984426Y-39354426D01*
X126972546Y-39368902D01*
X126064898Y-40276550D01*
X126050427Y-40288426D01*
X126038551Y-40302897D01*
X126038549Y-40302899D01*
X126003015Y-40346197D01*
X125967786Y-40412108D01*
X125946091Y-40483626D01*
X125938765Y-40558000D01*
X125940601Y-40576639D01*
X125940600Y-44690005D01*
X125869951Y-44760654D01*
X125806543Y-44855551D01*
X125762866Y-44960995D01*
X125740600Y-45072934D01*
X98803558Y-45072934D01*
X98802281Y-45068725D01*
X98799646Y-45063795D01*
X98764544Y-44998124D01*
X98743717Y-44972746D01*
X98726482Y-44951745D01*
X98726477Y-44951740D01*
X98713758Y-44936242D01*
X98698260Y-44923523D01*
X94029953Y-40255216D01*
X94816600Y-40255216D01*
X94816600Y-40536784D01*
X94871531Y-40812941D01*
X94979282Y-41073075D01*
X95135713Y-41307189D01*
X95334811Y-41506287D01*
X95568925Y-41662718D01*
X95829059Y-41770469D01*
X96105216Y-41825400D01*
X96386784Y-41825400D01*
X96662941Y-41770469D01*
X96923075Y-41662718D01*
X97157189Y-41506287D01*
X97356287Y-41307189D01*
X97512718Y-41073075D01*
X97620469Y-40812941D01*
X97675400Y-40536784D01*
X97675400Y-40255216D01*
X97620469Y-39979059D01*
X97512718Y-39718925D01*
X97356287Y-39484811D01*
X97157189Y-39285713D01*
X96923075Y-39129282D01*
X96662941Y-39021531D01*
X96386784Y-38966600D01*
X96105216Y-38966600D01*
X95829059Y-39021531D01*
X95568925Y-39129282D01*
X95334811Y-39285713D01*
X95135713Y-39484811D01*
X94979282Y-39718925D01*
X94871531Y-39979059D01*
X94816600Y-40255216D01*
X94029953Y-40255216D01*
X92114255Y-38339518D01*
X141870600Y-38339518D01*
X141870600Y-38660482D01*
X141933217Y-38975278D01*
X142056044Y-39271810D01*
X142234362Y-39538682D01*
X142461318Y-39765638D01*
X142728190Y-39943956D01*
X143024722Y-40066783D01*
X143339518Y-40129400D01*
X143660482Y-40129400D01*
X143975278Y-40066783D01*
X144271810Y-39943956D01*
X144538682Y-39765638D01*
X144765638Y-39538682D01*
X144943956Y-39271810D01*
X145066783Y-38975278D01*
X145129400Y-38660482D01*
X145129400Y-38339518D01*
X145066783Y-38024722D01*
X144943956Y-37728190D01*
X144765638Y-37461318D01*
X144538682Y-37234362D01*
X144271810Y-37056044D01*
X143975278Y-36933217D01*
X143660482Y-36870600D01*
X143339518Y-36870600D01*
X143024722Y-36933217D01*
X142728190Y-37056044D01*
X142461318Y-37234362D01*
X142234362Y-37461318D01*
X142056044Y-37728190D01*
X141933217Y-38024722D01*
X141870600Y-38339518D01*
X92114255Y-38339518D01*
X91625400Y-37850664D01*
X91625400Y-37734764D01*
X91581998Y-37516566D01*
X91496862Y-37311028D01*
X91373263Y-37126049D01*
X91215951Y-36968737D01*
X91030972Y-36845138D01*
X90825434Y-36760002D01*
X90607236Y-36716600D01*
X90384764Y-36716600D01*
X90166566Y-36760002D01*
X89961028Y-36845138D01*
X89776049Y-36968737D01*
X89618737Y-37126049D01*
X89495138Y-37311028D01*
X89410002Y-37516566D01*
X89366600Y-37734764D01*
X89366600Y-37957236D01*
X89410002Y-38175434D01*
X89495138Y-38380972D01*
X89618737Y-38565951D01*
X89776049Y-38723263D01*
X89961028Y-38846862D01*
X90166566Y-38931998D01*
X90384764Y-38975400D01*
X90607236Y-38975400D01*
X90825434Y-38931998D01*
X91030972Y-38846862D01*
X91215951Y-38723263D01*
X91282239Y-38656975D01*
X98018601Y-45393338D01*
X98018601Y-45843864D01*
X93938482Y-41763746D01*
X93925758Y-41748242D01*
X93863876Y-41697456D01*
X93793275Y-41659719D01*
X93716668Y-41636481D01*
X93656960Y-41630600D01*
X93656953Y-41630600D01*
X93637000Y-41628635D01*
X93617047Y-41630600D01*
X89971143Y-41630600D01*
X90157189Y-41506287D01*
X90356287Y-41307189D01*
X90512718Y-41073075D01*
X90620469Y-40812941D01*
X90675400Y-40536784D01*
X90675400Y-40255216D01*
X90620469Y-39979059D01*
X90512718Y-39718925D01*
X90356287Y-39484811D01*
X90157189Y-39285713D01*
X89923075Y-39129282D01*
X89662941Y-39021531D01*
X89386784Y-38966600D01*
X89105216Y-38966600D01*
X88829059Y-39021531D01*
X88568925Y-39129282D01*
X88334811Y-39285713D01*
X88135713Y-39484811D01*
X87979282Y-39718925D01*
X87871531Y-39979059D01*
X87816600Y-40255216D01*
X87816600Y-40536784D01*
X87871531Y-40812941D01*
X87979282Y-41073075D01*
X88135713Y-41307189D01*
X88334811Y-41506287D01*
X88520857Y-41630600D01*
X84740995Y-41630600D01*
X84697346Y-41586951D01*
X84602449Y-41523543D01*
X84497005Y-41479866D01*
X84385066Y-41457600D01*
X84270934Y-41457600D01*
X84158995Y-41479866D01*
X84053551Y-41523543D01*
X83958654Y-41586951D01*
X83877951Y-41667654D01*
X83814543Y-41762551D01*
X83770866Y-41867995D01*
X83748600Y-41979934D01*
X77660400Y-41979934D01*
X77660400Y-38532297D01*
X77679302Y-38339518D01*
X78870600Y-38339518D01*
X78870600Y-38660482D01*
X78933217Y-38975278D01*
X79056044Y-39271810D01*
X79234362Y-39538682D01*
X79461318Y-39765638D01*
X79728190Y-39943956D01*
X80024722Y-40066783D01*
X80339518Y-40129400D01*
X80660482Y-40129400D01*
X80975278Y-40066783D01*
X81271810Y-39943956D01*
X81538682Y-39765638D01*
X81765638Y-39538682D01*
X81943956Y-39271810D01*
X82066783Y-38975278D01*
X82129400Y-38660482D01*
X82129400Y-38339518D01*
X82066783Y-38024722D01*
X81943956Y-37728190D01*
X81765638Y-37461318D01*
X81538682Y-37234362D01*
X81271810Y-37056044D01*
X80975278Y-36933217D01*
X80660482Y-36870600D01*
X80339518Y-36870600D01*
X80024722Y-36933217D01*
X79728190Y-37056044D01*
X79461318Y-37234362D01*
X79234362Y-37461318D01*
X79056044Y-37728190D01*
X78933217Y-38024722D01*
X78870600Y-38339518D01*
X77679302Y-38339518D01*
X77717586Y-37949070D01*
X77877589Y-37419116D01*
X78137475Y-36930342D01*
X78487351Y-36501351D01*
X78913887Y-36148490D01*
X79400839Y-35885196D01*
X79929657Y-35721500D01*
X80510983Y-35660400D01*
X143467703Y-35660400D01*
X144050930Y-35717586D01*
G36*
X94873000Y-85623000D02*
G01*
X91727000Y-85623000D01*
X91727000Y-82252000D01*
X94873000Y-82252000D01*
X94873000Y-85623000D01*
X94873000Y-85623000D01*
G37*
X94873000Y-85623000D02*
X91727000Y-85623000D01*
X91727000Y-82252000D01*
X94873000Y-82252000D01*
X94873000Y-85623000D01*
M02*
