G04 #@! TF.GenerationSoftware,KiCad,Pcbnew,(5.1.0-0)*
G04 #@! TF.CreationDate,2019-05-02T09:23:52-04:00*
G04 #@! TF.ProjectId,Power Board,506f7765-7220-4426-9f61-72642e6b6963,rev?*
G04 #@! TF.SameCoordinates,Original*
G04 #@! TF.FileFunction,Paste,Top*
G04 #@! TF.FilePolarity,Positive*
%FSLAX46Y46*%
G04 Gerber Fmt 4.6, Leading zero omitted, Abs format (unit mm)*
G04 Created by KiCad (PCBNEW (5.1.0-0)) date 2019-05-02 09:23:52*
%MOMM*%
%LPD*%
G04 APERTURE LIST*
%ADD10C,0.100000*%
%ADD11R,12.830000X2.790000*%
%ADD12C,1.250000*%
%ADD13C,1.150000*%
%ADD14C,1.110000*%
%ADD15C,0.410000*%
%ADD16C,1.100000*%
%ADD17C,0.975000*%
%ADD18C,0.950000*%
%ADD19C,0.875000*%
G04 APERTURE END LIST*
D10*
G36*
X108942000Y-78734000D02*
G01*
X108482000Y-78734000D01*
X108482000Y-79094000D01*
X108942000Y-79094000D01*
X108942000Y-78734000D01*
G37*
X108942000Y-78734000D02*
X108482000Y-78734000D01*
X108482000Y-79094000D01*
X108942000Y-79094000D01*
X108942000Y-78734000D01*
D11*
X115316000Y-98613000D03*
X115316000Y-87823000D03*
D10*
G36*
X139999504Y-90426204D02*
G01*
X140023773Y-90429804D01*
X140047571Y-90435765D01*
X140070671Y-90444030D01*
X140092849Y-90454520D01*
X140113893Y-90467133D01*
X140133598Y-90481747D01*
X140151777Y-90498223D01*
X140168253Y-90516402D01*
X140182867Y-90536107D01*
X140195480Y-90557151D01*
X140205970Y-90579329D01*
X140214235Y-90602429D01*
X140220196Y-90626227D01*
X140223796Y-90650496D01*
X140225000Y-90675000D01*
X140225000Y-91925000D01*
X140223796Y-91949504D01*
X140220196Y-91973773D01*
X140214235Y-91997571D01*
X140205970Y-92020671D01*
X140195480Y-92042849D01*
X140182867Y-92063893D01*
X140168253Y-92083598D01*
X140151777Y-92101777D01*
X140133598Y-92118253D01*
X140113893Y-92132867D01*
X140092849Y-92145480D01*
X140070671Y-92155970D01*
X140047571Y-92164235D01*
X140023773Y-92170196D01*
X139999504Y-92173796D01*
X139975000Y-92175000D01*
X139225000Y-92175000D01*
X139200496Y-92173796D01*
X139176227Y-92170196D01*
X139152429Y-92164235D01*
X139129329Y-92155970D01*
X139107151Y-92145480D01*
X139086107Y-92132867D01*
X139066402Y-92118253D01*
X139048223Y-92101777D01*
X139031747Y-92083598D01*
X139017133Y-92063893D01*
X139004520Y-92042849D01*
X138994030Y-92020671D01*
X138985765Y-91997571D01*
X138979804Y-91973773D01*
X138976204Y-91949504D01*
X138975000Y-91925000D01*
X138975000Y-90675000D01*
X138976204Y-90650496D01*
X138979804Y-90626227D01*
X138985765Y-90602429D01*
X138994030Y-90579329D01*
X139004520Y-90557151D01*
X139017133Y-90536107D01*
X139031747Y-90516402D01*
X139048223Y-90498223D01*
X139066402Y-90481747D01*
X139086107Y-90467133D01*
X139107151Y-90454520D01*
X139129329Y-90444030D01*
X139152429Y-90435765D01*
X139176227Y-90429804D01*
X139200496Y-90426204D01*
X139225000Y-90425000D01*
X139975000Y-90425000D01*
X139999504Y-90426204D01*
X139999504Y-90426204D01*
G37*
D12*
X139600000Y-91300000D03*
D10*
G36*
X137199504Y-90426204D02*
G01*
X137223773Y-90429804D01*
X137247571Y-90435765D01*
X137270671Y-90444030D01*
X137292849Y-90454520D01*
X137313893Y-90467133D01*
X137333598Y-90481747D01*
X137351777Y-90498223D01*
X137368253Y-90516402D01*
X137382867Y-90536107D01*
X137395480Y-90557151D01*
X137405970Y-90579329D01*
X137414235Y-90602429D01*
X137420196Y-90626227D01*
X137423796Y-90650496D01*
X137425000Y-90675000D01*
X137425000Y-91925000D01*
X137423796Y-91949504D01*
X137420196Y-91973773D01*
X137414235Y-91997571D01*
X137405970Y-92020671D01*
X137395480Y-92042849D01*
X137382867Y-92063893D01*
X137368253Y-92083598D01*
X137351777Y-92101777D01*
X137333598Y-92118253D01*
X137313893Y-92132867D01*
X137292849Y-92145480D01*
X137270671Y-92155970D01*
X137247571Y-92164235D01*
X137223773Y-92170196D01*
X137199504Y-92173796D01*
X137175000Y-92175000D01*
X136425000Y-92175000D01*
X136400496Y-92173796D01*
X136376227Y-92170196D01*
X136352429Y-92164235D01*
X136329329Y-92155970D01*
X136307151Y-92145480D01*
X136286107Y-92132867D01*
X136266402Y-92118253D01*
X136248223Y-92101777D01*
X136231747Y-92083598D01*
X136217133Y-92063893D01*
X136204520Y-92042849D01*
X136194030Y-92020671D01*
X136185765Y-91997571D01*
X136179804Y-91973773D01*
X136176204Y-91949504D01*
X136175000Y-91925000D01*
X136175000Y-90675000D01*
X136176204Y-90650496D01*
X136179804Y-90626227D01*
X136185765Y-90602429D01*
X136194030Y-90579329D01*
X136204520Y-90557151D01*
X136217133Y-90536107D01*
X136231747Y-90516402D01*
X136248223Y-90498223D01*
X136266402Y-90481747D01*
X136286107Y-90467133D01*
X136307151Y-90454520D01*
X136329329Y-90444030D01*
X136352429Y-90435765D01*
X136376227Y-90429804D01*
X136400496Y-90426204D01*
X136425000Y-90425000D01*
X137175000Y-90425000D01*
X137199504Y-90426204D01*
X137199504Y-90426204D01*
G37*
D12*
X136800000Y-91300000D03*
D10*
G36*
X139999504Y-70626204D02*
G01*
X140023773Y-70629804D01*
X140047571Y-70635765D01*
X140070671Y-70644030D01*
X140092849Y-70654520D01*
X140113893Y-70667133D01*
X140133598Y-70681747D01*
X140151777Y-70698223D01*
X140168253Y-70716402D01*
X140182867Y-70736107D01*
X140195480Y-70757151D01*
X140205970Y-70779329D01*
X140214235Y-70802429D01*
X140220196Y-70826227D01*
X140223796Y-70850496D01*
X140225000Y-70875000D01*
X140225000Y-72125000D01*
X140223796Y-72149504D01*
X140220196Y-72173773D01*
X140214235Y-72197571D01*
X140205970Y-72220671D01*
X140195480Y-72242849D01*
X140182867Y-72263893D01*
X140168253Y-72283598D01*
X140151777Y-72301777D01*
X140133598Y-72318253D01*
X140113893Y-72332867D01*
X140092849Y-72345480D01*
X140070671Y-72355970D01*
X140047571Y-72364235D01*
X140023773Y-72370196D01*
X139999504Y-72373796D01*
X139975000Y-72375000D01*
X139225000Y-72375000D01*
X139200496Y-72373796D01*
X139176227Y-72370196D01*
X139152429Y-72364235D01*
X139129329Y-72355970D01*
X139107151Y-72345480D01*
X139086107Y-72332867D01*
X139066402Y-72318253D01*
X139048223Y-72301777D01*
X139031747Y-72283598D01*
X139017133Y-72263893D01*
X139004520Y-72242849D01*
X138994030Y-72220671D01*
X138985765Y-72197571D01*
X138979804Y-72173773D01*
X138976204Y-72149504D01*
X138975000Y-72125000D01*
X138975000Y-70875000D01*
X138976204Y-70850496D01*
X138979804Y-70826227D01*
X138985765Y-70802429D01*
X138994030Y-70779329D01*
X139004520Y-70757151D01*
X139017133Y-70736107D01*
X139031747Y-70716402D01*
X139048223Y-70698223D01*
X139066402Y-70681747D01*
X139086107Y-70667133D01*
X139107151Y-70654520D01*
X139129329Y-70644030D01*
X139152429Y-70635765D01*
X139176227Y-70629804D01*
X139200496Y-70626204D01*
X139225000Y-70625000D01*
X139975000Y-70625000D01*
X139999504Y-70626204D01*
X139999504Y-70626204D01*
G37*
D12*
X139600000Y-71500000D03*
D10*
G36*
X137199504Y-70626204D02*
G01*
X137223773Y-70629804D01*
X137247571Y-70635765D01*
X137270671Y-70644030D01*
X137292849Y-70654520D01*
X137313893Y-70667133D01*
X137333598Y-70681747D01*
X137351777Y-70698223D01*
X137368253Y-70716402D01*
X137382867Y-70736107D01*
X137395480Y-70757151D01*
X137405970Y-70779329D01*
X137414235Y-70802429D01*
X137420196Y-70826227D01*
X137423796Y-70850496D01*
X137425000Y-70875000D01*
X137425000Y-72125000D01*
X137423796Y-72149504D01*
X137420196Y-72173773D01*
X137414235Y-72197571D01*
X137405970Y-72220671D01*
X137395480Y-72242849D01*
X137382867Y-72263893D01*
X137368253Y-72283598D01*
X137351777Y-72301777D01*
X137333598Y-72318253D01*
X137313893Y-72332867D01*
X137292849Y-72345480D01*
X137270671Y-72355970D01*
X137247571Y-72364235D01*
X137223773Y-72370196D01*
X137199504Y-72373796D01*
X137175000Y-72375000D01*
X136425000Y-72375000D01*
X136400496Y-72373796D01*
X136376227Y-72370196D01*
X136352429Y-72364235D01*
X136329329Y-72355970D01*
X136307151Y-72345480D01*
X136286107Y-72332867D01*
X136266402Y-72318253D01*
X136248223Y-72301777D01*
X136231747Y-72283598D01*
X136217133Y-72263893D01*
X136204520Y-72242849D01*
X136194030Y-72220671D01*
X136185765Y-72197571D01*
X136179804Y-72173773D01*
X136176204Y-72149504D01*
X136175000Y-72125000D01*
X136175000Y-70875000D01*
X136176204Y-70850496D01*
X136179804Y-70826227D01*
X136185765Y-70802429D01*
X136194030Y-70779329D01*
X136204520Y-70757151D01*
X136217133Y-70736107D01*
X136231747Y-70716402D01*
X136248223Y-70698223D01*
X136266402Y-70681747D01*
X136286107Y-70667133D01*
X136307151Y-70654520D01*
X136329329Y-70644030D01*
X136352429Y-70635765D01*
X136376227Y-70629804D01*
X136400496Y-70626204D01*
X136425000Y-70625000D01*
X137175000Y-70625000D01*
X137199504Y-70626204D01*
X137199504Y-70626204D01*
G37*
D12*
X136800000Y-71500000D03*
D10*
G36*
X139999504Y-56626204D02*
G01*
X140023773Y-56629804D01*
X140047571Y-56635765D01*
X140070671Y-56644030D01*
X140092849Y-56654520D01*
X140113893Y-56667133D01*
X140133598Y-56681747D01*
X140151777Y-56698223D01*
X140168253Y-56716402D01*
X140182867Y-56736107D01*
X140195480Y-56757151D01*
X140205970Y-56779329D01*
X140214235Y-56802429D01*
X140220196Y-56826227D01*
X140223796Y-56850496D01*
X140225000Y-56875000D01*
X140225000Y-58125000D01*
X140223796Y-58149504D01*
X140220196Y-58173773D01*
X140214235Y-58197571D01*
X140205970Y-58220671D01*
X140195480Y-58242849D01*
X140182867Y-58263893D01*
X140168253Y-58283598D01*
X140151777Y-58301777D01*
X140133598Y-58318253D01*
X140113893Y-58332867D01*
X140092849Y-58345480D01*
X140070671Y-58355970D01*
X140047571Y-58364235D01*
X140023773Y-58370196D01*
X139999504Y-58373796D01*
X139975000Y-58375000D01*
X139225000Y-58375000D01*
X139200496Y-58373796D01*
X139176227Y-58370196D01*
X139152429Y-58364235D01*
X139129329Y-58355970D01*
X139107151Y-58345480D01*
X139086107Y-58332867D01*
X139066402Y-58318253D01*
X139048223Y-58301777D01*
X139031747Y-58283598D01*
X139017133Y-58263893D01*
X139004520Y-58242849D01*
X138994030Y-58220671D01*
X138985765Y-58197571D01*
X138979804Y-58173773D01*
X138976204Y-58149504D01*
X138975000Y-58125000D01*
X138975000Y-56875000D01*
X138976204Y-56850496D01*
X138979804Y-56826227D01*
X138985765Y-56802429D01*
X138994030Y-56779329D01*
X139004520Y-56757151D01*
X139017133Y-56736107D01*
X139031747Y-56716402D01*
X139048223Y-56698223D01*
X139066402Y-56681747D01*
X139086107Y-56667133D01*
X139107151Y-56654520D01*
X139129329Y-56644030D01*
X139152429Y-56635765D01*
X139176227Y-56629804D01*
X139200496Y-56626204D01*
X139225000Y-56625000D01*
X139975000Y-56625000D01*
X139999504Y-56626204D01*
X139999504Y-56626204D01*
G37*
D12*
X139600000Y-57500000D03*
D10*
G36*
X137199504Y-56626204D02*
G01*
X137223773Y-56629804D01*
X137247571Y-56635765D01*
X137270671Y-56644030D01*
X137292849Y-56654520D01*
X137313893Y-56667133D01*
X137333598Y-56681747D01*
X137351777Y-56698223D01*
X137368253Y-56716402D01*
X137382867Y-56736107D01*
X137395480Y-56757151D01*
X137405970Y-56779329D01*
X137414235Y-56802429D01*
X137420196Y-56826227D01*
X137423796Y-56850496D01*
X137425000Y-56875000D01*
X137425000Y-58125000D01*
X137423796Y-58149504D01*
X137420196Y-58173773D01*
X137414235Y-58197571D01*
X137405970Y-58220671D01*
X137395480Y-58242849D01*
X137382867Y-58263893D01*
X137368253Y-58283598D01*
X137351777Y-58301777D01*
X137333598Y-58318253D01*
X137313893Y-58332867D01*
X137292849Y-58345480D01*
X137270671Y-58355970D01*
X137247571Y-58364235D01*
X137223773Y-58370196D01*
X137199504Y-58373796D01*
X137175000Y-58375000D01*
X136425000Y-58375000D01*
X136400496Y-58373796D01*
X136376227Y-58370196D01*
X136352429Y-58364235D01*
X136329329Y-58355970D01*
X136307151Y-58345480D01*
X136286107Y-58332867D01*
X136266402Y-58318253D01*
X136248223Y-58301777D01*
X136231747Y-58283598D01*
X136217133Y-58263893D01*
X136204520Y-58242849D01*
X136194030Y-58220671D01*
X136185765Y-58197571D01*
X136179804Y-58173773D01*
X136176204Y-58149504D01*
X136175000Y-58125000D01*
X136175000Y-56875000D01*
X136176204Y-56850496D01*
X136179804Y-56826227D01*
X136185765Y-56802429D01*
X136194030Y-56779329D01*
X136204520Y-56757151D01*
X136217133Y-56736107D01*
X136231747Y-56716402D01*
X136248223Y-56698223D01*
X136266402Y-56681747D01*
X136286107Y-56667133D01*
X136307151Y-56654520D01*
X136329329Y-56644030D01*
X136352429Y-56635765D01*
X136376227Y-56629804D01*
X136400496Y-56626204D01*
X136425000Y-56625000D01*
X137175000Y-56625000D01*
X137199504Y-56626204D01*
X137199504Y-56626204D01*
G37*
D12*
X136800000Y-57500000D03*
D10*
G36*
X85099504Y-91126204D02*
G01*
X85123773Y-91129804D01*
X85147571Y-91135765D01*
X85170671Y-91144030D01*
X85192849Y-91154520D01*
X85213893Y-91167133D01*
X85233598Y-91181747D01*
X85251777Y-91198223D01*
X85268253Y-91216402D01*
X85282867Y-91236107D01*
X85295480Y-91257151D01*
X85305970Y-91279329D01*
X85314235Y-91302429D01*
X85320196Y-91326227D01*
X85323796Y-91350496D01*
X85325000Y-91375000D01*
X85325000Y-92625000D01*
X85323796Y-92649504D01*
X85320196Y-92673773D01*
X85314235Y-92697571D01*
X85305970Y-92720671D01*
X85295480Y-92742849D01*
X85282867Y-92763893D01*
X85268253Y-92783598D01*
X85251777Y-92801777D01*
X85233598Y-92818253D01*
X85213893Y-92832867D01*
X85192849Y-92845480D01*
X85170671Y-92855970D01*
X85147571Y-92864235D01*
X85123773Y-92870196D01*
X85099504Y-92873796D01*
X85075000Y-92875000D01*
X84325000Y-92875000D01*
X84300496Y-92873796D01*
X84276227Y-92870196D01*
X84252429Y-92864235D01*
X84229329Y-92855970D01*
X84207151Y-92845480D01*
X84186107Y-92832867D01*
X84166402Y-92818253D01*
X84148223Y-92801777D01*
X84131747Y-92783598D01*
X84117133Y-92763893D01*
X84104520Y-92742849D01*
X84094030Y-92720671D01*
X84085765Y-92697571D01*
X84079804Y-92673773D01*
X84076204Y-92649504D01*
X84075000Y-92625000D01*
X84075000Y-91375000D01*
X84076204Y-91350496D01*
X84079804Y-91326227D01*
X84085765Y-91302429D01*
X84094030Y-91279329D01*
X84104520Y-91257151D01*
X84117133Y-91236107D01*
X84131747Y-91216402D01*
X84148223Y-91198223D01*
X84166402Y-91181747D01*
X84186107Y-91167133D01*
X84207151Y-91154520D01*
X84229329Y-91144030D01*
X84252429Y-91135765D01*
X84276227Y-91129804D01*
X84300496Y-91126204D01*
X84325000Y-91125000D01*
X85075000Y-91125000D01*
X85099504Y-91126204D01*
X85099504Y-91126204D01*
G37*
D12*
X84700000Y-92000000D03*
D10*
G36*
X87899504Y-91126204D02*
G01*
X87923773Y-91129804D01*
X87947571Y-91135765D01*
X87970671Y-91144030D01*
X87992849Y-91154520D01*
X88013893Y-91167133D01*
X88033598Y-91181747D01*
X88051777Y-91198223D01*
X88068253Y-91216402D01*
X88082867Y-91236107D01*
X88095480Y-91257151D01*
X88105970Y-91279329D01*
X88114235Y-91302429D01*
X88120196Y-91326227D01*
X88123796Y-91350496D01*
X88125000Y-91375000D01*
X88125000Y-92625000D01*
X88123796Y-92649504D01*
X88120196Y-92673773D01*
X88114235Y-92697571D01*
X88105970Y-92720671D01*
X88095480Y-92742849D01*
X88082867Y-92763893D01*
X88068253Y-92783598D01*
X88051777Y-92801777D01*
X88033598Y-92818253D01*
X88013893Y-92832867D01*
X87992849Y-92845480D01*
X87970671Y-92855970D01*
X87947571Y-92864235D01*
X87923773Y-92870196D01*
X87899504Y-92873796D01*
X87875000Y-92875000D01*
X87125000Y-92875000D01*
X87100496Y-92873796D01*
X87076227Y-92870196D01*
X87052429Y-92864235D01*
X87029329Y-92855970D01*
X87007151Y-92845480D01*
X86986107Y-92832867D01*
X86966402Y-92818253D01*
X86948223Y-92801777D01*
X86931747Y-92783598D01*
X86917133Y-92763893D01*
X86904520Y-92742849D01*
X86894030Y-92720671D01*
X86885765Y-92697571D01*
X86879804Y-92673773D01*
X86876204Y-92649504D01*
X86875000Y-92625000D01*
X86875000Y-91375000D01*
X86876204Y-91350496D01*
X86879804Y-91326227D01*
X86885765Y-91302429D01*
X86894030Y-91279329D01*
X86904520Y-91257151D01*
X86917133Y-91236107D01*
X86931747Y-91216402D01*
X86948223Y-91198223D01*
X86966402Y-91181747D01*
X86986107Y-91167133D01*
X87007151Y-91154520D01*
X87029329Y-91144030D01*
X87052429Y-91135765D01*
X87076227Y-91129804D01*
X87100496Y-91126204D01*
X87125000Y-91125000D01*
X87875000Y-91125000D01*
X87899504Y-91126204D01*
X87899504Y-91126204D01*
G37*
D12*
X87500000Y-92000000D03*
D10*
G36*
X85099504Y-71326204D02*
G01*
X85123773Y-71329804D01*
X85147571Y-71335765D01*
X85170671Y-71344030D01*
X85192849Y-71354520D01*
X85213893Y-71367133D01*
X85233598Y-71381747D01*
X85251777Y-71398223D01*
X85268253Y-71416402D01*
X85282867Y-71436107D01*
X85295480Y-71457151D01*
X85305970Y-71479329D01*
X85314235Y-71502429D01*
X85320196Y-71526227D01*
X85323796Y-71550496D01*
X85325000Y-71575000D01*
X85325000Y-72825000D01*
X85323796Y-72849504D01*
X85320196Y-72873773D01*
X85314235Y-72897571D01*
X85305970Y-72920671D01*
X85295480Y-72942849D01*
X85282867Y-72963893D01*
X85268253Y-72983598D01*
X85251777Y-73001777D01*
X85233598Y-73018253D01*
X85213893Y-73032867D01*
X85192849Y-73045480D01*
X85170671Y-73055970D01*
X85147571Y-73064235D01*
X85123773Y-73070196D01*
X85099504Y-73073796D01*
X85075000Y-73075000D01*
X84325000Y-73075000D01*
X84300496Y-73073796D01*
X84276227Y-73070196D01*
X84252429Y-73064235D01*
X84229329Y-73055970D01*
X84207151Y-73045480D01*
X84186107Y-73032867D01*
X84166402Y-73018253D01*
X84148223Y-73001777D01*
X84131747Y-72983598D01*
X84117133Y-72963893D01*
X84104520Y-72942849D01*
X84094030Y-72920671D01*
X84085765Y-72897571D01*
X84079804Y-72873773D01*
X84076204Y-72849504D01*
X84075000Y-72825000D01*
X84075000Y-71575000D01*
X84076204Y-71550496D01*
X84079804Y-71526227D01*
X84085765Y-71502429D01*
X84094030Y-71479329D01*
X84104520Y-71457151D01*
X84117133Y-71436107D01*
X84131747Y-71416402D01*
X84148223Y-71398223D01*
X84166402Y-71381747D01*
X84186107Y-71367133D01*
X84207151Y-71354520D01*
X84229329Y-71344030D01*
X84252429Y-71335765D01*
X84276227Y-71329804D01*
X84300496Y-71326204D01*
X84325000Y-71325000D01*
X85075000Y-71325000D01*
X85099504Y-71326204D01*
X85099504Y-71326204D01*
G37*
D12*
X84700000Y-72200000D03*
D10*
G36*
X87899504Y-71326204D02*
G01*
X87923773Y-71329804D01*
X87947571Y-71335765D01*
X87970671Y-71344030D01*
X87992849Y-71354520D01*
X88013893Y-71367133D01*
X88033598Y-71381747D01*
X88051777Y-71398223D01*
X88068253Y-71416402D01*
X88082867Y-71436107D01*
X88095480Y-71457151D01*
X88105970Y-71479329D01*
X88114235Y-71502429D01*
X88120196Y-71526227D01*
X88123796Y-71550496D01*
X88125000Y-71575000D01*
X88125000Y-72825000D01*
X88123796Y-72849504D01*
X88120196Y-72873773D01*
X88114235Y-72897571D01*
X88105970Y-72920671D01*
X88095480Y-72942849D01*
X88082867Y-72963893D01*
X88068253Y-72983598D01*
X88051777Y-73001777D01*
X88033598Y-73018253D01*
X88013893Y-73032867D01*
X87992849Y-73045480D01*
X87970671Y-73055970D01*
X87947571Y-73064235D01*
X87923773Y-73070196D01*
X87899504Y-73073796D01*
X87875000Y-73075000D01*
X87125000Y-73075000D01*
X87100496Y-73073796D01*
X87076227Y-73070196D01*
X87052429Y-73064235D01*
X87029329Y-73055970D01*
X87007151Y-73045480D01*
X86986107Y-73032867D01*
X86966402Y-73018253D01*
X86948223Y-73001777D01*
X86931747Y-72983598D01*
X86917133Y-72963893D01*
X86904520Y-72942849D01*
X86894030Y-72920671D01*
X86885765Y-72897571D01*
X86879804Y-72873773D01*
X86876204Y-72849504D01*
X86875000Y-72825000D01*
X86875000Y-71575000D01*
X86876204Y-71550496D01*
X86879804Y-71526227D01*
X86885765Y-71502429D01*
X86894030Y-71479329D01*
X86904520Y-71457151D01*
X86917133Y-71436107D01*
X86931747Y-71416402D01*
X86948223Y-71398223D01*
X86966402Y-71381747D01*
X86986107Y-71367133D01*
X87007151Y-71354520D01*
X87029329Y-71344030D01*
X87052429Y-71335765D01*
X87076227Y-71329804D01*
X87100496Y-71326204D01*
X87125000Y-71325000D01*
X87875000Y-71325000D01*
X87899504Y-71326204D01*
X87899504Y-71326204D01*
G37*
D12*
X87500000Y-72200000D03*
D10*
G36*
X85099504Y-57326204D02*
G01*
X85123773Y-57329804D01*
X85147571Y-57335765D01*
X85170671Y-57344030D01*
X85192849Y-57354520D01*
X85213893Y-57367133D01*
X85233598Y-57381747D01*
X85251777Y-57398223D01*
X85268253Y-57416402D01*
X85282867Y-57436107D01*
X85295480Y-57457151D01*
X85305970Y-57479329D01*
X85314235Y-57502429D01*
X85320196Y-57526227D01*
X85323796Y-57550496D01*
X85325000Y-57575000D01*
X85325000Y-58825000D01*
X85323796Y-58849504D01*
X85320196Y-58873773D01*
X85314235Y-58897571D01*
X85305970Y-58920671D01*
X85295480Y-58942849D01*
X85282867Y-58963893D01*
X85268253Y-58983598D01*
X85251777Y-59001777D01*
X85233598Y-59018253D01*
X85213893Y-59032867D01*
X85192849Y-59045480D01*
X85170671Y-59055970D01*
X85147571Y-59064235D01*
X85123773Y-59070196D01*
X85099504Y-59073796D01*
X85075000Y-59075000D01*
X84325000Y-59075000D01*
X84300496Y-59073796D01*
X84276227Y-59070196D01*
X84252429Y-59064235D01*
X84229329Y-59055970D01*
X84207151Y-59045480D01*
X84186107Y-59032867D01*
X84166402Y-59018253D01*
X84148223Y-59001777D01*
X84131747Y-58983598D01*
X84117133Y-58963893D01*
X84104520Y-58942849D01*
X84094030Y-58920671D01*
X84085765Y-58897571D01*
X84079804Y-58873773D01*
X84076204Y-58849504D01*
X84075000Y-58825000D01*
X84075000Y-57575000D01*
X84076204Y-57550496D01*
X84079804Y-57526227D01*
X84085765Y-57502429D01*
X84094030Y-57479329D01*
X84104520Y-57457151D01*
X84117133Y-57436107D01*
X84131747Y-57416402D01*
X84148223Y-57398223D01*
X84166402Y-57381747D01*
X84186107Y-57367133D01*
X84207151Y-57354520D01*
X84229329Y-57344030D01*
X84252429Y-57335765D01*
X84276227Y-57329804D01*
X84300496Y-57326204D01*
X84325000Y-57325000D01*
X85075000Y-57325000D01*
X85099504Y-57326204D01*
X85099504Y-57326204D01*
G37*
D12*
X84700000Y-58200000D03*
D10*
G36*
X87899504Y-57326204D02*
G01*
X87923773Y-57329804D01*
X87947571Y-57335765D01*
X87970671Y-57344030D01*
X87992849Y-57354520D01*
X88013893Y-57367133D01*
X88033598Y-57381747D01*
X88051777Y-57398223D01*
X88068253Y-57416402D01*
X88082867Y-57436107D01*
X88095480Y-57457151D01*
X88105970Y-57479329D01*
X88114235Y-57502429D01*
X88120196Y-57526227D01*
X88123796Y-57550496D01*
X88125000Y-57575000D01*
X88125000Y-58825000D01*
X88123796Y-58849504D01*
X88120196Y-58873773D01*
X88114235Y-58897571D01*
X88105970Y-58920671D01*
X88095480Y-58942849D01*
X88082867Y-58963893D01*
X88068253Y-58983598D01*
X88051777Y-59001777D01*
X88033598Y-59018253D01*
X88013893Y-59032867D01*
X87992849Y-59045480D01*
X87970671Y-59055970D01*
X87947571Y-59064235D01*
X87923773Y-59070196D01*
X87899504Y-59073796D01*
X87875000Y-59075000D01*
X87125000Y-59075000D01*
X87100496Y-59073796D01*
X87076227Y-59070196D01*
X87052429Y-59064235D01*
X87029329Y-59055970D01*
X87007151Y-59045480D01*
X86986107Y-59032867D01*
X86966402Y-59018253D01*
X86948223Y-59001777D01*
X86931747Y-58983598D01*
X86917133Y-58963893D01*
X86904520Y-58942849D01*
X86894030Y-58920671D01*
X86885765Y-58897571D01*
X86879804Y-58873773D01*
X86876204Y-58849504D01*
X86875000Y-58825000D01*
X86875000Y-57575000D01*
X86876204Y-57550496D01*
X86879804Y-57526227D01*
X86885765Y-57502429D01*
X86894030Y-57479329D01*
X86904520Y-57457151D01*
X86917133Y-57436107D01*
X86931747Y-57416402D01*
X86948223Y-57398223D01*
X86966402Y-57381747D01*
X86986107Y-57367133D01*
X87007151Y-57354520D01*
X87029329Y-57344030D01*
X87052429Y-57335765D01*
X87076227Y-57329804D01*
X87100496Y-57326204D01*
X87125000Y-57325000D01*
X87875000Y-57325000D01*
X87899504Y-57326204D01*
X87899504Y-57326204D01*
G37*
D12*
X87500000Y-58200000D03*
D10*
G36*
X106564472Y-80094227D02*
G01*
X106569049Y-80094906D01*
X106573538Y-80096030D01*
X106577894Y-80097589D01*
X106582077Y-80099567D01*
X106586046Y-80101946D01*
X106589762Y-80104702D01*
X106593190Y-80107810D01*
X106596298Y-80111238D01*
X106599054Y-80114954D01*
X106601433Y-80118923D01*
X106603411Y-80123106D01*
X106604970Y-80127462D01*
X106606094Y-80131951D01*
X106606773Y-80136528D01*
X106607000Y-80141149D01*
X106607000Y-81356851D01*
X106606773Y-81361472D01*
X106606094Y-81366049D01*
X106604970Y-81370538D01*
X106603411Y-81374894D01*
X106601433Y-81379077D01*
X106599054Y-81383046D01*
X106596298Y-81386762D01*
X106593190Y-81390190D01*
X106589762Y-81393298D01*
X106586046Y-81396054D01*
X106582077Y-81398433D01*
X106577894Y-81400411D01*
X106573538Y-81401970D01*
X106569049Y-81403094D01*
X106564472Y-81403773D01*
X106559851Y-81404000D01*
X105504149Y-81404000D01*
X105499528Y-81403773D01*
X105494951Y-81403094D01*
X105490462Y-81401970D01*
X105486106Y-81400411D01*
X105481923Y-81398433D01*
X105477954Y-81396054D01*
X105474238Y-81393298D01*
X105470810Y-81390190D01*
X105467702Y-81386762D01*
X105464946Y-81383046D01*
X105462567Y-81379077D01*
X105460589Y-81374894D01*
X105459030Y-81370538D01*
X105457906Y-81366049D01*
X105457227Y-81361472D01*
X105457000Y-81356851D01*
X105457000Y-80141149D01*
X105457227Y-80136528D01*
X105457906Y-80131951D01*
X105459030Y-80127462D01*
X105460589Y-80123106D01*
X105462567Y-80118923D01*
X105464946Y-80114954D01*
X105467702Y-80111238D01*
X105470810Y-80107810D01*
X105474238Y-80104702D01*
X105477954Y-80101946D01*
X105481923Y-80099567D01*
X105486106Y-80097589D01*
X105490462Y-80096030D01*
X105494951Y-80094906D01*
X105499528Y-80094227D01*
X105504149Y-80094000D01*
X106559851Y-80094000D01*
X106564472Y-80094227D01*
X106564472Y-80094227D01*
G37*
D13*
X106032000Y-80749000D03*
D10*
G36*
X106564472Y-81664227D02*
G01*
X106569049Y-81664906D01*
X106573538Y-81666030D01*
X106577894Y-81667589D01*
X106582077Y-81669567D01*
X106586046Y-81671946D01*
X106589762Y-81674702D01*
X106593190Y-81677810D01*
X106596298Y-81681238D01*
X106599054Y-81684954D01*
X106601433Y-81688923D01*
X106603411Y-81693106D01*
X106604970Y-81697462D01*
X106606094Y-81701951D01*
X106606773Y-81706528D01*
X106607000Y-81711149D01*
X106607000Y-82926851D01*
X106606773Y-82931472D01*
X106606094Y-82936049D01*
X106604970Y-82940538D01*
X106603411Y-82944894D01*
X106601433Y-82949077D01*
X106599054Y-82953046D01*
X106596298Y-82956762D01*
X106593190Y-82960190D01*
X106589762Y-82963298D01*
X106586046Y-82966054D01*
X106582077Y-82968433D01*
X106577894Y-82970411D01*
X106573538Y-82971970D01*
X106569049Y-82973094D01*
X106564472Y-82973773D01*
X106559851Y-82974000D01*
X105504149Y-82974000D01*
X105499528Y-82973773D01*
X105494951Y-82973094D01*
X105490462Y-82971970D01*
X105486106Y-82970411D01*
X105481923Y-82968433D01*
X105477954Y-82966054D01*
X105474238Y-82963298D01*
X105470810Y-82960190D01*
X105467702Y-82956762D01*
X105464946Y-82953046D01*
X105462567Y-82949077D01*
X105460589Y-82944894D01*
X105459030Y-82940538D01*
X105457906Y-82936049D01*
X105457227Y-82931472D01*
X105457000Y-82926851D01*
X105457000Y-81711149D01*
X105457227Y-81706528D01*
X105457906Y-81701951D01*
X105459030Y-81697462D01*
X105460589Y-81693106D01*
X105462567Y-81688923D01*
X105464946Y-81684954D01*
X105467702Y-81681238D01*
X105470810Y-81677810D01*
X105474238Y-81674702D01*
X105477954Y-81671946D01*
X105481923Y-81669567D01*
X105486106Y-81667589D01*
X105490462Y-81666030D01*
X105494951Y-81664906D01*
X105499528Y-81664227D01*
X105504149Y-81664000D01*
X106559851Y-81664000D01*
X106564472Y-81664227D01*
X106564472Y-81664227D01*
G37*
D13*
X106032000Y-82319000D03*
D10*
G36*
X109384472Y-81664227D02*
G01*
X109389049Y-81664906D01*
X109393538Y-81666030D01*
X109397894Y-81667589D01*
X109402077Y-81669567D01*
X109406046Y-81671946D01*
X109409762Y-81674702D01*
X109413190Y-81677810D01*
X109416298Y-81681238D01*
X109419054Y-81684954D01*
X109421433Y-81688923D01*
X109423411Y-81693106D01*
X109424970Y-81697462D01*
X109426094Y-81701951D01*
X109426773Y-81706528D01*
X109427000Y-81711149D01*
X109427000Y-82926851D01*
X109426773Y-82931472D01*
X109426094Y-82936049D01*
X109424970Y-82940538D01*
X109423411Y-82944894D01*
X109421433Y-82949077D01*
X109419054Y-82953046D01*
X109416298Y-82956762D01*
X109413190Y-82960190D01*
X109409762Y-82963298D01*
X109406046Y-82966054D01*
X109402077Y-82968433D01*
X109397894Y-82970411D01*
X109393538Y-82971970D01*
X109389049Y-82973094D01*
X109384472Y-82973773D01*
X109379851Y-82974000D01*
X108324149Y-82974000D01*
X108319528Y-82973773D01*
X108314951Y-82973094D01*
X108310462Y-82971970D01*
X108306106Y-82970411D01*
X108301923Y-82968433D01*
X108297954Y-82966054D01*
X108294238Y-82963298D01*
X108290810Y-82960190D01*
X108287702Y-82956762D01*
X108284946Y-82953046D01*
X108282567Y-82949077D01*
X108280589Y-82944894D01*
X108279030Y-82940538D01*
X108277906Y-82936049D01*
X108277227Y-82931472D01*
X108277000Y-82926851D01*
X108277000Y-81711149D01*
X108277227Y-81706528D01*
X108277906Y-81701951D01*
X108279030Y-81697462D01*
X108280589Y-81693106D01*
X108282567Y-81688923D01*
X108284946Y-81684954D01*
X108287702Y-81681238D01*
X108290810Y-81677810D01*
X108294238Y-81674702D01*
X108297954Y-81671946D01*
X108301923Y-81669567D01*
X108306106Y-81667589D01*
X108310462Y-81666030D01*
X108314951Y-81664906D01*
X108319528Y-81664227D01*
X108324149Y-81664000D01*
X109379851Y-81664000D01*
X109384472Y-81664227D01*
X109384472Y-81664227D01*
G37*
D13*
X108852000Y-82319000D03*
D10*
G36*
X109365952Y-80094219D02*
G01*
X109370369Y-80094874D01*
X109374702Y-80095960D01*
X109378907Y-80097464D01*
X109382944Y-80099374D01*
X109386774Y-80101670D01*
X109390362Y-80104330D01*
X109393671Y-80107329D01*
X109396670Y-80110638D01*
X109399330Y-80114226D01*
X109401626Y-80118056D01*
X109403536Y-80122093D01*
X109405040Y-80126298D01*
X109406126Y-80130631D01*
X109406781Y-80135048D01*
X109407000Y-80139509D01*
X109407000Y-81358491D01*
X109406781Y-81362952D01*
X109406126Y-81367369D01*
X109405040Y-81371702D01*
X109403536Y-81375907D01*
X109401626Y-81379944D01*
X109399330Y-81383774D01*
X109396670Y-81387362D01*
X109393671Y-81390671D01*
X109390362Y-81393670D01*
X109386774Y-81396330D01*
X109382944Y-81398626D01*
X109378907Y-81400536D01*
X109374702Y-81402040D01*
X109370369Y-81403126D01*
X109365952Y-81403781D01*
X109361491Y-81404000D01*
X108342509Y-81404000D01*
X108338048Y-81403781D01*
X108333631Y-81403126D01*
X108329298Y-81402040D01*
X108325093Y-81400536D01*
X108321056Y-81398626D01*
X108317226Y-81396330D01*
X108313638Y-81393670D01*
X108310329Y-81390671D01*
X108307330Y-81387362D01*
X108304670Y-81383774D01*
X108302374Y-81379944D01*
X108300464Y-81375907D01*
X108298960Y-81371702D01*
X108297874Y-81367369D01*
X108297219Y-81362952D01*
X108297000Y-81358491D01*
X108297000Y-80139509D01*
X108297219Y-80135048D01*
X108297874Y-80130631D01*
X108298960Y-80126298D01*
X108300464Y-80122093D01*
X108302374Y-80118056D01*
X108304670Y-80114226D01*
X108307330Y-80110638D01*
X108310329Y-80107329D01*
X108313638Y-80104330D01*
X108317226Y-80101670D01*
X108321056Y-80099374D01*
X108325093Y-80097464D01*
X108329298Y-80095960D01*
X108333631Y-80094874D01*
X108338048Y-80094219D01*
X108342509Y-80094000D01*
X109361491Y-80094000D01*
X109365952Y-80094219D01*
X109365952Y-80094219D01*
G37*
D14*
X108852000Y-80749000D03*
D10*
G36*
X107974472Y-80094227D02*
G01*
X107979049Y-80094906D01*
X107983538Y-80096030D01*
X107987894Y-80097589D01*
X107992077Y-80099567D01*
X107996046Y-80101946D01*
X107999762Y-80104702D01*
X108003190Y-80107810D01*
X108006298Y-80111238D01*
X108009054Y-80114954D01*
X108011433Y-80118923D01*
X108013411Y-80123106D01*
X108014970Y-80127462D01*
X108016094Y-80131951D01*
X108016773Y-80136528D01*
X108017000Y-80141149D01*
X108017000Y-81356851D01*
X108016773Y-81361472D01*
X108016094Y-81366049D01*
X108014970Y-81370538D01*
X108013411Y-81374894D01*
X108011433Y-81379077D01*
X108009054Y-81383046D01*
X108006298Y-81386762D01*
X108003190Y-81390190D01*
X107999762Y-81393298D01*
X107996046Y-81396054D01*
X107992077Y-81398433D01*
X107987894Y-81400411D01*
X107983538Y-81401970D01*
X107979049Y-81403094D01*
X107974472Y-81403773D01*
X107969851Y-81404000D01*
X106914149Y-81404000D01*
X106909528Y-81403773D01*
X106904951Y-81403094D01*
X106900462Y-81401970D01*
X106896106Y-81400411D01*
X106891923Y-81398433D01*
X106887954Y-81396054D01*
X106884238Y-81393298D01*
X106880810Y-81390190D01*
X106877702Y-81386762D01*
X106874946Y-81383046D01*
X106872567Y-81379077D01*
X106870589Y-81374894D01*
X106869030Y-81370538D01*
X106867906Y-81366049D01*
X106867227Y-81361472D01*
X106867000Y-81356851D01*
X106867000Y-80141149D01*
X106867227Y-80136528D01*
X106867906Y-80131951D01*
X106869030Y-80127462D01*
X106870589Y-80123106D01*
X106872567Y-80118923D01*
X106874946Y-80114954D01*
X106877702Y-80111238D01*
X106880810Y-80107810D01*
X106884238Y-80104702D01*
X106887954Y-80101946D01*
X106891923Y-80099567D01*
X106896106Y-80097589D01*
X106900462Y-80096030D01*
X106904951Y-80094906D01*
X106909528Y-80094227D01*
X106914149Y-80094000D01*
X107969851Y-80094000D01*
X107974472Y-80094227D01*
X107974472Y-80094227D01*
G37*
D13*
X107442000Y-80749000D03*
D10*
G36*
X107974472Y-81664227D02*
G01*
X107979049Y-81664906D01*
X107983538Y-81666030D01*
X107987894Y-81667589D01*
X107992077Y-81669567D01*
X107996046Y-81671946D01*
X107999762Y-81674702D01*
X108003190Y-81677810D01*
X108006298Y-81681238D01*
X108009054Y-81684954D01*
X108011433Y-81688923D01*
X108013411Y-81693106D01*
X108014970Y-81697462D01*
X108016094Y-81701951D01*
X108016773Y-81706528D01*
X108017000Y-81711149D01*
X108017000Y-82926851D01*
X108016773Y-82931472D01*
X108016094Y-82936049D01*
X108014970Y-82940538D01*
X108013411Y-82944894D01*
X108011433Y-82949077D01*
X108009054Y-82953046D01*
X108006298Y-82956762D01*
X108003190Y-82960190D01*
X107999762Y-82963298D01*
X107996046Y-82966054D01*
X107992077Y-82968433D01*
X107987894Y-82970411D01*
X107983538Y-82971970D01*
X107979049Y-82973094D01*
X107974472Y-82973773D01*
X107969851Y-82974000D01*
X106914149Y-82974000D01*
X106909528Y-82973773D01*
X106904951Y-82973094D01*
X106900462Y-82971970D01*
X106896106Y-82970411D01*
X106891923Y-82968433D01*
X106887954Y-82966054D01*
X106884238Y-82963298D01*
X106880810Y-82960190D01*
X106877702Y-82956762D01*
X106874946Y-82953046D01*
X106872567Y-82949077D01*
X106870589Y-82944894D01*
X106869030Y-82940538D01*
X106867906Y-82936049D01*
X106867227Y-82931472D01*
X106867000Y-82926851D01*
X106867000Y-81711149D01*
X106867227Y-81706528D01*
X106867906Y-81701951D01*
X106869030Y-81697462D01*
X106870589Y-81693106D01*
X106872567Y-81688923D01*
X106874946Y-81684954D01*
X106877702Y-81681238D01*
X106880810Y-81677810D01*
X106884238Y-81674702D01*
X106887954Y-81671946D01*
X106891923Y-81669567D01*
X106896106Y-81667589D01*
X106900462Y-81666030D01*
X106904951Y-81664906D01*
X106909528Y-81664227D01*
X106914149Y-81664000D01*
X107969851Y-81664000D01*
X107974472Y-81664227D01*
X107974472Y-81664227D01*
G37*
D13*
X107442000Y-82319000D03*
D10*
G36*
X109506883Y-83924241D02*
G01*
X109511738Y-83924961D01*
X109516500Y-83926154D01*
X109521122Y-83927808D01*
X109525559Y-83929906D01*
X109529770Y-83932430D01*
X109533712Y-83935354D01*
X109537349Y-83938651D01*
X109540646Y-83942288D01*
X109543570Y-83946230D01*
X109546094Y-83950441D01*
X109548192Y-83954878D01*
X109549846Y-83959500D01*
X109551039Y-83964262D01*
X109551759Y-83969117D01*
X109552000Y-83974020D01*
X109552000Y-84683980D01*
X109551759Y-84688883D01*
X109551039Y-84693738D01*
X109549846Y-84698500D01*
X109548192Y-84703122D01*
X109546094Y-84707559D01*
X109543570Y-84711770D01*
X109540646Y-84715712D01*
X109537349Y-84719349D01*
X109533712Y-84722646D01*
X109529770Y-84725570D01*
X109525559Y-84728094D01*
X109521122Y-84730192D01*
X109516500Y-84731846D01*
X109511738Y-84733039D01*
X109506883Y-84733759D01*
X109501980Y-84734000D01*
X109192020Y-84734000D01*
X109187117Y-84733759D01*
X109182262Y-84733039D01*
X109177500Y-84731846D01*
X109172878Y-84730192D01*
X109168441Y-84728094D01*
X109164230Y-84725570D01*
X109160288Y-84722646D01*
X109156651Y-84719349D01*
X109153354Y-84715712D01*
X109150430Y-84711770D01*
X109147906Y-84707559D01*
X109145808Y-84703122D01*
X109144154Y-84698500D01*
X109142961Y-84693738D01*
X109142241Y-84688883D01*
X109142000Y-84683980D01*
X109142000Y-83974020D01*
X109142241Y-83969117D01*
X109142961Y-83964262D01*
X109144154Y-83959500D01*
X109145808Y-83954878D01*
X109147906Y-83950441D01*
X109150430Y-83946230D01*
X109153354Y-83942288D01*
X109156651Y-83938651D01*
X109160288Y-83935354D01*
X109164230Y-83932430D01*
X109168441Y-83929906D01*
X109172878Y-83927808D01*
X109177500Y-83926154D01*
X109182262Y-83924961D01*
X109187117Y-83924241D01*
X109192020Y-83924000D01*
X109501980Y-83924000D01*
X109506883Y-83924241D01*
X109506883Y-83924241D01*
G37*
D15*
X109347000Y-84329000D03*
D10*
G36*
X108236883Y-83924241D02*
G01*
X108241738Y-83924961D01*
X108246500Y-83926154D01*
X108251122Y-83927808D01*
X108255559Y-83929906D01*
X108259770Y-83932430D01*
X108263712Y-83935354D01*
X108267349Y-83938651D01*
X108270646Y-83942288D01*
X108273570Y-83946230D01*
X108276094Y-83950441D01*
X108278192Y-83954878D01*
X108279846Y-83959500D01*
X108281039Y-83964262D01*
X108281759Y-83969117D01*
X108282000Y-83974020D01*
X108282000Y-84683980D01*
X108281759Y-84688883D01*
X108281039Y-84693738D01*
X108279846Y-84698500D01*
X108278192Y-84703122D01*
X108276094Y-84707559D01*
X108273570Y-84711770D01*
X108270646Y-84715712D01*
X108267349Y-84719349D01*
X108263712Y-84722646D01*
X108259770Y-84725570D01*
X108255559Y-84728094D01*
X108251122Y-84730192D01*
X108246500Y-84731846D01*
X108241738Y-84733039D01*
X108236883Y-84733759D01*
X108231980Y-84734000D01*
X107922020Y-84734000D01*
X107917117Y-84733759D01*
X107912262Y-84733039D01*
X107907500Y-84731846D01*
X107902878Y-84730192D01*
X107898441Y-84728094D01*
X107894230Y-84725570D01*
X107890288Y-84722646D01*
X107886651Y-84719349D01*
X107883354Y-84715712D01*
X107880430Y-84711770D01*
X107877906Y-84707559D01*
X107875808Y-84703122D01*
X107874154Y-84698500D01*
X107872961Y-84693738D01*
X107872241Y-84688883D01*
X107872000Y-84683980D01*
X107872000Y-83974020D01*
X107872241Y-83969117D01*
X107872961Y-83964262D01*
X107874154Y-83959500D01*
X107875808Y-83954878D01*
X107877906Y-83950441D01*
X107880430Y-83946230D01*
X107883354Y-83942288D01*
X107886651Y-83938651D01*
X107890288Y-83935354D01*
X107894230Y-83932430D01*
X107898441Y-83929906D01*
X107902878Y-83927808D01*
X107907500Y-83926154D01*
X107912262Y-83924961D01*
X107917117Y-83924241D01*
X107922020Y-83924000D01*
X108231980Y-83924000D01*
X108236883Y-83924241D01*
X108236883Y-83924241D01*
G37*
D15*
X108077000Y-84329000D03*
D10*
G36*
X106966883Y-83924241D02*
G01*
X106971738Y-83924961D01*
X106976500Y-83926154D01*
X106981122Y-83927808D01*
X106985559Y-83929906D01*
X106989770Y-83932430D01*
X106993712Y-83935354D01*
X106997349Y-83938651D01*
X107000646Y-83942288D01*
X107003570Y-83946230D01*
X107006094Y-83950441D01*
X107008192Y-83954878D01*
X107009846Y-83959500D01*
X107011039Y-83964262D01*
X107011759Y-83969117D01*
X107012000Y-83974020D01*
X107012000Y-84683980D01*
X107011759Y-84688883D01*
X107011039Y-84693738D01*
X107009846Y-84698500D01*
X107008192Y-84703122D01*
X107006094Y-84707559D01*
X107003570Y-84711770D01*
X107000646Y-84715712D01*
X106997349Y-84719349D01*
X106993712Y-84722646D01*
X106989770Y-84725570D01*
X106985559Y-84728094D01*
X106981122Y-84730192D01*
X106976500Y-84731846D01*
X106971738Y-84733039D01*
X106966883Y-84733759D01*
X106961980Y-84734000D01*
X106652020Y-84734000D01*
X106647117Y-84733759D01*
X106642262Y-84733039D01*
X106637500Y-84731846D01*
X106632878Y-84730192D01*
X106628441Y-84728094D01*
X106624230Y-84725570D01*
X106620288Y-84722646D01*
X106616651Y-84719349D01*
X106613354Y-84715712D01*
X106610430Y-84711770D01*
X106607906Y-84707559D01*
X106605808Y-84703122D01*
X106604154Y-84698500D01*
X106602961Y-84693738D01*
X106602241Y-84688883D01*
X106602000Y-84683980D01*
X106602000Y-83974020D01*
X106602241Y-83969117D01*
X106602961Y-83964262D01*
X106604154Y-83959500D01*
X106605808Y-83954878D01*
X106607906Y-83950441D01*
X106610430Y-83946230D01*
X106613354Y-83942288D01*
X106616651Y-83938651D01*
X106620288Y-83935354D01*
X106624230Y-83932430D01*
X106628441Y-83929906D01*
X106632878Y-83927808D01*
X106637500Y-83926154D01*
X106642262Y-83924961D01*
X106647117Y-83924241D01*
X106652020Y-83924000D01*
X106961980Y-83924000D01*
X106966883Y-83924241D01*
X106966883Y-83924241D01*
G37*
D15*
X106807000Y-84329000D03*
D10*
G36*
X105696883Y-83924241D02*
G01*
X105701738Y-83924961D01*
X105706500Y-83926154D01*
X105711122Y-83927808D01*
X105715559Y-83929906D01*
X105719770Y-83932430D01*
X105723712Y-83935354D01*
X105727349Y-83938651D01*
X105730646Y-83942288D01*
X105733570Y-83946230D01*
X105736094Y-83950441D01*
X105738192Y-83954878D01*
X105739846Y-83959500D01*
X105741039Y-83964262D01*
X105741759Y-83969117D01*
X105742000Y-83974020D01*
X105742000Y-84683980D01*
X105741759Y-84688883D01*
X105741039Y-84693738D01*
X105739846Y-84698500D01*
X105738192Y-84703122D01*
X105736094Y-84707559D01*
X105733570Y-84711770D01*
X105730646Y-84715712D01*
X105727349Y-84719349D01*
X105723712Y-84722646D01*
X105719770Y-84725570D01*
X105715559Y-84728094D01*
X105711122Y-84730192D01*
X105706500Y-84731846D01*
X105701738Y-84733039D01*
X105696883Y-84733759D01*
X105691980Y-84734000D01*
X105382020Y-84734000D01*
X105377117Y-84733759D01*
X105372262Y-84733039D01*
X105367500Y-84731846D01*
X105362878Y-84730192D01*
X105358441Y-84728094D01*
X105354230Y-84725570D01*
X105350288Y-84722646D01*
X105346651Y-84719349D01*
X105343354Y-84715712D01*
X105340430Y-84711770D01*
X105337906Y-84707559D01*
X105335808Y-84703122D01*
X105334154Y-84698500D01*
X105332961Y-84693738D01*
X105332241Y-84688883D01*
X105332000Y-84683980D01*
X105332000Y-83974020D01*
X105332241Y-83969117D01*
X105332961Y-83964262D01*
X105334154Y-83959500D01*
X105335808Y-83954878D01*
X105337906Y-83950441D01*
X105340430Y-83946230D01*
X105343354Y-83942288D01*
X105346651Y-83938651D01*
X105350288Y-83935354D01*
X105354230Y-83932430D01*
X105358441Y-83929906D01*
X105362878Y-83927808D01*
X105367500Y-83926154D01*
X105372262Y-83924961D01*
X105377117Y-83924241D01*
X105382020Y-83924000D01*
X105691980Y-83924000D01*
X105696883Y-83924241D01*
X105696883Y-83924241D01*
G37*
D15*
X105537000Y-84329000D03*
D10*
G36*
X105696883Y-78334241D02*
G01*
X105701738Y-78334961D01*
X105706500Y-78336154D01*
X105711122Y-78337808D01*
X105715559Y-78339906D01*
X105719770Y-78342430D01*
X105723712Y-78345354D01*
X105727349Y-78348651D01*
X105730646Y-78352288D01*
X105733570Y-78356230D01*
X105736094Y-78360441D01*
X105738192Y-78364878D01*
X105739846Y-78369500D01*
X105741039Y-78374262D01*
X105741759Y-78379117D01*
X105742000Y-78384020D01*
X105742000Y-79093980D01*
X105741759Y-79098883D01*
X105741039Y-79103738D01*
X105739846Y-79108500D01*
X105738192Y-79113122D01*
X105736094Y-79117559D01*
X105733570Y-79121770D01*
X105730646Y-79125712D01*
X105727349Y-79129349D01*
X105723712Y-79132646D01*
X105719770Y-79135570D01*
X105715559Y-79138094D01*
X105711122Y-79140192D01*
X105706500Y-79141846D01*
X105701738Y-79143039D01*
X105696883Y-79143759D01*
X105691980Y-79144000D01*
X105382020Y-79144000D01*
X105377117Y-79143759D01*
X105372262Y-79143039D01*
X105367500Y-79141846D01*
X105362878Y-79140192D01*
X105358441Y-79138094D01*
X105354230Y-79135570D01*
X105350288Y-79132646D01*
X105346651Y-79129349D01*
X105343354Y-79125712D01*
X105340430Y-79121770D01*
X105337906Y-79117559D01*
X105335808Y-79113122D01*
X105334154Y-79108500D01*
X105332961Y-79103738D01*
X105332241Y-79098883D01*
X105332000Y-79093980D01*
X105332000Y-78384020D01*
X105332241Y-78379117D01*
X105332961Y-78374262D01*
X105334154Y-78369500D01*
X105335808Y-78364878D01*
X105337906Y-78360441D01*
X105340430Y-78356230D01*
X105343354Y-78352288D01*
X105346651Y-78348651D01*
X105350288Y-78345354D01*
X105354230Y-78342430D01*
X105358441Y-78339906D01*
X105362878Y-78337808D01*
X105367500Y-78336154D01*
X105372262Y-78334961D01*
X105377117Y-78334241D01*
X105382020Y-78334000D01*
X105691980Y-78334000D01*
X105696883Y-78334241D01*
X105696883Y-78334241D01*
G37*
D15*
X105537000Y-78739000D03*
D10*
G36*
X106966883Y-78334241D02*
G01*
X106971738Y-78334961D01*
X106976500Y-78336154D01*
X106981122Y-78337808D01*
X106985559Y-78339906D01*
X106989770Y-78342430D01*
X106993712Y-78345354D01*
X106997349Y-78348651D01*
X107000646Y-78352288D01*
X107003570Y-78356230D01*
X107006094Y-78360441D01*
X107008192Y-78364878D01*
X107009846Y-78369500D01*
X107011039Y-78374262D01*
X107011759Y-78379117D01*
X107012000Y-78384020D01*
X107012000Y-79093980D01*
X107011759Y-79098883D01*
X107011039Y-79103738D01*
X107009846Y-79108500D01*
X107008192Y-79113122D01*
X107006094Y-79117559D01*
X107003570Y-79121770D01*
X107000646Y-79125712D01*
X106997349Y-79129349D01*
X106993712Y-79132646D01*
X106989770Y-79135570D01*
X106985559Y-79138094D01*
X106981122Y-79140192D01*
X106976500Y-79141846D01*
X106971738Y-79143039D01*
X106966883Y-79143759D01*
X106961980Y-79144000D01*
X106652020Y-79144000D01*
X106647117Y-79143759D01*
X106642262Y-79143039D01*
X106637500Y-79141846D01*
X106632878Y-79140192D01*
X106628441Y-79138094D01*
X106624230Y-79135570D01*
X106620288Y-79132646D01*
X106616651Y-79129349D01*
X106613354Y-79125712D01*
X106610430Y-79121770D01*
X106607906Y-79117559D01*
X106605808Y-79113122D01*
X106604154Y-79108500D01*
X106602961Y-79103738D01*
X106602241Y-79098883D01*
X106602000Y-79093980D01*
X106602000Y-78384020D01*
X106602241Y-78379117D01*
X106602961Y-78374262D01*
X106604154Y-78369500D01*
X106605808Y-78364878D01*
X106607906Y-78360441D01*
X106610430Y-78356230D01*
X106613354Y-78352288D01*
X106616651Y-78348651D01*
X106620288Y-78345354D01*
X106624230Y-78342430D01*
X106628441Y-78339906D01*
X106632878Y-78337808D01*
X106637500Y-78336154D01*
X106642262Y-78334961D01*
X106647117Y-78334241D01*
X106652020Y-78334000D01*
X106961980Y-78334000D01*
X106966883Y-78334241D01*
X106966883Y-78334241D01*
G37*
D15*
X106807000Y-78739000D03*
D10*
G36*
X108236883Y-78334241D02*
G01*
X108241738Y-78334961D01*
X108246500Y-78336154D01*
X108251122Y-78337808D01*
X108255559Y-78339906D01*
X108259770Y-78342430D01*
X108263712Y-78345354D01*
X108267349Y-78348651D01*
X108270646Y-78352288D01*
X108273570Y-78356230D01*
X108276094Y-78360441D01*
X108278192Y-78364878D01*
X108279846Y-78369500D01*
X108281039Y-78374262D01*
X108281759Y-78379117D01*
X108282000Y-78384020D01*
X108282000Y-79093980D01*
X108281759Y-79098883D01*
X108281039Y-79103738D01*
X108279846Y-79108500D01*
X108278192Y-79113122D01*
X108276094Y-79117559D01*
X108273570Y-79121770D01*
X108270646Y-79125712D01*
X108267349Y-79129349D01*
X108263712Y-79132646D01*
X108259770Y-79135570D01*
X108255559Y-79138094D01*
X108251122Y-79140192D01*
X108246500Y-79141846D01*
X108241738Y-79143039D01*
X108236883Y-79143759D01*
X108231980Y-79144000D01*
X107922020Y-79144000D01*
X107917117Y-79143759D01*
X107912262Y-79143039D01*
X107907500Y-79141846D01*
X107902878Y-79140192D01*
X107898441Y-79138094D01*
X107894230Y-79135570D01*
X107890288Y-79132646D01*
X107886651Y-79129349D01*
X107883354Y-79125712D01*
X107880430Y-79121770D01*
X107877906Y-79117559D01*
X107875808Y-79113122D01*
X107874154Y-79108500D01*
X107872961Y-79103738D01*
X107872241Y-79098883D01*
X107872000Y-79093980D01*
X107872000Y-78384020D01*
X107872241Y-78379117D01*
X107872961Y-78374262D01*
X107874154Y-78369500D01*
X107875808Y-78364878D01*
X107877906Y-78360441D01*
X107880430Y-78356230D01*
X107883354Y-78352288D01*
X107886651Y-78348651D01*
X107890288Y-78345354D01*
X107894230Y-78342430D01*
X107898441Y-78339906D01*
X107902878Y-78337808D01*
X107907500Y-78336154D01*
X107912262Y-78334961D01*
X107917117Y-78334241D01*
X107922020Y-78334000D01*
X108231980Y-78334000D01*
X108236883Y-78334241D01*
X108236883Y-78334241D01*
G37*
D15*
X108077000Y-78739000D03*
D10*
G36*
X109506883Y-78334241D02*
G01*
X109511738Y-78334961D01*
X109516500Y-78336154D01*
X109521122Y-78337808D01*
X109525559Y-78339906D01*
X109529770Y-78342430D01*
X109533712Y-78345354D01*
X109537349Y-78348651D01*
X109540646Y-78352288D01*
X109543570Y-78356230D01*
X109546094Y-78360441D01*
X109548192Y-78364878D01*
X109549846Y-78369500D01*
X109551039Y-78374262D01*
X109551759Y-78379117D01*
X109552000Y-78384020D01*
X109552000Y-79093980D01*
X109551759Y-79098883D01*
X109551039Y-79103738D01*
X109549846Y-79108500D01*
X109548192Y-79113122D01*
X109546094Y-79117559D01*
X109543570Y-79121770D01*
X109540646Y-79125712D01*
X109537349Y-79129349D01*
X109533712Y-79132646D01*
X109529770Y-79135570D01*
X109525559Y-79138094D01*
X109521122Y-79140192D01*
X109516500Y-79141846D01*
X109511738Y-79143039D01*
X109506883Y-79143759D01*
X109501980Y-79144000D01*
X109192020Y-79144000D01*
X109187117Y-79143759D01*
X109182262Y-79143039D01*
X109177500Y-79141846D01*
X109172878Y-79140192D01*
X109168441Y-79138094D01*
X109164230Y-79135570D01*
X109160288Y-79132646D01*
X109156651Y-79129349D01*
X109153354Y-79125712D01*
X109150430Y-79121770D01*
X109147906Y-79117559D01*
X109145808Y-79113122D01*
X109144154Y-79108500D01*
X109142961Y-79103738D01*
X109142241Y-79098883D01*
X109142000Y-79093980D01*
X109142000Y-78384020D01*
X109142241Y-78379117D01*
X109142961Y-78374262D01*
X109144154Y-78369500D01*
X109145808Y-78364878D01*
X109147906Y-78360441D01*
X109150430Y-78356230D01*
X109153354Y-78352288D01*
X109156651Y-78348651D01*
X109160288Y-78345354D01*
X109164230Y-78342430D01*
X109168441Y-78339906D01*
X109172878Y-78337808D01*
X109177500Y-78336154D01*
X109182262Y-78334961D01*
X109187117Y-78334241D01*
X109192020Y-78334000D01*
X109501980Y-78334000D01*
X109506883Y-78334241D01*
X109506883Y-78334241D01*
G37*
D15*
X109347000Y-78739000D03*
D10*
G36*
X122054782Y-68992530D02*
G01*
X122065460Y-68994114D01*
X122075931Y-68996737D01*
X122086095Y-69000373D01*
X122095854Y-69004989D01*
X122105113Y-69010538D01*
X122113783Y-69016969D01*
X122121782Y-69024218D01*
X122129031Y-69032217D01*
X122135462Y-69040887D01*
X122141011Y-69050146D01*
X122145627Y-69059905D01*
X122149263Y-69070069D01*
X122151886Y-69080540D01*
X122153470Y-69091218D01*
X122154000Y-69102000D01*
X122154000Y-69982000D01*
X122153470Y-69992782D01*
X122151886Y-70003460D01*
X122149263Y-70013931D01*
X122145627Y-70024095D01*
X122141011Y-70033854D01*
X122135462Y-70043113D01*
X122129031Y-70051783D01*
X122121782Y-70059782D01*
X122113783Y-70067031D01*
X122105113Y-70073462D01*
X122095854Y-70079011D01*
X122086095Y-70083627D01*
X122075931Y-70087263D01*
X122065460Y-70089886D01*
X122054782Y-70091470D01*
X122044000Y-70092000D01*
X119064000Y-70092000D01*
X119053218Y-70091470D01*
X119042540Y-70089886D01*
X119032069Y-70087263D01*
X119021905Y-70083627D01*
X119012146Y-70079011D01*
X119002887Y-70073462D01*
X118994217Y-70067031D01*
X118986218Y-70059782D01*
X118978969Y-70051783D01*
X118972538Y-70043113D01*
X118966989Y-70033854D01*
X118962373Y-70024095D01*
X118958737Y-70013931D01*
X118956114Y-70003460D01*
X118954530Y-69992782D01*
X118954000Y-69982000D01*
X118954000Y-69102000D01*
X118954530Y-69091218D01*
X118956114Y-69080540D01*
X118958737Y-69070069D01*
X118962373Y-69059905D01*
X118966989Y-69050146D01*
X118972538Y-69040887D01*
X118978969Y-69032217D01*
X118986218Y-69024218D01*
X118994217Y-69016969D01*
X119002887Y-69010538D01*
X119012146Y-69004989D01*
X119021905Y-69000373D01*
X119032069Y-68996737D01*
X119042540Y-68994114D01*
X119053218Y-68992530D01*
X119064000Y-68992000D01*
X122044000Y-68992000D01*
X122054782Y-68992530D01*
X122054782Y-68992530D01*
G37*
D16*
X120554000Y-69542000D03*
D10*
G36*
X114254782Y-68992530D02*
G01*
X114265460Y-68994114D01*
X114275931Y-68996737D01*
X114286095Y-69000373D01*
X114295854Y-69004989D01*
X114305113Y-69010538D01*
X114313783Y-69016969D01*
X114321782Y-69024218D01*
X114329031Y-69032217D01*
X114335462Y-69040887D01*
X114341011Y-69050146D01*
X114345627Y-69059905D01*
X114349263Y-69070069D01*
X114351886Y-69080540D01*
X114353470Y-69091218D01*
X114354000Y-69102000D01*
X114354000Y-69982000D01*
X114353470Y-69992782D01*
X114351886Y-70003460D01*
X114349263Y-70013931D01*
X114345627Y-70024095D01*
X114341011Y-70033854D01*
X114335462Y-70043113D01*
X114329031Y-70051783D01*
X114321782Y-70059782D01*
X114313783Y-70067031D01*
X114305113Y-70073462D01*
X114295854Y-70079011D01*
X114286095Y-70083627D01*
X114275931Y-70087263D01*
X114265460Y-70089886D01*
X114254782Y-70091470D01*
X114244000Y-70092000D01*
X111264000Y-70092000D01*
X111253218Y-70091470D01*
X111242540Y-70089886D01*
X111232069Y-70087263D01*
X111221905Y-70083627D01*
X111212146Y-70079011D01*
X111202887Y-70073462D01*
X111194217Y-70067031D01*
X111186218Y-70059782D01*
X111178969Y-70051783D01*
X111172538Y-70043113D01*
X111166989Y-70033854D01*
X111162373Y-70024095D01*
X111158737Y-70013931D01*
X111156114Y-70003460D01*
X111154530Y-69992782D01*
X111154000Y-69982000D01*
X111154000Y-69102000D01*
X111154530Y-69091218D01*
X111156114Y-69080540D01*
X111158737Y-69070069D01*
X111162373Y-69059905D01*
X111166989Y-69050146D01*
X111172538Y-69040887D01*
X111178969Y-69032217D01*
X111186218Y-69024218D01*
X111194217Y-69016969D01*
X111202887Y-69010538D01*
X111212146Y-69004989D01*
X111221905Y-69000373D01*
X111232069Y-68996737D01*
X111242540Y-68994114D01*
X111253218Y-68992530D01*
X111264000Y-68992000D01*
X114244000Y-68992000D01*
X114254782Y-68992530D01*
X114254782Y-68992530D01*
G37*
D16*
X112754000Y-69542000D03*
D10*
G36*
X122054782Y-57362530D02*
G01*
X122065460Y-57364114D01*
X122075931Y-57366737D01*
X122086095Y-57370373D01*
X122095854Y-57374989D01*
X122105113Y-57380538D01*
X122113783Y-57386969D01*
X122121782Y-57394218D01*
X122129031Y-57402217D01*
X122135462Y-57410887D01*
X122141011Y-57420146D01*
X122145627Y-57429905D01*
X122149263Y-57440069D01*
X122151886Y-57450540D01*
X122153470Y-57461218D01*
X122154000Y-57472000D01*
X122154000Y-58352000D01*
X122153470Y-58362782D01*
X122151886Y-58373460D01*
X122149263Y-58383931D01*
X122145627Y-58394095D01*
X122141011Y-58403854D01*
X122135462Y-58413113D01*
X122129031Y-58421783D01*
X122121782Y-58429782D01*
X122113783Y-58437031D01*
X122105113Y-58443462D01*
X122095854Y-58449011D01*
X122086095Y-58453627D01*
X122075931Y-58457263D01*
X122065460Y-58459886D01*
X122054782Y-58461470D01*
X122044000Y-58462000D01*
X119064000Y-58462000D01*
X119053218Y-58461470D01*
X119042540Y-58459886D01*
X119032069Y-58457263D01*
X119021905Y-58453627D01*
X119012146Y-58449011D01*
X119002887Y-58443462D01*
X118994217Y-58437031D01*
X118986218Y-58429782D01*
X118978969Y-58421783D01*
X118972538Y-58413113D01*
X118966989Y-58403854D01*
X118962373Y-58394095D01*
X118958737Y-58383931D01*
X118956114Y-58373460D01*
X118954530Y-58362782D01*
X118954000Y-58352000D01*
X118954000Y-57472000D01*
X118954530Y-57461218D01*
X118956114Y-57450540D01*
X118958737Y-57440069D01*
X118962373Y-57429905D01*
X118966989Y-57420146D01*
X118972538Y-57410887D01*
X118978969Y-57402217D01*
X118986218Y-57394218D01*
X118994217Y-57386969D01*
X119002887Y-57380538D01*
X119012146Y-57374989D01*
X119021905Y-57370373D01*
X119032069Y-57366737D01*
X119042540Y-57364114D01*
X119053218Y-57362530D01*
X119064000Y-57362000D01*
X122044000Y-57362000D01*
X122054782Y-57362530D01*
X122054782Y-57362530D01*
G37*
D16*
X120554000Y-57912000D03*
D10*
G36*
X114254782Y-57362530D02*
G01*
X114265460Y-57364114D01*
X114275931Y-57366737D01*
X114286095Y-57370373D01*
X114295854Y-57374989D01*
X114305113Y-57380538D01*
X114313783Y-57386969D01*
X114321782Y-57394218D01*
X114329031Y-57402217D01*
X114335462Y-57410887D01*
X114341011Y-57420146D01*
X114345627Y-57429905D01*
X114349263Y-57440069D01*
X114351886Y-57450540D01*
X114353470Y-57461218D01*
X114354000Y-57472000D01*
X114354000Y-58352000D01*
X114353470Y-58362782D01*
X114351886Y-58373460D01*
X114349263Y-58383931D01*
X114345627Y-58394095D01*
X114341011Y-58403854D01*
X114335462Y-58413113D01*
X114329031Y-58421783D01*
X114321782Y-58429782D01*
X114313783Y-58437031D01*
X114305113Y-58443462D01*
X114295854Y-58449011D01*
X114286095Y-58453627D01*
X114275931Y-58457263D01*
X114265460Y-58459886D01*
X114254782Y-58461470D01*
X114244000Y-58462000D01*
X111264000Y-58462000D01*
X111253218Y-58461470D01*
X111242540Y-58459886D01*
X111232069Y-58457263D01*
X111221905Y-58453627D01*
X111212146Y-58449011D01*
X111202887Y-58443462D01*
X111194217Y-58437031D01*
X111186218Y-58429782D01*
X111178969Y-58421783D01*
X111172538Y-58413113D01*
X111166989Y-58403854D01*
X111162373Y-58394095D01*
X111158737Y-58383931D01*
X111156114Y-58373460D01*
X111154530Y-58362782D01*
X111154000Y-58352000D01*
X111154000Y-57472000D01*
X111154530Y-57461218D01*
X111156114Y-57450540D01*
X111158737Y-57440069D01*
X111162373Y-57429905D01*
X111166989Y-57420146D01*
X111172538Y-57410887D01*
X111178969Y-57402217D01*
X111186218Y-57394218D01*
X111194217Y-57386969D01*
X111202887Y-57380538D01*
X111212146Y-57374989D01*
X111221905Y-57370373D01*
X111232069Y-57366737D01*
X111242540Y-57364114D01*
X111253218Y-57362530D01*
X111264000Y-57362000D01*
X114244000Y-57362000D01*
X114254782Y-57362530D01*
X114254782Y-57362530D01*
G37*
D16*
X112754000Y-57912000D03*
D10*
G36*
X100724782Y-68992530D02*
G01*
X100735460Y-68994114D01*
X100745931Y-68996737D01*
X100756095Y-69000373D01*
X100765854Y-69004989D01*
X100775113Y-69010538D01*
X100783783Y-69016969D01*
X100791782Y-69024218D01*
X100799031Y-69032217D01*
X100805462Y-69040887D01*
X100811011Y-69050146D01*
X100815627Y-69059905D01*
X100819263Y-69070069D01*
X100821886Y-69080540D01*
X100823470Y-69091218D01*
X100824000Y-69102000D01*
X100824000Y-69982000D01*
X100823470Y-69992782D01*
X100821886Y-70003460D01*
X100819263Y-70013931D01*
X100815627Y-70024095D01*
X100811011Y-70033854D01*
X100805462Y-70043113D01*
X100799031Y-70051783D01*
X100791782Y-70059782D01*
X100783783Y-70067031D01*
X100775113Y-70073462D01*
X100765854Y-70079011D01*
X100756095Y-70083627D01*
X100745931Y-70087263D01*
X100735460Y-70089886D01*
X100724782Y-70091470D01*
X100714000Y-70092000D01*
X97734000Y-70092000D01*
X97723218Y-70091470D01*
X97712540Y-70089886D01*
X97702069Y-70087263D01*
X97691905Y-70083627D01*
X97682146Y-70079011D01*
X97672887Y-70073462D01*
X97664217Y-70067031D01*
X97656218Y-70059782D01*
X97648969Y-70051783D01*
X97642538Y-70043113D01*
X97636989Y-70033854D01*
X97632373Y-70024095D01*
X97628737Y-70013931D01*
X97626114Y-70003460D01*
X97624530Y-69992782D01*
X97624000Y-69982000D01*
X97624000Y-69102000D01*
X97624530Y-69091218D01*
X97626114Y-69080540D01*
X97628737Y-69070069D01*
X97632373Y-69059905D01*
X97636989Y-69050146D01*
X97642538Y-69040887D01*
X97648969Y-69032217D01*
X97656218Y-69024218D01*
X97664217Y-69016969D01*
X97672887Y-69010538D01*
X97682146Y-69004989D01*
X97691905Y-69000373D01*
X97702069Y-68996737D01*
X97712540Y-68994114D01*
X97723218Y-68992530D01*
X97734000Y-68992000D01*
X100714000Y-68992000D01*
X100724782Y-68992530D01*
X100724782Y-68992530D01*
G37*
D16*
X99224000Y-69542000D03*
D10*
G36*
X108524782Y-68992530D02*
G01*
X108535460Y-68994114D01*
X108545931Y-68996737D01*
X108556095Y-69000373D01*
X108565854Y-69004989D01*
X108575113Y-69010538D01*
X108583783Y-69016969D01*
X108591782Y-69024218D01*
X108599031Y-69032217D01*
X108605462Y-69040887D01*
X108611011Y-69050146D01*
X108615627Y-69059905D01*
X108619263Y-69070069D01*
X108621886Y-69080540D01*
X108623470Y-69091218D01*
X108624000Y-69102000D01*
X108624000Y-69982000D01*
X108623470Y-69992782D01*
X108621886Y-70003460D01*
X108619263Y-70013931D01*
X108615627Y-70024095D01*
X108611011Y-70033854D01*
X108605462Y-70043113D01*
X108599031Y-70051783D01*
X108591782Y-70059782D01*
X108583783Y-70067031D01*
X108575113Y-70073462D01*
X108565854Y-70079011D01*
X108556095Y-70083627D01*
X108545931Y-70087263D01*
X108535460Y-70089886D01*
X108524782Y-70091470D01*
X108514000Y-70092000D01*
X105534000Y-70092000D01*
X105523218Y-70091470D01*
X105512540Y-70089886D01*
X105502069Y-70087263D01*
X105491905Y-70083627D01*
X105482146Y-70079011D01*
X105472887Y-70073462D01*
X105464217Y-70067031D01*
X105456218Y-70059782D01*
X105448969Y-70051783D01*
X105442538Y-70043113D01*
X105436989Y-70033854D01*
X105432373Y-70024095D01*
X105428737Y-70013931D01*
X105426114Y-70003460D01*
X105424530Y-69992782D01*
X105424000Y-69982000D01*
X105424000Y-69102000D01*
X105424530Y-69091218D01*
X105426114Y-69080540D01*
X105428737Y-69070069D01*
X105432373Y-69059905D01*
X105436989Y-69050146D01*
X105442538Y-69040887D01*
X105448969Y-69032217D01*
X105456218Y-69024218D01*
X105464217Y-69016969D01*
X105472887Y-69010538D01*
X105482146Y-69004989D01*
X105491905Y-69000373D01*
X105502069Y-68996737D01*
X105512540Y-68994114D01*
X105523218Y-68992530D01*
X105534000Y-68992000D01*
X108514000Y-68992000D01*
X108524782Y-68992530D01*
X108524782Y-68992530D01*
G37*
D16*
X107024000Y-69542000D03*
D10*
G36*
X100724782Y-57362530D02*
G01*
X100735460Y-57364114D01*
X100745931Y-57366737D01*
X100756095Y-57370373D01*
X100765854Y-57374989D01*
X100775113Y-57380538D01*
X100783783Y-57386969D01*
X100791782Y-57394218D01*
X100799031Y-57402217D01*
X100805462Y-57410887D01*
X100811011Y-57420146D01*
X100815627Y-57429905D01*
X100819263Y-57440069D01*
X100821886Y-57450540D01*
X100823470Y-57461218D01*
X100824000Y-57472000D01*
X100824000Y-58352000D01*
X100823470Y-58362782D01*
X100821886Y-58373460D01*
X100819263Y-58383931D01*
X100815627Y-58394095D01*
X100811011Y-58403854D01*
X100805462Y-58413113D01*
X100799031Y-58421783D01*
X100791782Y-58429782D01*
X100783783Y-58437031D01*
X100775113Y-58443462D01*
X100765854Y-58449011D01*
X100756095Y-58453627D01*
X100745931Y-58457263D01*
X100735460Y-58459886D01*
X100724782Y-58461470D01*
X100714000Y-58462000D01*
X97734000Y-58462000D01*
X97723218Y-58461470D01*
X97712540Y-58459886D01*
X97702069Y-58457263D01*
X97691905Y-58453627D01*
X97682146Y-58449011D01*
X97672887Y-58443462D01*
X97664217Y-58437031D01*
X97656218Y-58429782D01*
X97648969Y-58421783D01*
X97642538Y-58413113D01*
X97636989Y-58403854D01*
X97632373Y-58394095D01*
X97628737Y-58383931D01*
X97626114Y-58373460D01*
X97624530Y-58362782D01*
X97624000Y-58352000D01*
X97624000Y-57472000D01*
X97624530Y-57461218D01*
X97626114Y-57450540D01*
X97628737Y-57440069D01*
X97632373Y-57429905D01*
X97636989Y-57420146D01*
X97642538Y-57410887D01*
X97648969Y-57402217D01*
X97656218Y-57394218D01*
X97664217Y-57386969D01*
X97672887Y-57380538D01*
X97682146Y-57374989D01*
X97691905Y-57370373D01*
X97702069Y-57366737D01*
X97712540Y-57364114D01*
X97723218Y-57362530D01*
X97734000Y-57362000D01*
X100714000Y-57362000D01*
X100724782Y-57362530D01*
X100724782Y-57362530D01*
G37*
D16*
X99224000Y-57912000D03*
D10*
G36*
X108524782Y-57362530D02*
G01*
X108535460Y-57364114D01*
X108545931Y-57366737D01*
X108556095Y-57370373D01*
X108565854Y-57374989D01*
X108575113Y-57380538D01*
X108583783Y-57386969D01*
X108591782Y-57394218D01*
X108599031Y-57402217D01*
X108605462Y-57410887D01*
X108611011Y-57420146D01*
X108615627Y-57429905D01*
X108619263Y-57440069D01*
X108621886Y-57450540D01*
X108623470Y-57461218D01*
X108624000Y-57472000D01*
X108624000Y-58352000D01*
X108623470Y-58362782D01*
X108621886Y-58373460D01*
X108619263Y-58383931D01*
X108615627Y-58394095D01*
X108611011Y-58403854D01*
X108605462Y-58413113D01*
X108599031Y-58421783D01*
X108591782Y-58429782D01*
X108583783Y-58437031D01*
X108575113Y-58443462D01*
X108565854Y-58449011D01*
X108556095Y-58453627D01*
X108545931Y-58457263D01*
X108535460Y-58459886D01*
X108524782Y-58461470D01*
X108514000Y-58462000D01*
X105534000Y-58462000D01*
X105523218Y-58461470D01*
X105512540Y-58459886D01*
X105502069Y-58457263D01*
X105491905Y-58453627D01*
X105482146Y-58449011D01*
X105472887Y-58443462D01*
X105464217Y-58437031D01*
X105456218Y-58429782D01*
X105448969Y-58421783D01*
X105442538Y-58413113D01*
X105436989Y-58403854D01*
X105432373Y-58394095D01*
X105428737Y-58383931D01*
X105426114Y-58373460D01*
X105424530Y-58362782D01*
X105424000Y-58352000D01*
X105424000Y-57472000D01*
X105424530Y-57461218D01*
X105426114Y-57450540D01*
X105428737Y-57440069D01*
X105432373Y-57429905D01*
X105436989Y-57420146D01*
X105442538Y-57410887D01*
X105448969Y-57402217D01*
X105456218Y-57394218D01*
X105464217Y-57386969D01*
X105472887Y-57380538D01*
X105482146Y-57374989D01*
X105491905Y-57370373D01*
X105502069Y-57366737D01*
X105512540Y-57364114D01*
X105523218Y-57362530D01*
X105534000Y-57362000D01*
X108514000Y-57362000D01*
X108524782Y-57362530D01*
X108524782Y-57362530D01*
G37*
D16*
X107024000Y-57912000D03*
D10*
G36*
X115199504Y-80026204D02*
G01*
X115223773Y-80029804D01*
X115247571Y-80035765D01*
X115270671Y-80044030D01*
X115292849Y-80054520D01*
X115313893Y-80067133D01*
X115333598Y-80081747D01*
X115351777Y-80098223D01*
X115368253Y-80116402D01*
X115382867Y-80136107D01*
X115395480Y-80157151D01*
X115405970Y-80179329D01*
X115414235Y-80202429D01*
X115420196Y-80226227D01*
X115423796Y-80250496D01*
X115425000Y-80275000D01*
X115425000Y-81025000D01*
X115423796Y-81049504D01*
X115420196Y-81073773D01*
X115414235Y-81097571D01*
X115405970Y-81120671D01*
X115395480Y-81142849D01*
X115382867Y-81163893D01*
X115368253Y-81183598D01*
X115351777Y-81201777D01*
X115333598Y-81218253D01*
X115313893Y-81232867D01*
X115292849Y-81245480D01*
X115270671Y-81255970D01*
X115247571Y-81264235D01*
X115223773Y-81270196D01*
X115199504Y-81273796D01*
X115175000Y-81275000D01*
X113925000Y-81275000D01*
X113900496Y-81273796D01*
X113876227Y-81270196D01*
X113852429Y-81264235D01*
X113829329Y-81255970D01*
X113807151Y-81245480D01*
X113786107Y-81232867D01*
X113766402Y-81218253D01*
X113748223Y-81201777D01*
X113731747Y-81183598D01*
X113717133Y-81163893D01*
X113704520Y-81142849D01*
X113694030Y-81120671D01*
X113685765Y-81097571D01*
X113679804Y-81073773D01*
X113676204Y-81049504D01*
X113675000Y-81025000D01*
X113675000Y-80275000D01*
X113676204Y-80250496D01*
X113679804Y-80226227D01*
X113685765Y-80202429D01*
X113694030Y-80179329D01*
X113704520Y-80157151D01*
X113717133Y-80136107D01*
X113731747Y-80116402D01*
X113748223Y-80098223D01*
X113766402Y-80081747D01*
X113786107Y-80067133D01*
X113807151Y-80054520D01*
X113829329Y-80044030D01*
X113852429Y-80035765D01*
X113876227Y-80029804D01*
X113900496Y-80026204D01*
X113925000Y-80025000D01*
X115175000Y-80025000D01*
X115199504Y-80026204D01*
X115199504Y-80026204D01*
G37*
D12*
X114550000Y-80650000D03*
D10*
G36*
X115199504Y-77226204D02*
G01*
X115223773Y-77229804D01*
X115247571Y-77235765D01*
X115270671Y-77244030D01*
X115292849Y-77254520D01*
X115313893Y-77267133D01*
X115333598Y-77281747D01*
X115351777Y-77298223D01*
X115368253Y-77316402D01*
X115382867Y-77336107D01*
X115395480Y-77357151D01*
X115405970Y-77379329D01*
X115414235Y-77402429D01*
X115420196Y-77426227D01*
X115423796Y-77450496D01*
X115425000Y-77475000D01*
X115425000Y-78225000D01*
X115423796Y-78249504D01*
X115420196Y-78273773D01*
X115414235Y-78297571D01*
X115405970Y-78320671D01*
X115395480Y-78342849D01*
X115382867Y-78363893D01*
X115368253Y-78383598D01*
X115351777Y-78401777D01*
X115333598Y-78418253D01*
X115313893Y-78432867D01*
X115292849Y-78445480D01*
X115270671Y-78455970D01*
X115247571Y-78464235D01*
X115223773Y-78470196D01*
X115199504Y-78473796D01*
X115175000Y-78475000D01*
X113925000Y-78475000D01*
X113900496Y-78473796D01*
X113876227Y-78470196D01*
X113852429Y-78464235D01*
X113829329Y-78455970D01*
X113807151Y-78445480D01*
X113786107Y-78432867D01*
X113766402Y-78418253D01*
X113748223Y-78401777D01*
X113731747Y-78383598D01*
X113717133Y-78363893D01*
X113704520Y-78342849D01*
X113694030Y-78320671D01*
X113685765Y-78297571D01*
X113679804Y-78273773D01*
X113676204Y-78249504D01*
X113675000Y-78225000D01*
X113675000Y-77475000D01*
X113676204Y-77450496D01*
X113679804Y-77426227D01*
X113685765Y-77402429D01*
X113694030Y-77379329D01*
X113704520Y-77357151D01*
X113717133Y-77336107D01*
X113731747Y-77316402D01*
X113748223Y-77298223D01*
X113766402Y-77281747D01*
X113786107Y-77267133D01*
X113807151Y-77254520D01*
X113829329Y-77244030D01*
X113852429Y-77235765D01*
X113876227Y-77229804D01*
X113900496Y-77226204D01*
X113925000Y-77225000D01*
X115175000Y-77225000D01*
X115199504Y-77226204D01*
X115199504Y-77226204D01*
G37*
D12*
X114550000Y-77850000D03*
D10*
G36*
X127099504Y-90476204D02*
G01*
X127123773Y-90479804D01*
X127147571Y-90485765D01*
X127170671Y-90494030D01*
X127192849Y-90504520D01*
X127213893Y-90517133D01*
X127233598Y-90531747D01*
X127251777Y-90548223D01*
X127268253Y-90566402D01*
X127282867Y-90586107D01*
X127295480Y-90607151D01*
X127305970Y-90629329D01*
X127314235Y-90652429D01*
X127320196Y-90676227D01*
X127323796Y-90700496D01*
X127325000Y-90725000D01*
X127325000Y-91475000D01*
X127323796Y-91499504D01*
X127320196Y-91523773D01*
X127314235Y-91547571D01*
X127305970Y-91570671D01*
X127295480Y-91592849D01*
X127282867Y-91613893D01*
X127268253Y-91633598D01*
X127251777Y-91651777D01*
X127233598Y-91668253D01*
X127213893Y-91682867D01*
X127192849Y-91695480D01*
X127170671Y-91705970D01*
X127147571Y-91714235D01*
X127123773Y-91720196D01*
X127099504Y-91723796D01*
X127075000Y-91725000D01*
X124925000Y-91725000D01*
X124900496Y-91723796D01*
X124876227Y-91720196D01*
X124852429Y-91714235D01*
X124829329Y-91705970D01*
X124807151Y-91695480D01*
X124786107Y-91682867D01*
X124766402Y-91668253D01*
X124748223Y-91651777D01*
X124731747Y-91633598D01*
X124717133Y-91613893D01*
X124704520Y-91592849D01*
X124694030Y-91570671D01*
X124685765Y-91547571D01*
X124679804Y-91523773D01*
X124676204Y-91499504D01*
X124675000Y-91475000D01*
X124675000Y-90725000D01*
X124676204Y-90700496D01*
X124679804Y-90676227D01*
X124685765Y-90652429D01*
X124694030Y-90629329D01*
X124704520Y-90607151D01*
X124717133Y-90586107D01*
X124731747Y-90566402D01*
X124748223Y-90548223D01*
X124766402Y-90531747D01*
X124786107Y-90517133D01*
X124807151Y-90504520D01*
X124829329Y-90494030D01*
X124852429Y-90485765D01*
X124876227Y-90479804D01*
X124900496Y-90476204D01*
X124925000Y-90475000D01*
X127075000Y-90475000D01*
X127099504Y-90476204D01*
X127099504Y-90476204D01*
G37*
D12*
X126000000Y-91100000D03*
D10*
G36*
X127099504Y-93276204D02*
G01*
X127123773Y-93279804D01*
X127147571Y-93285765D01*
X127170671Y-93294030D01*
X127192849Y-93304520D01*
X127213893Y-93317133D01*
X127233598Y-93331747D01*
X127251777Y-93348223D01*
X127268253Y-93366402D01*
X127282867Y-93386107D01*
X127295480Y-93407151D01*
X127305970Y-93429329D01*
X127314235Y-93452429D01*
X127320196Y-93476227D01*
X127323796Y-93500496D01*
X127325000Y-93525000D01*
X127325000Y-94275000D01*
X127323796Y-94299504D01*
X127320196Y-94323773D01*
X127314235Y-94347571D01*
X127305970Y-94370671D01*
X127295480Y-94392849D01*
X127282867Y-94413893D01*
X127268253Y-94433598D01*
X127251777Y-94451777D01*
X127233598Y-94468253D01*
X127213893Y-94482867D01*
X127192849Y-94495480D01*
X127170671Y-94505970D01*
X127147571Y-94514235D01*
X127123773Y-94520196D01*
X127099504Y-94523796D01*
X127075000Y-94525000D01*
X124925000Y-94525000D01*
X124900496Y-94523796D01*
X124876227Y-94520196D01*
X124852429Y-94514235D01*
X124829329Y-94505970D01*
X124807151Y-94495480D01*
X124786107Y-94482867D01*
X124766402Y-94468253D01*
X124748223Y-94451777D01*
X124731747Y-94433598D01*
X124717133Y-94413893D01*
X124704520Y-94392849D01*
X124694030Y-94370671D01*
X124685765Y-94347571D01*
X124679804Y-94323773D01*
X124676204Y-94299504D01*
X124675000Y-94275000D01*
X124675000Y-93525000D01*
X124676204Y-93500496D01*
X124679804Y-93476227D01*
X124685765Y-93452429D01*
X124694030Y-93429329D01*
X124704520Y-93407151D01*
X124717133Y-93386107D01*
X124731747Y-93366402D01*
X124748223Y-93348223D01*
X124766402Y-93331747D01*
X124786107Y-93317133D01*
X124807151Y-93304520D01*
X124829329Y-93294030D01*
X124852429Y-93285765D01*
X124876227Y-93279804D01*
X124900496Y-93276204D01*
X124925000Y-93275000D01*
X127075000Y-93275000D01*
X127099504Y-93276204D01*
X127099504Y-93276204D01*
G37*
D12*
X126000000Y-93900000D03*
D10*
G36*
X127099504Y-99776204D02*
G01*
X127123773Y-99779804D01*
X127147571Y-99785765D01*
X127170671Y-99794030D01*
X127192849Y-99804520D01*
X127213893Y-99817133D01*
X127233598Y-99831747D01*
X127251777Y-99848223D01*
X127268253Y-99866402D01*
X127282867Y-99886107D01*
X127295480Y-99907151D01*
X127305970Y-99929329D01*
X127314235Y-99952429D01*
X127320196Y-99976227D01*
X127323796Y-100000496D01*
X127325000Y-100025000D01*
X127325000Y-100775000D01*
X127323796Y-100799504D01*
X127320196Y-100823773D01*
X127314235Y-100847571D01*
X127305970Y-100870671D01*
X127295480Y-100892849D01*
X127282867Y-100913893D01*
X127268253Y-100933598D01*
X127251777Y-100951777D01*
X127233598Y-100968253D01*
X127213893Y-100982867D01*
X127192849Y-100995480D01*
X127170671Y-101005970D01*
X127147571Y-101014235D01*
X127123773Y-101020196D01*
X127099504Y-101023796D01*
X127075000Y-101025000D01*
X124925000Y-101025000D01*
X124900496Y-101023796D01*
X124876227Y-101020196D01*
X124852429Y-101014235D01*
X124829329Y-101005970D01*
X124807151Y-100995480D01*
X124786107Y-100982867D01*
X124766402Y-100968253D01*
X124748223Y-100951777D01*
X124731747Y-100933598D01*
X124717133Y-100913893D01*
X124704520Y-100892849D01*
X124694030Y-100870671D01*
X124685765Y-100847571D01*
X124679804Y-100823773D01*
X124676204Y-100799504D01*
X124675000Y-100775000D01*
X124675000Y-100025000D01*
X124676204Y-100000496D01*
X124679804Y-99976227D01*
X124685765Y-99952429D01*
X124694030Y-99929329D01*
X124704520Y-99907151D01*
X124717133Y-99886107D01*
X124731747Y-99866402D01*
X124748223Y-99848223D01*
X124766402Y-99831747D01*
X124786107Y-99817133D01*
X124807151Y-99804520D01*
X124829329Y-99794030D01*
X124852429Y-99785765D01*
X124876227Y-99779804D01*
X124900496Y-99776204D01*
X124925000Y-99775000D01*
X127075000Y-99775000D01*
X127099504Y-99776204D01*
X127099504Y-99776204D01*
G37*
D12*
X126000000Y-100400000D03*
D10*
G36*
X127099504Y-96976204D02*
G01*
X127123773Y-96979804D01*
X127147571Y-96985765D01*
X127170671Y-96994030D01*
X127192849Y-97004520D01*
X127213893Y-97017133D01*
X127233598Y-97031747D01*
X127251777Y-97048223D01*
X127268253Y-97066402D01*
X127282867Y-97086107D01*
X127295480Y-97107151D01*
X127305970Y-97129329D01*
X127314235Y-97152429D01*
X127320196Y-97176227D01*
X127323796Y-97200496D01*
X127325000Y-97225000D01*
X127325000Y-97975000D01*
X127323796Y-97999504D01*
X127320196Y-98023773D01*
X127314235Y-98047571D01*
X127305970Y-98070671D01*
X127295480Y-98092849D01*
X127282867Y-98113893D01*
X127268253Y-98133598D01*
X127251777Y-98151777D01*
X127233598Y-98168253D01*
X127213893Y-98182867D01*
X127192849Y-98195480D01*
X127170671Y-98205970D01*
X127147571Y-98214235D01*
X127123773Y-98220196D01*
X127099504Y-98223796D01*
X127075000Y-98225000D01*
X124925000Y-98225000D01*
X124900496Y-98223796D01*
X124876227Y-98220196D01*
X124852429Y-98214235D01*
X124829329Y-98205970D01*
X124807151Y-98195480D01*
X124786107Y-98182867D01*
X124766402Y-98168253D01*
X124748223Y-98151777D01*
X124731747Y-98133598D01*
X124717133Y-98113893D01*
X124704520Y-98092849D01*
X124694030Y-98070671D01*
X124685765Y-98047571D01*
X124679804Y-98023773D01*
X124676204Y-97999504D01*
X124675000Y-97975000D01*
X124675000Y-97225000D01*
X124676204Y-97200496D01*
X124679804Y-97176227D01*
X124685765Y-97152429D01*
X124694030Y-97129329D01*
X124704520Y-97107151D01*
X124717133Y-97086107D01*
X124731747Y-97066402D01*
X124748223Y-97048223D01*
X124766402Y-97031747D01*
X124786107Y-97017133D01*
X124807151Y-97004520D01*
X124829329Y-96994030D01*
X124852429Y-96985765D01*
X124876227Y-96979804D01*
X124900496Y-96976204D01*
X124925000Y-96975000D01*
X127075000Y-96975000D01*
X127099504Y-96976204D01*
X127099504Y-96976204D01*
G37*
D12*
X126000000Y-97600000D03*
D10*
G36*
X103139504Y-93164204D02*
G01*
X103163773Y-93167804D01*
X103187571Y-93173765D01*
X103210671Y-93182030D01*
X103232849Y-93192520D01*
X103253893Y-93205133D01*
X103273598Y-93219747D01*
X103291777Y-93236223D01*
X103308253Y-93254402D01*
X103322867Y-93274107D01*
X103335480Y-93295151D01*
X103345970Y-93317329D01*
X103354235Y-93340429D01*
X103360196Y-93364227D01*
X103363796Y-93388496D01*
X103365000Y-93413000D01*
X103365000Y-95563000D01*
X103363796Y-95587504D01*
X103360196Y-95611773D01*
X103354235Y-95635571D01*
X103345970Y-95658671D01*
X103335480Y-95680849D01*
X103322867Y-95701893D01*
X103308253Y-95721598D01*
X103291777Y-95739777D01*
X103273598Y-95756253D01*
X103253893Y-95770867D01*
X103232849Y-95783480D01*
X103210671Y-95793970D01*
X103187571Y-95802235D01*
X103163773Y-95808196D01*
X103139504Y-95811796D01*
X103115000Y-95813000D01*
X102365000Y-95813000D01*
X102340496Y-95811796D01*
X102316227Y-95808196D01*
X102292429Y-95802235D01*
X102269329Y-95793970D01*
X102247151Y-95783480D01*
X102226107Y-95770867D01*
X102206402Y-95756253D01*
X102188223Y-95739777D01*
X102171747Y-95721598D01*
X102157133Y-95701893D01*
X102144520Y-95680849D01*
X102134030Y-95658671D01*
X102125765Y-95635571D01*
X102119804Y-95611773D01*
X102116204Y-95587504D01*
X102115000Y-95563000D01*
X102115000Y-93413000D01*
X102116204Y-93388496D01*
X102119804Y-93364227D01*
X102125765Y-93340429D01*
X102134030Y-93317329D01*
X102144520Y-93295151D01*
X102157133Y-93274107D01*
X102171747Y-93254402D01*
X102188223Y-93236223D01*
X102206402Y-93219747D01*
X102226107Y-93205133D01*
X102247151Y-93192520D01*
X102269329Y-93182030D01*
X102292429Y-93173765D01*
X102316227Y-93167804D01*
X102340496Y-93164204D01*
X102365000Y-93163000D01*
X103115000Y-93163000D01*
X103139504Y-93164204D01*
X103139504Y-93164204D01*
G37*
D12*
X102740000Y-94488000D03*
D10*
G36*
X105939504Y-93164204D02*
G01*
X105963773Y-93167804D01*
X105987571Y-93173765D01*
X106010671Y-93182030D01*
X106032849Y-93192520D01*
X106053893Y-93205133D01*
X106073598Y-93219747D01*
X106091777Y-93236223D01*
X106108253Y-93254402D01*
X106122867Y-93274107D01*
X106135480Y-93295151D01*
X106145970Y-93317329D01*
X106154235Y-93340429D01*
X106160196Y-93364227D01*
X106163796Y-93388496D01*
X106165000Y-93413000D01*
X106165000Y-95563000D01*
X106163796Y-95587504D01*
X106160196Y-95611773D01*
X106154235Y-95635571D01*
X106145970Y-95658671D01*
X106135480Y-95680849D01*
X106122867Y-95701893D01*
X106108253Y-95721598D01*
X106091777Y-95739777D01*
X106073598Y-95756253D01*
X106053893Y-95770867D01*
X106032849Y-95783480D01*
X106010671Y-95793970D01*
X105987571Y-95802235D01*
X105963773Y-95808196D01*
X105939504Y-95811796D01*
X105915000Y-95813000D01*
X105165000Y-95813000D01*
X105140496Y-95811796D01*
X105116227Y-95808196D01*
X105092429Y-95802235D01*
X105069329Y-95793970D01*
X105047151Y-95783480D01*
X105026107Y-95770867D01*
X105006402Y-95756253D01*
X104988223Y-95739777D01*
X104971747Y-95721598D01*
X104957133Y-95701893D01*
X104944520Y-95680849D01*
X104934030Y-95658671D01*
X104925765Y-95635571D01*
X104919804Y-95611773D01*
X104916204Y-95587504D01*
X104915000Y-95563000D01*
X104915000Y-93413000D01*
X104916204Y-93388496D01*
X104919804Y-93364227D01*
X104925765Y-93340429D01*
X104934030Y-93317329D01*
X104944520Y-93295151D01*
X104957133Y-93274107D01*
X104971747Y-93254402D01*
X104988223Y-93236223D01*
X105006402Y-93219747D01*
X105026107Y-93205133D01*
X105047151Y-93192520D01*
X105069329Y-93182030D01*
X105092429Y-93173765D01*
X105116227Y-93167804D01*
X105140496Y-93164204D01*
X105165000Y-93163000D01*
X105915000Y-93163000D01*
X105939504Y-93164204D01*
X105939504Y-93164204D01*
G37*
D12*
X105540000Y-94488000D03*
D10*
G36*
X103133504Y-97990204D02*
G01*
X103157773Y-97993804D01*
X103181571Y-97999765D01*
X103204671Y-98008030D01*
X103226849Y-98018520D01*
X103247893Y-98031133D01*
X103267598Y-98045747D01*
X103285777Y-98062223D01*
X103302253Y-98080402D01*
X103316867Y-98100107D01*
X103329480Y-98121151D01*
X103339970Y-98143329D01*
X103348235Y-98166429D01*
X103354196Y-98190227D01*
X103357796Y-98214496D01*
X103359000Y-98239000D01*
X103359000Y-100389000D01*
X103357796Y-100413504D01*
X103354196Y-100437773D01*
X103348235Y-100461571D01*
X103339970Y-100484671D01*
X103329480Y-100506849D01*
X103316867Y-100527893D01*
X103302253Y-100547598D01*
X103285777Y-100565777D01*
X103267598Y-100582253D01*
X103247893Y-100596867D01*
X103226849Y-100609480D01*
X103204671Y-100619970D01*
X103181571Y-100628235D01*
X103157773Y-100634196D01*
X103133504Y-100637796D01*
X103109000Y-100639000D01*
X102359000Y-100639000D01*
X102334496Y-100637796D01*
X102310227Y-100634196D01*
X102286429Y-100628235D01*
X102263329Y-100619970D01*
X102241151Y-100609480D01*
X102220107Y-100596867D01*
X102200402Y-100582253D01*
X102182223Y-100565777D01*
X102165747Y-100547598D01*
X102151133Y-100527893D01*
X102138520Y-100506849D01*
X102128030Y-100484671D01*
X102119765Y-100461571D01*
X102113804Y-100437773D01*
X102110204Y-100413504D01*
X102109000Y-100389000D01*
X102109000Y-98239000D01*
X102110204Y-98214496D01*
X102113804Y-98190227D01*
X102119765Y-98166429D01*
X102128030Y-98143329D01*
X102138520Y-98121151D01*
X102151133Y-98100107D01*
X102165747Y-98080402D01*
X102182223Y-98062223D01*
X102200402Y-98045747D01*
X102220107Y-98031133D01*
X102241151Y-98018520D01*
X102263329Y-98008030D01*
X102286429Y-97999765D01*
X102310227Y-97993804D01*
X102334496Y-97990204D01*
X102359000Y-97989000D01*
X103109000Y-97989000D01*
X103133504Y-97990204D01*
X103133504Y-97990204D01*
G37*
D12*
X102734000Y-99314000D03*
D10*
G36*
X105933504Y-97990204D02*
G01*
X105957773Y-97993804D01*
X105981571Y-97999765D01*
X106004671Y-98008030D01*
X106026849Y-98018520D01*
X106047893Y-98031133D01*
X106067598Y-98045747D01*
X106085777Y-98062223D01*
X106102253Y-98080402D01*
X106116867Y-98100107D01*
X106129480Y-98121151D01*
X106139970Y-98143329D01*
X106148235Y-98166429D01*
X106154196Y-98190227D01*
X106157796Y-98214496D01*
X106159000Y-98239000D01*
X106159000Y-100389000D01*
X106157796Y-100413504D01*
X106154196Y-100437773D01*
X106148235Y-100461571D01*
X106139970Y-100484671D01*
X106129480Y-100506849D01*
X106116867Y-100527893D01*
X106102253Y-100547598D01*
X106085777Y-100565777D01*
X106067598Y-100582253D01*
X106047893Y-100596867D01*
X106026849Y-100609480D01*
X106004671Y-100619970D01*
X105981571Y-100628235D01*
X105957773Y-100634196D01*
X105933504Y-100637796D01*
X105909000Y-100639000D01*
X105159000Y-100639000D01*
X105134496Y-100637796D01*
X105110227Y-100634196D01*
X105086429Y-100628235D01*
X105063329Y-100619970D01*
X105041151Y-100609480D01*
X105020107Y-100596867D01*
X105000402Y-100582253D01*
X104982223Y-100565777D01*
X104965747Y-100547598D01*
X104951133Y-100527893D01*
X104938520Y-100506849D01*
X104928030Y-100484671D01*
X104919765Y-100461571D01*
X104913804Y-100437773D01*
X104910204Y-100413504D01*
X104909000Y-100389000D01*
X104909000Y-98239000D01*
X104910204Y-98214496D01*
X104913804Y-98190227D01*
X104919765Y-98166429D01*
X104928030Y-98143329D01*
X104938520Y-98121151D01*
X104951133Y-98100107D01*
X104965747Y-98080402D01*
X104982223Y-98062223D01*
X105000402Y-98045747D01*
X105020107Y-98031133D01*
X105041151Y-98018520D01*
X105063329Y-98008030D01*
X105086429Y-97999765D01*
X105110227Y-97993804D01*
X105134496Y-97990204D01*
X105159000Y-97989000D01*
X105909000Y-97989000D01*
X105933504Y-97990204D01*
X105933504Y-97990204D01*
G37*
D12*
X105534000Y-99314000D03*
D10*
G36*
X103158504Y-101593204D02*
G01*
X103182773Y-101596804D01*
X103206571Y-101602765D01*
X103229671Y-101611030D01*
X103251849Y-101621520D01*
X103272893Y-101634133D01*
X103292598Y-101648747D01*
X103310777Y-101665223D01*
X103327253Y-101683402D01*
X103341867Y-101703107D01*
X103354480Y-101724151D01*
X103364970Y-101746329D01*
X103373235Y-101769429D01*
X103379196Y-101793227D01*
X103382796Y-101817496D01*
X103384000Y-101842000D01*
X103384000Y-103092000D01*
X103382796Y-103116504D01*
X103379196Y-103140773D01*
X103373235Y-103164571D01*
X103364970Y-103187671D01*
X103354480Y-103209849D01*
X103341867Y-103230893D01*
X103327253Y-103250598D01*
X103310777Y-103268777D01*
X103292598Y-103285253D01*
X103272893Y-103299867D01*
X103251849Y-103312480D01*
X103229671Y-103322970D01*
X103206571Y-103331235D01*
X103182773Y-103337196D01*
X103158504Y-103340796D01*
X103134000Y-103342000D01*
X102384000Y-103342000D01*
X102359496Y-103340796D01*
X102335227Y-103337196D01*
X102311429Y-103331235D01*
X102288329Y-103322970D01*
X102266151Y-103312480D01*
X102245107Y-103299867D01*
X102225402Y-103285253D01*
X102207223Y-103268777D01*
X102190747Y-103250598D01*
X102176133Y-103230893D01*
X102163520Y-103209849D01*
X102153030Y-103187671D01*
X102144765Y-103164571D01*
X102138804Y-103140773D01*
X102135204Y-103116504D01*
X102134000Y-103092000D01*
X102134000Y-101842000D01*
X102135204Y-101817496D01*
X102138804Y-101793227D01*
X102144765Y-101769429D01*
X102153030Y-101746329D01*
X102163520Y-101724151D01*
X102176133Y-101703107D01*
X102190747Y-101683402D01*
X102207223Y-101665223D01*
X102225402Y-101648747D01*
X102245107Y-101634133D01*
X102266151Y-101621520D01*
X102288329Y-101611030D01*
X102311429Y-101602765D01*
X102335227Y-101596804D01*
X102359496Y-101593204D01*
X102384000Y-101592000D01*
X103134000Y-101592000D01*
X103158504Y-101593204D01*
X103158504Y-101593204D01*
G37*
D12*
X102759000Y-102467000D03*
D10*
G36*
X105958504Y-101593204D02*
G01*
X105982773Y-101596804D01*
X106006571Y-101602765D01*
X106029671Y-101611030D01*
X106051849Y-101621520D01*
X106072893Y-101634133D01*
X106092598Y-101648747D01*
X106110777Y-101665223D01*
X106127253Y-101683402D01*
X106141867Y-101703107D01*
X106154480Y-101724151D01*
X106164970Y-101746329D01*
X106173235Y-101769429D01*
X106179196Y-101793227D01*
X106182796Y-101817496D01*
X106184000Y-101842000D01*
X106184000Y-103092000D01*
X106182796Y-103116504D01*
X106179196Y-103140773D01*
X106173235Y-103164571D01*
X106164970Y-103187671D01*
X106154480Y-103209849D01*
X106141867Y-103230893D01*
X106127253Y-103250598D01*
X106110777Y-103268777D01*
X106092598Y-103285253D01*
X106072893Y-103299867D01*
X106051849Y-103312480D01*
X106029671Y-103322970D01*
X106006571Y-103331235D01*
X105982773Y-103337196D01*
X105958504Y-103340796D01*
X105934000Y-103342000D01*
X105184000Y-103342000D01*
X105159496Y-103340796D01*
X105135227Y-103337196D01*
X105111429Y-103331235D01*
X105088329Y-103322970D01*
X105066151Y-103312480D01*
X105045107Y-103299867D01*
X105025402Y-103285253D01*
X105007223Y-103268777D01*
X104990747Y-103250598D01*
X104976133Y-103230893D01*
X104963520Y-103209849D01*
X104953030Y-103187671D01*
X104944765Y-103164571D01*
X104938804Y-103140773D01*
X104935204Y-103116504D01*
X104934000Y-103092000D01*
X104934000Y-101842000D01*
X104935204Y-101817496D01*
X104938804Y-101793227D01*
X104944765Y-101769429D01*
X104953030Y-101746329D01*
X104963520Y-101724151D01*
X104976133Y-101703107D01*
X104990747Y-101683402D01*
X105007223Y-101665223D01*
X105025402Y-101648747D01*
X105045107Y-101634133D01*
X105066151Y-101621520D01*
X105088329Y-101611030D01*
X105111429Y-101602765D01*
X105135227Y-101596804D01*
X105159496Y-101593204D01*
X105184000Y-101592000D01*
X105934000Y-101592000D01*
X105958504Y-101593204D01*
X105958504Y-101593204D01*
G37*
D12*
X105559000Y-102467000D03*
D10*
G36*
X112473504Y-80035204D02*
G01*
X112497773Y-80038804D01*
X112521571Y-80044765D01*
X112544671Y-80053030D01*
X112566849Y-80063520D01*
X112587893Y-80076133D01*
X112607598Y-80090747D01*
X112625777Y-80107223D01*
X112642253Y-80125402D01*
X112656867Y-80145107D01*
X112669480Y-80166151D01*
X112679970Y-80188329D01*
X112688235Y-80211429D01*
X112694196Y-80235227D01*
X112697796Y-80259496D01*
X112699000Y-80284000D01*
X112699000Y-81034000D01*
X112697796Y-81058504D01*
X112694196Y-81082773D01*
X112688235Y-81106571D01*
X112679970Y-81129671D01*
X112669480Y-81151849D01*
X112656867Y-81172893D01*
X112642253Y-81192598D01*
X112625777Y-81210777D01*
X112607598Y-81227253D01*
X112587893Y-81241867D01*
X112566849Y-81254480D01*
X112544671Y-81264970D01*
X112521571Y-81273235D01*
X112497773Y-81279196D01*
X112473504Y-81282796D01*
X112449000Y-81284000D01*
X111199000Y-81284000D01*
X111174496Y-81282796D01*
X111150227Y-81279196D01*
X111126429Y-81273235D01*
X111103329Y-81264970D01*
X111081151Y-81254480D01*
X111060107Y-81241867D01*
X111040402Y-81227253D01*
X111022223Y-81210777D01*
X111005747Y-81192598D01*
X110991133Y-81172893D01*
X110978520Y-81151849D01*
X110968030Y-81129671D01*
X110959765Y-81106571D01*
X110953804Y-81082773D01*
X110950204Y-81058504D01*
X110949000Y-81034000D01*
X110949000Y-80284000D01*
X110950204Y-80259496D01*
X110953804Y-80235227D01*
X110959765Y-80211429D01*
X110968030Y-80188329D01*
X110978520Y-80166151D01*
X110991133Y-80145107D01*
X111005747Y-80125402D01*
X111022223Y-80107223D01*
X111040402Y-80090747D01*
X111060107Y-80076133D01*
X111081151Y-80063520D01*
X111103329Y-80053030D01*
X111126429Y-80044765D01*
X111150227Y-80038804D01*
X111174496Y-80035204D01*
X111199000Y-80034000D01*
X112449000Y-80034000D01*
X112473504Y-80035204D01*
X112473504Y-80035204D01*
G37*
D12*
X111824000Y-80659000D03*
D10*
G36*
X112473504Y-77235204D02*
G01*
X112497773Y-77238804D01*
X112521571Y-77244765D01*
X112544671Y-77253030D01*
X112566849Y-77263520D01*
X112587893Y-77276133D01*
X112607598Y-77290747D01*
X112625777Y-77307223D01*
X112642253Y-77325402D01*
X112656867Y-77345107D01*
X112669480Y-77366151D01*
X112679970Y-77388329D01*
X112688235Y-77411429D01*
X112694196Y-77435227D01*
X112697796Y-77459496D01*
X112699000Y-77484000D01*
X112699000Y-78234000D01*
X112697796Y-78258504D01*
X112694196Y-78282773D01*
X112688235Y-78306571D01*
X112679970Y-78329671D01*
X112669480Y-78351849D01*
X112656867Y-78372893D01*
X112642253Y-78392598D01*
X112625777Y-78410777D01*
X112607598Y-78427253D01*
X112587893Y-78441867D01*
X112566849Y-78454480D01*
X112544671Y-78464970D01*
X112521571Y-78473235D01*
X112497773Y-78479196D01*
X112473504Y-78482796D01*
X112449000Y-78484000D01*
X111199000Y-78484000D01*
X111174496Y-78482796D01*
X111150227Y-78479196D01*
X111126429Y-78473235D01*
X111103329Y-78464970D01*
X111081151Y-78454480D01*
X111060107Y-78441867D01*
X111040402Y-78427253D01*
X111022223Y-78410777D01*
X111005747Y-78392598D01*
X110991133Y-78372893D01*
X110978520Y-78351849D01*
X110968030Y-78329671D01*
X110959765Y-78306571D01*
X110953804Y-78282773D01*
X110950204Y-78258504D01*
X110949000Y-78234000D01*
X110949000Y-77484000D01*
X110950204Y-77459496D01*
X110953804Y-77435227D01*
X110959765Y-77411429D01*
X110968030Y-77388329D01*
X110978520Y-77366151D01*
X110991133Y-77345107D01*
X111005747Y-77325402D01*
X111022223Y-77307223D01*
X111040402Y-77290747D01*
X111060107Y-77276133D01*
X111081151Y-77263520D01*
X111103329Y-77253030D01*
X111126429Y-77244765D01*
X111150227Y-77238804D01*
X111174496Y-77235204D01*
X111199000Y-77234000D01*
X112449000Y-77234000D01*
X112473504Y-77235204D01*
X112473504Y-77235204D01*
G37*
D12*
X111824000Y-77859000D03*
D10*
G36*
X103980142Y-89651174D02*
G01*
X104003803Y-89654684D01*
X104027007Y-89660496D01*
X104049529Y-89668554D01*
X104071153Y-89678782D01*
X104091670Y-89691079D01*
X104110883Y-89705329D01*
X104128607Y-89721393D01*
X104144671Y-89739117D01*
X104158921Y-89758330D01*
X104171218Y-89778847D01*
X104181446Y-89800471D01*
X104189504Y-89822993D01*
X104195316Y-89846197D01*
X104198826Y-89869858D01*
X104200000Y-89893750D01*
X104200000Y-90806250D01*
X104198826Y-90830142D01*
X104195316Y-90853803D01*
X104189504Y-90877007D01*
X104181446Y-90899529D01*
X104171218Y-90921153D01*
X104158921Y-90941670D01*
X104144671Y-90960883D01*
X104128607Y-90978607D01*
X104110883Y-90994671D01*
X104091670Y-91008921D01*
X104071153Y-91021218D01*
X104049529Y-91031446D01*
X104027007Y-91039504D01*
X104003803Y-91045316D01*
X103980142Y-91048826D01*
X103956250Y-91050000D01*
X103468750Y-91050000D01*
X103444858Y-91048826D01*
X103421197Y-91045316D01*
X103397993Y-91039504D01*
X103375471Y-91031446D01*
X103353847Y-91021218D01*
X103333330Y-91008921D01*
X103314117Y-90994671D01*
X103296393Y-90978607D01*
X103280329Y-90960883D01*
X103266079Y-90941670D01*
X103253782Y-90921153D01*
X103243554Y-90899529D01*
X103235496Y-90877007D01*
X103229684Y-90853803D01*
X103226174Y-90830142D01*
X103225000Y-90806250D01*
X103225000Y-89893750D01*
X103226174Y-89869858D01*
X103229684Y-89846197D01*
X103235496Y-89822993D01*
X103243554Y-89800471D01*
X103253782Y-89778847D01*
X103266079Y-89758330D01*
X103280329Y-89739117D01*
X103296393Y-89721393D01*
X103314117Y-89705329D01*
X103333330Y-89691079D01*
X103353847Y-89678782D01*
X103375471Y-89668554D01*
X103397993Y-89660496D01*
X103421197Y-89654684D01*
X103444858Y-89651174D01*
X103468750Y-89650000D01*
X103956250Y-89650000D01*
X103980142Y-89651174D01*
X103980142Y-89651174D01*
G37*
D17*
X103712500Y-90350000D03*
D10*
G36*
X105855142Y-89651174D02*
G01*
X105878803Y-89654684D01*
X105902007Y-89660496D01*
X105924529Y-89668554D01*
X105946153Y-89678782D01*
X105966670Y-89691079D01*
X105985883Y-89705329D01*
X106003607Y-89721393D01*
X106019671Y-89739117D01*
X106033921Y-89758330D01*
X106046218Y-89778847D01*
X106056446Y-89800471D01*
X106064504Y-89822993D01*
X106070316Y-89846197D01*
X106073826Y-89869858D01*
X106075000Y-89893750D01*
X106075000Y-90806250D01*
X106073826Y-90830142D01*
X106070316Y-90853803D01*
X106064504Y-90877007D01*
X106056446Y-90899529D01*
X106046218Y-90921153D01*
X106033921Y-90941670D01*
X106019671Y-90960883D01*
X106003607Y-90978607D01*
X105985883Y-90994671D01*
X105966670Y-91008921D01*
X105946153Y-91021218D01*
X105924529Y-91031446D01*
X105902007Y-91039504D01*
X105878803Y-91045316D01*
X105855142Y-91048826D01*
X105831250Y-91050000D01*
X105343750Y-91050000D01*
X105319858Y-91048826D01*
X105296197Y-91045316D01*
X105272993Y-91039504D01*
X105250471Y-91031446D01*
X105228847Y-91021218D01*
X105208330Y-91008921D01*
X105189117Y-90994671D01*
X105171393Y-90978607D01*
X105155329Y-90960883D01*
X105141079Y-90941670D01*
X105128782Y-90921153D01*
X105118554Y-90899529D01*
X105110496Y-90877007D01*
X105104684Y-90853803D01*
X105101174Y-90830142D01*
X105100000Y-90806250D01*
X105100000Y-89893750D01*
X105101174Y-89869858D01*
X105104684Y-89846197D01*
X105110496Y-89822993D01*
X105118554Y-89800471D01*
X105128782Y-89778847D01*
X105141079Y-89758330D01*
X105155329Y-89739117D01*
X105171393Y-89721393D01*
X105189117Y-89705329D01*
X105208330Y-89691079D01*
X105228847Y-89678782D01*
X105250471Y-89668554D01*
X105272993Y-89660496D01*
X105296197Y-89654684D01*
X105319858Y-89651174D01*
X105343750Y-89650000D01*
X105831250Y-89650000D01*
X105855142Y-89651174D01*
X105855142Y-89651174D01*
G37*
D17*
X105587500Y-90350000D03*
D10*
G36*
X103470142Y-76263174D02*
G01*
X103493803Y-76266684D01*
X103517007Y-76272496D01*
X103539529Y-76280554D01*
X103561153Y-76290782D01*
X103581670Y-76303079D01*
X103600883Y-76317329D01*
X103618607Y-76333393D01*
X103634671Y-76351117D01*
X103648921Y-76370330D01*
X103661218Y-76390847D01*
X103671446Y-76412471D01*
X103679504Y-76434993D01*
X103685316Y-76458197D01*
X103688826Y-76481858D01*
X103690000Y-76505750D01*
X103690000Y-77418250D01*
X103688826Y-77442142D01*
X103685316Y-77465803D01*
X103679504Y-77489007D01*
X103671446Y-77511529D01*
X103661218Y-77533153D01*
X103648921Y-77553670D01*
X103634671Y-77572883D01*
X103618607Y-77590607D01*
X103600883Y-77606671D01*
X103581670Y-77620921D01*
X103561153Y-77633218D01*
X103539529Y-77643446D01*
X103517007Y-77651504D01*
X103493803Y-77657316D01*
X103470142Y-77660826D01*
X103446250Y-77662000D01*
X102958750Y-77662000D01*
X102934858Y-77660826D01*
X102911197Y-77657316D01*
X102887993Y-77651504D01*
X102865471Y-77643446D01*
X102843847Y-77633218D01*
X102823330Y-77620921D01*
X102804117Y-77606671D01*
X102786393Y-77590607D01*
X102770329Y-77572883D01*
X102756079Y-77553670D01*
X102743782Y-77533153D01*
X102733554Y-77511529D01*
X102725496Y-77489007D01*
X102719684Y-77465803D01*
X102716174Y-77442142D01*
X102715000Y-77418250D01*
X102715000Y-76505750D01*
X102716174Y-76481858D01*
X102719684Y-76458197D01*
X102725496Y-76434993D01*
X102733554Y-76412471D01*
X102743782Y-76390847D01*
X102756079Y-76370330D01*
X102770329Y-76351117D01*
X102786393Y-76333393D01*
X102804117Y-76317329D01*
X102823330Y-76303079D01*
X102843847Y-76290782D01*
X102865471Y-76280554D01*
X102887993Y-76272496D01*
X102911197Y-76266684D01*
X102934858Y-76263174D01*
X102958750Y-76262000D01*
X103446250Y-76262000D01*
X103470142Y-76263174D01*
X103470142Y-76263174D01*
G37*
D17*
X103202500Y-76962000D03*
D10*
G36*
X105345142Y-76263174D02*
G01*
X105368803Y-76266684D01*
X105392007Y-76272496D01*
X105414529Y-76280554D01*
X105436153Y-76290782D01*
X105456670Y-76303079D01*
X105475883Y-76317329D01*
X105493607Y-76333393D01*
X105509671Y-76351117D01*
X105523921Y-76370330D01*
X105536218Y-76390847D01*
X105546446Y-76412471D01*
X105554504Y-76434993D01*
X105560316Y-76458197D01*
X105563826Y-76481858D01*
X105565000Y-76505750D01*
X105565000Y-77418250D01*
X105563826Y-77442142D01*
X105560316Y-77465803D01*
X105554504Y-77489007D01*
X105546446Y-77511529D01*
X105536218Y-77533153D01*
X105523921Y-77553670D01*
X105509671Y-77572883D01*
X105493607Y-77590607D01*
X105475883Y-77606671D01*
X105456670Y-77620921D01*
X105436153Y-77633218D01*
X105414529Y-77643446D01*
X105392007Y-77651504D01*
X105368803Y-77657316D01*
X105345142Y-77660826D01*
X105321250Y-77662000D01*
X104833750Y-77662000D01*
X104809858Y-77660826D01*
X104786197Y-77657316D01*
X104762993Y-77651504D01*
X104740471Y-77643446D01*
X104718847Y-77633218D01*
X104698330Y-77620921D01*
X104679117Y-77606671D01*
X104661393Y-77590607D01*
X104645329Y-77572883D01*
X104631079Y-77553670D01*
X104618782Y-77533153D01*
X104608554Y-77511529D01*
X104600496Y-77489007D01*
X104594684Y-77465803D01*
X104591174Y-77442142D01*
X104590000Y-77418250D01*
X104590000Y-76505750D01*
X104591174Y-76481858D01*
X104594684Y-76458197D01*
X104600496Y-76434993D01*
X104608554Y-76412471D01*
X104618782Y-76390847D01*
X104631079Y-76370330D01*
X104645329Y-76351117D01*
X104661393Y-76333393D01*
X104679117Y-76317329D01*
X104698330Y-76303079D01*
X104718847Y-76290782D01*
X104740471Y-76280554D01*
X104762993Y-76272496D01*
X104786197Y-76266684D01*
X104809858Y-76263174D01*
X104833750Y-76262000D01*
X105321250Y-76262000D01*
X105345142Y-76263174D01*
X105345142Y-76263174D01*
G37*
D17*
X105077500Y-76962000D03*
D10*
G36*
X142183779Y-49310144D02*
G01*
X142206834Y-49313563D01*
X142229443Y-49319227D01*
X142251387Y-49327079D01*
X142272457Y-49337044D01*
X142292448Y-49349026D01*
X142311168Y-49362910D01*
X142328438Y-49378562D01*
X142344090Y-49395832D01*
X142357974Y-49414552D01*
X142369956Y-49434543D01*
X142379921Y-49455613D01*
X142387773Y-49477557D01*
X142393437Y-49500166D01*
X142396856Y-49523221D01*
X142398000Y-49546500D01*
X142398000Y-50021500D01*
X142396856Y-50044779D01*
X142393437Y-50067834D01*
X142387773Y-50090443D01*
X142379921Y-50112387D01*
X142369956Y-50133457D01*
X142357974Y-50153448D01*
X142344090Y-50172168D01*
X142328438Y-50189438D01*
X142311168Y-50205090D01*
X142292448Y-50218974D01*
X142272457Y-50230956D01*
X142251387Y-50240921D01*
X142229443Y-50248773D01*
X142206834Y-50254437D01*
X142183779Y-50257856D01*
X142160500Y-50259000D01*
X141585500Y-50259000D01*
X141562221Y-50257856D01*
X141539166Y-50254437D01*
X141516557Y-50248773D01*
X141494613Y-50240921D01*
X141473543Y-50230956D01*
X141453552Y-50218974D01*
X141434832Y-50205090D01*
X141417562Y-50189438D01*
X141401910Y-50172168D01*
X141388026Y-50153448D01*
X141376044Y-50133457D01*
X141366079Y-50112387D01*
X141358227Y-50090443D01*
X141352563Y-50067834D01*
X141349144Y-50044779D01*
X141348000Y-50021500D01*
X141348000Y-49546500D01*
X141349144Y-49523221D01*
X141352563Y-49500166D01*
X141358227Y-49477557D01*
X141366079Y-49455613D01*
X141376044Y-49434543D01*
X141388026Y-49414552D01*
X141401910Y-49395832D01*
X141417562Y-49378562D01*
X141434832Y-49362910D01*
X141453552Y-49349026D01*
X141473543Y-49337044D01*
X141494613Y-49327079D01*
X141516557Y-49319227D01*
X141539166Y-49313563D01*
X141562221Y-49310144D01*
X141585500Y-49309000D01*
X142160500Y-49309000D01*
X142183779Y-49310144D01*
X142183779Y-49310144D01*
G37*
D18*
X141873000Y-49784000D03*
D10*
G36*
X143933779Y-49310144D02*
G01*
X143956834Y-49313563D01*
X143979443Y-49319227D01*
X144001387Y-49327079D01*
X144022457Y-49337044D01*
X144042448Y-49349026D01*
X144061168Y-49362910D01*
X144078438Y-49378562D01*
X144094090Y-49395832D01*
X144107974Y-49414552D01*
X144119956Y-49434543D01*
X144129921Y-49455613D01*
X144137773Y-49477557D01*
X144143437Y-49500166D01*
X144146856Y-49523221D01*
X144148000Y-49546500D01*
X144148000Y-50021500D01*
X144146856Y-50044779D01*
X144143437Y-50067834D01*
X144137773Y-50090443D01*
X144129921Y-50112387D01*
X144119956Y-50133457D01*
X144107974Y-50153448D01*
X144094090Y-50172168D01*
X144078438Y-50189438D01*
X144061168Y-50205090D01*
X144042448Y-50218974D01*
X144022457Y-50230956D01*
X144001387Y-50240921D01*
X143979443Y-50248773D01*
X143956834Y-50254437D01*
X143933779Y-50257856D01*
X143910500Y-50259000D01*
X143335500Y-50259000D01*
X143312221Y-50257856D01*
X143289166Y-50254437D01*
X143266557Y-50248773D01*
X143244613Y-50240921D01*
X143223543Y-50230956D01*
X143203552Y-50218974D01*
X143184832Y-50205090D01*
X143167562Y-50189438D01*
X143151910Y-50172168D01*
X143138026Y-50153448D01*
X143126044Y-50133457D01*
X143116079Y-50112387D01*
X143108227Y-50090443D01*
X143102563Y-50067834D01*
X143099144Y-50044779D01*
X143098000Y-50021500D01*
X143098000Y-49546500D01*
X143099144Y-49523221D01*
X143102563Y-49500166D01*
X143108227Y-49477557D01*
X143116079Y-49455613D01*
X143126044Y-49434543D01*
X143138026Y-49414552D01*
X143151910Y-49395832D01*
X143167562Y-49378562D01*
X143184832Y-49362910D01*
X143203552Y-49349026D01*
X143223543Y-49337044D01*
X143244613Y-49327079D01*
X143266557Y-49319227D01*
X143289166Y-49313563D01*
X143312221Y-49310144D01*
X143335500Y-49309000D01*
X143910500Y-49309000D01*
X143933779Y-49310144D01*
X143933779Y-49310144D01*
G37*
D18*
X143623000Y-49784000D03*
D10*
G36*
X142183779Y-47278144D02*
G01*
X142206834Y-47281563D01*
X142229443Y-47287227D01*
X142251387Y-47295079D01*
X142272457Y-47305044D01*
X142292448Y-47317026D01*
X142311168Y-47330910D01*
X142328438Y-47346562D01*
X142344090Y-47363832D01*
X142357974Y-47382552D01*
X142369956Y-47402543D01*
X142379921Y-47423613D01*
X142387773Y-47445557D01*
X142393437Y-47468166D01*
X142396856Y-47491221D01*
X142398000Y-47514500D01*
X142398000Y-47989500D01*
X142396856Y-48012779D01*
X142393437Y-48035834D01*
X142387773Y-48058443D01*
X142379921Y-48080387D01*
X142369956Y-48101457D01*
X142357974Y-48121448D01*
X142344090Y-48140168D01*
X142328438Y-48157438D01*
X142311168Y-48173090D01*
X142292448Y-48186974D01*
X142272457Y-48198956D01*
X142251387Y-48208921D01*
X142229443Y-48216773D01*
X142206834Y-48222437D01*
X142183779Y-48225856D01*
X142160500Y-48227000D01*
X141585500Y-48227000D01*
X141562221Y-48225856D01*
X141539166Y-48222437D01*
X141516557Y-48216773D01*
X141494613Y-48208921D01*
X141473543Y-48198956D01*
X141453552Y-48186974D01*
X141434832Y-48173090D01*
X141417562Y-48157438D01*
X141401910Y-48140168D01*
X141388026Y-48121448D01*
X141376044Y-48101457D01*
X141366079Y-48080387D01*
X141358227Y-48058443D01*
X141352563Y-48035834D01*
X141349144Y-48012779D01*
X141348000Y-47989500D01*
X141348000Y-47514500D01*
X141349144Y-47491221D01*
X141352563Y-47468166D01*
X141358227Y-47445557D01*
X141366079Y-47423613D01*
X141376044Y-47402543D01*
X141388026Y-47382552D01*
X141401910Y-47363832D01*
X141417562Y-47346562D01*
X141434832Y-47330910D01*
X141453552Y-47317026D01*
X141473543Y-47305044D01*
X141494613Y-47295079D01*
X141516557Y-47287227D01*
X141539166Y-47281563D01*
X141562221Y-47278144D01*
X141585500Y-47277000D01*
X142160500Y-47277000D01*
X142183779Y-47278144D01*
X142183779Y-47278144D01*
G37*
D18*
X141873000Y-47752000D03*
D10*
G36*
X143933779Y-47278144D02*
G01*
X143956834Y-47281563D01*
X143979443Y-47287227D01*
X144001387Y-47295079D01*
X144022457Y-47305044D01*
X144042448Y-47317026D01*
X144061168Y-47330910D01*
X144078438Y-47346562D01*
X144094090Y-47363832D01*
X144107974Y-47382552D01*
X144119956Y-47402543D01*
X144129921Y-47423613D01*
X144137773Y-47445557D01*
X144143437Y-47468166D01*
X144146856Y-47491221D01*
X144148000Y-47514500D01*
X144148000Y-47989500D01*
X144146856Y-48012779D01*
X144143437Y-48035834D01*
X144137773Y-48058443D01*
X144129921Y-48080387D01*
X144119956Y-48101457D01*
X144107974Y-48121448D01*
X144094090Y-48140168D01*
X144078438Y-48157438D01*
X144061168Y-48173090D01*
X144042448Y-48186974D01*
X144022457Y-48198956D01*
X144001387Y-48208921D01*
X143979443Y-48216773D01*
X143956834Y-48222437D01*
X143933779Y-48225856D01*
X143910500Y-48227000D01*
X143335500Y-48227000D01*
X143312221Y-48225856D01*
X143289166Y-48222437D01*
X143266557Y-48216773D01*
X143244613Y-48208921D01*
X143223543Y-48198956D01*
X143203552Y-48186974D01*
X143184832Y-48173090D01*
X143167562Y-48157438D01*
X143151910Y-48140168D01*
X143138026Y-48121448D01*
X143126044Y-48101457D01*
X143116079Y-48080387D01*
X143108227Y-48058443D01*
X143102563Y-48035834D01*
X143099144Y-48012779D01*
X143098000Y-47989500D01*
X143098000Y-47514500D01*
X143099144Y-47491221D01*
X143102563Y-47468166D01*
X143108227Y-47445557D01*
X143116079Y-47423613D01*
X143126044Y-47402543D01*
X143138026Y-47382552D01*
X143151910Y-47363832D01*
X143167562Y-47346562D01*
X143184832Y-47330910D01*
X143203552Y-47317026D01*
X143223543Y-47305044D01*
X143244613Y-47295079D01*
X143266557Y-47287227D01*
X143289166Y-47281563D01*
X143312221Y-47278144D01*
X143335500Y-47277000D01*
X143910500Y-47277000D01*
X143933779Y-47278144D01*
X143933779Y-47278144D01*
G37*
D18*
X143623000Y-47752000D03*
D10*
G36*
X143775691Y-52104053D02*
G01*
X143796926Y-52107203D01*
X143817750Y-52112419D01*
X143837962Y-52119651D01*
X143857368Y-52128830D01*
X143875781Y-52139866D01*
X143893024Y-52152654D01*
X143908930Y-52167070D01*
X143923346Y-52182976D01*
X143936134Y-52200219D01*
X143947170Y-52218632D01*
X143956349Y-52238038D01*
X143963581Y-52258250D01*
X143968797Y-52279074D01*
X143971947Y-52300309D01*
X143973000Y-52321750D01*
X143973000Y-52834250D01*
X143971947Y-52855691D01*
X143968797Y-52876926D01*
X143963581Y-52897750D01*
X143956349Y-52917962D01*
X143947170Y-52937368D01*
X143936134Y-52955781D01*
X143923346Y-52973024D01*
X143908930Y-52988930D01*
X143893024Y-53003346D01*
X143875781Y-53016134D01*
X143857368Y-53027170D01*
X143837962Y-53036349D01*
X143817750Y-53043581D01*
X143796926Y-53048797D01*
X143775691Y-53051947D01*
X143754250Y-53053000D01*
X143316750Y-53053000D01*
X143295309Y-53051947D01*
X143274074Y-53048797D01*
X143253250Y-53043581D01*
X143233038Y-53036349D01*
X143213632Y-53027170D01*
X143195219Y-53016134D01*
X143177976Y-53003346D01*
X143162070Y-52988930D01*
X143147654Y-52973024D01*
X143134866Y-52955781D01*
X143123830Y-52937368D01*
X143114651Y-52917962D01*
X143107419Y-52897750D01*
X143102203Y-52876926D01*
X143099053Y-52855691D01*
X143098000Y-52834250D01*
X143098000Y-52321750D01*
X143099053Y-52300309D01*
X143102203Y-52279074D01*
X143107419Y-52258250D01*
X143114651Y-52238038D01*
X143123830Y-52218632D01*
X143134866Y-52200219D01*
X143147654Y-52182976D01*
X143162070Y-52167070D01*
X143177976Y-52152654D01*
X143195219Y-52139866D01*
X143213632Y-52128830D01*
X143233038Y-52119651D01*
X143253250Y-52112419D01*
X143274074Y-52107203D01*
X143295309Y-52104053D01*
X143316750Y-52103000D01*
X143754250Y-52103000D01*
X143775691Y-52104053D01*
X143775691Y-52104053D01*
G37*
D19*
X143535500Y-52578000D03*
D10*
G36*
X142200691Y-52104053D02*
G01*
X142221926Y-52107203D01*
X142242750Y-52112419D01*
X142262962Y-52119651D01*
X142282368Y-52128830D01*
X142300781Y-52139866D01*
X142318024Y-52152654D01*
X142333930Y-52167070D01*
X142348346Y-52182976D01*
X142361134Y-52200219D01*
X142372170Y-52218632D01*
X142381349Y-52238038D01*
X142388581Y-52258250D01*
X142393797Y-52279074D01*
X142396947Y-52300309D01*
X142398000Y-52321750D01*
X142398000Y-52834250D01*
X142396947Y-52855691D01*
X142393797Y-52876926D01*
X142388581Y-52897750D01*
X142381349Y-52917962D01*
X142372170Y-52937368D01*
X142361134Y-52955781D01*
X142348346Y-52973024D01*
X142333930Y-52988930D01*
X142318024Y-53003346D01*
X142300781Y-53016134D01*
X142282368Y-53027170D01*
X142262962Y-53036349D01*
X142242750Y-53043581D01*
X142221926Y-53048797D01*
X142200691Y-53051947D01*
X142179250Y-53053000D01*
X141741750Y-53053000D01*
X141720309Y-53051947D01*
X141699074Y-53048797D01*
X141678250Y-53043581D01*
X141658038Y-53036349D01*
X141638632Y-53027170D01*
X141620219Y-53016134D01*
X141602976Y-53003346D01*
X141587070Y-52988930D01*
X141572654Y-52973024D01*
X141559866Y-52955781D01*
X141548830Y-52937368D01*
X141539651Y-52917962D01*
X141532419Y-52897750D01*
X141527203Y-52876926D01*
X141524053Y-52855691D01*
X141523000Y-52834250D01*
X141523000Y-52321750D01*
X141524053Y-52300309D01*
X141527203Y-52279074D01*
X141532419Y-52258250D01*
X141539651Y-52238038D01*
X141548830Y-52218632D01*
X141559866Y-52200219D01*
X141572654Y-52182976D01*
X141587070Y-52167070D01*
X141602976Y-52152654D01*
X141620219Y-52139866D01*
X141638632Y-52128830D01*
X141658038Y-52119651D01*
X141678250Y-52112419D01*
X141699074Y-52107203D01*
X141720309Y-52104053D01*
X141741750Y-52103000D01*
X142179250Y-52103000D01*
X142200691Y-52104053D01*
X142200691Y-52104053D01*
G37*
D19*
X141960500Y-52578000D03*
D10*
G36*
X142200691Y-45246053D02*
G01*
X142221926Y-45249203D01*
X142242750Y-45254419D01*
X142262962Y-45261651D01*
X142282368Y-45270830D01*
X142300781Y-45281866D01*
X142318024Y-45294654D01*
X142333930Y-45309070D01*
X142348346Y-45324976D01*
X142361134Y-45342219D01*
X142372170Y-45360632D01*
X142381349Y-45380038D01*
X142388581Y-45400250D01*
X142393797Y-45421074D01*
X142396947Y-45442309D01*
X142398000Y-45463750D01*
X142398000Y-45976250D01*
X142396947Y-45997691D01*
X142393797Y-46018926D01*
X142388581Y-46039750D01*
X142381349Y-46059962D01*
X142372170Y-46079368D01*
X142361134Y-46097781D01*
X142348346Y-46115024D01*
X142333930Y-46130930D01*
X142318024Y-46145346D01*
X142300781Y-46158134D01*
X142282368Y-46169170D01*
X142262962Y-46178349D01*
X142242750Y-46185581D01*
X142221926Y-46190797D01*
X142200691Y-46193947D01*
X142179250Y-46195000D01*
X141741750Y-46195000D01*
X141720309Y-46193947D01*
X141699074Y-46190797D01*
X141678250Y-46185581D01*
X141658038Y-46178349D01*
X141638632Y-46169170D01*
X141620219Y-46158134D01*
X141602976Y-46145346D01*
X141587070Y-46130930D01*
X141572654Y-46115024D01*
X141559866Y-46097781D01*
X141548830Y-46079368D01*
X141539651Y-46059962D01*
X141532419Y-46039750D01*
X141527203Y-46018926D01*
X141524053Y-45997691D01*
X141523000Y-45976250D01*
X141523000Y-45463750D01*
X141524053Y-45442309D01*
X141527203Y-45421074D01*
X141532419Y-45400250D01*
X141539651Y-45380038D01*
X141548830Y-45360632D01*
X141559866Y-45342219D01*
X141572654Y-45324976D01*
X141587070Y-45309070D01*
X141602976Y-45294654D01*
X141620219Y-45281866D01*
X141638632Y-45270830D01*
X141658038Y-45261651D01*
X141678250Y-45254419D01*
X141699074Y-45249203D01*
X141720309Y-45246053D01*
X141741750Y-45245000D01*
X142179250Y-45245000D01*
X142200691Y-45246053D01*
X142200691Y-45246053D01*
G37*
D19*
X141960500Y-45720000D03*
D10*
G36*
X143775691Y-45246053D02*
G01*
X143796926Y-45249203D01*
X143817750Y-45254419D01*
X143837962Y-45261651D01*
X143857368Y-45270830D01*
X143875781Y-45281866D01*
X143893024Y-45294654D01*
X143908930Y-45309070D01*
X143923346Y-45324976D01*
X143936134Y-45342219D01*
X143947170Y-45360632D01*
X143956349Y-45380038D01*
X143963581Y-45400250D01*
X143968797Y-45421074D01*
X143971947Y-45442309D01*
X143973000Y-45463750D01*
X143973000Y-45976250D01*
X143971947Y-45997691D01*
X143968797Y-46018926D01*
X143963581Y-46039750D01*
X143956349Y-46059962D01*
X143947170Y-46079368D01*
X143936134Y-46097781D01*
X143923346Y-46115024D01*
X143908930Y-46130930D01*
X143893024Y-46145346D01*
X143875781Y-46158134D01*
X143857368Y-46169170D01*
X143837962Y-46178349D01*
X143817750Y-46185581D01*
X143796926Y-46190797D01*
X143775691Y-46193947D01*
X143754250Y-46195000D01*
X143316750Y-46195000D01*
X143295309Y-46193947D01*
X143274074Y-46190797D01*
X143253250Y-46185581D01*
X143233038Y-46178349D01*
X143213632Y-46169170D01*
X143195219Y-46158134D01*
X143177976Y-46145346D01*
X143162070Y-46130930D01*
X143147654Y-46115024D01*
X143134866Y-46097781D01*
X143123830Y-46079368D01*
X143114651Y-46059962D01*
X143107419Y-46039750D01*
X143102203Y-46018926D01*
X143099053Y-45997691D01*
X143098000Y-45976250D01*
X143098000Y-45463750D01*
X143099053Y-45442309D01*
X143102203Y-45421074D01*
X143107419Y-45400250D01*
X143114651Y-45380038D01*
X143123830Y-45360632D01*
X143134866Y-45342219D01*
X143147654Y-45324976D01*
X143162070Y-45309070D01*
X143177976Y-45294654D01*
X143195219Y-45281866D01*
X143213632Y-45270830D01*
X143233038Y-45261651D01*
X143253250Y-45254419D01*
X143274074Y-45249203D01*
X143295309Y-45246053D01*
X143316750Y-45245000D01*
X143754250Y-45245000D01*
X143775691Y-45246053D01*
X143775691Y-45246053D01*
G37*
D19*
X143535500Y-45720000D03*
D10*
G36*
X105852691Y-88026053D02*
G01*
X105873926Y-88029203D01*
X105894750Y-88034419D01*
X105914962Y-88041651D01*
X105934368Y-88050830D01*
X105952781Y-88061866D01*
X105970024Y-88074654D01*
X105985930Y-88089070D01*
X106000346Y-88104976D01*
X106013134Y-88122219D01*
X106024170Y-88140632D01*
X106033349Y-88160038D01*
X106040581Y-88180250D01*
X106045797Y-88201074D01*
X106048947Y-88222309D01*
X106050000Y-88243750D01*
X106050000Y-88681250D01*
X106048947Y-88702691D01*
X106045797Y-88723926D01*
X106040581Y-88744750D01*
X106033349Y-88764962D01*
X106024170Y-88784368D01*
X106013134Y-88802781D01*
X106000346Y-88820024D01*
X105985930Y-88835930D01*
X105970024Y-88850346D01*
X105952781Y-88863134D01*
X105934368Y-88874170D01*
X105914962Y-88883349D01*
X105894750Y-88890581D01*
X105873926Y-88895797D01*
X105852691Y-88898947D01*
X105831250Y-88900000D01*
X105318750Y-88900000D01*
X105297309Y-88898947D01*
X105276074Y-88895797D01*
X105255250Y-88890581D01*
X105235038Y-88883349D01*
X105215632Y-88874170D01*
X105197219Y-88863134D01*
X105179976Y-88850346D01*
X105164070Y-88835930D01*
X105149654Y-88820024D01*
X105136866Y-88802781D01*
X105125830Y-88784368D01*
X105116651Y-88764962D01*
X105109419Y-88744750D01*
X105104203Y-88723926D01*
X105101053Y-88702691D01*
X105100000Y-88681250D01*
X105100000Y-88243750D01*
X105101053Y-88222309D01*
X105104203Y-88201074D01*
X105109419Y-88180250D01*
X105116651Y-88160038D01*
X105125830Y-88140632D01*
X105136866Y-88122219D01*
X105149654Y-88104976D01*
X105164070Y-88089070D01*
X105179976Y-88074654D01*
X105197219Y-88061866D01*
X105215632Y-88050830D01*
X105235038Y-88041651D01*
X105255250Y-88034419D01*
X105276074Y-88029203D01*
X105297309Y-88026053D01*
X105318750Y-88025000D01*
X105831250Y-88025000D01*
X105852691Y-88026053D01*
X105852691Y-88026053D01*
G37*
D19*
X105575000Y-88462500D03*
D10*
G36*
X105852691Y-86451053D02*
G01*
X105873926Y-86454203D01*
X105894750Y-86459419D01*
X105914962Y-86466651D01*
X105934368Y-86475830D01*
X105952781Y-86486866D01*
X105970024Y-86499654D01*
X105985930Y-86514070D01*
X106000346Y-86529976D01*
X106013134Y-86547219D01*
X106024170Y-86565632D01*
X106033349Y-86585038D01*
X106040581Y-86605250D01*
X106045797Y-86626074D01*
X106048947Y-86647309D01*
X106050000Y-86668750D01*
X106050000Y-87106250D01*
X106048947Y-87127691D01*
X106045797Y-87148926D01*
X106040581Y-87169750D01*
X106033349Y-87189962D01*
X106024170Y-87209368D01*
X106013134Y-87227781D01*
X106000346Y-87245024D01*
X105985930Y-87260930D01*
X105970024Y-87275346D01*
X105952781Y-87288134D01*
X105934368Y-87299170D01*
X105914962Y-87308349D01*
X105894750Y-87315581D01*
X105873926Y-87320797D01*
X105852691Y-87323947D01*
X105831250Y-87325000D01*
X105318750Y-87325000D01*
X105297309Y-87323947D01*
X105276074Y-87320797D01*
X105255250Y-87315581D01*
X105235038Y-87308349D01*
X105215632Y-87299170D01*
X105197219Y-87288134D01*
X105179976Y-87275346D01*
X105164070Y-87260930D01*
X105149654Y-87245024D01*
X105136866Y-87227781D01*
X105125830Y-87209368D01*
X105116651Y-87189962D01*
X105109419Y-87169750D01*
X105104203Y-87148926D01*
X105101053Y-87127691D01*
X105100000Y-87106250D01*
X105100000Y-86668750D01*
X105101053Y-86647309D01*
X105104203Y-86626074D01*
X105109419Y-86605250D01*
X105116651Y-86585038D01*
X105125830Y-86565632D01*
X105136866Y-86547219D01*
X105149654Y-86529976D01*
X105164070Y-86514070D01*
X105179976Y-86499654D01*
X105197219Y-86486866D01*
X105215632Y-86475830D01*
X105235038Y-86466651D01*
X105255250Y-86459419D01*
X105276074Y-86454203D01*
X105297309Y-86451053D01*
X105318750Y-86450000D01*
X105831250Y-86450000D01*
X105852691Y-86451053D01*
X105852691Y-86451053D01*
G37*
D19*
X105575000Y-86887500D03*
M02*
