G04 #@! TF.GenerationSoftware,KiCad,Pcbnew,(5.1.0-0)*
G04 #@! TF.CreationDate,2019-05-02T09:23:52-04:00*
G04 #@! TF.ProjectId,Power Board,506f7765-7220-4426-9f61-72642e6b6963,rev?*
G04 #@! TF.SameCoordinates,Original*
G04 #@! TF.FileFunction,Legend,Top*
G04 #@! TF.FilePolarity,Positive*
%FSLAX46Y46*%
G04 Gerber Fmt 4.6, Leading zero omitted, Abs format (unit mm)*
G04 Created by KiCad (PCBNEW (5.1.0-0)) date 2019-05-02 09:23:52*
%MOMM*%
%LPD*%
G04 APERTURE LIST*
%ADD10C,0.300000*%
%ADD11C,0.120000*%
G04 APERTURE END LIST*
D10*
X86266428Y-109428571D02*
X85552142Y-109428571D01*
X85552142Y-107928571D01*
X86766428Y-108642857D02*
X87266428Y-108642857D01*
X87480714Y-109428571D02*
X86766428Y-109428571D01*
X86766428Y-107928571D01*
X87480714Y-107928571D01*
X88123571Y-109428571D02*
X88123571Y-107928571D01*
X88480714Y-107928571D01*
X88695000Y-108000000D01*
X88837857Y-108142857D01*
X88909285Y-108285714D01*
X88980714Y-108571428D01*
X88980714Y-108785714D01*
X88909285Y-109071428D01*
X88837857Y-109214285D01*
X88695000Y-109357142D01*
X88480714Y-109428571D01*
X88123571Y-109428571D01*
X91623571Y-109285714D02*
X91552142Y-109357142D01*
X91337857Y-109428571D01*
X91195000Y-109428571D01*
X90980714Y-109357142D01*
X90837857Y-109214285D01*
X90766428Y-109071428D01*
X90695000Y-108785714D01*
X90695000Y-108571428D01*
X90766428Y-108285714D01*
X90837857Y-108142857D01*
X90980714Y-108000000D01*
X91195000Y-107928571D01*
X91337857Y-107928571D01*
X91552142Y-108000000D01*
X91623571Y-108071428D01*
X92909285Y-108428571D02*
X92909285Y-109428571D01*
X92266428Y-108428571D02*
X92266428Y-109214285D01*
X92337857Y-109357142D01*
X92480714Y-109428571D01*
X92695000Y-109428571D01*
X92837857Y-109357142D01*
X92909285Y-109285714D01*
X93623571Y-109428571D02*
X93623571Y-107928571D01*
X93623571Y-108500000D02*
X93766428Y-108428571D01*
X94052142Y-108428571D01*
X94195000Y-108500000D01*
X94266428Y-108571428D01*
X94337857Y-108714285D01*
X94337857Y-109142857D01*
X94266428Y-109285714D01*
X94195000Y-109357142D01*
X94052142Y-109428571D01*
X93766428Y-109428571D01*
X93623571Y-109357142D01*
X95552142Y-109357142D02*
X95409285Y-109428571D01*
X95123571Y-109428571D01*
X94980714Y-109357142D01*
X94909285Y-109214285D01*
X94909285Y-108642857D01*
X94980714Y-108500000D01*
X95123571Y-108428571D01*
X95409285Y-108428571D01*
X95552142Y-108500000D01*
X95623571Y-108642857D01*
X95623571Y-108785714D01*
X94909285Y-108928571D01*
X97409285Y-109428571D02*
X97409285Y-107928571D01*
X97980714Y-107928571D01*
X98123571Y-108000000D01*
X98195000Y-108071428D01*
X98266428Y-108214285D01*
X98266428Y-108428571D01*
X98195000Y-108571428D01*
X98123571Y-108642857D01*
X97980714Y-108714285D01*
X97409285Y-108714285D01*
X99123571Y-109428571D02*
X98980714Y-109357142D01*
X98909285Y-109285714D01*
X98837857Y-109142857D01*
X98837857Y-108714285D01*
X98909285Y-108571428D01*
X98980714Y-108500000D01*
X99123571Y-108428571D01*
X99337857Y-108428571D01*
X99480714Y-108500000D01*
X99552142Y-108571428D01*
X99623571Y-108714285D01*
X99623571Y-109142857D01*
X99552142Y-109285714D01*
X99480714Y-109357142D01*
X99337857Y-109428571D01*
X99123571Y-109428571D01*
X100123571Y-108428571D02*
X100409285Y-109428571D01*
X100695000Y-108714285D01*
X100980714Y-109428571D01*
X101266428Y-108428571D01*
X102409285Y-109357142D02*
X102266428Y-109428571D01*
X101980714Y-109428571D01*
X101837857Y-109357142D01*
X101766428Y-109214285D01*
X101766428Y-108642857D01*
X101837857Y-108500000D01*
X101980714Y-108428571D01*
X102266428Y-108428571D01*
X102409285Y-108500000D01*
X102480714Y-108642857D01*
X102480714Y-108785714D01*
X101766428Y-108928571D01*
X103123571Y-109428571D02*
X103123571Y-108428571D01*
X103123571Y-108714285D02*
X103195000Y-108571428D01*
X103266428Y-108500000D01*
X103409285Y-108428571D01*
X103552142Y-108428571D01*
X105695000Y-108642857D02*
X105909285Y-108714285D01*
X105980714Y-108785714D01*
X106052142Y-108928571D01*
X106052142Y-109142857D01*
X105980714Y-109285714D01*
X105909285Y-109357142D01*
X105766428Y-109428571D01*
X105195000Y-109428571D01*
X105195000Y-107928571D01*
X105695000Y-107928571D01*
X105837857Y-108000000D01*
X105909285Y-108071428D01*
X105980714Y-108214285D01*
X105980714Y-108357142D01*
X105909285Y-108500000D01*
X105837857Y-108571428D01*
X105695000Y-108642857D01*
X105195000Y-108642857D01*
X106909285Y-109428571D02*
X106766428Y-109357142D01*
X106695000Y-109285714D01*
X106623571Y-109142857D01*
X106623571Y-108714285D01*
X106695000Y-108571428D01*
X106766428Y-108500000D01*
X106909285Y-108428571D01*
X107123571Y-108428571D01*
X107266428Y-108500000D01*
X107337857Y-108571428D01*
X107409285Y-108714285D01*
X107409285Y-109142857D01*
X107337857Y-109285714D01*
X107266428Y-109357142D01*
X107123571Y-109428571D01*
X106909285Y-109428571D01*
X108695000Y-109428571D02*
X108695000Y-108642857D01*
X108623571Y-108500000D01*
X108480714Y-108428571D01*
X108195000Y-108428571D01*
X108052142Y-108500000D01*
X108695000Y-109357142D02*
X108552142Y-109428571D01*
X108195000Y-109428571D01*
X108052142Y-109357142D01*
X107980714Y-109214285D01*
X107980714Y-109071428D01*
X108052142Y-108928571D01*
X108195000Y-108857142D01*
X108552142Y-108857142D01*
X108695000Y-108785714D01*
X109409285Y-109428571D02*
X109409285Y-108428571D01*
X109409285Y-108714285D02*
X109480714Y-108571428D01*
X109552142Y-108500000D01*
X109695000Y-108428571D01*
X109837857Y-108428571D01*
X110980714Y-109428571D02*
X110980714Y-107928571D01*
X110980714Y-109357142D02*
X110837857Y-109428571D01*
X110552142Y-109428571D01*
X110409285Y-109357142D01*
X110337857Y-109285714D01*
X110266428Y-109142857D01*
X110266428Y-108714285D01*
X110337857Y-108571428D01*
X110409285Y-108500000D01*
X110552142Y-108428571D01*
X110837857Y-108428571D01*
X110980714Y-108500000D01*
X112695000Y-108428571D02*
X113052142Y-109428571D01*
X113409285Y-108428571D01*
X114266428Y-107928571D02*
X114409285Y-107928571D01*
X114552142Y-108000000D01*
X114623571Y-108071428D01*
X114695000Y-108214285D01*
X114766428Y-108500000D01*
X114766428Y-108857142D01*
X114695000Y-109142857D01*
X114623571Y-109285714D01*
X114552142Y-109357142D01*
X114409285Y-109428571D01*
X114266428Y-109428571D01*
X114123571Y-109357142D01*
X114052142Y-109285714D01*
X113980714Y-109142857D01*
X113909285Y-108857142D01*
X113909285Y-108500000D01*
X113980714Y-108214285D01*
X114052142Y-108071428D01*
X114123571Y-108000000D01*
X114266428Y-107928571D01*
X115409285Y-109285714D02*
X115480714Y-109357142D01*
X115409285Y-109428571D01*
X115337857Y-109357142D01*
X115409285Y-109285714D01*
X115409285Y-109428571D01*
X116766428Y-108428571D02*
X116766428Y-109428571D01*
X116409285Y-107857142D02*
X116052142Y-108928571D01*
X116980714Y-108928571D01*
X128519285Y-53178571D02*
X128519285Y-51678571D01*
X129090714Y-51678571D01*
X129233571Y-51750000D01*
X129305000Y-51821428D01*
X129376428Y-51964285D01*
X129376428Y-52178571D01*
X129305000Y-52321428D01*
X129233571Y-52392857D01*
X129090714Y-52464285D01*
X128519285Y-52464285D01*
X130662142Y-53178571D02*
X130662142Y-52392857D01*
X130590714Y-52250000D01*
X130447857Y-52178571D01*
X130162142Y-52178571D01*
X130019285Y-52250000D01*
X130662142Y-53107142D02*
X130519285Y-53178571D01*
X130162142Y-53178571D01*
X130019285Y-53107142D01*
X129947857Y-52964285D01*
X129947857Y-52821428D01*
X130019285Y-52678571D01*
X130162142Y-52607142D01*
X130519285Y-52607142D01*
X130662142Y-52535714D01*
X131376428Y-52178571D02*
X131376428Y-53178571D01*
X131376428Y-52321428D02*
X131447857Y-52250000D01*
X131590714Y-52178571D01*
X131805000Y-52178571D01*
X131947857Y-52250000D01*
X132019285Y-52392857D01*
X132019285Y-53178571D01*
X133305000Y-53107142D02*
X133162142Y-53178571D01*
X132876428Y-53178571D01*
X132733571Y-53107142D01*
X132662142Y-52964285D01*
X132662142Y-52392857D01*
X132733571Y-52250000D01*
X132876428Y-52178571D01*
X133162142Y-52178571D01*
X133305000Y-52250000D01*
X133376428Y-52392857D01*
X133376428Y-52535714D01*
X132662142Y-52678571D01*
X134233571Y-53178571D02*
X134090714Y-53107142D01*
X134019285Y-52964285D01*
X134019285Y-51678571D01*
X134733571Y-53107142D02*
X134876428Y-53178571D01*
X135162142Y-53178571D01*
X135305000Y-53107142D01*
X135376428Y-52964285D01*
X135376428Y-52892857D01*
X135305000Y-52750000D01*
X135162142Y-52678571D01*
X134947857Y-52678571D01*
X134805000Y-52607142D01*
X134733571Y-52464285D01*
X134733571Y-52392857D01*
X134805000Y-52250000D01*
X134947857Y-52178571D01*
X135162142Y-52178571D01*
X135305000Y-52250000D01*
X137162142Y-53178571D02*
X137162142Y-51678571D01*
X137733571Y-51678571D01*
X137876428Y-51750000D01*
X137947857Y-51821428D01*
X138019285Y-51964285D01*
X138019285Y-52178571D01*
X137947857Y-52321428D01*
X137876428Y-52392857D01*
X137733571Y-52464285D01*
X137162142Y-52464285D01*
X138519285Y-52178571D02*
X138805000Y-53178571D01*
X139090714Y-52464285D01*
X139376428Y-53178571D01*
X139662142Y-52178571D01*
X140233571Y-53178571D02*
X140233571Y-52178571D01*
X140233571Y-52464285D02*
X140305000Y-52321428D01*
X140376428Y-52250000D01*
X140519285Y-52178571D01*
X140662142Y-52178571D01*
X127376428Y-46178571D02*
X126876428Y-45464285D01*
X126519285Y-46178571D02*
X126519285Y-44678571D01*
X127090714Y-44678571D01*
X127233571Y-44750000D01*
X127305000Y-44821428D01*
X127376428Y-44964285D01*
X127376428Y-45178571D01*
X127305000Y-45321428D01*
X127233571Y-45392857D01*
X127090714Y-45464285D01*
X126519285Y-45464285D01*
X128662142Y-46178571D02*
X128662142Y-45392857D01*
X128590714Y-45250000D01*
X128447857Y-45178571D01*
X128162142Y-45178571D01*
X128019285Y-45250000D01*
X128662142Y-46107142D02*
X128519285Y-46178571D01*
X128162142Y-46178571D01*
X128019285Y-46107142D01*
X127947857Y-45964285D01*
X127947857Y-45821428D01*
X128019285Y-45678571D01*
X128162142Y-45607142D01*
X128519285Y-45607142D01*
X128662142Y-45535714D01*
X129305000Y-46107142D02*
X129447857Y-46178571D01*
X129733571Y-46178571D01*
X129876428Y-46107142D01*
X129947857Y-45964285D01*
X129947857Y-45892857D01*
X129876428Y-45750000D01*
X129733571Y-45678571D01*
X129519285Y-45678571D01*
X129376428Y-45607142D01*
X129305000Y-45464285D01*
X129305000Y-45392857D01*
X129376428Y-45250000D01*
X129519285Y-45178571D01*
X129733571Y-45178571D01*
X129876428Y-45250000D01*
X130590714Y-45178571D02*
X130590714Y-46678571D01*
X130590714Y-45250000D02*
X130733571Y-45178571D01*
X131019285Y-45178571D01*
X131162142Y-45250000D01*
X131233571Y-45321428D01*
X131305000Y-45464285D01*
X131305000Y-45892857D01*
X131233571Y-46035714D01*
X131162142Y-46107142D01*
X131019285Y-46178571D01*
X130733571Y-46178571D01*
X130590714Y-46107142D01*
X131947857Y-46035714D02*
X132019285Y-46107142D01*
X131947857Y-46178571D01*
X131876428Y-46107142D01*
X131947857Y-46035714D01*
X131947857Y-46178571D01*
X133805000Y-46178571D02*
X133805000Y-44678571D01*
X134376428Y-44678571D01*
X134519285Y-44750000D01*
X134590714Y-44821428D01*
X134662142Y-44964285D01*
X134662142Y-45178571D01*
X134590714Y-45321428D01*
X134519285Y-45392857D01*
X134376428Y-45464285D01*
X133805000Y-45464285D01*
X135305000Y-46178571D02*
X135305000Y-45178571D01*
X135305000Y-44678571D02*
X135233571Y-44750000D01*
X135305000Y-44821428D01*
X135376428Y-44750000D01*
X135305000Y-44678571D01*
X135305000Y-44821428D01*
X137162142Y-46178571D02*
X137162142Y-44678571D01*
X137733571Y-44678571D01*
X137876428Y-44750000D01*
X137947857Y-44821428D01*
X138019285Y-44964285D01*
X138019285Y-45178571D01*
X137947857Y-45321428D01*
X137876428Y-45392857D01*
X137733571Y-45464285D01*
X137162142Y-45464285D01*
X138519285Y-45178571D02*
X138805000Y-46178571D01*
X139090714Y-45464285D01*
X139376428Y-46178571D01*
X139662142Y-45178571D01*
X140233571Y-46178571D02*
X140233571Y-45178571D01*
X140233571Y-45464285D02*
X140305000Y-45321428D01*
X140376428Y-45250000D01*
X140519285Y-45178571D01*
X140662142Y-45178571D01*
X91571428Y-46214285D02*
X92285714Y-45714285D01*
X91571428Y-45357142D02*
X93071428Y-45357142D01*
X93071428Y-45928571D01*
X93000000Y-46071428D01*
X92928571Y-46142857D01*
X92785714Y-46214285D01*
X92571428Y-46214285D01*
X92428571Y-46142857D01*
X92357142Y-46071428D01*
X92285714Y-45928571D01*
X92285714Y-45357142D01*
X91571428Y-47500000D02*
X92357142Y-47500000D01*
X92500000Y-47428571D01*
X92571428Y-47285714D01*
X92571428Y-47000000D01*
X92500000Y-46857142D01*
X91642857Y-47500000D02*
X91571428Y-47357142D01*
X91571428Y-47000000D01*
X91642857Y-46857142D01*
X91785714Y-46785714D01*
X91928571Y-46785714D01*
X92071428Y-46857142D01*
X92142857Y-47000000D01*
X92142857Y-47357142D01*
X92214285Y-47500000D01*
X91642857Y-48142857D02*
X91571428Y-48285714D01*
X91571428Y-48571428D01*
X91642857Y-48714285D01*
X91785714Y-48785714D01*
X91857142Y-48785714D01*
X92000000Y-48714285D01*
X92071428Y-48571428D01*
X92071428Y-48357142D01*
X92142857Y-48214285D01*
X92285714Y-48142857D01*
X92357142Y-48142857D01*
X92500000Y-48214285D01*
X92571428Y-48357142D01*
X92571428Y-48571428D01*
X92500000Y-48714285D01*
X92571428Y-49428571D02*
X91071428Y-49428571D01*
X92500000Y-49428571D02*
X92571428Y-49571428D01*
X92571428Y-49857142D01*
X92500000Y-50000000D01*
X92428571Y-50071428D01*
X92285714Y-50142857D01*
X91857142Y-50142857D01*
X91714285Y-50071428D01*
X91642857Y-50000000D01*
X91571428Y-49857142D01*
X91571428Y-49571428D01*
X91642857Y-49428571D01*
X91714285Y-50785714D02*
X91642857Y-50857142D01*
X91571428Y-50785714D01*
X91642857Y-50714285D01*
X91714285Y-50785714D01*
X91571428Y-50785714D01*
X91571428Y-52642857D02*
X93071428Y-52642857D01*
X93071428Y-53214285D01*
X93000000Y-53357142D01*
X92928571Y-53428571D01*
X92785714Y-53500000D01*
X92571428Y-53500000D01*
X92428571Y-53428571D01*
X92357142Y-53357142D01*
X92285714Y-53214285D01*
X92285714Y-52642857D01*
X91571428Y-54142857D02*
X92571428Y-54142857D01*
X93071428Y-54142857D02*
X93000000Y-54071428D01*
X92928571Y-54142857D01*
X93000000Y-54214285D01*
X93071428Y-54142857D01*
X92928571Y-54142857D01*
X84035714Y-37582142D02*
X84250000Y-37653571D01*
X84607142Y-37653571D01*
X84750000Y-37582142D01*
X84821428Y-37510714D01*
X84892857Y-37367857D01*
X84892857Y-37225000D01*
X84821428Y-37082142D01*
X84750000Y-37010714D01*
X84607142Y-36939285D01*
X84321428Y-36867857D01*
X84178571Y-36796428D01*
X84107142Y-36725000D01*
X84035714Y-36582142D01*
X84035714Y-36439285D01*
X84107142Y-36296428D01*
X84178571Y-36225000D01*
X84321428Y-36153571D01*
X84678571Y-36153571D01*
X84892857Y-36225000D01*
X85750000Y-37653571D02*
X85607142Y-37582142D01*
X85535714Y-37510714D01*
X85464285Y-37367857D01*
X85464285Y-36939285D01*
X85535714Y-36796428D01*
X85607142Y-36725000D01*
X85750000Y-36653571D01*
X85964285Y-36653571D01*
X86107142Y-36725000D01*
X86178571Y-36796428D01*
X86250000Y-36939285D01*
X86250000Y-37367857D01*
X86178571Y-37510714D01*
X86107142Y-37582142D01*
X85964285Y-37653571D01*
X85750000Y-37653571D01*
X86678571Y-36653571D02*
X87250000Y-36653571D01*
X86892857Y-37653571D02*
X86892857Y-36367857D01*
X86964285Y-36225000D01*
X87107142Y-36153571D01*
X87250000Y-36153571D01*
X87535714Y-36653571D02*
X88107142Y-36653571D01*
X87750000Y-36153571D02*
X87750000Y-37439285D01*
X87821428Y-37582142D01*
X87964285Y-37653571D01*
X88107142Y-37653571D01*
X84357142Y-40203571D02*
X84357142Y-38703571D01*
X84928571Y-38703571D01*
X85071428Y-38775000D01*
X85142857Y-38846428D01*
X85214285Y-38989285D01*
X85214285Y-39203571D01*
X85142857Y-39346428D01*
X85071428Y-39417857D01*
X84928571Y-39489285D01*
X84357142Y-39489285D01*
X85714285Y-39203571D02*
X86000000Y-40203571D01*
X86285714Y-39489285D01*
X86571428Y-40203571D01*
X86857142Y-39203571D01*
X87428571Y-40203571D02*
X87428571Y-39203571D01*
X87428571Y-39489285D02*
X87500000Y-39346428D01*
X87571428Y-39275000D01*
X87714285Y-39203571D01*
X87857142Y-39203571D01*
X98928571Y-49857142D02*
X100071428Y-49857142D01*
X112678571Y-50107142D02*
X113821428Y-50107142D01*
X113250000Y-50678571D02*
X113250000Y-49535714D01*
X113714285Y-38117857D02*
X113928571Y-38189285D01*
X114000000Y-38260714D01*
X114071428Y-38403571D01*
X114071428Y-38617857D01*
X114000000Y-38760714D01*
X113928571Y-38832142D01*
X113785714Y-38903571D01*
X113214285Y-38903571D01*
X113214285Y-37403571D01*
X113714285Y-37403571D01*
X113857142Y-37475000D01*
X113928571Y-37546428D01*
X114000000Y-37689285D01*
X114000000Y-37832142D01*
X113928571Y-37975000D01*
X113857142Y-38046428D01*
X113714285Y-38117857D01*
X113214285Y-38117857D01*
X115357142Y-38903571D02*
X115357142Y-38117857D01*
X115285714Y-37975000D01*
X115142857Y-37903571D01*
X114857142Y-37903571D01*
X114714285Y-37975000D01*
X115357142Y-38832142D02*
X115214285Y-38903571D01*
X114857142Y-38903571D01*
X114714285Y-38832142D01*
X114642857Y-38689285D01*
X114642857Y-38546428D01*
X114714285Y-38403571D01*
X114857142Y-38332142D01*
X115214285Y-38332142D01*
X115357142Y-38260714D01*
X115857142Y-37903571D02*
X116428571Y-37903571D01*
X116071428Y-37403571D02*
X116071428Y-38689285D01*
X116142857Y-38832142D01*
X116285714Y-38903571D01*
X116428571Y-38903571D01*
X116714285Y-37903571D02*
X117285714Y-37903571D01*
X116928571Y-37403571D02*
X116928571Y-38689285D01*
X117000000Y-38832142D01*
X117142857Y-38903571D01*
X117285714Y-38903571D01*
X117785714Y-38760714D02*
X117857142Y-38832142D01*
X117785714Y-38903571D01*
X117714285Y-38832142D01*
X117785714Y-38760714D01*
X117785714Y-38903571D01*
X113500000Y-41453571D02*
X112642857Y-41453571D01*
X113071428Y-41453571D02*
X113071428Y-39953571D01*
X112928571Y-40167857D01*
X112785714Y-40310714D01*
X112642857Y-40382142D01*
X114785714Y-40453571D02*
X114785714Y-41453571D01*
X114428571Y-39882142D02*
X114071428Y-40953571D01*
X115000000Y-40953571D01*
X115571428Y-41310714D02*
X115642857Y-41382142D01*
X115571428Y-41453571D01*
X115500000Y-41382142D01*
X115571428Y-41310714D01*
X115571428Y-41453571D01*
X116500000Y-40596428D02*
X116357142Y-40525000D01*
X116285714Y-40453571D01*
X116214285Y-40310714D01*
X116214285Y-40239285D01*
X116285714Y-40096428D01*
X116357142Y-40025000D01*
X116500000Y-39953571D01*
X116785714Y-39953571D01*
X116928571Y-40025000D01*
X117000000Y-40096428D01*
X117071428Y-40239285D01*
X117071428Y-40310714D01*
X117000000Y-40453571D01*
X116928571Y-40525000D01*
X116785714Y-40596428D01*
X116500000Y-40596428D01*
X116357142Y-40667857D01*
X116285714Y-40739285D01*
X116214285Y-40882142D01*
X116214285Y-41167857D01*
X116285714Y-41310714D01*
X116357142Y-41382142D01*
X116500000Y-41453571D01*
X116785714Y-41453571D01*
X116928571Y-41382142D01*
X117000000Y-41310714D01*
X117071428Y-41167857D01*
X117071428Y-40882142D01*
X117000000Y-40739285D01*
X116928571Y-40667857D01*
X116785714Y-40596428D01*
X117500000Y-39953571D02*
X118000000Y-41453571D01*
X118500000Y-39953571D01*
D11*
X123316000Y-85718000D02*
X107316000Y-85718000D01*
X123316000Y-100718000D02*
X123316000Y-85718000D01*
X107316000Y-100718000D02*
X123316000Y-100718000D01*
X107316000Y-85718000D02*
X107316000Y-100718000D01*
X137597936Y-92210000D02*
X138802064Y-92210000D01*
X137597936Y-90390000D02*
X138802064Y-90390000D01*
X137597936Y-72410000D02*
X138802064Y-72410000D01*
X137597936Y-70590000D02*
X138802064Y-70590000D01*
X137597936Y-58410000D02*
X138802064Y-58410000D01*
X137597936Y-56590000D02*
X138802064Y-56590000D01*
X86702064Y-91090000D02*
X85497936Y-91090000D01*
X86702064Y-92910000D02*
X85497936Y-92910000D01*
X86702064Y-71290000D02*
X85497936Y-71290000D01*
X86702064Y-73110000D02*
X85497936Y-73110000D01*
X86702064Y-57290000D02*
X85497936Y-57290000D01*
X86702064Y-59110000D02*
X85497936Y-59110000D01*
X109942000Y-79534000D02*
X108942000Y-78534000D01*
X104942000Y-84534000D02*
X109942000Y-84534000D01*
X104942000Y-78534000D02*
X104942000Y-84534000D01*
X108942000Y-78534000D02*
X104942000Y-78534000D01*
X109942000Y-84534000D02*
X109942000Y-79534000D01*
X90672000Y-43310000D02*
X88172000Y-43310000D01*
X90672000Y-46720000D02*
X90672000Y-43310000D01*
X90422000Y-46720000D02*
X90672000Y-46720000D01*
X77452000Y-55830000D02*
X77452000Y-49720000D01*
X90372000Y-55830000D02*
X77452000Y-55830000D01*
X90372000Y-54720000D02*
X90372000Y-55830000D01*
X77452000Y-43610000D02*
X77452000Y-49720000D01*
X90372000Y-43610000D02*
X77452000Y-43610000D01*
X90372000Y-44720000D02*
X90372000Y-43610000D01*
X94446000Y-33996000D02*
X94446000Y-34846000D01*
X92696000Y-33996000D02*
X94446000Y-33996000D01*
X90946000Y-33996000D02*
X90946000Y-34846000D01*
X92696000Y-33996000D02*
X90946000Y-33996000D01*
X89246000Y-34846000D02*
X96246000Y-34846000D01*
X89496000Y-39746000D02*
X95996000Y-39746000D01*
X96246000Y-42046000D02*
X96246000Y-34846000D01*
X89246000Y-42046000D02*
X89246000Y-34846000D01*
X122214000Y-70152000D02*
X121804000Y-70152000D01*
X122214000Y-68932000D02*
X122214000Y-70152000D01*
X121804000Y-68932000D02*
X122214000Y-68932000D01*
X111504000Y-68932000D02*
X111094000Y-68932000D01*
X111094000Y-70152000D02*
X111094000Y-68932000D01*
X111504000Y-70152000D02*
X111094000Y-70152000D01*
X111504000Y-73627563D02*
X112568437Y-74692000D01*
X112568437Y-64392000D02*
X121804000Y-64392000D01*
X110529000Y-66957000D02*
X110529000Y-68207000D01*
X112568437Y-74692000D02*
X121804000Y-74692000D01*
X109904000Y-67582000D02*
X111154000Y-67582000D01*
X111504000Y-65456437D02*
X112568437Y-64392000D01*
X111504000Y-65456437D02*
X111504000Y-68932000D01*
X111504000Y-73627563D02*
X111504000Y-70152000D01*
X121804000Y-74692000D02*
X121804000Y-70152000D01*
X121804000Y-64392000D02*
X121804000Y-68932000D01*
X122214000Y-58522000D02*
X121804000Y-58522000D01*
X122214000Y-57302000D02*
X122214000Y-58522000D01*
X121804000Y-57302000D02*
X122214000Y-57302000D01*
X111504000Y-57302000D02*
X111094000Y-57302000D01*
X111094000Y-58522000D02*
X111094000Y-57302000D01*
X111504000Y-58522000D02*
X111094000Y-58522000D01*
X111504000Y-61997563D02*
X112568437Y-63062000D01*
X112568437Y-52762000D02*
X121804000Y-52762000D01*
X110529000Y-55327000D02*
X110529000Y-56577000D01*
X112568437Y-63062000D02*
X121804000Y-63062000D01*
X109904000Y-55952000D02*
X111154000Y-55952000D01*
X111504000Y-53826437D02*
X112568437Y-52762000D01*
X111504000Y-53826437D02*
X111504000Y-57302000D01*
X111504000Y-61997563D02*
X111504000Y-58522000D01*
X121804000Y-63062000D02*
X121804000Y-58522000D01*
X121804000Y-52762000D02*
X121804000Y-57302000D01*
X97564000Y-68932000D02*
X97974000Y-68932000D01*
X97564000Y-70152000D02*
X97564000Y-68932000D01*
X97974000Y-70152000D02*
X97564000Y-70152000D01*
X108274000Y-70152000D02*
X108684000Y-70152000D01*
X108684000Y-68932000D02*
X108684000Y-70152000D01*
X108274000Y-68932000D02*
X108684000Y-68932000D01*
X108274000Y-65456437D02*
X107209563Y-64392000D01*
X107209563Y-74692000D02*
X97974000Y-74692000D01*
X109249000Y-72127000D02*
X109249000Y-70877000D01*
X107209563Y-64392000D02*
X97974000Y-64392000D01*
X109874000Y-71502000D02*
X108624000Y-71502000D01*
X108274000Y-73627563D02*
X107209563Y-74692000D01*
X108274000Y-73627563D02*
X108274000Y-70152000D01*
X108274000Y-65456437D02*
X108274000Y-68932000D01*
X97974000Y-64392000D02*
X97974000Y-68932000D01*
X97974000Y-74692000D02*
X97974000Y-70152000D01*
X97564000Y-57302000D02*
X97974000Y-57302000D01*
X97564000Y-58522000D02*
X97564000Y-57302000D01*
X97974000Y-58522000D02*
X97564000Y-58522000D01*
X108274000Y-58522000D02*
X108684000Y-58522000D01*
X108684000Y-57302000D02*
X108684000Y-58522000D01*
X108274000Y-57302000D02*
X108684000Y-57302000D01*
X108274000Y-53826437D02*
X107209563Y-52762000D01*
X107209563Y-63062000D02*
X97974000Y-63062000D01*
X109249000Y-60497000D02*
X109249000Y-59247000D01*
X107209563Y-52762000D02*
X97974000Y-52762000D01*
X109874000Y-59872000D02*
X108624000Y-59872000D01*
X108274000Y-61997563D02*
X107209563Y-63062000D01*
X108274000Y-61997563D02*
X108274000Y-58522000D01*
X108274000Y-53826437D02*
X108274000Y-57302000D01*
X97974000Y-52762000D02*
X97974000Y-57302000D01*
X97974000Y-63062000D02*
X97974000Y-58522000D01*
X130390000Y-101350000D02*
X132000000Y-101350000D01*
X130390000Y-99740000D02*
X130390000Y-101350000D01*
X147010000Y-94960000D02*
X145510000Y-94960000D01*
X147010000Y-96600000D02*
X147010000Y-94960000D01*
X145510000Y-96600000D02*
X147010000Y-96600000D01*
X147010000Y-98920000D02*
X145510000Y-98920000D01*
X147010000Y-100560000D02*
X147010000Y-98920000D01*
X145510000Y-100560000D02*
X147010000Y-100560000D01*
X139310000Y-101800000D02*
X135890000Y-101800000D01*
X139310000Y-100750000D02*
X139310000Y-101800000D01*
X145510000Y-100750000D02*
X139310000Y-100750000D01*
X145510000Y-94770000D02*
X145510000Y-100750000D01*
X139310000Y-94770000D02*
X145510000Y-94770000D01*
X139310000Y-93720000D02*
X139310000Y-94770000D01*
X135890000Y-93720000D02*
X139310000Y-93720000D01*
X135890000Y-101800000D02*
X135890000Y-93720000D01*
X130390000Y-81508000D02*
X132000000Y-81508000D01*
X130390000Y-79898000D02*
X130390000Y-81508000D01*
X147010000Y-75118000D02*
X145510000Y-75118000D01*
X147010000Y-76758000D02*
X147010000Y-75118000D01*
X145510000Y-76758000D02*
X147010000Y-76758000D01*
X147010000Y-79078000D02*
X145510000Y-79078000D01*
X147010000Y-80718000D02*
X147010000Y-79078000D01*
X145510000Y-80718000D02*
X147010000Y-80718000D01*
X139310000Y-81958000D02*
X135890000Y-81958000D01*
X139310000Y-80908000D02*
X139310000Y-81958000D01*
X145510000Y-80908000D02*
X139310000Y-80908000D01*
X145510000Y-74928000D02*
X145510000Y-80908000D01*
X139310000Y-74928000D02*
X145510000Y-74928000D01*
X139310000Y-73878000D02*
X139310000Y-74928000D01*
X135890000Y-73878000D02*
X139310000Y-73878000D01*
X135890000Y-81958000D02*
X135890000Y-73878000D01*
X130390000Y-67508000D02*
X132000000Y-67508000D01*
X130390000Y-65898000D02*
X130390000Y-67508000D01*
X147010000Y-61118000D02*
X145510000Y-61118000D01*
X147010000Y-62758000D02*
X147010000Y-61118000D01*
X145510000Y-62758000D02*
X147010000Y-62758000D01*
X147010000Y-65078000D02*
X145510000Y-65078000D01*
X147010000Y-66718000D02*
X147010000Y-65078000D01*
X145510000Y-66718000D02*
X147010000Y-66718000D01*
X139310000Y-67958000D02*
X135890000Y-67958000D01*
X139310000Y-66908000D02*
X139310000Y-67958000D01*
X145510000Y-66908000D02*
X139310000Y-66908000D01*
X145510000Y-60928000D02*
X145510000Y-66908000D01*
X139310000Y-60928000D02*
X145510000Y-60928000D01*
X139310000Y-59878000D02*
X139310000Y-60928000D01*
X135890000Y-59878000D02*
X139310000Y-59878000D01*
X135890000Y-67958000D02*
X135890000Y-59878000D01*
X93610000Y-94170000D02*
X92000000Y-94170000D01*
X93610000Y-95780000D02*
X93610000Y-94170000D01*
X76990000Y-100560000D02*
X78490000Y-100560000D01*
X76990000Y-98920000D02*
X76990000Y-100560000D01*
X78490000Y-98920000D02*
X76990000Y-98920000D01*
X76990000Y-96600000D02*
X78490000Y-96600000D01*
X76990000Y-94960000D02*
X76990000Y-96600000D01*
X78490000Y-94960000D02*
X76990000Y-94960000D01*
X84690000Y-93720000D02*
X88110000Y-93720000D01*
X84690000Y-94770000D02*
X84690000Y-93720000D01*
X78490000Y-94770000D02*
X84690000Y-94770000D01*
X78490000Y-100750000D02*
X78490000Y-94770000D01*
X84690000Y-100750000D02*
X78490000Y-100750000D01*
X84690000Y-101800000D02*
X84690000Y-100750000D01*
X88110000Y-101800000D02*
X84690000Y-101800000D01*
X88110000Y-93720000D02*
X88110000Y-101800000D01*
X93610000Y-74328000D02*
X92000000Y-74328000D01*
X93610000Y-75938000D02*
X93610000Y-74328000D01*
X76990000Y-80718000D02*
X78490000Y-80718000D01*
X76990000Y-79078000D02*
X76990000Y-80718000D01*
X78490000Y-79078000D02*
X76990000Y-79078000D01*
X76990000Y-76758000D02*
X78490000Y-76758000D01*
X76990000Y-75118000D02*
X76990000Y-76758000D01*
X78490000Y-75118000D02*
X76990000Y-75118000D01*
X84690000Y-73878000D02*
X88110000Y-73878000D01*
X84690000Y-74928000D02*
X84690000Y-73878000D01*
X78490000Y-74928000D02*
X84690000Y-74928000D01*
X78490000Y-80908000D02*
X78490000Y-74928000D01*
X84690000Y-80908000D02*
X78490000Y-80908000D01*
X84690000Y-81958000D02*
X84690000Y-80908000D01*
X88110000Y-81958000D02*
X84690000Y-81958000D01*
X88110000Y-73878000D02*
X88110000Y-81958000D01*
X93610000Y-60328000D02*
X92000000Y-60328000D01*
X93610000Y-61938000D02*
X93610000Y-60328000D01*
X76990000Y-66718000D02*
X78490000Y-66718000D01*
X76990000Y-65078000D02*
X76990000Y-66718000D01*
X78490000Y-65078000D02*
X76990000Y-65078000D01*
X76990000Y-62758000D02*
X78490000Y-62758000D01*
X76990000Y-61118000D02*
X76990000Y-62758000D01*
X78490000Y-61118000D02*
X76990000Y-61118000D01*
X84690000Y-59878000D02*
X88110000Y-59878000D01*
X84690000Y-60928000D02*
X84690000Y-59878000D01*
X78490000Y-60928000D02*
X84690000Y-60928000D01*
X78490000Y-66908000D02*
X78490000Y-60928000D01*
X84690000Y-66908000D02*
X78490000Y-66908000D01*
X84690000Y-67958000D02*
X84690000Y-66908000D01*
X88110000Y-67958000D02*
X84690000Y-67958000D01*
X88110000Y-59878000D02*
X88110000Y-67958000D01*
X111592000Y-51648000D02*
X111592000Y-50038000D01*
X109982000Y-51648000D02*
X111592000Y-51648000D01*
X101242000Y-35028000D02*
X101242000Y-36528000D01*
X102882000Y-35028000D02*
X101242000Y-35028000D01*
X102882000Y-36528000D02*
X102882000Y-35028000D01*
X105202000Y-35028000D02*
X105202000Y-36528000D01*
X106842000Y-35028000D02*
X105202000Y-35028000D01*
X106842000Y-36528000D02*
X106842000Y-35028000D01*
X109162000Y-35028000D02*
X109162000Y-36528000D01*
X110802000Y-35028000D02*
X109162000Y-35028000D01*
X110802000Y-36528000D02*
X110802000Y-35028000D01*
X112042000Y-42728000D02*
X112042000Y-46148000D01*
X110992000Y-42728000D02*
X112042000Y-42728000D01*
X110992000Y-36528000D02*
X110992000Y-42728000D01*
X101052000Y-36528000D02*
X110992000Y-36528000D01*
X101052000Y-42728000D02*
X101052000Y-36528000D01*
X100002000Y-42728000D02*
X101052000Y-42728000D01*
X100002000Y-46148000D02*
X100002000Y-42728000D01*
X112042000Y-46148000D02*
X100002000Y-46148000D01*
X113640000Y-78647936D02*
X113640000Y-79852064D01*
X115460000Y-78647936D02*
X115460000Y-79852064D01*
X127360000Y-93102064D02*
X127360000Y-91897936D01*
X124640000Y-93102064D02*
X124640000Y-91897936D01*
X124640000Y-98397936D02*
X124640000Y-99602064D01*
X127360000Y-98397936D02*
X127360000Y-99602064D01*
X104742064Y-93128000D02*
X103537936Y-93128000D01*
X104742064Y-95848000D02*
X103537936Y-95848000D01*
X104736064Y-97954000D02*
X103531936Y-97954000D01*
X104736064Y-100674000D02*
X103531936Y-100674000D01*
X104761064Y-101557000D02*
X103556936Y-101557000D01*
X104761064Y-103377000D02*
X103556936Y-103377000D01*
X110914000Y-78656936D02*
X110914000Y-79861064D01*
X112734000Y-78656936D02*
X112734000Y-79861064D01*
X104908578Y-89640000D02*
X104391422Y-89640000D01*
X104908578Y-91060000D02*
X104391422Y-91060000D01*
X104398578Y-76252000D02*
X103881422Y-76252000D01*
X104398578Y-77672000D02*
X103881422Y-77672000D01*
X142919267Y-49274000D02*
X142576733Y-49274000D01*
X142919267Y-50294000D02*
X142576733Y-50294000D01*
X142919267Y-47242000D02*
X142576733Y-47242000D01*
X142919267Y-48262000D02*
X142576733Y-48262000D01*
X141263000Y-53313000D02*
X143548000Y-53313000D01*
X141263000Y-51843000D02*
X141263000Y-53313000D01*
X143548000Y-51843000D02*
X141263000Y-51843000D01*
X144233000Y-44985000D02*
X141948000Y-44985000D01*
X144233000Y-46455000D02*
X144233000Y-44985000D01*
X141948000Y-46455000D02*
X144233000Y-46455000D01*
X105065000Y-87512221D02*
X105065000Y-87837779D01*
X106085000Y-87512221D02*
X106085000Y-87837779D01*
M02*
